<svg id="Layer_1" data-name="Layer 1" xmlns="http://www.w3.org/2000/svg" viewBox="0 0 720 200"><defs><style>.cls-1{fill:#243268;}.cls-2{fill:none;}.cls-3{fill:#47c4d9;}.cls-4{fill:#ef4752;}.cls-5{fill:#fff;}.cls-6{fill:#e6e7e8;}.cls-7{fill:#939598;}</style></defs><rect class="cls-1" x="-8.46" y="-9.17" width="736.91" height="218.34"/><rect class="cls-2" x="72.87" y="42.71" width="158.65" height="109.63"/><path class="cls-3" d="M207,122.08H195.45A43.16,43.16,0,0,0,152.2,78.82V67.3A54.68,54.68,0,0,1,207,122.08Z"/><path class="cls-4" d="M231.49,122.08H220A67.81,67.81,0,0,0,152.2,54.24V42.71a79.35,79.35,0,0,1,79.29,79.37Z"/><path class="cls-5" d="M152.2,152.35a30.31,30.31,0,1,1,30.27-30.27A30.31,30.31,0,0,1,152.2,152.35Zm0-49.1a18.6,18.6,0,0,0-10.47,3.21,18.73,18.73,0,1,0,10.47-3.21Z"/><rect class="cls-6" x="440.35" y="124.11" width="32.71" height="27.35" transform="translate(913.41 275.57) rotate(-180)"/><rect class="cls-6" x="492.19" y="124.11" width="32.71" height="27.35" transform="translate(1017.08 275.57) rotate(-180)"/><rect class="cls-6" x="595.29" y="124.11" width="32.71" height="27.35"/><rect class="cls-6" x="524.9" y="91.29" width="18.55" height="60.17"/><polygon class="cls-3" points="534.17 62.73 531.57 62.73 524.9 91.29 534.17 91.29 534.17 62.73"/><polygon class="cls-3" points="534.17 62.73 536.77 62.73 543.45 91.29 534.17 91.29 534.17 62.73"/><rect class="cls-6" x="543.45" y="124.11" width="32.71" height="27.35"/><polygon class="cls-7" points="543.45 124.11 543.45 124.11 543.45 151.46 557.34 151.46 543.45 124.11"/><polygon class="cls-7" points="595.29 124.11 595.29 124.11 595.29 151.46 609.18 151.46 595.29 124.11"/><polygon class="cls-7" points="440.2 124.11 440.2 124.11 440.2 151.46 454.09 151.46 440.2 124.11"/><polygon class="cls-7" points="492.03 124.11 492.03 124.11 492.03 151.46 505.93 151.46 492.03 124.11"/><rect class="cls-6" x="576.16" y="114.55" width="19.12" height="36.91"/><rect class="cls-6" x="628" y="114.55" width="19.12" height="36.91"/><polygon class="cls-3" points="590.21 104.48 581.24 104.48 576.16 114.55 595.29 114.55 590.21 104.48"/><polygon class="cls-3" points="642.05 104.48 633.08 104.48 628 114.55 647.13 114.55 642.05 104.48"/><rect class="cls-3" x="543.45" y="114.55" width="32.71" height="9.56"/><rect class="cls-3" x="595.29" y="114.55" width="32.71" height="9.56"/><rect class="cls-6" x="473.06" y="114.55" width="19.12" height="36.91" transform="translate(965.25 266.01) rotate(-180)"/><rect class="cls-6" x="421.22" y="114.55" width="19.12" height="36.91" transform="translate(861.57 266.01) rotate(-180)"/><polygon class="cls-3" points="478.14 104.48 487.11 104.48 492.19 114.55 473.06 114.55 478.14 104.48"/><polygon class="cls-3" points="426.3 104.48 435.27 104.48 440.35 114.55 421.22 114.55 426.3 104.48"/><rect class="cls-3" x="492.19" y="114.55" width="32.71" height="9.56" transform="translate(1017.08 238.66) rotate(-180)"/><rect class="cls-3" x="440.35" y="114.55" width="32.71" height="9.56" transform="translate(913.41 238.66) rotate(-180)"/><rect class="cls-4" x="534.17" y="42.55" width="23.17" height="13.89"/><rect class="cls-5" x="319.22" y="84.13" width="10.44" height="55.17"/><rect class="cls-5" x="319.22" y="84.13" width="10.44" height="55.17" transform="translate(212.73 436.15) rotate(-90)"/></svg>