<svg id="Layer_1" data-name="Layer 1" xmlns="http://www.w3.org/2000/svg" viewBox="0 0 720 200"><defs><style>.cls-1,.cls-6{fill:#ef4752;}.cls-2{fill:#47c4d9;}.cls-3{fill:#faae42;}.cls-4{fill:#fff;}.cls-5{fill:#2a9cd8;}.cls-6{stroke:#fff;stroke-miterlimit:10;stroke-width:5.62px;}</style></defs><rect class="cls-1" x="-8.46" y="-9.17" width="736.91" height="218.34"/><rect class="cls-2" x="314.81" y="126.32" width="12.05" height="34"/><rect class="cls-2" x="405.19" y="101.48" width="12.05" height="33.42"/><rect class="cls-3" x="302.76" y="98.75" width="24.1" height="24.1"/><rect class="cls-4" x="338.91" y="126.32" width="24.1" height="24.1"/><rect class="cls-4" x="326.86" y="126.32" width="24.1" height="24.1"/><rect class="cls-4" x="381.09" y="110.8" width="24.1" height="24.1"/><rect class="cls-4" x="338.91" y="86.7" width="24.1" height="24.1"/><rect class="cls-4" x="363.01" y="86.7" width="24.1" height="24.1"/><rect class="cls-2" x="314.81" y="86.7" width="24.1" height="24.1"/><rect class="cls-2" x="350.96" y="86.7" width="24.1" height="24.1"/><rect class="cls-2" x="387.11" y="74.65" width="24.1" height="24.1"/><rect class="cls-3" x="387.11" y="50.69" width="24.1" height="24.1"/><rect class="cls-4" x="338.91" y="110.8" width="24.1" height="24.1"/><rect class="cls-4" x="363.01" y="110.8" width="24.1" height="24.1"/><rect class="cls-3" x="326.86" y="51.21" width="24.1" height="35.63"/><rect class="cls-3" x="350.96" y="51.21" width="24.1" height="35.63"/><rect class="cls-3" x="375.06" y="69.26" width="12.05" height="12.05"/><rect class="cls-5" x="326.86" y="39.68" width="48.2" height="11.53"/><rect class="cls-5" x="326.86" y="39.68" width="13.66" height="29.58"/><rect class="cls-5" x="350.96" y="60.07" width="8.03" height="14.58"/><rect class="cls-6" x="515.57" y="153.24" width="52.11" height="52.11"/><rect class="cls-6" x="567.68" y="153.24" width="52.11" height="52.11"/><rect class="cls-6" x="619.79" y="153.24" width="52.11" height="52.11"/><rect class="cls-6" x="671.9" y="153.24" width="52.11" height="52.11"/><rect class="cls-6" x="567.68" y="101.13" width="52.11" height="52.11"/><rect class="cls-6" x="619.79" y="101.13" width="52.11" height="52.11"/><rect class="cls-6" x="671.9" y="101.13" width="52.11" height="52.11"/><rect class="cls-6" x="619.79" y="49.2" width="52.11" height="52.11"/><rect class="cls-6" x="671.9" y="49.2" width="52.11" height="52.11"/><rect class="cls-6" x="671.9" y="-2.92" width="52.11" height="52.11"/></svg>