<svg xmlns="http://www.w3.org/2000/svg" id="Layer_1" data-name="Layer 1" viewBox="0 0 720 200"><defs><style>.cls-1,.cls-6{fill:#ef4752}.cls-2{fill:#47c4d9}.cls-3{fill:#faae42}.cls-4{fill:#fff}.cls-5{fill:#2a9cd8}.cls-6{stroke:#fff;stroke-miterlimit:10;stroke-width:5.62px}</style></defs><rect width="736.91" height="218.34" x="-8.46" y="-9.17" class="cls-1"/><rect width="12.05" height="34" x="314.81" y="126.32" class="cls-2"/><rect width="12.05" height="33.42" x="405.19" y="101.48" class="cls-2"/><rect width="24.1" height="24.1" x="302.76" y="98.75" class="cls-3"/><rect width="24.1" height="24.1" x="338.91" y="126.32" class="cls-4"/><rect width="24.1" height="24.1" x="326.86" y="126.32" class="cls-4"/><rect width="24.1" height="24.1" x="381.09" y="110.8" class="cls-4"/><rect width="24.1" height="24.1" x="338.91" y="86.7" class="cls-4"/><rect width="24.1" height="24.1" x="363.01" y="86.7" class="cls-4"/><rect width="24.1" height="24.1" x="314.81" y="86.7" class="cls-2"/><rect width="24.1" height="24.1" x="350.96" y="86.7" class="cls-2"/><rect width="24.1" height="24.1" x="387.11" y="74.65" class="cls-2"/><rect width="24.1" height="24.1" x="387.11" y="50.69" class="cls-3"/><rect width="24.1" height="24.1" x="338.91" y="110.8" class="cls-4"/><rect width="24.1" height="24.1" x="363.01" y="110.8" class="cls-4"/><rect width="24.1" height="35.63" x="326.86" y="51.21" class="cls-3"/><rect width="24.1" height="35.63" x="350.96" y="51.21" class="cls-3"/><rect width="12.05" height="12.05" x="375.06" y="69.26" class="cls-3"/><rect width="48.2" height="11.53" x="326.86" y="39.68" class="cls-5"/><rect width="13.66" height="29.58" x="326.86" y="39.68" class="cls-5"/><rect width="8.03" height="14.58" x="350.96" y="60.07" class="cls-5"/><rect width="52.11" height="52.11" x="515.57" y="153.24" class="cls-6"/><rect width="52.11" height="52.11" x="567.68" y="153.24" class="cls-6"/><rect width="52.11" height="52.11" x="619.79" y="153.24" class="cls-6"/><rect width="52.11" height="52.11" x="671.9" y="153.24" class="cls-6"/><rect width="52.11" height="52.11" x="567.68" y="101.13" class="cls-6"/><rect width="52.11" height="52.11" x="619.79" y="101.13" class="cls-6"/><rect width="52.11" height="52.11" x="671.9" y="101.13" class="cls-6"/><rect width="52.11" height="52.11" x="619.79" y="49.2" class="cls-6"/><rect width="52.11" height="52.11" x="671.9" y="49.2" class="cls-6"/><rect width="52.11" height="52.11" x="671.9" y="-2.92" class="cls-6"/></svg>