<svg xmlns="http://www.w3.org/2000/svg" id="Layer_1" data-name="Layer 1" viewBox="0 0 720 200"><defs><style>.cls-1{fill:#243268}.cls-2{fill:#4e9bd5}.cls-3{fill:#ef4752}.cls-4{fill:#fff}.cls-5{fill:#47c4d9}</style></defs><rect width="736.91" height="218.34" x="-8.46" y="-9.17" class="cls-1"/><polygon points="397.63 100 360 165.17 435.25 165.17 397.63 100" class="cls-2"/><polygon points="322.37 100 284.75 165.17 360 165.17 322.37 100" class="cls-2"/><polygon points="360 165.17 397.63 100 322.37 100 360 165.17" class="cls-2"/><polygon points="360 34.83 397.63 100 322.37 100 360 34.83" class="cls-2"/><polygon points="397.63 100 360 165.17 435.25 165.17 397.63 100" class="cls-2"/><polygon points="322.37 100 284.75 165.17 360 165.17 322.37 100" class="cls-3"/><polygon points="360 165.17 397.63 100 322.37 100 360 165.17" class="cls-4"/><polygon points="360 34.83 397.63 100 322.37 100 360 34.83" class="cls-5"/></svg>