<svg xmlns="http://www.w3.org/2000/svg" xmlns:xlink="http://www.w3.org/1999/xlink" viewBox="0 0 2520 803.47"><defs><style>.cls-1,.cls-10,.cls-11,.cls-12,.cls-13,.cls-14,.cls-15,.cls-16,.cls-17,.cls-18,.cls-19,.cls-2,.cls-20,.cls-21,.cls-22,.cls-23,.cls-24,.cls-25,.cls-26,.cls-27,.cls-28,.cls-29,.cls-3,.cls-30,.cls-31,.cls-32,.cls-33,.cls-34,.cls-35,.cls-36,.cls-4,.cls-5,.cls-6,.cls-7,.cls-8,.cls-9{fill:none}.cls-10,.cls-11,.cls-12,.cls-13,.cls-14,.cls-15,.cls-16,.cls-17,.cls-18,.cls-2,.cls-22,.cls-23,.cls-24,.cls-25,.cls-26,.cls-27,.cls-29,.cls-3,.cls-30,.cls-31,.cls-32,.cls-33,.cls-34,.cls-35,.cls-37,.cls-38,.cls-39,.cls-4,.cls-40,.cls-41,.cls-42,.cls-43,.cls-44,.cls-45,.cls-46,.cls-47,.cls-48,.cls-49,.cls-5,.cls-50,.cls-51,.cls-52,.cls-53,.cls-54,.cls-55,.cls-56,.cls-57,.cls-58,.cls-59,.cls-6,.cls-60,.cls-61,.cls-62,.cls-63,.cls-64,.cls-65,.cls-66,.cls-67,.cls-68,.cls-69,.cls-7,.cls-8,.cls-9{stroke-linejoin:round}.cls-10,.cls-17,.cls-18,.cls-2,.cls-20,.cls-25,.cls-27,.cls-3,.cls-30,.cls-37,.cls-38,.cls-39,.cls-40,.cls-41,.cls-42,.cls-43,.cls-44,.cls-45,.cls-46,.cls-47,.cls-48,.cls-5,.cls-50,.cls-52,.cls-54,.cls-55,.cls-56,.cls-57,.cls-58,.cls-59,.cls-60,.cls-61,.cls-62,.cls-65,.cls-66,.cls-67,.cls-68,.cls-69,.cls-70{stroke:#10172d}.cls-18,.cls-27,.cls-37,.cls-38,.cls-39,.cls-40,.cls-41,.cls-42,.cls-43{stroke-width:12.5px}.cls-37,.cls-47,.cls-56,.cls-66,.cls-71{fill:#469ee1}.cls-38,.cls-53,.cls-59,.cls-60,.cls-72{fill:#d84190}.cls-39,.cls-50,.cls-52,.cls-58,.cls-61,.cls-73{fill:#e25456}.cls-40,.cls-74{fill:#d9e9f6}.cls-41,.cls-44,.cls-69,.cls-75{fill:#1f3269}.cls-42,.cls-45,.cls-57,.cls-67,.cls-76{fill:#51e7f2}.cls-43,.cls-48,.cls-49,.cls-51,.cls-55,.cls-63,.cls-64,.cls-65,.cls-70,.cls-77{fill:#fff}.cls-10,.cls-11,.cls-12,.cls-13,.cls-17,.cls-2,.cls-22,.cls-28,.cls-3,.cls-36,.cls-44,.cls-9{stroke-linecap:round}.cls-11,.cls-12,.cls-13,.cls-23,.cls-24,.cls-25,.cls-26,.cls-28,.cls-3,.cls-44,.cls-51,.cls-52,.cls-53,.cls-9{stroke-width:5px}.cls-14,.cls-15,.cls-16,.cls-36,.cls-45,.cls-46,.cls-47,.cls-48,.cls-49,.cls-50{stroke-width:7.5px}.cls-46,.cls-54,.cls-62,.cls-78{fill:#9fc363}.cls-12,.cls-15,.cls-23,.cls-28,.cls-34,.cls-49,.cls-64,.cls-7{stroke:#469ee1}.cls-79{clip-path:url(#clippath)}.cls-2{stroke-dasharray:0 0 0 38.44}.cls-10,.cls-2{stroke-width:11.9px}.cls-68,.cls-80{fill:#10172d}.cls-81{fill:#355493}.cls-11,.cls-16,.cls-19,.cls-24,.cls-35,.cls-51,.cls-8{stroke:#51e7f2}.cls-53{stroke:#d9e9f6}.cls-4,.cls-5,.cls-54,.cls-55,.cls-56,.cls-57,.cls-58,.cls-59,.cls-6,.cls-7,.cls-8{stroke-width:15px}.cls-29,.cls-4{stroke:#1f3269}.cls-14,.cls-22,.cls-32,.cls-6,.cls-63{stroke:#e25456}.cls-21,.cls-26,.cls-31,.cls-36,.cls-9{stroke:#fff}.cls-17,.cls-19,.cls-20,.cls-21,.cls-22,.cls-29,.cls-30,.cls-31,.cls-32,.cls-33,.cls-34,.cls-35,.cls-60,.cls-61,.cls-62,.cls-63,.cls-64,.cls-65,.cls-66,.cls-67,.cls-68,.cls-69,.cls-70{stroke-width:10px}.cls-19,.cls-20,.cls-21,.cls-28,.cls-36,.cls-70{stroke-miterlimit:10}.cls-13,.cls-33{stroke:#d84190}.cls-82{clip-path:url(#clippath-1)}.cls-83{clip-path:url(#clippath-4)}.cls-84{clip-path:url(#clippath-3)}.cls-85{clip-path:url(#clippath-2)}.cls-86{clip-path:url(#clippath-7)}.cls-87{clip-path:url(#clippath-8)}.cls-88{clip-path:url(#clippath-6)}.cls-89{clip-path:url(#clippath-5)}.cls-90{clip-path:url(#clippath-9)}.cls-18{stroke-dasharray:0 20}.cls-91{clip-path:url(#clippath-10)}.cls-92{clip-path:url(#clippath-11)}</style><clipPath id="clippath"><path d="M1742.41,749.58h67.04v45.96h-113c0-25.37,20.6-45.96,45.96-45.96Z" class="cls-43"/></clipPath><clipPath id="clippath-1"><rect width="86.67" height="86.67" x="2064.69" y="53.41" class="cls-1" transform="translate(685.83 -1462.27) rotate(45)"/></clipPath><clipPath id="clippath-2"><path d="M875.42,99.01h118.97c14.54,0,26.35,11.81,26.35,26.35v15.45h-103.52c-23.07,0-41.8-18.73-41.8-41.8h0Z" class="cls-39"/></clipPath><clipPath id="clippath-3"><path d="M1550.16,340.62c0-31.08-25.19-56.27-56.27-56.27s-56.27,25.19-56.27,56.27h112.55Z" class="cls-59"/></clipPath><clipPath id="clippath-4"><circle cx="185.59" cy="542.26" r="40.69" class="cls-54"/></clipPath><clipPath id="clippath-5"><path d="M262.3,579.93h228.26c17.86,0,32.35,14.5,32.35,32.35v38.98h-228.26c-17.86,0-32.35-14.5-32.35-32.35v-38.98h0Z" class="cls-58" transform="translate(785.22 1231.21) rotate(-180)"/></clipPath><clipPath id="clippath-6"><path d="M1176.63,575.78h462.66c18.53,0,33.58,15.05,33.58,33.58v28.43h-460.66c-19.64,0-35.58-15.94-35.58-35.58v-26.43h0Z" class="cls-56"/></clipPath><clipPath id="clippath-7"><rect width="161.02" height="142.79" x="1732.86" y="606.79" class="cls-39"/></clipPath><clipPath id="clippath-8"><polygon points="2295.94 529.66 2295.94 429.41 2371.77 459.74 2371.77 560 2295.94 529.66" class="cls-44"/></clipPath><clipPath id="clippath-9"><path d="M628.68,99.4v48.4c0,6.86,5.56,12.42,12.42,12.42h34.12l20.29,27.54,19.49-27.54h34.93c6.86,0,12.42-5.56,12.42-12.42v-48.4c0-6.86-5.56-12.42-12.42-12.42h-108.83c-6.86,0-12.42,5.56-12.42,12.42Z" class="cls-43"/></clipPath><clipPath id="clippath-10"><rect width="62.85" height="170.98" x="1462.46" y="113.37" class="cls-38" rx="31.42" ry="31.42"/></clipPath><clipPath id="clippath-11"><path d="M1826.85,749.58h67.04v45.96h-113c0-25.37,20.6-45.96,45.96-45.96Z" class="cls-43"/></clipPath></defs><g id="bnw"><path d="M1550.16,332.12c0-31.08-25.19-56.27-56.27-56.27s-56.27,25.19-56.27,56.27h112.55Z" class="cls-5"/><path d="M1493.88,113.37v-34.13c38.4,0,69.54,31.13,69.54,69.54h-34.13" class="cls-43"/><g><path d="M305.67,74.4h38.25v18.74c0,7.62-6.18,13.8-13.8,13.8h-10.65c-7.62,0-13.8-6.18-13.8-13.8v-18.74h0Z" class="cls-48"/><path d="M315.23,85.48v-21.87c0-3.17-2.14-5.74-4.78-5.74h0c-2.64,0-4.78,2.57-4.78,5.74v27.34" class="cls-48"/><path d="M324.8,85.48v-27.34c0-3.17-2.14-5.74-4.78-5.74h0c-2.64,0-4.78,2.57-4.78,5.74v27.34" class="cls-48"/><path d="M334.36,83.03v-27.34c0-3.17-2.14-5.74-4.78-5.74h0c-2.64,0-4.78,2.57-4.78,5.74v27.34" class="cls-48"/><path d="M343.92,87.19v-27.34c0-3.17-2.14-5.74-4.78-5.74h0c-2.64,0-4.78,2.57-4.78,5.74v25.62" class="cls-48"/></g><path d="M890.92,637.42H121.08c-14.06,0-25.46-11.4-25.46-25.46v-206.74H231.66c14.18,0,25.67-11.49,25.67-25.67V168.84c0-15.26,12.37-27.63,27.63-27.63h250.59c33.71,0,61.03,27.33,61.03,61.03h0c0,33.71-27.33,61.03-61.03,61.03h-94.33v252.1c0,13.99,11.34,25.34,25.34,25.34h464.33c13.4,0,24.27-10.87,24.27-24.27v-59.77c0-16.63,13.48-30.1,30.1-30.1h142.41v-105.19c0-32.09-26.01-58.1-58.1-58.1h-209.37c-33.71,0-61.03-27.33-61.03-61.03h0c0-33.71,27.33-61.03,61.03-61.03h456.5c32.19,0,58.28,26.09,58.28,58.28V487.66c0,12.67-10.27,22.94-22.94,22.94h-305.24v96.26c0,16.88,13.68,30.56,30.56,30.56h460.22v-233.43c0-21.99,17.83-39.82,39.82-39.82h321.93c12.48,0,22.59-10.11,22.59-22.59v-92.17c0-12.48-10.11-22.59-22.59-22.59h-85.64c-24.78,0-44.87-20.09-44.87-44.87v-35.9h252.24c38.93,0,70.49,31.56,70.49,70.49V476.87c0,16.87,13.68,30.55,30.55,30.55h92.67c16.87,0,30.55-13.68,30.55-30.55V141.21l187.07,78.36v373c0,24.77-20.08,44.84-44.84,44.84h-414.7" class="cls-5"/><rect width="52.68" height="102.11" x="1626.23" y="336.66" class="cls-43" rx="6.91" ry="6.91"/><circle cx="1958.18" cy="637.42" r="14.66" class="cls-70"/><circle cx="1537.62" cy="465.46" r="14.66" class="cls-70"/><circle cx="1127.3" cy="424.25" r="14.66" class="cls-70"/><path d="M102.63,134.48h120.48v227.07c0,7.02-5.7,12.71-12.71,12.71H102.63V134.48h0Z" class="cls-55"/><g><circle cx="185.59" cy="542.26" r="40.69" class="cls-55"/><line x1="185.59" x2="185.59" y1="637.42" y2="582.95" class="cls-5"/><line x1="185.59" x2="185.59" y1="501.57" y2="582.95" class="cls-25"/><line x1="185.59" x2="218.74" y1="535.96" y2="518.68" class="cls-25"/><line x1="185.59" x2="152.44" y1="535.96" y2="518.68" class="cls-25"/><line x1="185.59" x2="226.28" y1="563.47" y2="542.26" class="cls-25"/><line x1="185.59" x2="144.9" y1="563.47" y2="542.26" class="cls-25"/></g><g><g><path d="M871.84,373.75l-26.95,24.11v17.38h-32.78v-17.38l-26.95-24.11-26.95,24.11v17.38h-33.16v-109.32h-58.78v109.32h-33.16v-17.38l-26.95-24.11-26.95,24.11v17.38h-32.78v-17.38l-26.95-24.11-26.95,24.11v87.1c0,6.83,5.54,12.37,12.37,12.37h381.51c6.83,0,12.37-5.54,12.37-12.37v-87.1l-26.95-24.11Z" class="cls-77"/><path d="M871.84,373.75l-26.95,24.11v17.38h-32.78v-17.38l-26.95-24.11-26.95,24.11v17.38h-33.16v-109.32h-58.78v109.32h-33.16v-17.38l-26.95-24.11-26.95,24.11v17.38h-32.78v-17.38l-26.95-24.11-26.95,24.11v87.1c0,6.83,5.54,12.37,12.37,12.37h381.51c6.83,0,12.37-5.54,12.37-12.37v-87.1l-26.95-24.11Z" class="cls-5"/></g><polygon points="695.51 211.31 724.74 279.8 695.51 279.8 666.28 279.8 695.51 211.31" class="cls-55"/><circle cx="695.51" cy="346.12" r="12.17" class="cls-65"/><line x1="702.93" x2="702.93" y1="414.06" y2="376.01" class="cls-65"/><line x1="688.41" x2="688.41" y1="414.06" y2="376.01" class="cls-65"/><path d="M695.67,432.41h0c9.03,0,16.36,7.33,16.36,16.36v31.28h-32.72v-31.28c0-9.03,7.33-16.36,16.36-16.36Z" class="cls-65"/><line x1="785.17" x2="785.17" y1="435.54" y2="414.06" class="cls-65"/><line x1="785.17" x2="785.17" y1="473.03" y2="451.55" class="cls-65"/><line x1="871.84" x2="871.84" y1="435.54" y2="414.06" class="cls-65"/><line x1="871.84" x2="871.84" y1="473.03" y2="451.55" class="cls-65"/><line x1="605.86" x2="605.86" y1="435.54" y2="414.06" class="cls-65"/><line x1="605.86" x2="605.86" y1="473.03" y2="451.55" class="cls-65"/><line x1="562.52" x2="562.52" y1="473.03" y2="451.55" class="cls-65"/><line x1="652.17" x2="652.17" y1="473.03" y2="451.55" class="cls-65"/><line x1="828.82" x2="828.82" y1="473.03" y2="451.55" class="cls-65"/><line x1="739.17" x2="739.17" y1="473.03" y2="451.55" class="cls-65"/><line x1="519.18" x2="519.18" y1="435.54" y2="414.06" class="cls-65"/><line x1="519.18" x2="519.18" y1="473.03" y2="451.55" class="cls-65"/></g><path d="M382.55,257.86v37.3c0,20.6-16.69,37.3-37.3,37.3s-37.3-16.69-37.3-37.3v-37.3l24.06,13.22,13.24-13.22,13.24,13.22,24.06-13.22Z" class="cls-43"/><path d="M345.25,332.45v110.71c0,10.53-8.54,19.07-19.07,19.07h-121.52c-10.53,0-19.07,8.54-19.07,19.07v20.27" class="cls-27"/><path d="M373.77,401.03h18.84c0,15.74-12.78,28.52-28.52,28.52h-18.84c0-15.74,12.78-28.52,28.52-28.52Z" class="cls-30"/><path d="M2388.53,127.79h18.84c0,15.74-12.78,28.52-28.52,28.52h-18.84c0-15.74,12.78-28.52,28.52-28.52Z" class="cls-30"/><path d="M2312.65,96.01h18.84c15.74,0,28.52,12.78,28.52,28.52h-18.84c-15.74,0-28.52-12.78-28.52-28.52h0Z" class="cls-30" transform="translate(4672.66 220.55) rotate(180)"/><path d="M267.99,471.79h18.84c0,15.74-12.78,28.52-28.52,28.52h-18.84c0-15.74,12.78-28.52,28.52-28.52Z" class="cls-30" transform="translate(-222.9 749.2) rotate(-90)"/><path d="M265.51,424.43h18.84c15.74,0,28.52,12.78,28.52,28.52h-18.84c-15.74,0-28.52-12.78-28.52-28.52h0Z" class="cls-30" transform="translate(727.88 149.49) rotate(90)"/><path d="M297.88,367.75h18.84c15.74,0,28.52,12.78,28.52,28.52h-18.84c-15.74,0-28.52-12.78-28.52-28.52h0Z" class="cls-30" transform="translate(643.13 764.02) rotate(180)"/><path d="M591.47,319.46c-2.59,0-5.02,.63-7.19,1.72-5.33-11.03-16.62-18.64-29.7-18.64-10.82,0-20.42,5.21-26.43,13.27-3.46-2.09-7.52-3.3-11.86-3.3-12.7,0-22.99,10.29-22.99,22.99h114.2c0-8.85-7.18-16.03-16.03-16.03Z" class="cls-30"/><path d="M882.73,312.51c-4.34,0-8.4,1.2-11.86,3.3-6.01-8.05-15.61-13.27-26.43-13.27-13.07,0-24.37,7.61-29.7,18.64-2.16-1.09-4.6-1.72-7.19-1.72-8.85,0-16.03,7.18-16.03,16.03h114.2c0-12.7-10.29-22.99-22.99-22.99Z" class="cls-30"/><path d="M1063.16,111.18c0-22.42-18.18-40.6-40.6-40.6-13.14,0-24.81,6.25-32.23,15.92-7.64-10.42-19.97-17.2-33.89-17.2-16.1,0-30.08,9.06-37.13,22.36-4.62-4.08-10.68-6.55-17.32-6.55-14.47,0-26.19,11.73-26.19,26.19h122.64s0-.09,0-.13h64.73Z" class="cls-30"/><path d="M262.3,579.93h228.26c17.86,0,32.35,14.5,32.35,32.35v38.98h-228.26c-17.86,0-32.35-14.5-32.35-32.35v-38.98h0Z" class="cls-55" transform="translate(785.22 1231.21) rotate(-180)"/><circle cx="329.81" cy="651.27" r="14.3" class="cls-70"/><circle cx="457.94" cy="651.27" r="14.3" class="cls-70"/><path d="M285.98,599.18h200.16c8.32,0,15.07,6.75,15.07,15.07v32.08" class="cls-20"/><g><path d="M528.89,173.28h-187.89V106.94h-32.54v66.34c0,17.97,14.57,32.54,32.54,32.54h48.38v9.96c0,8.27,6.7,14.97,14.97,14.97h146.05v-35.95c0-11.88-9.63-21.51-21.51-21.51Z" class="cls-77"/><path d="M528.89,173.28h-187.89V106.94h-32.54v66.34c0,17.97,14.57,32.54,32.54,32.54h48.38v9.96c0,8.27,6.7,14.97,14.97,14.97h146.05v-35.95c0-11.88-9.63-21.51-21.51-21.51Z" class="cls-27"/></g><g><path d="M452.65,89.53v86.36c0,9.52,7.72,17.24,17.24,17.24s17.24-7.72,17.24-17.24v-35.08h10.46c3.5,0,6.33-2.84,6.33-6.33v-44.94h-51.27Z" class="cls-77"/><path d="M452.65,89.53v86.36c0,9.52,7.72,17.24,17.24,17.24s17.24-7.72,17.24-17.24v-35.08h10.46c3.5,0,6.33-2.84,6.33-6.33v-44.94h-51.27Z" class="cls-27"/></g><g><path d="M488.87,68.94h-36.22c-16.84,0-30.49,13.65-30.49,30.49V230.74h30.49V89.53h55.36v-1.45c0-10.57-8.57-19.14-19.14-19.14Z" class="cls-77"/><path d="M488.87,68.94h-36.22c-16.84,0-30.49,13.65-30.49,30.49V230.74h30.49V89.53h55.36v-1.45c0-10.57-8.57-19.14-19.14-19.14Z" class="cls-27"/></g><path d="M480.33,108.67c0-3.21-2.6-5.81-5.81-5.81s-5.81,2.6-5.81,5.81" class="cls-25"/><path d="M501.29,108.67c0-3.21-2.6-5.81-5.81-5.81s-5.81,2.6-5.81,5.81v8.63h-6.63" class="cls-25"/><path d="M489.65,127.4h-10.17c-3.28,0-5.94-2.66-5.94-5.94h0" class="cls-25"/><g><path d="M2079.42,548.46h38.25v18.74c0,7.62-6.18,13.8-13.8,13.8h-10.65c-7.62,0-13.8-6.18-13.8-13.8v-18.74h0Z" class="cls-48" transform="translate(2663.28 -1533.82) rotate(90)"/><path d="M2103.74,555.16h21.87c3.17,0,5.74-2.14,5.74-4.78h0c0-2.64-2.57-4.78-5.74-4.78h-27.34" class="cls-48"/><path d="M2103.74,564.73h27.34c3.17,0,5.74-2.14,5.74-4.78h0c0-2.64-2.57-4.78-5.74-4.78h-27.34" class="cls-48"/><path d="M2106.19,574.29h27.34c3.17,0,5.74-2.14,5.74-4.78h0c0-2.64-2.57-4.78-5.74-4.78h-27.34" class="cls-48"/><path d="M2102.03,583.85h27.34c3.17,0,5.74-2.14,5.74-4.78h0c0-2.64-2.57-4.78-5.74-4.78h-25.62" class="cls-48"/></g><g><path d="M1983.22,548.53v-17.17c0-15.87-12.87-28.74-28.74-28.74h-200.1c-.48,0-.96,.04-1.43,.07v-.02h-107.15v-78.41h-39.04v83.5c0,16.04,13,29.04,29.04,29.04h97.07v69.99h161.02v-71.63h56.8v13.71c0,17.71,14.36,32.07,32.07,32.07h100.87v-32.4h-100.4Z" class="cls-77"/><path d="M1983.22,548.53v-17.17c0-15.87-12.87-28.74-28.74-28.74h-200.1c-.48,0-.96,.04-1.43,.07v-.02h-107.15v-78.41h-39.04v83.5c0,16.04,13,29.04,29.04,29.04h97.07v69.99h161.02v-71.63h56.8v13.71c0,17.71,14.36,32.07,32.07,32.07h100.87v-32.4h-100.4Z" class="cls-27"/></g><g><path d="M1779.34,418.87v44.94c0,3.5,2.84,6.33,6.33,6.33h10.46v35.08c0,9.52,7.72,17.24,17.24,17.24s17.24-7.72,17.24-17.24v-86.36h-51.27Z" class="cls-77"/><path d="M1779.34,418.87v44.94c0,3.5,2.84,6.33,6.33,6.33h10.46v35.08c0,9.52,7.72,17.24,17.24,17.24s17.24-7.72,17.24-17.24v-86.36h-51.27Z" class="cls-27"/></g><g><path d="M1830.62,398.28h-56.07c-5.69,0-10.3,4.61-10.3,10.3h0c0,5.69,4.61,10.3,10.3,10.3h56.07v56.53h0c16.84,0,30.49-13.65,30.49-30.49v-16.14c0-16.84-13.65-30.49-30.49-30.49Z" class="cls-77"/><path d="M1830.62,398.28h-56.07c-5.69,0-10.3,4.61-10.3,10.3h0c0,5.69,4.61,10.3,10.3,10.3h56.07v56.53h0c16.84,0,30.49-13.65,30.49-30.49v-16.14c0-16.84-13.65-30.49-30.49-30.49Z" class="cls-27"/></g><path d="M1802.94,438.01c0-3.21,2.6-5.81,5.81-5.81,3.21,0,5.81,2.6,5.81,5.81" class="cls-25"/><path d="M1781.97,438.01c0-3.21,2.6-5.81,5.81-5.81s5.81,2.6,5.81,5.81v8.63h6.63" class="cls-25"/><path d="M1793.62,456.74h10.17c3.28,0,5.94-2.66,5.94-5.94h0" class="cls-25"/><rect width="137.64" height="45.45" x="1179.86" y="491.72" class="cls-77"/><polyline points="1334.29 510.75 1317.5 510.75 1317.5 325.71 1243.4 325.71 1243.4 217.31 1178.4 217.31 1178.4 325.71 1178.4 510.59 1163.07 510.59" class="cls-55"/><g><line x1="1243.4" x2="1289.9" y1="358.77" y2="358.77" class="cls-30"/><line x1="1243.4" x2="1289.9" y1="385.66" y2="385.66" class="cls-30"/><line x1="1243.4" x2="1289.9" y1="412.54" y2="412.54" class="cls-30"/><line x1="1243.4" x2="1289.9" y1="439.43" y2="439.43" class="cls-30"/><line x1="1243.4" x2="1289.9" y1="466.31" y2="466.31" class="cls-30"/><line x1="1243.4" x2="1289.9" y1="493.2" y2="493.2" class="cls-30"/><line x1="1243.4" x2="1289.9" y1="520.08" y2="520.08" class="cls-30"/></g><line x1="1209.58" x2="1209.58" y1="244.94" y2="527.33" class="cls-30"/><path d="M1176.63,575.78h462.66c18.53,0,33.58,15.05,33.58,33.58v28.43h-460.66c-19.64,0-35.58-15.94-35.58-35.58v-26.43h0Z" class="cls-55"/><line x1="1202" x2="1289.45" y1="597.45" y2="597.45" class="cls-20"/><line x1="1310.86" x2="1310.86" y1="637.79" y2="575.78" class="cls-25"/><line x1="1332.25" x2="1419.7" y1="597.45" y2="597.45" class="cls-20"/><line x1="1441.1" x2="1441.1" y1="637.79" y2="575.78" class="cls-25"/><line x1="1463.3" x2="1550.76" y1="597.45" y2="597.45" class="cls-20"/><line x1="1591.99" x2="1672.87" y1="597.45" y2="597.45" class="cls-20"/><line x1="1572.16" x2="1572.16" y1="637.79" y2="575.78" class="cls-25"/><path d="M381.59,549.98h-43.51v-43.51c0-10.04,8.14-18.18,18.18-18.18,5.02,0,9.56,2.04,12.86,5.33,3.29,3.29,5.32,7.83,5.33,12.86v7.14h7.14c5.02,0,9.56,2.04,12.86,5.33,3.29,3.29,5.33,7.84,5.33,12.86,0,10.04-8.14,18.18-18.18,18.18Z" class="cls-65"/><path d="M125.17,466.39v-31h31c7.15,0,12.95,5.8,12.95,12.95,0,3.58-1.45,6.81-3.79,9.16s-5.58,3.79-9.16,3.79h-5.09v5.09c0,3.58-1.45,6.81-3.79,9.16s-5.58,3.79-9.16,3.79c-7.15,0-12.95-5.8-12.95-12.95Z" class="cls-65"/><g><path d="M844.89,169.97c11.07,0,11.07,8.06,22.15,8.06s11.07-8.06,22.15-8.06,11.07,8.06,22.14,8.06,11.07-8.06,22.15-8.06,11.07,8.06,22.14,8.06,11.07-8.06,22.15-8.06,11.07,8.06,22.15,8.06,11.07-8.06,22.15-8.06,11.07,8.06,22.15,8.06,11.07-8.06,22.15-8.06,11.08,8.06,22.15,8.06,11.08-8.06,22.15-8.06,11.08,8.06,22.15,8.06" class="cls-20"/><path d="M844.89,195.84c11.07,0,11.07,8.06,22.15,8.06s11.07-8.06,22.15-8.06,11.07,8.06,22.14,8.06,11.07-8.06,22.15-8.06,11.07,8.06,22.14,8.06,11.07-8.06,22.15-8.06,11.07,8.06,22.15,8.06,11.07-8.06,22.15-8.06,11.07,8.06,22.15,8.06,11.07-8.06,22.15-8.06,11.08,8.06,22.15,8.06,11.08-8.06,22.15-8.06,11.08,8.06,22.15,8.06" class="cls-20"/><path d="M844.89,221.72c11.07,0,11.07,8.06,22.15,8.06s11.07-8.06,22.15-8.06,11.07,8.06,22.14,8.06,11.07-8.06,22.15-8.06,11.07,8.06,22.14,8.06,11.07-8.06,22.15-8.06,11.07,8.06,22.15,8.06,11.07-8.06,22.15-8.06,11.07,8.06,22.15,8.06,11.07-8.06,22.15-8.06,11.08,8.06,22.15,8.06,11.08-8.06,22.15-8.06,11.08,8.06,22.15,8.06" class="cls-20"/></g><path d="M1824.29,436.84h8.47c4.68,0,8.47,3.79,8.47,8.47h0c0,4.68-3.79,8.47-8.47,8.47h-8.47" class="cls-65"/><circle cx="695.67" cy="615.6" r="48.5" class="cls-55"/><path d="M719.05,622.66c0-12.91-23.38-37.49-23.38-37.49,0,0-23.38,24.57-23.38,37.49s10.47,23.38,23.38,23.38,23.38-10.47,23.38-23.38Z" class="cls-25"/><circle cx="695.67" cy="622.66" r="10.3" class="cls-25"/><line x1="90.32" x2="240.42" y1="114.08" y2="114.08" class="cls-43"/><line x1="113.1" x2="217.64" y1="96.74" y2="96.74" class="cls-43"/><line x1="129.33" x2="201.4" y1="79.41" y2="79.41" class="cls-43"/><g><path d="M1598.96,382.71h42.19v18.04c0,8-6.49,14.49-14.49,14.49h-13.2c-8,0-14.49-6.49-14.49-14.49v-18.04h0Z" class="cls-48" transform="translate(2019.03 -1221.08) rotate(90)"/><path d="M1625.25,388.43h13.66c3.17,0,5.74-2.36,5.74-5.27h0c0-2.91-2.57-5.27-5.74-5.27h-19.13" class="cls-48"/><path d="M1625.25,398.98h19.13c3.17,0,5.74-2.36,5.74-5.27h0c0-2.91-2.57-5.27-5.74-5.27h-19.13" class="cls-48"/><path d="M1627.7,409.52h19.13c3.17,0,5.74-2.36,5.74-5.27h0c0-2.91-2.57-5.27-5.74-5.27h-19.13" class="cls-48"/><path d="M1623.54,420.07h19.13c3.17,0,5.74-2.36,5.74-5.27h0c0-2.91-2.57-5.27-5.74-5.27h-17.41" class="cls-48"/></g><path d="M1493.88,113.37h0c17.34,0,31.42,14.08,31.42,31.42v55.67h-62.85v-55.67c0-17.34,14.08-31.42,31.42-31.42Z" class="cls-43"/><line x1="1460.31" x2="1401.93" y1="156.91" y2="156.91" class="cls-5"/><path d="M1506.69,148.77c0-7.07-5.73-12.81-12.81-12.81s-12.81,5.73-12.81,12.81" class="cls-48"/><circle cx="1493.88" cy="148.77" r="5.08" class="cls-80"/><path d="M1462.46,202.55h201.1c0,13.1-10.64,23.74-23.74,23.74h-177.37v-23.74h0Z" class="cls-43"/><path d="M1462.46,226.29h160.32c0,13.1-10.64,23.74-23.74,23.74h-136.58v-23.74h0Z" class="cls-43"/><path d="M1462.46,250.02h123.38v2.91c0,11.49-9.33,20.82-20.82,20.82h-102.56v-23.74h0Z" class="cls-43"/><g><path d="M1324.2,202.55h177.37c13.1,0,23.74,10.64,23.74,23.74h-201.1v-23.74h0Z" class="cls-43" transform="translate(2849.51 428.83) rotate(180)"/><path d="M1364.98,226.29h136.58c13.1,0,23.74,10.64,23.74,23.74h-160.32v-23.74h0Z" class="cls-43" transform="translate(2890.29 476.31) rotate(180)"/><path d="M1401.93,250.02h102.56c11.49,0,20.82,9.33,20.82,20.82v2.91h-123.38v-23.74h0Z" class="cls-43" transform="translate(2927.23 523.79) rotate(180)"/></g><line x1="1528.65" x2="1511.58" y1="88.55" y2="118.11" class="cls-48"/><line x1="1524.54" x2="1554.1" y1="131.07" y2="114" class="cls-48"/><line x1="1894.35" x2="1894.35" y1="484.36" y2="426.34" class="cls-5"/><line x1="1926.26" x2="1926.26" y1="484.36" y2="382.31" class="cls-5"/><line x1="2022.02" x2="2022.02" y1="484.36" y2="352.36" class="cls-5"/><line x1="1958.18" x2="1958.18" y1="484.36" y2="403.4" class="cls-5"/><line x1="2053.93" x2="2053.93" y1="484.36" y2="383.16" class="cls-5"/><line x1="1990.1" x2="1990.1" y1="484.36" y2="329.18" class="cls-5"/><circle cx="1662.58" cy="352.87" r="4.76" class="cls-80"/><g><path d="M1772.93,291.91c0-6.11-3.81-11.32-9.18-13.42,2.31-5.28,1.32-11.66-3-15.98-4.32-4.32-10.7-5.31-15.98-3-2.1-5.37-7.31-9.18-13.42-9.18s-11.32,3.81-13.42,9.18c-5.28-2.31-11.66-1.32-15.98,3-4.32,4.32-5.31,10.7-3,15.98-5.37,2.1-9.18,7.31-9.18,13.42s3.81,11.32,9.18,13.42c-2.31,5.28-1.32,11.66,3,15.98,4.32,4.32,10.7,5.31,15.98,3,2.1,5.37,7.31,9.18,13.42,9.18s11.32-3.81,13.42-9.18c5.28,2.31,11.66,1.32,15.98-3,4.32-4.32,5.31-10.7,3-15.98,5.37-2.1,9.18-7.31,9.18-13.42Z" class="cls-43"/><polyline points="1712.94 290.75 1725.99 303.8 1749.77 280.02" class="cls-65"/></g><path d="M1449.39,442.4h0c16.35,0,29.63,13.28,29.63,29.63v21.63h-59.26v-21.63c0-16.35,13.28-29.63,29.63-29.63Z" class="cls-30"/><line x1="1414.18" x2="1484.17" y1="510.66" y2="510.66" class="cls-30"/><line x1="1465.09" x2="1465.09" y1="550.38" y2="510.66" class="cls-30"/><line x1="1433.26" x2="1433.26" y1="550.38" y2="510.66" class="cls-30"/><path d="M1449.39,442.4v-35.18c0-7.31-5.93-13.24-13.24-13.24h-9.09c-7.31,0-13.24-5.93-13.24-13.24v-106.97" class="cls-27"/><line x1="1732.86" x2="1893.88" y1="549.32" y2="549.32" class="cls-20"/><line x1="1732.86" x2="1893.88" y1="568.35" y2="568.35" class="cls-20"/><g><path d="M1256.81,55.28h18.12c0,15.14-12.29,27.43-27.43,27.43h-18.12c0-15.14,12.29-27.43,27.43-27.43Z" class="cls-30"/><path d="M1264.71,130.75l-10.27,44.13c-1.74,7.46-8.4,12.75-16.07,12.75h-8.07c-6.94,0-13.14-3.27-17.11-8.35-3.97,5.08-10.16,8.35-17.11,8.35h-8.07c-7.68,0-14.33-5.29-16.07-12.75l-10.27-44.13c-4.14-17.74,11.13-33.95,29.08-30.9l2.19,.37c8.63,1.46,15.86,6.54,20.26,13.51,4.4-6.97,11.63-12.05,20.26-13.51l2.19-.37c17.95-3.05,33.21,13.17,29.08,30.9Z" class="cls-55"/><line x1="1213.18" x2="1213.18" y1="113.73" y2="57.92" class="cls-5"/><path d="M1189.13,114.8c-7.03,0-12.73,5.7-12.73,12.73" class="cls-25"/></g><rect width="161.02" height="142.79" x="1732.86" y="606.79" class="cls-43"/><line x1="1813.37" x2="1812.13" y1="651.27" y2="749.58" class="cls-27"/><line x1="1780.88" x2="1845.86" y1="651.27" y2="651.27" class="cls-27"/><path d="M1862.2,606.79h31.68v44.49h-17.25c-7.97,0-14.43-6.47-14.43-14.43v-30.06h0Z" class="cls-25"/><line x1="1875.73" x2="1875.73" y1="650.48" y2="749.58" class="cls-25"/><g><path d="M2157.88,546.64v-7.15l228.29,17.67v23.2c0,10.26-8.32,18.58-18.58,18.58h-105.14c-2.05,0-4.08-.4-5.98-1.18l-88.86-36.59c-5.89-2.42-9.73-8.16-9.73-14.53Z" class="cls-43"/><polygon points="2157.88 539.49 2386.17 539.49 2386.17 581.27 2259.34 581.27 2157.88 539.49" class="cls-43"/><polygon points="2386.17 581.27 2281.54 539.41 2281.54 408.14 2386.17 450 2386.17 581.27" class="cls-43"/><polygon points="2333.85 392.98 2281.54 372.05 2281.54 304.88 2333.85 325.8 2333.85 392.98" class="cls-65"/><polygon points="2386.17 319.9 2333.85 298.97 2333.85 231.8 2386.17 252.72 2386.17 319.9" class="cls-65"/><polygon points="2386.17 415.29 2353.12 401.01 2353.12 333.83 2386.17 348.11 2386.17 415.29" class="cls-65"/><polygon points="2314.58 291.91 2281.54 277.63 2281.54 193.58 2314.58 207.86 2314.58 291.91" class="cls-65"/><polygon points="2295.94 529.66 2295.94 429.41 2371.77 459.74 2371.77 560 2295.94 529.66" class="cls-3"/></g><g><circle cx="1052.74" cy="476.84" r="14.12" class="cls-65"/><circle cx="1075.7" cy="486.35" r="14.12" class="cls-65"/><circle cx="1085.22" cy="509.32" r="14.12" class="cls-65"/><circle cx="1075.7" cy="532.29" r="14.12" class="cls-65"/><circle cx="1052.74" cy="541.8" r="14.12" class="cls-65"/><circle cx="1029.77" cy="532.29" r="14.12" class="cls-65"/><circle cx="1020.26" cy="509.32" r="14.12" class="cls-65"/><circle cx="1029.77" cy="486.35" r="14.12" class="cls-65"/><circle cx="1052.74" cy="509.32" r="22.36" class="cls-65"/></g><g><path d="M1834.51,259.87l-32.64,56.53c-4.01,6.95,1,15.65,9.03,15.65h65.28c8.03,0,13.05-8.69,9.03-15.65l-32.64-56.53c-4.01-6.95-14.05-6.95-18.07,0Z" class="cls-43"/><line x1="1843.54" x2="1843.54" y1="304.86" y2="278.96" class="cls-30"/><line x1="1843.54" x2="1843.54" y1="308.23" y2="317.21" class="cls-30"/></g><path d="M1990.1,306.66v-97.29c0-17.89-14.5-32.39-32.39-32.39h-7.02" class="cls-30"/><path d="M2022.02,332.13V198.67c0-17.89-14.5-32.39-32.39-32.39h-7.02" class="cls-30"/><path d="M2052.24,362.53V192.19c0-23.09-18.72-41.8-41.8-41.8h0" class="cls-30"/><path d="M2022.87,79.89v42.03c0,1.81-1.75,3.12-3.48,2.6l-45.06-13.36v-20.51l45.06-13.36c1.74-.52,3.48,.79,3.48,2.6Z" class="cls-68"/><path d="M1767.84,80.52h138.26l48.85-40.71h37.53l-18.16,71.99c0,23.86-19.35,43.21-43.21,43.21h-254.85c-9.22,0-16.7-7.47-16.7-16.7h0c0-6.24,3.48-11.96,9.02-14.83l68.55-35.48c9.49-4.91,20.02-7.48,30.7-7.48Z" class="cls-55"/><line x1="1704.27" x2="1743.91" y1="107.92" y2="107.92" class="cls-10"/><g><line x1="1785.52" x2="1785.52" y1="115.96" y2="115.96" class="cls-10"/><line x1="1823.95" x2="1881.61" y1="115.96" y2="115.96" class="cls-2"/><line x1="1900.83" x2="1900.83" y1="115.96" y2="115.96" class="cls-10"/></g><path d="M1850.84,144.81h139.13c8.54,0,15.47,6.93,15.47,15.47h0c0,8.54-6.93,15.47-15.47,15.47h-170.08c0-17.08,13.86-30.94,30.94-30.94Z" class="cls-43" transform="translate(3825.34 320.57) rotate(180)"/><path d="M1671.56,125.91h21.86c13.23,0,23.97,10.74,23.97,23.97v1.35h-45.83c-6.61,0-11.98-5.37-11.98-11.98v-1.35c0-6.61,5.37-11.98,11.98-11.98Z" class="cls-80"/><path d="M1958.18,382.31V210.28c0-7.53-6.1-13.63-13.63-13.63h-115.58c-16.65,0-30.14-13.5-30.14-30.14v-12.7" class="cls-30"/><line x1="1493.88" x2="1493.88" y1="275.85" y2="333.85" class="cls-3"/><line x1="1493.88" x2="1522.88" y1="275.85" y2="326.08" class="cls-3"/><line x1="1493.88" x2="1464.88" y1="275.85" y2="326.08" class="cls-3"/><path d="M2132.76,275.85h45.97v168.53c0,12.69-10.3,22.99-22.99,22.99h0c-12.69,0-22.99-10.3-22.99-22.99v-168.53h0Z" class="cls-27"/><g><line x1="2178.73" x2="2155.75" y1="303.3" y2="303.3" class="cls-25"/><line x1="2178.73" x2="2155.75" y1="329.69" y2="329.69" class="cls-25"/><line x1="2178.73" x2="2155.75" y1="356.09" y2="356.09" class="cls-25"/><line x1="2178.73" x2="2155.75" y1="382.48" y2="382.48" class="cls-25"/><line x1="2178.73" x2="2155.75" y1="408.88" y2="408.88" class="cls-25"/><line x1="2178.73" x2="2155.75" y1="435.27" y2="435.27" class="cls-25"/></g><g><path d="M2176.69,231.8c0-11.57-20.94-38.22-20.94-38.22,0,0-20.94,26.65-20.94,38.22s9.38,20.94,20.94,20.94,20.94-9.38,20.94-20.94Z" class="cls-27"/><path d="M2148.01,231.77c0,4.27,3.46,7.73,7.73,7.73" class="cls-3"/></g><circle cx="441.63" cy="264.47" r="14.66" class="cls-70"/><path d="M2155.75,193.58V84.88c0-8.77,7.11-15.89,15.89-15.89h172.49c8.77,0,15.89,7.11,15.89,15.89v102.76" class="cls-27"/><circle cx="2228.55" cy="68.99" r="14.66" class="cls-70"/><line x1="1178.11" x2="1672.87" y1="616.17" y2="616.17" class="cls-25"/><g><path d="M965.59,637.09c0-35.11-28.46-63.56-63.56-63.56" class="cls-30"/><path d="M944.67,637.09c0-23.55-19.09-42.64-42.64-42.64" class="cls-30"/><circle cx="902.03" cy="637.09" r="21.73" class="cls-43"/></g><line x1="1154.62" x2="1077.7" y1="575.78" y2="575.78" class="cls-25"/><line x1="1154.62" x2="1092.11" y1="591.6" y2="591.6" class="cls-25"/><line x1="1154.62" x2="1103.05" y1="607.41" y2="607.41" class="cls-25"/><g><line x1="135.35" x2="135.35" y1="163.53" y2="352.18" class="cls-18"/><line x1="190.39" x2="190.39" y1="163.53" y2="352.18" class="cls-18"/><line x1="162.87" x2="162.87" y1="163.53" y2="352.18" class="cls-18"/></g><path d="M638.68,99.4v48.4c0,6.86,5.56,12.42,12.42,12.42h24.12l20.29,27.54,19.49-27.54h24.93c6.86,0,12.42-5.56,12.42-12.42v-48.4c0-6.86-5.56-12.42-12.42-12.42h-88.83c-6.86,0-12.42,5.56-12.42,12.42Z" class="cls-43"/><path d="M708.29,134.18c.25-.25,10.52-9.24,10.52-9.24l-1.75-.75c-1-.49-.74-1.15-.5-1.74,.24-.76,2.01-6.73,2.01-6.73,0,0-4.77,1-5.77,1.25-.75,.24-1-.25-1.25-.75s-1.5-3.24-1.5-3.24c0,0-5.26,5.99-5.51,6.23-1,.75-2.01,0-1.76-1,0-1,2.76-12.96,2.76-12.96,0,0-3.01,1.74-4.01,2.24-.75,.5-1.26,.5-1.76-.5-.51-.75-4.27-7.98-4.27-7.98,0,0-3.75,7.23-4.25,7.98-.5,1-1,1-1.76,.5-1-.5-4.01-2.24-4.01-2.24,0,0,2.76,11.96,2.76,12.96,.25,1-.75,1.75-1.76,1-.25-.25-5.51-6.23-5.51-6.23,0,0-1.25,2.73-1.5,3.23s-.5,.99-1.25,.75c-1.01-.25-5.77-1.25-5.77-1.25,0,0,1.76,5.97,2.01,6.73,.24,.6,.5,1.25-.5,1.74l-1.75,.76s10.26,8.99,10.52,9.24c.51,.5,1,.75,.51,2.25-.51,1.5-1.01,3.51-1.01,3.51,0,0,9.52-2.01,10.53-2.26,.87-.09,1.83,.25,1.83,1.25s-.58,11.28-.58,11.28h3s-.58-10.27-.58-11.28,.95-1.34,1.84-1.25c1,.25,10.52,2.26,10.52,2.26,0,0-.5-2.01-1-3.51s0-1.75,.5-2.25Z"/><path d="M1652.57,335.49v-33.87c0-6.71,5.44-12.15,12.15-12.15h25.06" class="cls-65"/><line x1="1772.93" x2="1813.37" y1="291.91" y2="291.91" class="cls-65"/><line x1="853.41" x2="719.76" y1="573.52" y2="573.52" class="cls-30"/><line x1="838.35" x2="739.32" y1="594.45" y2="594.45" class="cls-30"/><line x1="823.58" x2="744.17" y1="615.35" y2="615.35" class="cls-30"/><line x1="537.93" x2="671.58" y1="573.52" y2="573.52" class="cls-30"/><line x1="552.99" x2="652.02" y1="594.45" y2="594.45" class="cls-30"/><line x1="567.76" x2="647.17" y1="615.35" y2="615.35" class="cls-30"/><line x1="1269.24" x2="1269.24" y1="307.12" y2="216.66" class="cls-30"/><line x1="1293.65" x2="1293.65" y1="307.12" y2="231.8" class="cls-30"/><line x1="1318.07" x2="1318.07" y1="307.12" y2="252.74" class="cls-30"/><line x1="2350.88" x2="2350.88" y1="551.35" y2="467.37" class="cls-3"/><line x1="2333.18" x2="2333.18" y1="542.9" y2="474.68" class="cls-3"/><line x1="2314.95" x2="2314.95" y1="535.77" y2="499.78" class="cls-3"/><g><circle cx="972.23" cy="366.84" r="24.16" class="cls-30"/><circle cx="1072.89" cy="366.84" r="24.16" class="cls-30"/><polygon points="1052.46 326.68 998.98 326.68 972.23 366.84 1025.72 366.84 1052.46 326.68" class="cls-30"/><polyline points="1065.16 343.95 1048.73 306.86 1069.58 306.86" class="cls-30"/><line x1="980.19" x2="1012.59" y1="314.52" y2="314.52" class="cls-17"/></g><g><circle cx="2432.39" cy="212.05" r="40.69" class="cls-55"/><line x1="2432.39" x2="2432.39" y1="171.36" y2="252.74" class="cls-25"/><line x1="2432.39" x2="2465.54" y1="205.75" y2="188.47" class="cls-25"/><line x1="2432.39" x2="2399.24" y1="205.75" y2="188.47" class="cls-25"/><line x1="2432.39" x2="2473.08" y1="233.26" y2="212.05" class="cls-25"/><line x1="2432.39" x2="2391.7" y1="233.26" y2="212.05" class="cls-25"/></g></g><g id="dark_bg"><rect width="2520" height="637.79" class="cls-81"/></g><g id="white"><g><path d="M95.63,405.22H443.64v246.05H141.36c-25.24,0-45.73-20.49-45.73-45.73v-200.32h0Z" class="cls-77"/><path d="M290.64,138.96h153V651.27H255.97V173.63c0-19.13,15.53-34.67,34.67-34.67Z" class="cls-77"/><path d="M382.55,138.96h152.57c33.93,0,61.47,27.54,61.47,61.47h0c0,33.93-27.54,61.47-61.47,61.47h-152.57v-122.94h0Z" class="cls-77"/><rect width="680.9" height="105.91" x="422.16" y="540.12" class="cls-77"/><rect width="153.86" height="134.83" x="951.91" y="516.44" class="cls-77"/><path d="M1574.79,366.84h508.83v270.95h-545.99v-233.79c0-20.51,16.65-37.16,37.16-37.16Z" class="cls-77"/><path d="M1918.76,148.77h111.13c34.02,0,61.65,27.62,61.65,61.65v426.56h-172.78V148.77h0Z" class="cls-77"/><path d="M2072.02,502.93h362.86v91.7c0,23.82-19.34,43.16-43.16,43.16h-319.7v-134.86h0Z" class="cls-77"/><rect width="22.58" height="22.58" x="2083.62" y="494.7" class="cls-77" transform="translate(255.79 1629.52) rotate(-45)"/><rect width="22.58" height="22.58" x="2226.5" y="494.7" class="cls-77" transform="translate(3462.35 2446.14) rotate(-135)"/><polygon points="2245.32 141.21 2432.39 219.58 2432.39 549.32 2245.32 549.32 2245.32 141.21" class="cls-77"/><rect width="24.57" height="24.57" x="427.68" y="529.77" class="cls-77" transform="translate(-254.43 469.87) rotate(-45)"/><path d="M1768.82,155h181.86v71.89h-138.47c-23.95,0-43.39-19.44-43.39-43.39v-28.5h0Z" class="cls-77"/></g><rect width="2524.62" height="187.74" y="637.79" class="cls-77"/></g><g id="colour_dark"><g><path d="M1742.41,749.58h67.04v45.96h-113c0-25.37,20.6-45.96,45.96-45.96Z" class="cls-77"/><g class="cls-79"><line x1="1698.9" x2="1809.44" y1="780.7" y2="780.7" class="cls-32"/></g><path d="M1742.41,749.58h67.04v45.96h-113c0-25.37,20.6-45.96,45.96-45.96Z" class="cls-27"/></g><g><path d="M2011.38,106.06c1.14,4.37,3.11,8.57,5.9,12.35l-48.21-11.42v-20.51l48.21-11.41c-2.79,3.77-4.75,7.97-5.9,12.33-1.12,2.9-1.74,6.05-1.74,9.34s.61,6.43,1.74,9.32Z" class="cls-68"/><g class="cls-82"><g><circle cx="2046.74" cy="96.74" r="78.3" class="cls-33"/><circle cx="2046.74" cy="96.74" r="56.69" class="cls-32"/><circle cx="2046.74" cy="96.74" r="36.57" class="cls-34"/></g></g><circle cx="2046.74" cy="96.74" r="17.42" class="cls-31"/></g><path d="M1128.84,142.05h188.89c33.3,0,60.34,27.04,60.34,60.34V478.26c0,17.93-14.56,32.49-32.49,32.49h-216.74V142.05h0Z" class="cls-71"/><polygon points="1069.57 263.28 1109.26 278.96 1141.97 326.09 1141.97 252.74 1069.57 263.28" class="cls-71"/><path d="M867.31,142.37h295.76v119.52h-295.76c-32.98,0-59.76-26.78-59.76-59.76h0c0-32.98,26.78-59.76,59.76-59.76Z" class="cls-71"/><g><path d="M844.89,170.27c12.99,0,12.99,8.06,25.99,8.06s12.99-8.06,25.99-8.06,12.99,8.06,25.99,8.06,12.99-8.06,25.99-8.06,12.99,8.06,25.99,8.06,12.99-8.06,25.99-8.06,12.99,8.06,25.99,8.06,13-8.06,25.99-8.06,13,8.06,25.99,8.06,13-8.06,25.99-8.06,13,8.06,25.99,8.06,13-8.06,26-8.06,13,8.06,26,8.06" class="cls-36"/><path d="M844.89,196.14c12.99,0,12.99,8.06,25.99,8.06s12.99-8.06,25.99-8.06,12.99,8.06,25.99,8.06,12.99-8.06,25.99-8.06,12.99,8.06,25.99,8.06,12.99-8.06,25.99-8.06,12.99,8.06,25.99,8.06,13-8.06,25.99-8.06,13,8.06,25.99,8.06,13-8.06,25.99-8.06,13,8.06,25.99,8.06,13-8.06,26-8.06,13,8.06,26,8.06" class="cls-36"/><path d="M844.89,222.02c12.99,0,12.99,8.06,25.99,8.06s12.99-8.06,25.99-8.06,12.99,8.06,25.99,8.06,12.99-8.06,25.99-8.06,12.99,8.06,25.99,8.06,12.99-8.06,25.99-8.06,12.99,8.06,25.99,8.06,13-8.06,25.99-8.06,13,8.06,25.99,8.06,13-8.06,25.99-8.06,13,8.06,25.99,8.06,13-8.06,26-8.06,13,8.06,26,8.06" class="cls-36"/></g><g><g><rect width="62.08" height="36.93" x="929.48" y="62.55" class="cls-43"/><circle cx="951.91" cy="81.01" r="5.56" class="cls-80"/><circle cx="969.14" cy="81.01" r="5.56" class="cls-80"/><line x1="919.55" x2="1001.72" y1="62.55" y2="62.55" class="cls-27"/><g><path d="M875.42,99.01h118.97c14.54,0,26.35,11.81,26.35,26.35v15.45h-103.52c-23.07,0-41.8-18.73-41.8-41.8h0Z" class="cls-73"/><g class="cls-85"><line x1="881.02" x2="1033.96" y1="119.91" y2="119.91" class="cls-26"/></g><path d="M875.42,99.01h118.97c14.54,0,26.35,11.81,26.35,26.35v15.45h-103.52c-23.07,0-41.8-18.73-41.8-41.8h0Z" class="cls-27"/></g><line x1="951.91" x2="951.91" y1="62.55" y2="44.9" class="cls-27"/><line x1="974.7" x2="974.7" y1="62.55" y2="33.8" class="cls-27"/></g><line x1="1020.74" x2="1072.08" y1="62.55" y2="62.55" class="cls-15"/><line x1="1010.19" x2="1093.35" y1="81.01" y2="81.01" class="cls-15"/><line x1="1036.54" x2="1107.62" y1="99.48" y2="99.48" class="cls-15"/><line x1="1045.29" x2="1123.37" y1="119.91" y2="119.91" class="cls-15"/></g><path d="M987.82,424.25h154.15v92.19h-186.81v-59.53c0-18.03,14.64-32.66,32.66-32.66Z" class="cls-71"/><line x1="955.16" x2="1052.74" y1="516.44" y2="516.44" class="cls-30"/><line x1="1345.14" x2="1345.14" y1="510.59" y2="244.94" class="cls-35"/><path d="M2132.76,326.09h45.97v117.06c0,12.69-10.3,22.99-22.99,22.99h0c-12.69,0-22.99-10.3-22.99-22.99v-117.06h0Z" class="cls-71"/><path d="M1990.1,306.66v-97.29c0-17.89-14.5-32.39-32.39-32.39h-7.02" class="cls-29"/><path d="M2022.02,332.13V198.67c0-17.89-14.5-32.39-32.39-32.39h-7.02" class="cls-34"/><path d="M2052.24,362.53V192.19c0-23.09-18.72-41.8-41.8-41.8h0" class="cls-35"/><path d="M1958.18,382.31V210.28c0-7.53-6.1-13.63-13.63-13.63h-115.58c-16.65,0-30.14-13.5-30.14-30.14v-12.7" class="cls-32"/><path d="M1449.39,442.4v-35.18c0-7.31-5.93-13.24-13.24-13.24h-9.09c-7.31,0-13.24-5.93-13.24-13.24V214.42" class="cls-27"/><line x1="823.58" x2="744.17" y1="615.35" y2="615.35" class="cls-30"/><line x1="567.76" x2="647.17" y1="615.35" y2="615.35" class="cls-30"/><line x1="838.35" x2="739.32" y1="594.45" y2="594.45" class="cls-34"/><line x1="552.99" x2="652.02" y1="594.45" y2="594.45" class="cls-34"/><line x1="853.41" x2="719.76" y1="573.52" y2="573.52" class="cls-32"/><line x1="537.93" x2="671.58" y1="573.52" y2="573.52" class="cls-32"/><path d="M1046.8,510.75h241.25c49.68,0,90.02,40.33,90.02,90.02v37.03h-293.99c-20.57,0-37.28-16.7-37.28-37.28v-89.77h0Z" class="cls-76"/><path d="M1046.8,510.75h241.25c49.68,0,90.02,40.33,90.02,90.02v37.03h-293.99c-20.57,0-37.28-16.7-37.28-37.28v-89.77h0Z" class="cls-5"/><line x1="1465.09" x2="1465.09" y1="550.38" y2="510.66" class="cls-33"/><line x1="1433.26" x2="1433.26" y1="550.38" y2="510.66" class="cls-33"/><g><path d="M1550.16,340.62c0-31.08-25.19-56.27-56.27-56.27s-56.27,25.19-56.27,56.27h112.55Z" class="cls-72"/><g class="cls-84"><line x1="1493.88" x2="1493.88" y1="284.35" y2="342.35" class="cls-9"/><line x1="1493.88" x2="1522.88" y1="284.35" y2="334.58" class="cls-9"/><line x1="1493.88" x2="1464.88" y1="284.35" y2="334.58" class="cls-9"/></g><path d="M1550.16,340.62c0-31.08-25.19-56.27-56.27-56.27s-56.27,25.19-56.27,56.27h112.55Z" class="cls-5"/></g><g><path d="M305.67,74.4h38.25v18.74c0,7.62-6.18,13.8-13.8,13.8h-10.65c-7.62,0-13.8-6.18-13.8-13.8v-18.74h0Z" class="cls-46"/><path d="M315.23,85.48v-21.87c0-3.17-2.14-5.74-4.78-5.74h0c-2.64,0-4.78,2.57-4.78,5.74v27.34" class="cls-46"/><path d="M324.8,85.48v-27.34c0-3.17-2.14-5.74-4.78-5.74h0c-2.64,0-4.78,2.57-4.78,5.74v27.34" class="cls-46"/><path d="M334.36,83.03v-27.34c0-3.17-2.14-5.74-4.78-5.74h0c-2.64,0-4.78,2.57-4.78,5.74v27.34" class="cls-46"/><path d="M343.92,87.19v-27.34c0-3.17-2.14-5.74-4.78-5.74h0c-2.64,0-4.78,2.57-4.78,5.74v25.62" class="cls-46"/></g><path d="M890.92,637.42H121.08c-14.06,0-25.46-11.4-25.46-25.46v-206.74H231.66c14.18,0,25.67-11.49,25.67-25.67V168.84c0-15.26,12.37-27.63,27.63-27.63h250.59c33.71,0,61.03,27.33,61.03,61.03h0c0,33.71-27.33,61.03-61.03,61.03h-94.33v252.1c0,13.99,11.34,25.34,25.34,25.34h464.33c13.4,0,24.27-10.87,24.27-24.27v-59.77c0-16.63,13.48-30.1,30.1-30.1h142.41v-105.19c0-32.09-26.01-58.1-58.1-58.1h-209.37c-33.71,0-61.03-27.33-61.03-61.03h0c0-33.71,27.33-61.03,61.03-61.03h456.5c32.19,0,58.28,26.09,58.28,58.28V487.66c0,12.67-10.27,22.94-22.94,22.94h-305.24v96.26c0,16.88,13.68,30.56,30.56,30.56h460.22v-233.43c0-21.99,17.83-39.82,39.82-39.82h321.93c12.48,0,22.59-10.11,22.59-22.59v-92.17c0-12.48-10.11-22.59-22.59-22.59h-85.64c-24.78,0-44.87-20.09-44.87-44.87v-35.9h252.24c38.93,0,70.49,31.56,70.49,70.49V476.87c0,16.87,13.68,30.55,30.55,30.55h92.67c16.87,0,30.55-13.68,30.55-30.55V141.21l187.07,78.36v373c0,24.77-20.08,44.84-44.84,44.84h-408.73c-11.39,0-20.63,9.24-20.63,20.63v48.52" class="cls-5"/><rect width="52.68" height="102.11" x="1626.23" y="336.66" class="cls-41" rx="6.91" ry="6.91"/><circle cx="1958.18" cy="721.24" r="14.66" class="cls-70"/><circle cx="1537.62" cy="465.46" r="14.66" class="cls-70"/><circle cx="1127.3" cy="424.25" r="14.66" class="cls-70"/><path d="M102.63,134.48h120.48v227.07c0,7.02-5.7,12.71-12.71,12.71H102.63V134.48h0Z" class="cls-58"/><g><g><circle cx="185.59" cy="542.26" r="40.69" class="cls-78"/><g class="cls-83"><line x1="185.59" x2="185.59" y1="501.57" y2="582.95" class="cls-25"/><line x1="185.59" x2="218.74" y1="535.96" y2="518.68" class="cls-25"/><line x1="185.59" x2="152.44" y1="535.96" y2="518.68" class="cls-25"/><line x1="185.59" x2="226.28" y1="563.47" y2="542.26" class="cls-25"/><line x1="185.59" x2="144.9" y1="563.47" y2="542.26" class="cls-25"/></g><circle cx="185.59" cy="542.26" r="40.69" class="cls-5"/></g><line x1="185.59" x2="185.59" y1="637.42" y2="582.95" class="cls-5"/></g><g><path d="M871.84,373.75l-26.95,24.11v17.38h-32.78v-17.38l-26.95-24.11-26.95,24.11v17.38h-33.16v-109.32h-58.78v109.32h-33.16v-17.38l-26.95-24.11-26.95,24.11v17.38h-32.78v-17.38l-26.95-24.11-26.95,24.11v87.1c0,6.83,5.54,12.37,12.37,12.37h381.51c6.83,0,12.37-5.54,12.37-12.37v-87.1l-26.95-24.11Z" class="cls-77"/><path d="M871.84,373.75l-26.95,24.11v17.38h-32.78v-17.38l-26.95-24.11-26.95,24.11v17.38h-33.16v-109.32h-58.78v109.32h-33.16v-17.38l-26.95-24.11-26.95,24.11v17.38h-32.78v-17.38l-26.95-24.11-26.95,24.11v87.1c0,6.83,5.54,12.37,12.37,12.37h381.51c6.83,0,12.37-5.54,12.37-12.37v-87.1l-26.95-24.11Z" class="cls-5"/></g><polygon points="695.51 211.31 724.74 279.8 695.51 279.8 666.28 279.8 695.51 211.31" class="cls-57"/><circle cx="695.51" cy="346.12" r="12.17" class="cls-49"/><line x1="702.93" x2="702.93" y1="414.06" y2="376.01" class="cls-15"/><line x1="688.41" x2="688.41" y1="414.06" y2="376.01" class="cls-14"/><path d="M695.67,429.76h0c7.31,0,13.25,5.94,13.25,13.25v34.39h-26.51v-34.39c0-7.31,5.94-13.25,13.25-13.25Z" class="cls-65"/><line x1="785.17" x2="785.17" y1="435.54" y2="414.06" class="cls-64"/><line x1="785.17" x2="785.17" y1="473.03" y2="451.55" class="cls-64"/><line x1="871.84" x2="871.84" y1="435.54" y2="414.06" class="cls-64"/><line x1="871.84" x2="871.84" y1="473.03" y2="451.55" class="cls-64"/><line x1="605.86" x2="605.86" y1="435.54" y2="414.06" class="cls-63"/><line x1="605.86" x2="605.86" y1="473.03" y2="451.55" class="cls-63"/><line x1="562.52" x2="562.52" y1="473.03" y2="451.55" class="cls-63"/><line x1="652.17" x2="652.17" y1="473.03" y2="451.55" class="cls-63"/><line x1="828.82" x2="828.82" y1="473.03" y2="451.55" class="cls-64"/><line x1="739.17" x2="739.17" y1="473.03" y2="451.55" class="cls-64"/><line x1="519.18" x2="519.18" y1="435.54" y2="414.06" class="cls-63"/><line x1="519.18" x2="519.18" y1="473.03" y2="451.55" class="cls-63"/><path d="M382.55,257.86v37.3c0,20.6-16.69,37.3-37.3,37.3s-37.3-16.69-37.3-37.3v-37.3l24.06,13.22,13.24-13.22,13.24,13.22,24.06-13.22Z" class="cls-38"/><path d="M345.25,332.45v110.71c0,10.53-8.54,19.07-19.07,19.07h-121.52c-10.53,0-19.07,8.54-19.07,19.07v20.27" class="cls-27"/><path d="M373.77,401.03h18.84c0,15.74-12.78,28.52-28.52,28.52h-18.84c0-15.74,12.78-28.52,28.52-28.52Z" class="cls-62"/><path d="M2388.53,127.79h18.84c0,15.74-12.78,28.52-28.52,28.52h-18.84c0-15.74,12.78-28.52,28.52-28.52Z" class="cls-62"/><path d="M2463.41,367.75h18.84c0,15.74-12.78,28.52-28.52,28.52h-18.84c0-15.74,12.78-28.52,28.52-28.52Z" class="cls-62"/><path d="M1624.63,82.48h18.84c0,15.74-12.78,28.52-28.52,28.52h-18.84c0-15.74,12.78-28.52,28.52-28.52Z" class="cls-62"/><path d="M1717.78,191.55h18.84c0,15.74-12.78,28.52-28.52,28.52h-18.84c0-15.74,12.78-28.52,28.52-28.52Z" class="cls-62"/><path d="M2463.41,528h18.84c0,15.74-12.78,28.52-28.52,28.52h-18.84c0-15.74,12.78-28.52,28.52-28.52Z" class="cls-62"/><path d="M2312.65,96.01h18.84c15.74,0,28.52,12.78,28.52,28.52h-18.84c-15.74,0-28.52-12.78-28.52-28.52h0Z" class="cls-62" transform="translate(4672.66 220.55) rotate(180)"/><path d="M267.99,471.79h18.84c0,15.74-12.78,28.52-28.52,28.52h-18.84c0-15.74,12.78-28.52,28.52-28.52Z" class="cls-62" transform="translate(-222.9 749.2) rotate(-90)"/><path d="M973.98,525.86h18.84c0,15.74-12.78,28.52-28.52,28.52h-18.84c0-15.74,12.78-28.52,28.52-28.52Z" class="cls-62" transform="translate(429.01 1509.26) rotate(-90)"/><path d="M265.51,424.43h18.84c15.74,0,28.52,12.78,28.52,28.52h-18.84c-15.74,0-28.52-12.78-28.52-28.52h0Z" class="cls-62" transform="translate(727.88 149.49) rotate(90)"/><path d="M945.46,479.92h18.84c15.74,0,28.52,12.78,28.52,28.52h-18.84c-15.74,0-28.52-12.78-28.52-28.52h0Z" class="cls-62" transform="translate(1463.32 -474.96) rotate(90)"/><path d="M297.88,367.75h18.84c15.74,0,28.52,12.78,28.52,28.52h-18.84c-15.74,0-28.52-12.78-28.52-28.52h0Z" class="cls-62" transform="translate(643.13 764.02) rotate(180)"/><g><path d="M591.47,319.46c-2.59,0-5.02,.63-7.19,1.72-5.33-11.03-16.62-18.64-29.7-18.64-10.82,0-20.42,5.21-26.43,13.27-3.46-2.09-7.52-3.3-11.86-3.3-12.7,0-22.99,10.29-22.99,22.99h114.2c0-8.85-7.18-16.03-16.03-16.03Z" class="cls-74"/><path d="M591.47,319.46c-2.59,0-5.02,.63-7.19,1.72-5.33-11.03-16.62-18.64-29.7-18.64-10.82,0-20.42,5.21-26.43,13.27-3.46-2.09-7.52-3.3-11.86-3.3-12.7,0-22.99,10.29-22.99,22.99h114.2c0-8.85-7.18-16.03-16.03-16.03Z" class="cls-32"/></g><g><path d="M262.3,579.93h228.26c17.86,0,32.35,14.5,32.35,32.35v38.98h-228.26c-17.86,0-32.35-14.5-32.35-32.35v-38.98h0Z" class="cls-73" transform="translate(785.22 1231.21) rotate(-180)"/><g class="cls-89"><path d="M265.42,599.18h220.73c8.32,0,15.07,6.75,15.07,15.07v32.08" class="cls-21"/><line x1="262.3" x2="478.78" y1="618.92" y2="618.92" class="cls-28"/></g><path d="M262.3,579.93h228.26c17.86,0,32.35,14.5,32.35,32.35v38.98h-228.26c-17.86,0-32.35-14.5-32.35-32.35v-38.98h0Z" class="cls-5" transform="translate(785.22 1231.21) rotate(-180)"/></g><circle cx="329.81" cy="651.27" r="14.3" class="cls-70"/><circle cx="457.94" cy="651.27" r="14.3" class="cls-70"/><g><path d="M528.89,173.28h-187.89V106.94h-32.54v66.34c0,17.97,14.57,32.54,32.54,32.54h48.38v9.96c0,8.27,6.7,14.97,14.97,14.97h146.05v-35.95c0-11.88-9.63-21.51-21.51-21.51Z" class="cls-76"/><path d="M528.89,173.28h-187.89V106.94h-32.54v66.34c0,17.97,14.57,32.54,32.54,32.54h48.38v9.96c0,8.27,6.7,14.97,14.97,14.97h146.05v-35.95c0-11.88-9.63-21.51-21.51-21.51Z" class="cls-27"/></g><g><path d="M452.65,89.53v86.36c0,9.52,7.72,17.24,17.24,17.24s17.24-7.72,17.24-17.24v-35.08h10.46c3.5,0,6.33-2.84,6.33-6.33v-44.94h-51.27Z" class="cls-78"/><path d="M452.65,89.53v86.36c0,9.52,7.72,17.24,17.24,17.24s17.24-7.72,17.24-17.24v-35.08h10.46c3.5,0,6.33-2.84,6.33-6.33v-44.94h-51.27Z" class="cls-27"/></g><g><path d="M488.87,68.94h-36.22c-16.84,0-30.49,13.65-30.49,30.49V230.74h30.49V89.53h55.36v-1.45c0-10.57-8.57-19.14-19.14-19.14Z" class="cls-71"/><path d="M488.87,68.94h-36.22c-16.84,0-30.49,13.65-30.49,30.49V230.74h30.49V89.53h55.36v-1.45c0-10.57-8.57-19.14-19.14-19.14Z" class="cls-27"/></g><path d="M480.33,108.67c0-3.21-2.6-5.81-5.81-5.81s-5.81,2.6-5.81,5.81" class="cls-25"/><path d="M501.29,108.67c0-3.21-2.6-5.81-5.81-5.81s-5.81,2.6-5.81,5.81v8.63h-6.63" class="cls-25"/><path d="M489.65,127.4h-10.17c-3.28,0-5.94-2.66-5.94-5.94h0" class="cls-25"/><g><path d="M2079.42,548.46h38.25v18.74c0,7.62-6.18,13.8-13.8,13.8h-10.65c-7.62,0-13.8-6.18-13.8-13.8v-18.74h0Z" class="cls-45" transform="translate(2663.28 -1533.82) rotate(90)"/><path d="M2103.74,555.16h21.87c3.17,0,5.74-2.14,5.74-4.78h0c0-2.64-2.57-4.78-5.74-4.78h-27.34" class="cls-45"/><path d="M2103.74,564.73h27.34c3.17,0,5.74-2.14,5.74-4.78h0c0-2.64-2.57-4.78-5.74-4.78h-27.34" class="cls-45"/><path d="M2106.19,574.29h27.34c3.17,0,5.74-2.14,5.74-4.78h0c0-2.64-2.57-4.78-5.74-4.78h-27.34" class="cls-45"/><path d="M2102.03,583.85h27.34c3.17,0,5.74-2.14,5.74-4.78h0c0-2.64-2.57-4.78-5.74-4.78h-25.62" class="cls-45"/></g><g><path d="M1983.22,548.53v-17.17c0-15.87-12.87-28.74-28.74-28.74h-200.1c-.48,0-.96,.04-1.43,.07v-.02h-107.15v-78.41h-39.04v83.5c0,16.04,13,29.04,29.04,29.04h97.07v69.99h161.02v-71.63h56.8v13.71c0,17.71,14.36,32.07,32.07,32.07h100.87v-32.4h-100.4Z" class="cls-71"/><path d="M1983.22,548.53v-17.17c0-15.87-12.87-28.74-28.74-28.74h-200.1c-.48,0-.96,.04-1.43,.07v-.02h-107.15v-78.41h-39.04v83.5c0,16.04,13,29.04,29.04,29.04h97.07v69.99h161.02v-71.63h56.8v13.71c0,17.71,14.36,32.07,32.07,32.07h100.87v-32.4h-100.4Z" class="cls-27"/></g><g><path d="M1779.34,418.87v44.94c0,3.5,2.84,6.33,6.33,6.33h10.46v35.08c0,9.52,7.72,17.24,17.24,17.24s17.24-7.72,17.24-17.24v-86.36h-51.27Z" class="cls-76"/><path d="M1779.34,418.87v44.94c0,3.5,2.84,6.33,6.33,6.33h10.46v35.08c0,9.52,7.72,17.24,17.24,17.24s17.24-7.72,17.24-17.24v-86.36h-51.27Z" class="cls-27"/></g><g><path d="M1830.62,391.55h-52.11c-7.87,0-14.26,6.38-14.26,14.26h0c0,7.87,6.38,14.26,14.26,14.26h52.11v53.04h0c16.84,0,30.49-13.65,30.49-30.49v-20.57c0-16.84-13.65-30.49-30.49-30.49Z" class="cls-73"/><path d="M1830.62,391.55h-52.11c-7.87,0-14.26,6.38-14.26,14.26h0c0,7.87,6.38,14.26,14.26,14.26h52.11v53.04h0c16.84,0,30.49-13.65,30.49-30.49v-20.57c0-16.84-13.65-30.49-30.49-30.49Z" class="cls-27"/></g><path d="M1802.94,438.01c0-3.21,2.6-5.81,5.81-5.81,3.21,0,5.81,2.6,5.81,5.81" class="cls-25"/><path d="M1781.97,438.01c0-3.21,2.6-5.81,5.81-5.81s5.81,2.6,5.81,5.81v8.63h6.63" class="cls-25"/><path d="M1793.62,456.74h10.17c3.28,0,5.94-2.66,5.94-5.94h0" class="cls-25"/><rect width="130.19" height="45.45" x="1179.86" y="491.72" class="cls-76"/><path d="M1334.29,510.75h-16.79v-185.04h-74.1V197.61c0-4.46-3.61-8.07-8.07-8.07h-48.86c-4.46,0-8.07,3.61-8.07,8.07V510.59h-15.32" class="cls-57"/><g><line x1="1243.4" x2="1289.9" y1="358.46" y2="358.46" class="cls-29"/><line x1="1243.4" x2="1289.9" y1="383.68" y2="383.68" class="cls-29"/><line x1="1243.4" x2="1289.9" y1="408.89" y2="408.89" class="cls-29"/><line x1="1243.4" x2="1289.9" y1="434.11" y2="434.11" class="cls-29"/><line x1="1243.4" x2="1289.9" y1="459.32" y2="459.32" class="cls-29"/><line x1="1243.4" x2="1289.9" y1="484.54" y2="484.54" class="cls-29"/><line x1="1243.4" x2="1289.9" y1="509.76" y2="509.76" class="cls-29"/></g><path d="M1209.58,193.49v338.81c0,7.35,5.96,13.31,13.31,13.31h60.73c27.99,0,50.68,22.69,50.68,50.68v19.07" class="cls-32"/><g><path d="M1176.63,575.78h462.66c18.53,0,33.58,15.05,33.58,33.58v28.43h-460.66c-19.64,0-35.58-15.94-35.58-35.58v-26.43h0Z" class="cls-71"/><g class="cls-88"><line x1="1202" x2="1289.45" y1="597.45" y2="597.45" class="cls-21"/><line x1="1332.25" x2="1419.7" y1="597.45" y2="597.45" class="cls-21"/><line x1="1463.3" x2="1550.76" y1="597.45" y2="597.45" class="cls-21"/><line x1="1591.99" x2="1672.87" y1="597.45" y2="597.45" class="cls-21"/><g><line x1="1310.86" x2="1310.86" y1="637.79" y2="575.78" class="cls-24"/><line x1="1441.1" x2="1441.1" y1="637.79" y2="575.78" class="cls-24"/><line x1="1572.16" x2="1572.16" y1="637.79" y2="575.78" class="cls-24"/><line x1="1178.11" x2="1672.87" y1="616.17" y2="616.17" class="cls-24"/></g></g><path d="M1176.63,575.78h462.66c18.53,0,33.58,15.05,33.58,33.58v28.43h-460.66c-19.64,0-35.58-15.94-35.58-35.58v-26.43h0Z" class="cls-5"/></g><path d="M381.59,549.98h-43.51v-43.51c0-10.04,8.14-18.18,18.18-18.18,5.02,0,9.56,2.04,12.86,5.33,3.29,3.29,5.32,7.83,5.33,12.86v7.14h7.14c5.02,0,9.56,2.04,12.86,5.33,3.29,3.29,5.33,7.84,5.33,12.86,0,10.04-8.14,18.18-18.18,18.18Z" class="cls-60"/><path d="M2465.73,109.4v-43.51h-43.51c-10.04,0-18.18,8.14-18.18,18.18,0,5.02,2.04,9.56,5.33,12.86s7.83,5.32,12.86,5.33h7.14v7.14c0,5.02,2.04,9.56,5.33,12.86,3.29,3.29,7.84,5.33,12.86,5.33,10.04,0,18.18-8.14,18.18-18.18Z" class="cls-60"/><path d="M125.17,466.39v-31h31c7.15,0,12.95,5.8,12.95,12.95,0,3.58-1.45,6.81-3.79,9.16s-5.58,3.79-9.16,3.79h-5.09v5.09c0,3.58-1.45,6.81-3.79,9.16s-5.58,3.79-9.16,3.79c-7.15,0-12.95-5.8-12.95-12.95Z" class="cls-60"/><path d="M1824.29,436.84h8.47c4.68,0,8.47,3.79,8.47,8.47h0c0,4.68-3.79,8.47-8.47,8.47h-8.47" class="cls-67"/><circle cx="695.67" cy="615.6" r="48.5" class="cls-56"/><path d="M719.05,622.66c0-12.91-23.38-37.49-23.38-37.49,0,0-23.38,24.57-23.38,37.49s10.47,23.38,23.38,23.38,23.38-10.47,23.38-23.38Z" class="cls-52"/><circle cx="695.67" cy="622.66" r="10.3" class="cls-51"/><line x1="90.32" x2="240.42" y1="114.08" y2="114.08" class="cls-34"/><line x1="113.1" x2="217.64" y1="96.74" y2="96.74" class="cls-32"/><line x1="129.33" x2="201.4" y1="79.41" y2="79.41" class="cls-35"/><g><path d="M1598.96,382.71h42.19v18.04c0,8-6.49,14.49-14.49,14.49h-13.2c-8,0-14.49-6.49-14.49-14.49v-18.04h0Z" class="cls-45" transform="translate(2019.03 -1221.08) rotate(90)"/><path d="M1625.25,388.43h13.66c3.17,0,5.74-2.36,5.74-5.27h0c0-2.91-2.57-5.27-5.74-5.27h-19.13" class="cls-45"/><path d="M1625.25,398.98h19.13c3.17,0,5.74-2.36,5.74-5.27h0c0-2.91-2.57-5.27-5.74-5.27h-19.13" class="cls-45"/><path d="M1627.7,409.52h19.13c3.17,0,5.74-2.36,5.74-5.27h0c0-2.91-2.57-5.27-5.74-5.27h-19.13" class="cls-45"/><path d="M1623.54,420.07h19.13c3.17,0,5.74-2.36,5.74-5.27h0c0-2.91-2.57-5.27-5.74-5.27h-17.41" class="cls-45"/></g><g><path d="M1462.46,196.86h201.1c0,13.1-10.64,23.74-23.74,23.74h-177.37v-23.74h0Z" class="cls-42"/><path d="M1462.46,220.6h160.32c0,13.1-10.64,23.74-23.74,23.74h-136.58v-23.74h0Z" class="cls-37"/><path d="M1462.46,244.34h123.38v2.91c0,11.49-9.33,20.82-20.82,20.82h-102.56v-23.74h0Z" class="cls-39"/><path d="M1324.2,196.86h177.37c13.1,0,23.74,10.64,23.74,23.74h-201.1v-23.74h0Z" class="cls-42" transform="translate(2849.51 417.47) rotate(180)"/><path d="M1364.98,220.6h136.58c13.1,0,23.74,10.64,23.74,23.74h-160.32v-23.74h0Z" class="cls-37" transform="translate(2890.29 464.94) rotate(180)"/><path d="M1401.93,244.34h102.56c11.49,0,20.82,9.33,20.82,20.82v2.91h-123.38v-23.74h0Z" class="cls-39" transform="translate(2927.23 512.42) rotate(180)"/></g><line x1="1894.35" x2="1894.35" y1="484.36" y2="426.34" class="cls-6"/><line x1="1926.26" x2="1926.26" y1="484.36" y2="382.31" class="cls-4"/><line x1="2022.02" x2="2022.02" y1="532.38" y2="352.36" class="cls-4"/><line x1="1958.18" x2="1958.18" y1="484.36" y2="403.4" class="cls-7"/><line x1="2053.93" x2="2053.93" y1="532.38" y2="383.16" class="cls-7"/><line x1="1990.1" x2="1990.1" y1="497.61" y2="329.18" class="cls-8"/><circle cx="1662.58" cy="352.87" r="4.76" class="cls-74"/><path d="M1772.93,291.91c0-6.11-3.81-11.32-9.18-13.42,2.31-5.28,1.32-11.66-3-15.98-4.32-4.32-10.7-5.31-15.98-3-2.1-5.37-7.31-9.18-13.42-9.18s-11.32,3.81-13.42,9.18c-5.28-2.31-11.66-1.32-15.98,3-4.32,4.32-5.31,10.7-3,15.98-5.37,2.1-9.18,7.31-9.18,13.42s3.81,11.32,9.18,13.42c-2.31,5.28-1.32,11.66,3,15.98,4.32,4.32,10.7,5.31,15.98,3,2.1,5.37,7.31,9.18,13.42,9.18s11.32-3.81,13.42-9.18c5.28,2.31,11.66,1.32,15.98-3,4.32-4.32,5.31-10.7,3-15.98,5.37-2.1,9.18-7.31,9.18-13.42Z" class="cls-37"/><polyline points="1712.94 290.75 1725.99 303.8 1749.77 280.02" class="cls-31"/><path d="M1449.39,442.4h0c16.35,0,29.63,13.28,29.63,29.63v21.63h-59.26v-21.63c0-16.35,13.28-29.63,29.63-29.63Z" class="cls-67"/><path d="M1450.88,456.91h-2.98c-7.84,0-14.2,6.36-14.2,14.2" class="cls-9"/><line x1="1414.18" x2="1484.17" y1="510.66" y2="510.66" class="cls-33"/><g><path d="M1253.43,64.13h18.12c0,15.14-12.29,27.43-27.43,27.43h-18.12c0-15.14,12.29-27.43,27.43-27.43Z" class="cls-62"/><path d="M1261.33,139.6l-10.27,44.13c-1.74,7.46-8.4,12.75-16.07,12.75h-8.07c-2.7,0-5.29-.49-7.68-1.4-6.11-2.31-12.76-2.31-18.87,0-2.39,.9-4.97,1.4-7.68,1.4h-8.07c-7.68,0-14.33-5.29-16.07-12.75l-10.27-44.13c-4.14-17.74,11.13-33.95,29.08-30.9l2.19,.37c8.63,1.46,15.86,6.54,20.26,13.51,4.4-6.97,11.63-12.05,20.26-13.51l2.19-.37c17.95-3.05,33.21,13.17,29.08,30.9Z" class="cls-58"/><line x1="1209.8" x2="1209.8" y1="122.58" y2="66.77" class="cls-5"/><path d="M1185.76,123.65c-7.03,0-12.73,5.7-12.73,12.73" class="cls-9"/></g><g><rect width="161.02" height="142.79" x="1732.86" y="606.79" class="cls-73"/><g class="cls-86"><path d="M1862.2,606.79h31.68v44.49h-17.25c-7.97,0-14.43-6.47-14.43-14.43v-30.06h0Z" class="cls-53"/><line x1="1875.73" x2="1875.73" y1="650.48" y2="749.58" class="cls-53"/></g><rect width="161.02" height="142.79" x="1732.86" y="606.79" class="cls-27"/></g><line x1="1812.13" x2="1813.37" y1="749.58" y2="651.27" class="cls-27"/><path d="M2157.88,546.64v-7.15l228.29,17.67v23.2c0,10.26-8.32,18.58-18.58,18.58h-105.14c-2.05,0-4.08-.4-5.98-1.18l-88.86-36.59c-5.89-2.42-9.73-8.16-9.73-14.53Z" class="cls-40"/><polygon points="2157.88 539.49 2386.17 539.49 2386.17 581.27 2259.34 581.27 2157.88 539.49" class="cls-39"/><polygon points="2386.17 581.27 2281.54 539.41 2281.54 408.14 2386.17 450 2386.17 581.27" class="cls-40"/><polygon points="2333.85 392.98 2281.54 372.05 2281.54 304.88 2333.85 325.8 2333.85 392.98" class="cls-69"/><polygon points="2386.17 319.9 2333.85 298.97 2333.85 231.8 2386.17 252.72 2386.17 319.9" class="cls-66"/><polygon points="2386.17 415.29 2353.12 401.01 2353.12 333.83 2386.17 348.11 2386.17 415.29" class="cls-61"/><polygon points="2314.58 291.91 2281.54 277.63 2281.54 193.58 2314.58 207.86 2314.58 291.91" class="cls-67"/><g><polygon points="2295.94 529.66 2295.94 429.41 2371.77 459.74 2371.77 560 2295.94 529.66" class="cls-75"/><g class="cls-87"><line x1="2350.88" x2="2350.88" y1="551.35" y2="467.37" class="cls-11"/><line x1="2333.18" x2="2333.18" y1="542.9" y2="474.68" class="cls-12"/><line x1="2314.95" x2="2314.95" y1="535.77" y2="499.78" class="cls-13"/></g><polygon points="2295.94 529.66 2295.94 429.41 2371.77 459.74 2371.77 560 2295.94 529.66" class="cls-3"/></g><g><circle cx="1052.74" cy="473.11" r="16.2" class="cls-50"/><circle cx="1079.09" cy="484.03" r="16.2" class="cls-50"/><circle cx="1090" cy="510.38" r="16.2" class="cls-50"/><circle cx="1079.09" cy="536.73" r="16.2" class="cls-50"/><circle cx="1052.74" cy="547.64" r="16.2" class="cls-50"/><circle cx="1026.39" cy="536.73" r="16.2" class="cls-50"/><circle cx="1015.47" cy="510.38" r="16.2" class="cls-50"/><circle cx="1026.39" cy="484.03" r="16.2" class="cls-50"/><circle cx="1052.74" cy="510.38" r="25.66" class="cls-47"/><path d="M1052.74,495.48c-8.23,0-14.9,6.67-14.9,14.9" class="cls-9"/></g><path d="M1834.51,259.87l-32.64,56.53c-4.01,6.95,1,15.65,9.03,15.65h65.28c8.03,0,13.05-8.69,9.03-15.65l-32.64-56.53c-4.01-6.95-14.05-6.95-18.07,0Z" class="cls-39"/><line x1="1843.54" x2="1843.54" y1="304.86" y2="278.96" class="cls-31"/><line x1="1843.54" x2="1843.54" y1="308.23" y2="317.21" class="cls-31"/><path d="M1767.84,80.52h138.26l48.85-40.71h37.53l-10.88,43.13c-3.08,12.2-5.7,24.51-8.03,36.88-3.76,20.02-21.34,35.18-42.46,35.18h-254.85c-9.22,0-16.7-7.47-16.7-16.7h0c0-6.24,3.48-11.96,9.02-14.83l68.55-35.48c9.49-4.91,20.02-7.48,30.7-7.48Z" class="cls-55"/><line x1="1704.27" x2="1743.91" y1="107.92" y2="107.92" class="cls-10"/><g><line x1="1785.52" x2="1785.52" y1="115.96" y2="115.96" class="cls-10"/><line x1="1823.95" x2="1881.61" y1="115.96" y2="115.96" class="cls-2"/><line x1="1900.83" x2="1900.83" y1="115.96" y2="115.96" class="cls-10"/></g><path d="M1850.84,144.81h139.13c8.54,0,15.47,6.93,15.47,15.47h0c0,8.54-6.93,15.47-15.47,15.47h-170.08c0-17.08,13.86-30.94,30.94-30.94Z" class="cls-39" transform="translate(3825.34 320.57) rotate(180)"/><path d="M1671.56,125.91h21.86c13.23,0,23.97,10.74,23.97,23.97v1.35h-45.83c-6.61,0-11.98-5.37-11.98-11.98v-1.35c0-6.61,5.37-11.98,11.98-11.98Z" class="cls-80"/><path d="M2132.76,275.85h45.97v168.53c0,12.69-10.3,22.99-22.99,22.99h0c-12.69,0-22.99-10.3-22.99-22.99v-168.53h0Z" class="cls-27"/><g><line x1="2178.73" x2="2161.99" y1="303.3" y2="303.3" class="cls-25"/><line x1="2178.73" x2="2161.99" y1="329.69" y2="329.69" class="cls-25"/><line x1="2178.73" x2="2161.99" y1="356.09" y2="356.09" class="cls-25"/><line x1="2178.73" x2="2161.99" y1="382.48" y2="382.48" class="cls-25"/><line x1="2178.73" x2="2161.99" y1="408.88" y2="408.88" class="cls-25"/><line x1="2178.73" x2="2161.99" y1="435.27" y2="435.27" class="cls-25"/></g><circle cx="441.63" cy="264.47" r="14.66" class="cls-70"/><path d="M2155.75,193.58V84.88c0-8.77,7.11-15.89,15.89-15.89h172.49c8.77,0,15.89,7.11,15.89,15.89v102.76" class="cls-27"/><circle cx="2228.55" cy="68.99" r="14.66" class="cls-70"/><path d="M965.59,637.09c0-35.11-28.46-63.56-63.56-63.56" class="cls-32"/><path d="M944.67,637.09c0-23.55-19.09-42.64-42.64-42.64" class="cls-34"/><circle cx="902.03" cy="637.09" r="21.73" class="cls-43"/><line x1="1154.62" x2="1077.7" y1="576.22" y2="576.22" class="cls-15"/><line x1="1154.62" x2="1092.11" y1="593.9" y2="593.9" class="cls-15"/><line x1="1154.62" x2="1103.05" y1="611.58" y2="611.58" class="cls-15"/><g><path d="M141.6,343.53h-12.5v-20h12.5v20Zm0-40h-12.5v-20h12.5v20Zm0-40h-12.5v-20h12.5v20Zm0-40h-12.5v-20h12.5v20Zm0-40h-12.5v-20h12.5v20Z" class="cls-77"/><path d="M196.64,343.53h-12.5v-20h12.5v20Zm0-40h-12.5v-20h12.5v20Zm0-40h-12.5v-20h12.5v20Zm0-40h-12.5v-20h12.5v20Zm0-40h-12.5v-20h12.5v20Z" class="cls-77"/><path d="M169.12,343.53h-12.5v-20h12.5v20Zm0-40h-12.5v-20h12.5v20Zm0-40h-12.5v-20h12.5v20Zm0-40h-12.5v-20h12.5v20Zm0-40h-12.5v-20h12.5v20Z" class="cls-77"/></g><g><path d="M628.68,99.4v48.4c0,6.86,5.56,12.42,12.42,12.42h34.12l20.29,27.54,19.49-27.54h34.93c6.86,0,12.42-5.56,12.42-12.42v-48.4c0-6.86-5.56-12.42-12.42-12.42h-108.83c-6.86,0-12.42,5.56-12.42,12.42Z" class="cls-77"/><g class="cls-90"><rect width="36.31" height="82.68" x="734.17" y="85.48" class="cls-73"/><rect width="36.31" height="82.68" x="620.55" y="85.48" class="cls-73" transform="translate(1277.41 253.63) rotate(180)"/></g><path d="M628.68,99.4v48.4c0,6.86,5.56,12.42,12.42,12.42h34.12l20.29,27.54,19.49-27.54h34.93c6.86,0,12.42-5.56,12.42-12.42v-48.4c0-6.86-5.56-12.42-12.42-12.42h-108.83c-6.86,0-12.42,5.56-12.42,12.42Z" class="cls-27"/></g><path d="M708.29,134.18c.25-.25,10.52-9.24,10.52-9.24l-1.75-.75c-1-.49-.74-1.15-.5-1.74,.24-.76,2.01-6.73,2.01-6.73,0,0-4.77,1-5.77,1.25-.75,.24-1-.25-1.25-.75s-1.5-3.24-1.5-3.24c0,0-5.26,5.99-5.51,6.23-1,.75-2.01,0-1.76-1,0-1,2.76-12.96,2.76-12.96,0,0-3.01,1.74-4.01,2.24-.75,.5-1.26,.5-1.76-.5-.51-.75-4.27-7.98-4.27-7.98,0,0-3.75,7.23-4.25,7.98-.5,1-1,1-1.76,.5-1-.5-4.01-2.24-4.01-2.24,0,0,2.76,11.96,2.76,12.96,.25,1-.75,1.75-1.76,1-.25-.25-5.51-6.23-5.51-6.23,0,0-1.25,2.73-1.5,3.23s-.5,.99-1.25,.75c-1.01-.25-5.77-1.25-5.77-1.25,0,0,1.76,5.97,2.01,6.73,.24,.6,.5,1.25-.5,1.74l-1.75,.76s10.26,8.99,10.52,9.24c.51,.5,1,.75,.51,2.25-.51,1.5-1.01,3.51-1.01,3.51,0,0,9.52-2.01,10.53-2.26,.87-.09,1.83,.25,1.83,1.25s-.58,11.28-.58,11.28h3s-.58-10.27-.58-11.28,.95-1.34,1.84-1.25c1,.25,10.52,2.26,10.52,2.26,0,0-.5-2.01-1-3.51s0-1.75,.5-2.25Z" class="cls-73"/><path d="M1652.57,335.49v-33.87c0-6.71,5.44-12.15,12.15-12.15h25.06" class="cls-30"/><line x1="1772.93" x2="1813.37" y1="291.91" y2="291.91" class="cls-65"/><line x1="1269.24" x2="1269.24" y1="307.12" y2="208.98" class="cls-29"/><line x1="1293.65" x2="1293.65" y1="307.12" y2="168.15" class="cls-32"/><line x1="1318.07" x2="1318.07" y1="307.12" y2="236.32" class="cls-31"/><g><circle cx="972.23" cy="366.84" r="24.16" class="cls-65"/><polygon points="1052.46 326.68 998.98 326.68 972.23 366.84 1025.72 366.84 1052.46 326.68" class="cls-32"/><polyline points="1065.16 343.95 1048.73 306.86 1069.58 306.86" class="cls-32"/><line x1="980.19" x2="1012.59" y1="314.52" y2="314.52" class="cls-22"/><circle cx="1072.89" cy="366.84" r="24.16" class="cls-65"/></g><g><circle cx="2432.39" cy="212.05" r="40.69" class="cls-54"/><line x1="2432.39" x2="2432.39" y1="171.36" y2="252.74" class="cls-25"/><line x1="2432.39" x2="2465.54" y1="205.75" y2="188.47" class="cls-25"/><line x1="2432.39" x2="2399.24" y1="205.75" y2="188.47" class="cls-25"/><line x1="2432.39" x2="2473.08" y1="233.26" y2="212.05" class="cls-25"/><line x1="2432.39" x2="2391.7" y1="233.26" y2="212.05" class="cls-25"/></g><g><path d="M2176.69,223.05c0-11.57-20.94-38.22-20.94-38.22,0,0-20.94,26.65-20.94,38.22s9.38,20.94,20.94,20.94,20.94-9.38,20.94-20.94Z" class="cls-66"/><path d="M2148.01,223.02c0,4.27,3.46,7.73,7.73,7.73" class="cls-9"/></g><g><line x1="1732.86" x2="1893.88" y1="549.32" y2="549.32" class="cls-19"/><line x1="1732.86" x2="1893.88" y1="568.35" y2="568.35" class="cls-19"/><line x1="1893.88" x2="1893.88" y1="583.85" y2="536.79" class="cls-27"/><line x1="1732.86" x2="1732.86" y1="583.85" y2="536.79" class="cls-27"/></g><g><path d="M874.73,312.51c-4.34,0-8.4,1.2-11.86,3.3-6.01-8.05-15.61-13.27-26.43-13.27-13.07,0-24.37,7.61-29.7,18.64-2.16-1.09-4.6-1.72-7.19-1.72-8.85,0-16.03,7.18-16.03,16.03h114.2c0-12.7-10.29-22.99-22.99-22.99Z" class="cls-74"/><path d="M874.73,312.51c-4.34,0-8.4,1.2-11.86,3.3-6.01-8.05-15.61-13.27-26.43-13.27-13.07,0-24.37,7.61-29.7,18.64-2.16-1.09-4.6-1.72-7.19-1.72-8.85,0-16.03,7.18-16.03,16.03h114.2c0-12.7-10.29-22.99-22.99-22.99Z" class="cls-34"/></g><line x1="1374.98" x2="1374.98" y1="199.49" y2="117.23" class="cls-5"/><g><circle cx="1374.98" cy="88.47" r="40.69" class="cls-54"/><line x1="1374.98" x2="1374.98" y1="47.78" y2="129.16" class="cls-25"/><line x1="1374.98" x2="1408.13" y1="82.17" y2="64.89" class="cls-25"/><line x1="1374.98" x2="1341.83" y1="82.17" y2="64.89" class="cls-25"/><line x1="1374.98" x2="1415.67" y1="109.68" y2="88.47" class="cls-25"/><line x1="1374.98" x2="1334.29" y1="109.68" y2="88.47" class="cls-25"/></g><g><path d="M815.58,79.24c6.71,9.6,6.75,24.54,0,34.13-6.75-9.59-6.71-24.53,0-34.13h0Z" class="cls-77"/><path d="M832.65,96.3c-9.6,6.71-24.54,6.75-34.13,0,9.59-6.75,24.53-6.71,34.13,0h0Z" class="cls-77"/></g><g><path d="M399.77,335.81c6.71,9.6,6.75,24.54,0,34.13-6.75-9.59-6.71-24.53,0-34.13h0Z" class="cls-72"/><path d="M416.84,352.87c-9.6,6.71-24.54,6.75-34.13,0,9.59-6.75,24.53-6.71,34.13,0h0Z" class="cls-72"/></g><g><path d="M1493.88,370.64c6.71,9.6,6.75,24.54,0,34.13-6.75-9.59-6.71-24.53,0-34.13h0Z" class="cls-71"/><path d="M1510.95,387.71c-9.6,6.71-24.54,6.75-34.13,0,9.59-6.75,24.53-6.71,34.13,0h0Z" class="cls-71"/></g><g><path d="M2195.8,124.15c6.71,9.6,6.75,24.54,0,34.13-6.75-9.59-6.71-24.53,0-34.13h0Z" class="cls-72"/><path d="M2212.87,141.21c-9.6,6.71-24.54,6.75-34.13,0,9.59-6.75,24.53-6.71,34.13,0h0Z" class="cls-72"/></g><g><path d="M73.25,63.95c6.71,9.6,6.75,24.54,0,34.13-6.75-9.59-6.71-24.53,0-34.13h0Z" class="cls-71"/><path d="M90.32,81.01c-9.6,6.71-24.54,6.75-34.13,0,9.59-6.75,24.53-6.71,34.13,0h0Z" class="cls-71"/></g><g><path d="M1606.75,143.22c6.71,9.6,6.75,24.54,0,34.13-6.75-9.59-6.71-24.53,0-34.13h0Z" class="cls-73"/><path d="M1623.82,160.28c-9.6,6.71-24.54,6.75-34.13,0,9.59-6.75,24.53-6.71,34.13,0h0Z" class="cls-73"/></g><g><path d="M1001.72,577.38c6.71,9.6,6.75,24.54,0,34.13-6.75-9.59-6.71-24.53,0-34.13h0Z" class="cls-76"/><path d="M1018.78,594.45c-9.6,6.71-24.54,6.75-34.13,0,9.59-6.75,24.53-6.71,34.13,0h0Z" class="cls-76"/></g><g><path d="M1142.85,56.46c6.71,9.6,6.75,24.54,0,34.13-6.75-9.59-6.71-24.53,0-34.13h0Z" class="cls-77"/><path d="M1159.91,73.53c-9.6,6.71-24.54,6.75-34.13,0,9.59-6.75,24.53-6.71,34.13,0h0Z" class="cls-77"/></g><g><path d="M134.38,581.87c6.71,9.6,6.75,24.54,0,34.13-6.75-9.59-6.71-24.53,0-34.13h0Z" class="cls-72"/><path d="M151.45,598.94c-9.6,6.71-24.54,6.75-34.13,0,9.59-6.75,24.53-6.71,34.13,0h0Z" class="cls-72"/></g><g><path d="M695.51,35.33c6.71,9.6,6.75,24.54,0,34.13-6.75-9.59-6.71-24.53,0-34.13h0Z" class="cls-77"/><path d="M712.58,52.4c-9.6,6.71-24.54,6.75-34.13,0,9.59-6.75,24.53-6.71,34.13,0h0Z" class="cls-77"/></g><g><path d="M575.44,79.24c6.71,9.6,6.75,24.54,0,34.13-6.75-9.59-6.71-24.53,0-34.13h0Z" class="cls-77"/><path d="M558.38,96.3c9.6-6.71,24.54-6.75,34.13,0-9.59,6.75-24.53,6.71-34.13,0h0Z" class="cls-77"/></g><line x1="2146.02" x2="2146.02" y1="291.1" y2="444.39" class="cls-9"/><path d="M1723.45,413.72h1.28c15.28,0,27.68,12.4,27.68,27.68h0c0,15.28-12.4,27.68-27.68,27.68h-28.96v-27.68c0-15.28,12.4-27.68,27.68-27.68Z" class="cls-61" transform="translate(1282.69 2165.49) rotate(-90)"/><path d="M1713.01,443.61l10.3,10.3,8.61-8.61,1.69-1.69c2.38-2.38,2.38-6.23,0-8.61-1.19-1.19-2.75-1.78-4.31-1.78s-3.11,.59-4.31,1.78l-1.69,1.69-1.69-1.69c-1.19-1.19-2.75-1.78-4.31-1.78s-3.12,.59-4.31,1.78c-2.38,2.38-2.38,6.23,0,8.61Z" class="cls-77"/><polygon points="1460.31 168.91 1413.82 156.91 1460.31 144.91 1460.31 168.91 1460.31 168.91" class="cls-73"/><path d="M1493.88,113.37v-34.13c38.4,0,69.54,31.13,69.54,69.54h-34.13" class="cls-42"/><g><rect width="62.85" height="170.98" x="1462.46" y="113.37" class="cls-72" rx="31.42" ry="31.42"/><g class="cls-91"><g><circle cx="1493.88" cy="232.25" r="34.77" class="cls-23"/><circle cx="1493.88" cy="232.25" r="24.42" class="cls-24"/><circle cx="1493.88" cy="232.25" r="13.01" class="cls-26"/></g><line x1="1459.11" x2="1528.65" y1="168.15" y2="168.15" class="cls-24"/><line x1="1459.11" x2="1528.65" y1="180.59" y2="180.59" class="cls-26"/></g><rect width="62.85" height="170.98" x="1462.46" y="113.37" class="cls-27" rx="31.42" ry="31.42"/></g><path d="M1506.69,148.77c0-7.07-5.73-12.81-12.81-12.81s-12.81,5.73-12.81,12.81" class="cls-16"/><circle cx="1493.88" cy="148.77" r="5.08" class="cls-80"/><line x1="1528.65" x2="1511.58" y1="88.55" y2="118.11" class="cls-48"/><line x1="1524.54" x2="1554.1" y1="131.07" y2="114" class="cls-48"/><path d="M2524.62,635.62v94.4h-4.67c.04-.94,.05-1.88,.05-2.82,0-49.59-40.2-89.78-89.78-89.78v-1.8h94.4Z" class="cls-81"/><path d="M-4.73,635.62v94.4H-.06c-.04-.94-.05-1.88-.05-2.82,0-49.59,40.2-89.78,89.78-89.78v-1.8H-4.73Z" class="cls-81"/><g><path d="M1826.85,749.58h67.04v45.96h-113c0-25.37,20.6-45.96,45.96-45.96Z" class="cls-77"/><g class="cls-92"><line x1="1783.35" x2="1893.88" y1="780.7" y2="780.7" class="cls-32"/></g><path d="M1826.85,749.58h67.04v45.96h-113c0-25.37,20.6-45.96,45.96-45.96Z" class="cls-27"/></g></g></svg>