<svg xmlns="http://www.w3.org/2000/svg" xmlns:xlink="http://www.w3.org/1999/xlink" viewBox="0 0 1152.97 856.54"><defs><style>.cls-1{fill:#f6f6f6;stroke:#476856;stroke-miterlimit:10;stroke-width:3.31px}.cls-2{fill:#f2cd74}.cls-3{fill:#d84190}.cls-4{fill:#1d3269}.cls-5{fill:#df5456}.cls-6{fill:url(#linear-gradient)}.cls-7,.cls-8{fill:#fff}.cls-19,.cls-7{opacity:.4;isolation:isolate}.cls-9{fill:#f6fbff}.cls-10{fill:#96a26a}.cls-11{fill:#479cdf}.cls-12{fill:url(#linear-gradient-2)}.cls-13{fill:#e77869}.cls-14{fill:#54dee2}.cls-15{fill:#bcded5}.cls-16{fill:#77c2c6}.cls-17{fill:#476856}.cls-18{fill:#469ee1}.cls-19{fill:url(#linear-gradient-3)}.cls-20{fill:url(#linear-gradient-4)}.cls-21{fill:#70cbdd}.cls-22{fill:#bb438d}.cls-23{fill:#5f5560}.cls-24{fill:#efc959}.cls-25{fill:#3d2a3d}.cls-26{fill:url(#linear-gradient-5)}.cls-27{fill:#383838}.cls-28{fill:#dfdfdf}.cls-29{fill:#f5f5f6}.cls-30{fill:url(#linear-gradient-6)}.cls-31{fill:#848687}.cls-32{fill:#fdfeff}.cls-33{fill:#f1eed9}.cls-34{fill:#798940}</style><linearGradient id="linear-gradient" x1="506.72" x2="776.19" y1="-500.22" y2="-500.22" gradientTransform="matrix(1, 0, 0, -1, 103.68, -158.98)" gradientUnits="userSpaceOnUse"><stop offset="0" stop-color="#92ccdd"/><stop offset="1" stop-color="#6b9cd3"/></linearGradient><linearGradient id="linear-gradient-2" x1="272.46" x2="301.5" y1="534.46" y2="534.46" gradientTransform="matrix(1, 0, 0, 1, 0, 0)" xlink:href="#linear-gradient"/><linearGradient id="linear-gradient-3" x1="726.59" x2="791.8" y1="765.27" y2="765.27" gradientTransform="matrix(-1, -0.02, -0.02, 1, 973.64, 12.73)" gradientUnits="userSpaceOnUse"><stop offset="0" stop-color="#c55557"/><stop offset="1" stop-color="#de525c"/></linearGradient><linearGradient id="linear-gradient-4" x1="729.3" x2="789.09" y1="742.18" y2="742.18" xlink:href="#linear-gradient-3"/><linearGradient id="linear-gradient-5" x1="892.08" x2="942.82" y1="452.61" y2="452.61" gradientTransform="matrix(1, 0, 0, 1, 0, 0)" xlink:href="#linear-gradient"/><linearGradient id="linear-gradient-6" x1="949.09" x2="973.52" y1="453.12" y2="453.12" gradientTransform="matrix(1, 0, 0, 1, 0, 0)" xlink:href="#linear-gradient"/></defs><g id="Layer_2" data-name="Layer 2"><g id="Recycle"><line x1="542.87" x2="541.69" y1="474.72" y2="538.43" class="cls-1"/><circle id="Sun" cx="350.36" cy="658.21" r="107.33" class="cls-2"/><path d="M1025.06,273.69l-148-.42-.74,265.33,269.41.75.46-164.48a111,111,0,0,1-12.84.74A108.81,108.81,0,0,1,1025.06,273.69Z" class="cls-3"/><rect width="320.52" height="269.42" x="580.3" y="560.56" class="cls-4" transform="translate(1437.9 -43.35) rotate(90.16)"/><path d="M604.94,650.76c66.85.49,121.69-50.91,124.68-115.71l-123.82-.91Z" class="cls-5"/><path d="M735.13,409.17c-68.61-.51-124.91,55-128,125l127.07.93Z" class="cls-2"/><rect width="149.68" height="420.47" x="865.27" y="250.64" class="cls-5" transform="translate(1403.61 -477.94) rotate(90.16)"/><path d="M609.18,275.29a134.74,134.74,0,0,0,269.47.75" class="cls-6"/><path d="M689.09,663.18c-.32,15.74,9.51,28.8,23.83,30.13a16.63,16.63,0,0,0,1.87.14v-.05h0a17.5,17.5,0,0,0,15.3-8.37L730,685a32.64,32.64,0,0,0-8.73-7.13,27.12,27.12,0,0,0-12.67-3.37,2.26,2.26,0,0,1,.1-4.51,31.59,31.59,0,0,1,14.8,4,36.49,36.49,0,0,1,8.52,6.61,17.5,17.5,0,0,0-16.54-22.13l-7.33-.15A15.66,15.66,0,0,1,694.67,650a1.42,1.42,0,0,0-2.59.06A33.26,33.26,0,0,0,689.09,663.18Z" class="cls-7"/><path d="M738.79,696.86a2,2,0,0,0,.87-.16,2.25,2.25,0,0,0,1.25-2.92,44.26,44.26,0,0,0-7.42-11.7,37.2,37.2,0,0,0-10-8.17,31.55,31.55,0,0,0-14.8-4,2.26,2.26,0,0,0-.09,4.51,27.24,27.24,0,0,1,12.67,3.37A32.64,32.64,0,0,1,730,685a40.62,40.62,0,0,1,6.72,10.5A2.23,2.23,0,0,0,738.79,696.86Z" class="cls-8"/><path d="M800.88,677.06a15.19,15.19,0,1,0-15.49,14.88A15.18,15.18,0,0,0,800.88,677.06Z" class="cls-9"/><path d="M796.7,696l-2.7-.05a20.87,20.87,0,0,1-17.39-.35l-2.69-.06a5.7,5.7,0,0,0-5.61,4.2L756,745a5.69,5.69,0,0,0,4,7,5.82,5.82,0,0,0,1.38.2l13.28.27-.5,24.67a5.7,5.7,0,0,0,5.58,5.81l7.6.16a5.71,5.71,0,0,0,5.81-5.58l.5-24.68,13.28.27a5.7,5.7,0,0,0,5.81-5.58,5.77,5.77,0,0,0-.14-1.38l-10.47-45.79A5.7,5.7,0,0,0,796.7,696Z" class="cls-5"/><path d="M489.75,492.26l0,0h0l0,0Z" class="cls-10"/><polygon points="274.48 657.96 293.54 658.28 290.66 539.87 283.04 539.74 274.48 657.96" class="cls-11"/><path d="M272.46,534.22c-.16,6.76,6.21,12.35,14.22,12.48s14.65-5.23,14.82-12-6.21-12.35-14.23-12.49S272.62,527.45,272.46,534.22Z" class="cls-12"/><path d="M279.82,534.34c-.08,3.33,3.06,6.09,7,6.16s7.22-2.58,7.3-5.91-3.05-6.09-7-6.16S279.9,531,279.82,534.34Z" class="cls-13"/><path d="M236.55,586.35l0,0,0,0,0,0Z" class="cls-10"/><path d="M302.89,589.25l0,0,0,0,0,0Z" class="cls-10"/><polygon points="680.28 503.77 680.09 513.2 688.58 513.37 688.51 516.54 676.58 516.3 676.83 503.7 680.28 503.77" class="cls-4"/><polygon points="664.7 512.89 673.18 513.06 673.38 503.63 676.83 503.7 676.58 516.3 664.64 516.06 664.7 512.89" class="cls-4"/><path d="M1026,277.37l-153.9-.44L872.82,0,1153,.78l-.48,171.69a113.1,113.1,0,0,0-13.35-.85C1079.17,171.45,1030,218.15,1026,277.37Z" class="cls-14"/><rect width="245.1" height="8.07" x="633.79" y=".17" class="cls-3"/><rect width="275.03" height="269.42" x="606.79" y="5.16" class="cls-3" transform="translate(886.26 -604.05) rotate(90.16)"/><path d="M730,55.12a4.37,4.37,0,0,0-4.24,2.39h8.33C733.83,56.21,732,55.12,730,55.12Z" class="cls-15"/><path d="M671.88,107v17.1h72.83v35.4H742a4.6,4.6,0,0,0-4.59,4.6v3.83a4.6,4.6,0,0,0,4.59,4.59h18.39V107Z" class="cls-16"/><path d="M780.34,159.47H778V117.53S780.43,92.45,756,92.45h-22V67.28h7.79c4.77,2.45,13.31,4.11,20.13,4.11,10,0,14.58-3.58,14.58-8s-4.54-8-14.58-8c-6.8,0-15.3,1.65-20.07,4.08H715.69c-4.6-2.43-12.71-4.08-18.81-4.08-9,0-15.3,3.58-15.3,8s6.3,8,15.3,8c6.12,0,14.28-1.66,18.87-4.11h10.07V92.45H671.88V107h88.55v65.52h19.91a4.6,4.6,0,0,0,4.6-4.59v-3.83A4.6,4.6,0,0,0,780.34,159.47Z" class="cls-15"/><path d="M672.52,65.38A25.7,25.7,0,0,0,693.87,77.7c8.61.33,21.62-9.12,32.27-9.14C726.14,68.56,708,34.5,672.52,65.38Z" class="cls-10"/><path d="M696.45,62.68c-6.46,0-22.87,2.19-23.5,2.74A25.68,25.68,0,0,0,694.3,77.74c8.54.33,21.4-9,32-9.13l-.28-.42C723,66.23,715.05,62.7,696.45,62.68Z" class="cls-17"/><path d="M787.92,65.27A25.7,25.7,0,0,1,766.57,77.6c-8.61.32-21.62-9.13-32.27-9.15C734.3,68.45,752.49,34.39,787.92,65.27Z" class="cls-10"/><path d="M764,62.58c6.46,0,14.56.53,21.63,1.15.62.51,1.24,1,1.87,1.58a25.7,25.7,0,0,1-21.35,12.33c-8.54.32-21.4-9-32-9.13l.28-.43C737.42,66.12,745.39,62.6,764,62.58Z" class="cls-17"/><path d="M606.8,651c-68.64.12-124.64-51.72-127.33-116.7l127.13-.22Z" class="cls-14"/><path d="M652.46,584.35a.74.74,0,0,0-1.05,0l-.06.07a14.32,14.32,0,0,0,20,20,.73.73,0,0,0,.15-1l-.07-.08Zm20.69-1.71a14.36,14.36,0,0,0-18.59-1.43.74.74,0,0,0-.14,1l.07.08,19,19a.75.75,0,0,0,1,0l.06-.07a14.36,14.36,0,0,0-1.43-18.59Z" class="cls-9"/><path d="M635.56,566.86a10.08,10.08,0,0,0-10.09,10.07h0V587h20.17V576.94a10.08,10.08,0,0,0-10.07-10.08Z" class="cls-9"/><path d="M645.64,587v10.08a10.09,10.09,0,0,1-20.17,0V587Z" class="cls-4"/><rect width="262" height="206" x="345" y="650.51" class="cls-18"/><path d="M194.59,650.51H346a0,0,0,0,1,0,0v205a0,0,0,0,1,0,0H0a0,0,0,0,1,0,0V845.1A194.59,194.59,0,0,1,194.59,650.51Z" class="cls-5"/><circle cx="202.62" cy="751.42" r="63.38" class="cls-9"/><path d="M169,787.92a2.7,2.7,0,0,0-.22,1.12h0a2.71,2.71,0,0,0,2.78,2.65l8.95-.19,6.05,6.61a2.72,2.72,0,0,0,4.5-.78l10.58-24.81,9.8,25.15a3,3,0,0,0,.63,1h0a2.73,2.73,0,0,0,3.85,0l6.26-6.41,8.94.49a2.67,2.67,0,0,0,1.12-.18,2.72,2.72,0,0,0,1.56-3.51l-9.61-24.66a6.92,6.92,0,0,1-3.79,2.56c-3.81,1-4.09.8-6.64,3.3a6.73,6.73,0,0,1-8.46.85,6.73,6.73,0,0,0-7.22-.12,6.76,6.76,0,0,1-8.43-1.13c-2.55-2.68-2.85-2.46-6.53-3.53a6.94,6.94,0,0,1-3.73-2.72L169,787.92Zm44-45.59A10.87,10.87,0,1,0,202,753,10.88,10.88,0,0,0,213.06,742.33Z" class="cls-19"/><path d="M172.6,737.71c1.19,4.84,1.2,4.17-.15,9a7.05,7.05,0,0,0,1.66,6.75c3.41,3.59,3.09,3,4.28,7.85a6.9,6.9,0,0,0,4.75,5c3.68,1.07,4,.85,6.53,3.53a6.76,6.76,0,0,0,8.43,1.13,6.73,6.73,0,0,1,7.22.12,6.75,6.75,0,0,0,8.46-.85c2.55-2.5,2.83-2.33,6.64-3.3a6.9,6.9,0,0,0,4.91-4.85c1.36-4.8,1-4.22,4.55-7.69a7.06,7.06,0,0,0,1.88-6.69c-1.19-4.85-1.2-4.18.15-9a7.05,7.05,0,0,0-1.66-6.75c-3.4-3.59-3.09-3-4.27-7.85a6.91,6.91,0,0,0-4.76-5c-4.72-1.37-4.15-1-7.55-4.61a6.76,6.76,0,0,0-6.58-1.92c-4.77,1.22-4.1,1.23-8.82-.14a6.72,6.72,0,0,0-6.61,1.69c-3.54,3.47-3,3.14-7.72,4.35a6.91,6.91,0,0,0-4.92,4.85c-1.35,4.8-1,4.22-4.53,7.69a7.08,7.08,0,0,0-1.89,6.7Zm13.29,4.17a16.3,16.3,0,1,1,16,16.57A16.31,16.31,0,0,1,185.89,741.88Z" class="cls-20"/><rect width="45" height="15.35" x="610" y=".17" class="cls-3"/><path d="M1143.05,294.73c-1,1-2,1.46-1,4.4S1144,306,1144,306s-18.59-4.05-20.56-4.55c-1.7-.18-3.58.47-3.59,2.42s1,22.07,1,22.07l-5.86,0s1.26-20.07,1.27-22-1.84-2.63-3.58-2.46c-2,.47-20.6,4.28-20.6,4.28s1-3.92,2-6.85,0-3.42-1-4.4c-.49-.49-20.46-18.2-20.46-18.2l3.43-1.44c2-.95,1.46-2.24,1-3.4-.46-1.49-3.84-13.19-3.84-13.19s9.31,2,11.26,2.52c1.47.48,2-.48,2.46-1.45s3-6.32,3-6.32,10.21,11.78,10.7,12.25c1.94,1.48,3.93,0,3.45-1.93,0-2-5.24-25.38-5.24-25.38s5.87,3.44,7.82,4.43c1.46,1,2.45,1,3.44-.95,1-1.46,8.45-15.55,8.45-15.55s7.24,14.18,8.21,15.65c1,2,2,2,3.44,1,2-1,7.87-4.33,7.87-4.33s-5.55,23.35-5.56,25.31c-.5,1.95,1.44,3.43,3.43,2,.49-.49,10.85-12.12,10.85-12.12s2.41,5.36,2.89,6.34c.12.23.23.46.36.67V173a103.5,103.5,0,1,0,0,202.08V288.69C1146.3,291.9,1143.24,294.55,1143.05,294.73Z" class="cls-8"/><path d="M1146.75,253.3s-10.36,11.63-10.85,12.12c-2,1.45-3.93,0-3.43-2,0-2,5.56-25.31,5.56-25.31s-5.91,3.37-7.87,4.33c-1.49,1-2.47,1-3.44-1-1-1.47-8.21-15.65-8.21-15.65s-7.44,14.09-8.45,15.55c-1,1.95-2,1.94-3.44.95-1.95-1-7.82-4.43-7.82-4.43s5.25,23.42,5.24,25.38c.48,2-1.51,3.41-3.45,1.93-.49-.47-10.7-12.25-10.7-12.25s-2.48,5.34-3,6.32-1,1.93-2.46,1.45c-2-.5-11.26-2.52-11.26-2.52s3.38,11.7,3.84,13.19c.46,1.16,1,2.45-1,3.4l-3.43,1.44s20,17.71,20.46,18.2c1,1,1.94,1.48,1,4.4s-2,6.85-2,6.85,18.64-3.81,20.6-4.28c1.74-.17,3.59.49,3.58,2.46s-1.27,22-1.27,22l5.86,0s-1-20.11-1-22.07,1.89-2.6,3.59-2.42c2,.5,20.56,4.55,20.56,4.55s-1-3.93-1.93-6.87,0-3.42,1-4.4c.19-.18,3.25-2.83,7-6V260.31c-.13-.21-.24-.44-.36-.67C1149.16,258.66,1146.75,253.3,1146.75,253.3Z" class="cls-5"/><polygon points="555.51 609.14 568.23 609.64 575.43 599.17 573.56 592.95 563.41 592.55 555.51 609.14" class="cls-4"/><polygon points="567.93 585.4 582.38 582.9 584.64 596.7 578.14 596.44 574.97 591 567.72 590.71 567.93 585.4" class="cls-9"/><polygon points="576.75 598.56 586.9 598.96 592.25 610.65 569.05 609.75 576.75 598.56" class="cls-4"/><rect width="4.02" height="34.77" x="539.93" y="564.32" class="cls-9" transform="translate(482.89 1374.54) rotate(-132.77)"/><path d="M536.89,563.82a74.83,74.83,0,0,1,23,24.87c2-3.42-.71-10.65-6.58-17S540.45,562.09,536.89,563.82Z" class="cls-4"/><path d="M764.35,322.38c-28.51-.58-37.52,25.52-45.13,25.37a4.22,4.22,0,0,1-4.12-4.3l.23-11.49,5.91-3.46a3.78,3.78,0,0,0,1.74-3.09l.19-9.5a1.88,1.88,0,0,0-1.84-1.92,1.94,1.94,0,0,0-1.05.3l-8.45,5.39L703.6,314a1.89,1.89,0,0,0-2.62.47,1.8,1.8,0,0,0-.33,1l-.2,9.5a3.77,3.77,0,0,0,1.61,3.16l5.77,3.7-.24,11.49a11.74,11.74,0,0,0,11.48,12l48.35,1a7.52,7.52,0,0,0,7.66-7.36l.3-15A11.27,11.27,0,0,0,764.35,322.38Zm-13.54,19.44a2.82,2.82,0,1,1,2.87-2.76A2.82,2.82,0,0,1,750.81,341.82Z" class="cls-9"/><rect width="35.79" height="35.79" x="1005.8" y="107.47" class="cls-8" transform="translate(2044.64 271.44) rotate(-178.84)"/><polygon points="1024.67 88.87 1041.95 107.84 1006.16 107.11 1024.67 88.87" class="cls-8"/><rect width="35.79" height="35.79" x="970.01" y="106.75" class="cls-21" transform="matrix(-1, -0.02, 0.02, -1, 1973.09, 269.26)"/><polygon points="988.89 88.15 1006.16 107.11 970.38 106.39 988.89 88.15" class="cls-8"/><rect width="35.79" height="35.79" x="934.22" y="106.02" class="cls-22" transform="matrix(-1, -0.02, 0.02, -1, 1901.54, 267.09)"/><polygon points="953.1 87.42 970.38 106.39 934.59 105.66 953.1 87.42" class="cls-8"/><rect width="35.79" height="35.79" x="1040.85" y="144.46" class="cls-11" transform="translate(2113.99 346.12) rotate(-178.84)"/><polygon points="1059.72 125.86 1077 144.82 1041.21 144.1 1059.72 125.86" class="cls-22"/><rect width="35.79" height="35.79" x="1005.06" y="143.73" class="cls-8" transform="translate(2042.44 343.94) rotate(-178.84)"/><polygon points="1023.94 125.13 1041.21 144.1 1005.43 143.38 1023.94 125.13" class="cls-22"/><rect width="35.79" height="35.79" x="969.28" y="143.01" class="cls-22" transform="translate(1970.89 341.77) rotate(-178.84)"/><polygon points="988.15 124.41 1005.43 143.38 969.64 142.65 988.15 124.41" class="cls-11"/><path d="M1028,435.38c4.17,9.88,1.32,21.84-7.47,30.16a36,36,0,0,1-34,8.45,26.85,26.85,0,0,1-10.94-6.12,29.56,29.56,0,0,0,3.7-2c.25-.17.42-.27.43-.56h0a26.74,26.74,0,0,0,15.15,5.8c11.47.68,22.93-6,27.86-15.63a21.54,21.54,0,0,0,.84-18.24C1022.49,434.74,1026.94,432.9,1028,435.38Z" class="cls-10"/><path d="M1021.36,416.61a1.67,1.67,0,0,0-1.05,2.12l3.44,8a1.72,1.72,0,0,0,2.28.75h0a1.67,1.67,0,0,0,1-2.12l-3.43-8a1.74,1.74,0,0,0-2.29-.75Z" class="cls-9"/><path d="M1013,420.07a1.67,1.67,0,0,0-1.05,2.12l3.44,8a1.72,1.72,0,0,0,2.28.75h0a1.67,1.67,0,0,0,1.05-2.12l-3.44-8a1.72,1.72,0,0,0-2.28-.75Z" class="cls-9"/><path d="M1028.59,421.87l2,4.68c1.72,4-.64,8.79-5.29,10.7s-9.8.22-11.52-3.78l-2-4.68Z" class="cls-23"/><path d="M843.84,477.74a1.76,1.76,0,0,0,1.89,1.57h1.94a1.75,1.75,0,0,0,1.89-1.57V471.8a1.75,1.75,0,0,0-1.89-1.57h-1.94a1.75,1.75,0,0,0-1.89,1.57Z" class="cls-24"/><path d="M846.44,479.47a1.75,1.75,0,0,0,1.89,1.56h5.06a1.75,1.75,0,0,0,1.89-1.56V469.21a1.75,1.75,0,0,0-1.89-1.57h-5.06a1.75,1.75,0,0,0-1.89,1.57Z" class="cls-25"/><path d="M876.53,462H966c5.71,0,11.45,1.11,15.61,3.17v18.9H849v-2.92C849,470.51,861.26,462,876.53,462Z" class="cls-9"/><path d="M882.2,464.4l18.71-22.65a11.59,11.59,0,0,1,7.85-4H969c2.56,0,12.54-2.19,12.54,8.3V465.5Z" class="cls-9"/><path d="M942.82,461.88H892.08l12.41-14.48a10.93,10.93,0,0,1,7.28-3.54l31.05-.52Z" class="cls-26"/><path d="M844.28,488.57c0,.93,1,1.69,2.28,1.69h139c1.26,0,2.28-.76,2.28-1.69v-3.68c0-.94-1-1.7-2.28-1.7h-139c-1.26,0-2.28.76-2.28,1.7Z" class="cls-21"/><path d="M862.8,489.3c0,9,8.8,16.35,19.66,16.35s19.65-7.32,19.65-16.35S893.31,473,882.46,473,862.8,480.28,862.8,489.3Z" class="cls-27"/><path d="M870.14,489.3c0,5.66,5.52,10.24,12.32,10.24s12.31-4.58,12.31-10.24-5.51-10.23-12.31-10.23S870.14,483.65,870.14,489.3Z" class="cls-28"/><path d="M938.66,489.3c0,9,8.8,16.35,19.65,16.35S978,498.33,978,489.3,969.17,473,958.31,473,938.66,480.28,938.66,489.3Z" class="cls-27"/><path d="M946,489.3c0,5.66,5.51,10.24,12.31,10.24s12.32-4.58,12.32-10.24-5.51-10.23-12.32-10.23S946,483.65,946,489.3Z" class="cls-29"/><rect width="24.44" height="18.79" x="949.09" y="443.72" class="cls-30"/><polygon id="s4" points="689.98 468.94 699.93 469.14 699.73 479.1 690.57 478.91 689.79 478.11 689.98 468.94" class="cls-9"/><polygon id="s3" points="679 478.68 678.18 477.83 678.37 468.7 688.32 468.9 688.13 478.17 687.43 478.85 679 478.68" class="cls-9"/><polygon id="s2" points="667.27 478.44 666.57 477.71 666.75 468.47 676.71 468.67 676.52 477.98 675.87 478.61 667.27 478.44" class="cls-9"/><polygon id="s1" points="655.14 468.23 665.1 468.43 664.91 477.62 664.13 478.38 654.94 478.19 655.14 468.23" class="cls-9"/><polygon id="s8" points="689.74 480.93 690.25 480.44 699.7 480.63 699.5 490.58 690.08 490.39 689.55 489.85 689.74 480.93" class="cls-9"/><polygon id="s7" points="678.68 480.2 687.69 480.38 688.08 480.8 687.9 489.91 687.45 490.34 678.51 490.16 677.94 489.57 678.12 480.74 678.68 480.2" class="cls-9"/><polygon id="s6" points="676.47 480.52 676.28 489.72 675.89 490.1 666.78 489.92 666.33 489.45 666.51 480.38 666.95 479.96 676.12 480.15 676.47 480.52" class="cls-9"/><polygon id="s5" points="664.68 489.37 664.15 489.87 654.71 489.68 654.91 479.72 664.39 479.91 664.86 480.4 664.68 489.37" class="cls-9"/><polygon id="s12" points="699.47 492.11 699.27 502.07 689.31 501.87 689.5 492.67 690.27 491.93 699.47 492.11" class="cls-9"/><polygon id="s11" points="687.2 491.86 687.84 492.54 687.66 501.83 677.7 501.63 677.88 492.48 678.7 491.69 687.2 491.86" class="cls-9"/><polygon id="s10" points="675.63 491.63 676.23 492.26 676.04 501.6 666.09 501.4 666.28 492.12 666.97 491.45 675.63 491.63" class="cls-9"/><polygon id="s9" points="664.43 501.36 654.48 501.16 654.68 491.21 663.9 491.39 664.62 492.14 664.43 501.36" class="cls-9"/><g id="Windmill"><path d="M282.49,526.56a129.8,129.8,0,0,1-1.58-25.44c.46-19.18,3.91-34.67,7.7-34.61s6.49,15.67,6,34.85a130.52,130.52,0,0,1-2.79,25.36Z" class="cls-11"/><path d="M289.51,537.93a188.78,188.78,0,0,0,25.34,13.86c19.93,9.25,37.57,14.47,39.4,11.67s-12.85-12.57-32.78-21.82A200.84,200.84,0,0,0,294,531Z" class="cls-11"/><path d="M284.28,537.84a190.89,190.89,0,0,1-26,13c-20.36,8.56-38.24,13.18-39.93,10.32s13.44-12.12,33.8-20.68a202.46,202.46,0,0,1,27.94-9.68Z" class="cls-11"/></g><path d="M286.5,543.67a8.58,8.58,0,1,1,8.58-8.58A8.59,8.59,0,0,1,286.5,543.67Z" class="cls-31"/><path d="M286.5,528.24a6.86,6.86,0,1,1-6.86,6.85,6.86,6.86,0,0,1,6.86-6.85m0-3.43a10.29,10.29,0,1,0,10.29,10.28,10.29,10.29,0,0,0-10.29-10.28Z" class="cls-32"/><g id="WaterDrop"><path d="M761.38,185.4l20.25,32.73a18.67,18.67,0,0,1,1.85,8,22.15,22.15,0,0,1-22.15,22.14V185.48Z" class="cls-15"/><path d="M742.81,215.7l18.52-30.22v62.75a22.14,22.14,0,0,1-22.15-22.14C739.18,224.34,739.58,221.09,742.81,215.7Z" class="cls-16"/></g><rect width="319.52" height="276.95" x="853.06" y="557.92" class="cls-14" transform="translate(1712.04 -314.48) rotate(90.16)"/><polygon points="975.1 780 1052.39 767.4 1055.16 630.51 978.15 628.95 975.1 780" class="cls-33"/><rect width="151.08" height="38.51" x="920.34" y="685.61" class="cls-15" transform="translate(270.99 1686.27) rotate(-88.84)"/><rect width="13.33" height="14.81" x="1002.78" y="612.55" class="cls-15" transform="translate(369.18 1616.64) rotate(-88.84)"/><rect width="12.3" height="28.94" x="1023.91" y="658.83" class="cls-15" transform="translate(336.05 1689.51) rotate(-88.84)"/><rect width="12.3" height="28.94" x="1024.38" y="635.68" class="cls-15" transform="translate(359.65 1667.31) rotate(-88.84)"/><rect width="12.3" height="28.94" x="1023.49" y="679.8" class="cls-15" transform="translate(314.66 1709.64) rotate(-88.84)"/><rect width="13.33" height="29.63" x="1010.19" y="605.29" class="cls-33" transform="translate(376.28 1624.19) rotate(-88.84)"/><rect width="5.22" height="16.17" x="957.6" y="631.96" class="cls-15" transform="matrix(0.02, -1, 1, 0.02, 300.86, 1587.1)"/><rect width="16.18" height="5.22" x="952.12" y="637.44" class="cls-15" transform="translate(300.85 1587.1) rotate(-88.84)"/><rect width="5.22" height="16.17" x="956.04" y="709.28" class="cls-15" transform="translate(222.02 1661.29) rotate(-88.84)"/><polygon points="426.62 650.2 426.39 650.51 426.62 650.51 426.62 650.2" class="cls-11"/><path d="M1070.79,719.66a45.22,45.22,0,0,1-7.38,42.75c-9.26,12-36.7,19-48.72,33.34C1014.69,795.75,989.13,732.78,1070.79,719.66Z" class="cls-10"/><path d="M1040.2,749c7.26-8.74,17.12-19.09,25.92-28,1.38-.26,2.8-.52,4.25-.75A45.23,45.23,0,0,1,1063,763c-9.17,11.91-36.23,18.85-48.4,33-.07-.24-.15-.53-.25-.85C1015.06,788.91,1019.28,774.15,1040.2,749Z" class="cls-17"/><path d="M959.73,736.8s-7.05,25.94,9.75,40.54c9.54,8.29,33.12,9.45,45.32,19.22,0,0,4.26-36.06-29-50.15C978,743.13,964.26,742.81,959.73,736.8Z" class="cls-34"/><path d="M987.42,764.71c10.65,7.36,21.79,21.94,26.92,31.69-12.32-9.46-35.44-10.69-44.87-18.88-15.14-13.17-10.9-35.54-9.92-39.82C962.33,742.31,969.89,752.6,987.42,764.71Z" class="cls-17"/><g id="Boat"><path d="M502.14,731l11,3.79.49-24.27a5.54,5.54,0,0,0-5.43-5.65l-11.08-.23.14-6.92a4.16,4.16,0,0,0-4.07-4.24L468.26,693a4.16,4.16,0,0,0-4.24,4.07l-.14,6.93-11.09-.22a5.53,5.53,0,0,0-5.65,5.43l-.49,24.26,11.15-3.34.31-15.16,44.33.9Z" class="cls-9"/><path d="M435.63,742.54a5.5,5.5,0,0,0,1.31,2.25l15.71,15.78a14.37,14.37,0,0,0,9.82,4.31h.09a14.81,14.81,0,0,0,9.35-2.72,11.07,11.07,0,0,1,7.25-2.42,12.75,12.75,0,0,1,7.82,3,14.57,14.57,0,0,0,8.85,2.85h.09a14.7,14.7,0,0,0,10.21-4l16.25-15.05a5.54,5.54,0,0,0,.15-7.84,5.64,5.64,0,0,0-2.19-1.4L481.8,724a5.53,5.53,0,0,0-3.39-.07l-39.05,11.68a5.54,5.54,0,0,0-3.72,6.9h0Z" class="cls-21"/></g><path id="waterboat" d="M431.65,782.85a20,20,0,0,0,10.12-3.77,6.72,6.72,0,0,1,8.35.17c6.46,5.4,18.46,5.64,25.24.25a6.44,6.44,0,0,1,8.09.48c6.47,5.35,18.41,5.57,25.15.21,2.38-1.89,5.8-1.43,8.16.51a19.65,19.65,0,0,0,9.92,4.09,2.7,2.7,0,0,1,2.3,2.77l-.12,5.58a2.73,2.73,0,0,1-3,2.71,31,31,0,0,1-13.66-4.77c-9.91,5.8-23.85,5.43-33.25-.67-9.91,5.8-23.85,5.43-33.25-.67a32,32,0,0,1-13.8,4.19,2.72,2.72,0,0,1-2.83-2.83l.11-5.48a2.76,2.76,0,0,1,2.43-2.77Z" class="cls-9"/><path id="leaf2" d="M498.52,358.56s31.85,18.33,45.66,54.45-.56,69.69-.56,69.69-32.23-19.31-42.68-46.64S498.52,358.56,498.52,358.56Z" class="cls-10"/><path id="leaf1" d="M536.57,369.64s20.77,25.82,23.21,59.16-16.66,54.58-16.66,54.58-20.84-26.72-22.69-52S536.57,369.64,536.57,369.64Z" class="cls-17"/><path d="M684.08,756.38a1.57,1.57,0,0,0-.75,1.77A31.58,31.58,0,0,0,690,770.32a1.51,1.51,0,0,0,1.88.33l5.48-3a24.56,24.56,0,0,0,7.64,4.62l-.13,6.26a1.53,1.53,0,0,0,1.17,1.51,32,32,0,0,0,13.88.28,1.52,1.52,0,0,0,1.22-1.46l.13-6.26a23.94,23.94,0,0,0,7.82-4.3l5.35,3.23a1.53,1.53,0,0,0,1.89-.25,31.65,31.65,0,0,0,7.2-11.89,1.54,1.54,0,0,0-.66-1.79l-5.36-3.24a24.32,24.32,0,0,0,.18-8.92l5.48-3a1.53,1.53,0,0,0,.74-1.77,31.61,31.61,0,0,0-6.71-12.16,1.51,1.51,0,0,0-1.88-.33l-5.47,3a25,25,0,0,0-7.64-4.62l.13-6.25a1.53,1.53,0,0,0-1.17-1.51,31.87,31.87,0,0,0-13.88-.28,1.52,1.52,0,0,0-1.22,1.46l-.13,6.24a24.25,24.25,0,0,0-7.82,4.31l-5.35-3.24a1.52,1.52,0,0,0-1.89.26,31.67,31.67,0,0,0-7.19,11.88,1.54,1.54,0,0,0,.66,1.8l5.35,3.23a24.38,24.38,0,0,0-.18,8.93l-5.48,3Zm29.32,5.19a12.18,12.18,0,0,1-11.94-12.44h0a12.2,12.2,0,1,1,11.95,12.44Z" class="cls-8"/><g id="recycle-2" data-name="recycle"><path d="M931.67,347.07l.52.93a27.71,27.71,0,0,0,32.65,13.13l-2.1-4.56a23.09,23.09,0,0,1-26.35-11.06l-.52-.93,3.37-2-8.71-2.53-2.23,9Z" class="cls-11"/><path d="M972.73,345.63l2.23,9,8.71-2.52-3.37-2,.52-.93a29.44,29.44,0,0,0-5.27-35.64l-2.79,4.15a24.54,24.54,0,0,1,3.86,29l-.52.92Z" class="cls-11"/><path d="M930.13,327.81l4.89.4a23.49,23.49,0,0,1,22.49-17.93h1v4l6.48-6.49-6.48-6.5v4h-1A28.24,28.24,0,0,0,930.13,327.81Z" class="cls-11"/><path d="M956.49,364.58A29.94,29.94,0,0,1,930.92,350l-2.3,1.36a1.69,1.69,0,0,1-1.91-.12,1.83,1.83,0,0,1-.63-1.86l2.52-10.2a1.74,1.74,0,0,1,2.15-1.27l9.84,2.85a1.76,1.76,0,0,1,1.25,1.49A1.8,1.8,0,0,1,941,344l-2.26,1.34A21,21,0,0,0,963,354.26l.87-.28,3.87,8.39-1.08.4A29.45,29.45,0,0,1,956.49,364.58Z" class="cls-11"/><path d="M974.7,356.88a1.67,1.67,0,0,1-.86-.24,1.76,1.76,0,0,1-.81-1.11l-2.52-10.19a1.82,1.82,0,0,1,.63-1.86,1.69,1.69,0,0,1,1.91-.12l2.26,1.34a22.32,22.32,0,0,0-4.61-26.05L970,318l5.14-7.64.87.76a31.59,31.59,0,0,1,7.09,38.2l2.3,1.36A1.8,1.8,0,0,1,985,354l-9.84,2.85A1.59,1.59,0,0,1,974.7,356.88Z" class="cls-11"/><path d="M936.65,330.49l-9-.75.2-1.16c2.56-14.38,14.5-24.92,28.62-25.41v-2.72a1.8,1.8,0,0,1,1.06-1.65,1.71,1.71,0,0,1,1.89.37l7.32,7.34a1.83,1.83,0,0,1,0,2.55l-7.32,7.34a1.71,1.71,0,0,1-1.89.37,1.79,1.79,0,0,1-1.06-1.64v-2.68a21.45,21.45,0,0,0-19.63,17.13Z" class="cls-11"/></g></g></g></svg>