<svg xmlns="http://www.w3.org/2000/svg" viewBox="0 0 137.45 137.54"><defs><style>.cls-1{fill:#51e7f2}.cls-2{fill:#fff}.cls-3{fill:#e25456}</style></defs><g id="Layer_2" data-name="Layer 2"><g id="Layer_1-2" data-name="Layer 1"><path d="M38,30.84V45.3A54.15,54.15,0,0,1,92.24,99.57H106.7A68.63,68.63,0,0,0,38,30.84Z" class="cls-1"/><path d="M38,61.49A38,38,0,1,0,76,99.57,37.7,37.7,0,0,0,38,61.49Zm0,61.59A23.57,23.57,0,1,1,61.49,99.57,23.54,23.54,0,0,1,38,123.08Z" class="cls-2"/><path d="M108.36,29.22A98.57,98.57,0,0,0,38,0V14.46a84.2,84.2,0,0,1,60.15,25A84.14,84.14,0,0,1,123,99.57h14.46A98.5,98.5,0,0,0,108.36,29.22Z" class="cls-3"/></g></g></svg>