<svg xmlns="http://www.w3.org/2000/svg" width="76.321" height="101.765" viewBox="0 0 76.321 101.765"><g transform="translate(-665 -1554.235)"><g transform="translate(3530.313 -951.532)"><path d="M-2789.235,2624.558l-11.683-28.713a8.075,8.075,0,0,1-4.419,3.1c-4.327,1.179-4.673.912-7.706,4.005a7.9,7.9,0,0,1-9.885,1.156,7.886,7.886,0,0,0-8.453,0,7.9,7.9,0,0,1-9.886-1.156c-2.928-2.981-3.26-2.783-7.7-4a8.057,8.057,0,0,1-4.387-3.061l-11.727,28.666a3.179,3.179,0,0,0,1.752,4.142,3.181,3.181,0,0,0,1.314.231l10.473-.4,7.2,7.613a3.18,3.18,0,0,0,4.5.121h0a3.23,3.23,0,0,0,.763-1.115l11.956-29.238,11.9,29.238a3.18,3.18,0,0,0,4.143,1.751,3.189,3.189,0,0,0,1.111-.757l7.2-7.609,10.473.4a3.18,3.18,0,0,0,3.305-3.05v-.008a3.219,3.219,0,0,0-.243-1.32Zm-37.92-41.48a12.721,12.721,0,0,0,12.721-12.72,12.721,12.721,0,0,0-12.721-12.721,12.72,12.72,0,0,0-12.72,12.721A12.72,12.72,0,0,0-2827.155,2583.078Z" transform="translate(0 -29.609)" fill="#51e7f2" opacity="0.4" style="isolation:isolate"/><path d="M-2788.224,2536.122a8.25,8.25,0,0,0-2.071-7.869c-4.056-4.128-3.671-3.448-5.158-9.091a8.082,8.082,0,0,0-5.659-5.764c-5.542-1.512-4.874-1.116-8.944-5.249a7.909,7.909,0,0,0-7.708-2.1c-5.549,1.51-4.771,1.51-10.326,0a7.911,7.911,0,0,0-7.73,2.108c-4.057,4.131-3.379,3.737-8.932,5.25a8.081,8.081,0,0,0-5.659,5.764c-1.484,5.643-1.1,4.969-5.158,9.093a8.24,8.24,0,0,0-2.071,7.867c1.485,5.637,1.487,4.85,0,10.5a8.252,8.252,0,0,0,2.071,7.865c4.056,4.13,3.671,3.449,5.167,9.094a8.078,8.078,0,0,0,5.659,5.764c4.438,1.217,4.77,1.018,7.7,4a7.9,7.9,0,0,0,9.886,1.157,7.886,7.886,0,0,1,8.453,0,7.9,7.9,0,0,0,9.884-1.157c3.037-3.091,3.379-2.825,7.71-4a8.079,8.079,0,0,0,5.659-5.764c1.486-5.645,1.1-4.969,5.157-9.093a8.248,8.248,0,0,0,2.072-7.867c-1.487-5.637-1.489-4.85,0-10.5Zm-34.708,23.708a19.081,19.081,0,0,1-19.081-19.081,19.081,19.081,0,0,1,19.081-19.082,19.082,19.082,0,0,1,19.082,19.082A19.081,19.081,0,0,1-2822.932,2559.83Z" transform="translate(-4.223)" fill="#51e7f2"/></g><circle cx="13" cy="13" r="13" transform="translate(690 1576)" fill="#e25456"/></g></svg>