<svg xmlns="http://www.w3.org/2000/svg" width="80" height="80" viewBox="0 0 80 80"><path d="M66.5,28.206A27.1,27.1,0,0,0,21.719,41.363a1.94,1.94,0,0,1-1.879,1.476H10.6a1.934,1.934,0,0,1-1.9-2.286A40,40,0,0,1,75.631,19.078l5.76-5.76A3.871,3.871,0,0,1,88,16.055V37.677a3.871,3.871,0,0,1-3.871,3.871H62.507a3.871,3.871,0,0,1-2.737-6.608ZM11.871,54.452H33.493a3.871,3.871,0,0,1,2.737,6.608L29.5,67.794A27.1,27.1,0,0,0,74.281,54.637a1.94,1.94,0,0,1,1.879-1.476H85.4a1.934,1.934,0,0,1,1.9,2.286A40.005,40.005,0,0,1,20.369,76.922l-5.76,5.76A3.871,3.871,0,0,1,8,79.945V58.323A3.871,3.871,0,0,1,11.871,54.452Z" transform="translate(-8 -8)" fill="#51e7f2"/></svg>