<svg xmlns="http://www.w3.org/2000/svg" viewBox="0 0 526.54 526.57"><defs><style>.cls-1{fill:#51e7f2;}.cls-2{fill:#e25456;}</style></defs><title>icon-behavioural-insights</title><g id="Layer_2" data-name="Layer 2"><g id="Layer_1-2" data-name="Layer 1"><path class="cls-1" d="M362.28,183.94c-.06-1-.29-1.9-.29-2.93v3A2.46,2.46,0,0,1,362.28,183.94ZM0,296.16a32.91,32.91,0,0,0,32.88,32.95H65.79v65.82a65.82,65.82,0,0,0,65.82,65.82h65.82v65.82H460.72V344.35a196.75,196.75,0,0,0,65.82-146.89C526.54,88.45,438.09,0,329.08,0h-76.2A213.86,213.86,0,0,0,78,90.76c-25.34,36-53.63,143.61-75.16,192.07A32.77,32.77,0,0,0,0,296.16Z"/><path class="cls-2" d="M131.61,164.55A49.36,49.36,0,0,1,181,115.19h3a48.71,48.71,0,0,1,70.54-26.33,49.12,49.12,0,0,1,83.25,0A48.72,48.72,0,0,1,362,82.28a49.36,49.36,0,0,1,49.36,49.36,49.24,49.24,0,0,1,16.16,95.8c.06,1,.3,1.91.3,2.93a49.37,49.37,0,0,1-49.37,49.37,48.87,48.87,0,0,1-16.45-3v52.39H296.16V276.72a48.87,48.87,0,0,1-16.45,3,48.87,48.87,0,0,1-46.34-65.82H181A49.37,49.37,0,0,1,131.61,164.55Z"/></g></g></svg>