<svg xmlns="http://www.w3.org/2000/svg" viewBox="0 0 175.71 175.71"><defs><style>.cls-1{fill:#51e7f2}</style></defs><title>icon-verified</title><g id="Layer_2" data-name="Layer 2"><g id="Layer_1-2" data-name="Layer 1"><path d="M175.71,87.85a30.19,30.19,0,0,0-19.6-28.27,30.19,30.19,0,0,0-40-40,30.19,30.19,0,0,0-56.55,0,30.19,30.19,0,0,0-40,40,30.19,30.19,0,0,0,0,56.55,30.19,30.19,0,0,0,40,40,30.19,30.19,0,0,0,56.55,0,30.19,30.19,0,0,0,40-40A30.19,30.19,0,0,0,175.71,87.85ZM126,72.67,81,117.28a3.76,3.76,0,0,1-5.33,0l-26-26.2a3.78,3.78,0,0,1,0-5.34l8.94-8.86a3.78,3.78,0,0,1,5.34,0L78.48,91.46l33.36-33.09a3.78,3.78,0,0,1,5.33,0L126,67.33a3.77,3.77,0,0,1,0,5.34Z" class="cls-1"/></g></g></svg>