<svg xmlns="http://www.w3.org/2000/svg" width="85" height="85" viewBox="0 0 85 85"><g transform="translate(-654 -1101)"><circle cx="42.5" cy="42.5" r="42.5" transform="translate(654 1101)" fill="#51e7f2"/><path d="M4016.551,354.143a10.976,10.976,0,0,0-7.125-10.282,10.98,10.98,0,0,0-14.537-14.537,10.981,10.981,0,0,0-20.564,0,10.98,10.98,0,0,0-14.537,14.537,10.981,10.981,0,0,0,0,20.563,10.98,10.98,0,0,0,14.537,14.537,10.981,10.981,0,0,0,20.564,0,10.98,10.98,0,0,0,14.537-14.537A10.976,10.976,0,0,0,4016.551,354.143ZM3987.6,365.927v2.191a2,2,0,0,1-2,2h-2a2,2,0,0,1-2-2v-2.212a9.115,9.115,0,0,1-3.965-1.43,1.5,1.5,0,0,1-.194-2.294L3979.64,360a1.54,1.54,0,0,1,1.76-.253,3.065,3.065,0,0,0,1.281.277h4.09a1.051,1.051,0,0,0,.29-2.063l-6.248-1.784a7.308,7.308,0,0,1-5.354-5.948,7.021,7.021,0,0,1,6.154-7.868v-2.19a2,2,0,0,1,2-2h2a2,2,0,0,1,2,2v2.212a9.117,9.117,0,0,1,3.966,1.43,1.5,1.5,0,0,1,.193,2.294l-2.186,2.186a1.541,1.541,0,0,1-1.761.253,3.064,3.064,0,0,0-1.28-.277h-4.09a1.051,1.051,0,0,0-.29,2.063l6.248,1.785a7.309,7.309,0,0,1,5.354,5.948,7.021,7.021,0,0,1-6.155,7.866Z" transform="translate(-3288.133 789.332)" fill="#e25456"/></g></svg>