<svg xmlns="http://www.w3.org/2000/svg" width="81.5" height="81.5" viewBox="0 0 81.5 81.5"><g transform="translate(-4727.851 -1430.531)"><path d="M4808.791,1505.167l-19.324-19.323a1.888,1.888,0,0,0-1.353-.557h-2.1a33.1,33.1,0,1,0-3.406,3.406v2.1a1.957,1.957,0,0,0,.557,1.353l19.324,19.324a1.912,1.912,0,0,0,2.706,0l3.6-3.6A1.912,1.912,0,0,0,4808.791,1505.167Zm-47.832-16.06a25.468,25.468,0,1,1,25.468-25.468A25.46,25.46,0,0,1,4760.959,1489.107Z" fill="#1f3269"/><path d="M4819.142,1514.03a8.681,8.681,0,1,0-8.682-8.681A8.68,8.68,0,0,0,4819.142,1514.03Zm6.5,2.211-3.242,12.981-2.17-9.224,2.17-3.8h-6.511l2.17,3.8-2.17,9.224-3.242-12.981a9.1,9.1,0,0,0-8.694,9.075v2.821a3.256,3.256,0,0,0,3.255,3.255h23.874a3.256,3.256,0,0,0,3.255-3.255v-2.821a9.1,9.1,0,0,0-8.694-9.075Z" transform="translate(-58.251 -50.625)" fill="#479cdf"/></g></svg>