<svg xmlns="http://www.w3.org/2000/svg" width="85" height="99" viewBox="0 0 85 99"><g transform="translate(-1024.875 -1221.28)"><rect width="73" height="90" fill="#10172d" transform="translate(1036.875 1230.28)"/><rect width="73" height="90" fill="#fff" transform="translate(1024.875 1221.28)"/><path fill="#1f3269" d="M42.465,72.7c-3.528.238-8.56,3.725-11.107,4.869-1.982.892-3.691,1.662-5.182,1.662-1.539,0-1.771-1.1-1.451-3.534.075-.545.8-5.393-2.908-5.182-1.709.1-4.379,1.689-11.543,8.581L13.1,72.036a5.884,5.884,0,0,0-8.832-7L.529,67.549a1.1,1.1,0,0,0-.334,1.5l1.171,1.839a1.083,1.083,0,0,0,1.5.334l3.95-2.649a1.52,1.52,0,0,1,2.227,1.845L2.361,87.148a2.176,2.176,0,0,0,2.023,2.99,2.154,2.154,0,0,0,1.539-.64C8.8,86.623,16.458,79.234,20.305,76.163c-.15,1.941-.143,4.011,1.4,5.707a5.747,5.747,0,0,0,4.461,1.723c2.424,0,4.631-.994,6.967-2.043,2.247-1.008,6.742-4.263,9.425-4.481A1.093,1.093,0,0,0,43.6,75.993V73.807A1.08,1.08,0,0,0,42.465,72.7Z" transform="translate(1040.54 1211.32)"/><rect width="11" height="20" fill="#c55557" transform="translate(1032.875 1230.28)"/><path fill="#c55557" d="M0,0H11.519V19.748H0Z" transform="translate(1062.027 1230.051)"/><g><path fill="#c55557" d="M-2627.634-10.518c.066-.066,2.768-2.431,2.768-2.431l-.46-.2c-.263-.129-.195-.3-.131-.458.063-.2.529-1.771.529-1.771s-1.255.263-1.518.329c-.2.063-.263-.066-.329-.2s-.395-.852-.395-.852-1.384,1.576-1.45,1.639c-.263.2-.529,0-.463-.263,0-.263.726-3.41.726-3.41s-.792.458-1.055.589c-.2.132-.332.132-.463-.132-.134-.2-1.124-2.1-1.124-2.1s-.987,1.9-1.118,2.1c-.132.263-.263.263-.463.132-.263-.132-1.055-.589-1.055-.589s.726,3.147.726,3.41c.066.263-.2.46-.463.263-.066-.066-1.45-1.639-1.45-1.639s-.329.718-.395.85-.131.26-.329.2c-.266-.066-1.518-.329-1.518-.329s.463,1.571.529,1.771c.063.158.132.329-.132.458l-.46.2s2.7,2.365,2.768,2.431c.134.132.263.2.134.592s-.266.923-.266.923,2.5-.529,2.77-.595c.229-.024.481.066.481.329s-.152,2.968-.152,2.968h.789s-.153-2.7-.153-2.968.25-.353.484-.329c.263.066,2.768.595,2.768.595s-.132-.529-.263-.923S-2627.765-10.386-2627.634-10.518Z" transform="translate(1046.846 1232.886) translate(2637.126 19.771)"/></g></g></svg>