<svg xmlns="http://www.w3.org/2000/svg" width="454.115" height="235.33" viewBox="0 0 454.115 235.33"><g transform="translate(1271.064 -2388.409)"><g transform="translate(-1269.738 2393.75)"><path d="M-1223.56,2419.76h12.674l-8.83-15.454a1.344,1.344,0,0,0-1.168-.677h-5.5a1.344,1.344,0,0,0-1.344,1.344,1.339,1.339,0,0,0,.052.368Zm-4.117,25.171a1.343,1.343,0,0,0,.923,1.662,1.323,1.323,0,0,0,.367.052h5.5a1.343,1.343,0,0,0,1.167-.677l8.831-15.453h-12.674Z" transform="translate(1241.611 -2403.629)" fill="#fff" opacity="0.4" style="isolation:isolate"/><path d="M-1226.959,2450.405h-30.917l-3.63,4.839a1.345,1.345,0,0,1-1.076.538h-3.361a1.344,1.344,0,0,1-1.343-1.345,1.33,1.33,0,0,1,.04-.325l2.647-9.084-2.647-9.083a1.344,1.344,0,0,1,.978-1.63,1.326,1.326,0,0,1,.325-.04h3.361a1.343,1.343,0,0,1,1.076.538l3.63,4.839h30.917c2.97,0,8.066,2.407,8.066,5.377S-1223.989,2450.405-1226.959,2450.405Z" transform="translate(1267.285 -2423.521)" fill="#fff"/></g><g transform="translate(-1012.978 2489.554)"><path d="M-490.909,2732.463v-8.316a1.392,1.392,0,0,0-1.392-1.392h-5.568a1.392,1.392,0,0,0-1.392,1.392v8.327a1.392,1.392,0,0,1-1.385,1.392l-9.751.025a1.392,1.392,0,0,1-1.392-1.392v-14.263l16.043-13.212a1.06,1.06,0,0,1,1.331,0l16.036,13.207V2732.5a1.392,1.392,0,0,1-1.392,1.392l-9.744-.027a1.392,1.392,0,0,1-1.392-1.392Z" transform="translate(520.14 -2694.914)" fill="#fff" opacity="0.4" style="isolation:isolate"/><path d="M-485.705,2697.209l-2.218,2.7a1.044,1.044,0,0,1-1.47.144h0l-20.466-16.861a1.061,1.061,0,0,0-1.331,0l-20.465,16.861a1.044,1.044,0,0,1-1.469-.144l-2.219-2.7a1.044,1.044,0,0,1,.14-1.469l22.021-18.137a4.177,4.177,0,0,1,5.307,0l7.788,6.4v-6.317a1.044,1.044,0,0,1,1.044-1.044h4.872a1.044,1.044,0,0,1,1.044,1.044v12.051l7.274,6a1.044,1.044,0,0,1,.153,1.469l0,0Z" transform="translate(535.584 -2676.646)" fill="#fff"/></g><g transform="translate(-1021.224 2395.634)"><path d="M-502.467,2415.658c-25.29,0-32.814,23.313-39.561,23.313a3.738,3.738,0,0,1-3.734-3.735v-10.2l5.178-3.175a3.332,3.332,0,0,0,1.483-2.768v-8.43a1.665,1.665,0,0,0-1.665-1.665,1.659,1.659,0,0,0-.924.28l-7.4,4.936-7.4-4.936a1.665,1.665,0,0,0-2.309.461,1.664,1.664,0,0,0-.28.924v8.43a3.33,3.33,0,0,0,1.483,2.768l5.178,3.176v10.2a10.408,10.408,0,0,0,10.4,10.4h42.892a6.661,6.661,0,0,0,6.661-6.661V2425.65A10,10,0,0,0-502.467,2415.658Zm-11.656,17.485a2.5,2.5,0,0,1-2.5-2.5,2.5,2.5,0,0,1,2.5-2.5,2.5,2.5,0,0,1,2.5,2.5A2.5,2.5,0,0,1-514.123,2433.143Z" transform="translate(559.084 -2408.998)" fill="#fff" opacity="0.4" style="isolation:isolate"/><path d="M-435.578,2463.571a2.5,2.5,0,0,0-2.5,2.5,2.5,2.5,0,0,0,2.5,2.5,2.5,2.5,0,0,0,2.5-2.5A2.5,2.5,0,0,0-435.578,2463.571Z" transform="translate(480.539 -2444.42)" fill="#fff"/></g><g transform="translate(-870.487 2388.409)"><path d="M-108.856,2399.145h21.472v7.342l5.368,1.726v-11.751a2.684,2.684,0,0,0-2.684-2.684h-5.368v-3.355a2.013,2.013,0,0,0-2.013-2.013h-12.078a2.013,2.013,0,0,0-2.013,2.013v3.355h-5.368a2.684,2.684,0,0,0-2.684,2.684v11.751l5.368-1.726Z" transform="translate(119.592 -2388.409)" fill="#fff" opacity="0.4" style="isolation:isolate"/><path d="M-86.7,2440.026a2.7,2.7,0,0,1-.658,1.076l-7.758,7.486a6.978,6.978,0,0,1-4.8,1.989h-.042a7.143,7.143,0,0,1-4.5-1.406,5.384,5.384,0,0,0-3.487-1.245,6.17,6.17,0,0,0-3.816,1.358,7.067,7.067,0,0,1-4.314,1.293h-.043a7.129,7.129,0,0,1-4.9-2.031l-7.716-7.443a2.684,2.684,0,0,1,0-3.8,2.678,2.678,0,0,1,1.077-.657l18.788-6.039a2.676,2.676,0,0,1,1.642,0l18.788,6.039a2.684,2.684,0,0,1,1.737,3.375h.006Z" transform="translate(129.523 -2415.718)" fill="#fff"/></g><g transform="translate(-1146.557 2390.91)"><path d="M-900.427,2429.258a6.552,6.552,0,0,1-1.595-4.285v-2.126a6.6,6.6,0,0,1,3.119-5.62l.56-1.534h-1.6a.89.89,0,0,1-.889-.89v-2.964a.889.889,0,0,1,.889-.889h2.964a.874.874,0,0,1,.7.365,9.717,9.717,0,0,1,6.119-3.76v-9.647a2.372,2.372,0,0,0-2.372-2.372h-21.343a2.371,2.371,0,0,0-2.371,2.372v34.385a1.185,1.185,0,0,0,1.186,1.186h15.2a4.433,4.433,0,0,1-.559-2.126Zm-.409-26.906a.889.889,0,0,1,.889-.89h2.964a.889.889,0,0,1,.889.89v2.964a.889.889,0,0,1-.889.889h-2.964a.889.889,0,0,1-.889-.889Zm-4.743,21.936a.89.89,0,0,1-.889.889h-2.964a.89.89,0,0,1-.889-.889v-2.965a.889.889,0,0,1,.889-.889h2.964a.889.889,0,0,1,.889.889Zm0-9.486a.89.89,0,0,1-.889.89h-2.964a.89.89,0,0,1-.889-.89v-2.964a.889.889,0,0,1,.889-.889h2.964a.889.889,0,0,1,.889.889Zm0-9.485a.889.889,0,0,1-.889.889h-2.964a.889.889,0,0,1-.889-.889v-2.964a.89.89,0,0,1,.889-.89h2.964a.89.89,0,0,1,.889.89Z" transform="translate(916.25 -2395.535)" fill="#fff" opacity="0.4" style="isolation:isolate"/><path d="M-840.738,2445.239l-.339-.842-1.324-3.637a7.4,7.4,0,0,0-6.906-4.677h-8.438a7.406,7.406,0,0,0-6.91,4.677l-1.321,3.637-.337.841a4.254,4.254,0,0,0-2.625,3.927v2.126a4.228,4.228,0,0,0,1.594,3.294v3.084a2.127,2.127,0,0,0,2.125,2.125h2.126a2.126,2.126,0,0,0,2.125-2.125v-2.617h14.882v2.617a2.126,2.126,0,0,0,2.126,2.125h2.126a2.126,2.126,0,0,0,2.126-2.125v-3.084a4.222,4.222,0,0,0,1.594-3.294v-2.126A4.253,4.253,0,0,0-840.738,2445.239Zm-19.969-2.339a3.192,3.192,0,0,1,2.964-2.075h8.435a3.2,3.2,0,0,1,2.964,2.075l.894,2.668H-861.6Zm-2.6,9.178a1.677,1.677,0,0,1-1.778-1.773,1.677,1.677,0,0,1,1.778-1.772,3.421,3.421,0,0,1,2.668,2.659C-860.641,2452.256-862.242,2452.078-863.309,2452.078Zm19.564,0c-1.067,0-2.668.177-2.668-.889a3.415,3.415,0,0,1,2.668-2.656,1.677,1.677,0,0,1,1.778,1.772A1.678,1.678,0,0,1-843.745,2452.078Z" transform="translate(885.541 -2421.854)" fill="#fff"/></g><g transform="translate(-848.933 2486.068)"><g transform="translate(0 0)"><rect width="3.851" height="33.331" transform="translate(4.835 7.046) rotate(-45)" fill="#fff" opacity="0.4" style="isolation:isolate"/><path d="M-44.612,2667.239a64.957,64.957,0,0,0-12.8,10.164,64.99,64.99,0,0,0-10.163,12.8c-1.788-3.352,1.075-10.173,6.931-16.029S-47.963,2665.451-44.612,2667.239Z" transform="translate(68.099 -2666.711)" fill="#fff"/></g></g><g transform="translate(-1130.522 2505.464)"><path d="M-846.856,2745.917h-5.157l-1.156-23.931h-7.466l-1.151,23.931h-5.157a3.942,3.942,0,0,0-3.522,2.179.854.854,0,0,0,.381,1.146.848.848,0,0,0,.376.091h25.616a.854.854,0,0,0,.853-.855.855.855,0,0,0-.09-.382A3.942,3.942,0,0,0-846.856,2745.917Z" transform="translate(870.556 -2721.986)" fill="#fff" opacity="0.4" style="isolation:isolate"/></g><g transform="translate(-1266.737 2496.4)"><path d="M-1233.894,2696.157H-1246.5a5.043,5.043,0,0,0-5.043,5.043v30.26h22.7V2701.2A5.043,5.043,0,0,0-1233.894,2696.157Zm.322,13.85-7.384,10.954a.979.979,0,0,1-.819.413.862.862,0,0,1-.92-1.019l1.813-6.547h-4.675a.874.874,0,0,1-.937-.937l1.261-8.432a.913.913,0,0,1,.937-.718h5.358a.859.859,0,0,1,.914,1.041l-.914,4h4.547A.833.833,0,0,1-1233.572,2710.007Z" transform="translate(1254.068 -2696.157)" fill="#fff" opacity="0.4" style="isolation:isolate"/><path d="M-1232.255,2745.454h-25.217a1.261,1.261,0,0,0-1.261,1.261v2.522a1.261,1.261,0,0,0,1.261,1.261h25.217a1.261,1.261,0,0,0,1.261-1.261v-2.522A1.261,1.261,0,0,0-1232.255,2745.454Zm-17.967-17.652h4.675l-1.812,6.547a.862.862,0,0,0,.92,1.019.979.979,0,0,0,.819-.413l7.384-10.954a.833.833,0,0,0-.819-1.242h-4.547l.914-4a.859.859,0,0,0-.914-1.041h-5.358a.913.913,0,0,0-.937.718l-1.261,8.432a.874.874,0,0,0,.937.937Z" transform="translate(1258.733 -2710.15)" fill="#fff"/><path d="M-1167.958,2715.573h-1.261v-3.783a1.261,1.261,0,0,0-1.261-1.261,1.261,1.261,0,0,0-1.261,1.261v3.783h-2.522v-3.783a1.261,1.261,0,0,0-1.261-1.261,1.261,1.261,0,0,0-1.261,1.261v3.783h-1.261a1.261,1.261,0,0,0-1.261,1.261v2.522a6.282,6.282,0,0,0,4.413,5.983v9.338a2.3,2.3,0,0,1-1.833,2.3,2.207,2.207,0,0,1-2.548-1.8,2.217,2.217,0,0,1-.032-.375v-2.207a6.934,6.934,0,0,0-6.934-6.934h-.631v3.783h.631a3.152,3.152,0,0,1,3.152,3.152v1.94a6.169,6.169,0,0,0,5.391,6.226,6,6,0,0,0,6.558-5.373c.019-.194.029-.39.029-.585v-9.462a6.283,6.283,0,0,0,4.413-5.983v-2.522A1.261,1.261,0,0,0-1167.958,2715.573Z" transform="translate(1212.088 -2705.486)" fill="#fff"/></g><g transform="translate(-1271.064 2588.632)"><path d="M-1187.93,2973.574a2.177,2.177,0,0,0-2.177-2.177h-6.529v4.353h6.529A2.176,2.176,0,0,0-1187.93,2973.574Zm0,13.059a2.176,2.176,0,0,0-2.177-2.177h-6.529v4.353h6.529A2.177,2.177,0,0,0-1187.93,2986.633Z" transform="translate(1222.753 -2967.045)" fill="#fff" opacity="0.4" style="isolation:isolate"/><path d="M-1248.211,2985.112h-2.177a1.088,1.088,0,0,1-1.088-1.088v-1.089h-2.176a10.887,10.887,0,0,1-10.665-8.706h-6.747v-4.353h6.747a10.888,10.888,0,0,1,10.665-8.706h2.176v-1.088a1.088,1.088,0,0,1,1.088-1.088h2.177a1.088,1.088,0,0,1,1.088,1.088v23.941A1.089,1.089,0,0,1-1248.211,2985.112Z" transform="translate(1271.064 -2958.994)" fill="#fff"/></g><g transform="translate(-1125.069 2591.289)"><path d="M-851.953,2971.243a.587.587,0,0,0-.83,0,.577.577,0,0,0-.049.056,11.4,11.4,0,0,0,1.137,14.756,11.4,11.4,0,0,0,14.756,1.137.582.582,0,0,0,.114-.815.568.568,0,0,0-.057-.064Zm16.429-1.358a11.4,11.4,0,0,0-14.756-1.136.582.582,0,0,0-.114.815.523.523,0,0,0,.056.064l15.071,15.071a.587.587,0,0,0,.83,0,.713.713,0,0,0,.049-.056,11.39,11.39,0,0,0-1.137-14.756Z" transform="translate(855.016 -2966.564)" fill="#fff" opacity="0.4" style="isolation:isolate"/></g><g transform="translate(-984.809 2573.11)"><g transform="translate(0 0)"><path d="M-428.922,2920.165c0,6.037-3.871,10.969-9.37,11.368a6.822,6.822,0,0,1-.717.039v-.019h-.009a6.713,6.713,0,0,1-5.8-3.33l.027-.03a12.566,12.566,0,0,1,3.4-2.666,10.418,10.418,0,0,1,4.883-1.192.865.865,0,0,0,.847-.882.865.865,0,0,0-.847-.847,12.111,12.111,0,0,0-5.707,1.4,13.994,13.994,0,0,0-3.319,2.469,6.731,6.731,0,0,1-.2-1.641,6.716,6.716,0,0,1,6.717-6.715h2.81a6.007,6.007,0,0,0,5.251-3.065.545.545,0,0,1,.992.042A12.75,12.75,0,0,1-428.922,2920.165Z" transform="translate(449.094 -2914.759)" fill="#fff" opacity="0.4" style="isolation:isolate"/><path d="M-454.454,2947.206a.852.852,0,0,1-.333-.069.866.866,0,0,1-.455-1.131,17.02,17.02,0,0,1,2.935-4.428,14.308,14.308,0,0,1,3.881-3.055,12.113,12.113,0,0,1,5.7-1.4.864.864,0,0,1,.847.882.865.865,0,0,1-.847.847,10.418,10.418,0,0,0-4.883,1.192,12.561,12.561,0,0,0-3.4,2.666,15.608,15.608,0,0,0-2.656,3.972A.86.86,0,0,1-454.454,2947.206Z" transform="translate(455.31 -2929.272)" fill="#fff"/></g></g><g transform="translate(-837.179 2570.003)"><g transform="translate(0 0)"><path d="M-19.777,2924.351a.972.972,0,0,0-1.191.688c-.006.021-.011.043-.015.065l-.344,1.851a.894.894,0,0,0,.621,1.032,6.356,6.356,0,0,1,4.587,6.516.9.9,0,0,0,.762.934l1.858.3a.973.973,0,0,0,1.109-.814c0-.022.006-.044.008-.066a9.988,9.988,0,0,0-7.4-10.506Z" transform="translate(25.998 -2917.857)" fill="#fff" opacity="0.4" style="isolation:isolate"/><path d="M-33.2,2919.592a3.314,3.314,0,0,0-.8,4.618,3.314,3.314,0,0,0,4.618.8,3.314,3.314,0,0,0,.8-4.618A3.314,3.314,0,0,0-33.2,2919.592Zm5.985-13.659a.971.971,0,0,0-1.167.723l-.007.031-.336,1.82a.923.923,0,0,0,.683,1.081,12.721,12.721,0,0,1,9.815,13.943.924.924,0,0,0,.788,1.008l1.824.3a.972.972,0,0,0,1.1-.82c0-.01,0-.021,0-.031a16.289,16.289,0,0,0-2.847-11.491A16.3,16.3,0,0,0-27.212,2905.933Z" transform="translate(34.604 -2905.907)" fill="#fff"/></g></g><path d="M-90.008,2490.517a9.682,9.682,0,0,1-4.859-1.922,3.252,3.252,0,0,0-4.045,0,10.506,10.506,0,0,1-12.225-.126,3.112,3.112,0,0,0-3.918.151,10.514,10.514,0,0,1-12.183-.143,3.161,3.161,0,0,0-3.952.168,9.511,9.511,0,0,1-4.841,1.881,1.3,1.3,0,0,0-1.141,1.318v2.7a1.322,1.322,0,0,0,1.4,1.342,15.075,15.075,0,0,0,6.663-2.174,16.071,16.071,0,0,0,16.1,0,16.07,16.07,0,0,0,16.1,0,15.508,15.508,0,0,0,6.638,2.166,1.324,1.324,0,0,0,1.4-1.342v-2.653a1.34,1.34,0,0,0-1.152-1.369Z" transform="translate(-736.001 -64.542)" fill="#fff" opacity="0.4" style="isolation:isolate"/><path d="M-866.952,2689.628l-9.43-19.46a5.953,5.953,0,0,1-.078-4.567l7.822-19.112a1.686,1.686,0,0,0-.946-2.189,1.686,1.686,0,0,0-1.989.581l-12.18,16.722a5.95,5.95,0,0,1-3.893,2.391l-20.437,3.237a1.688,1.688,0,0,0-1.422,1.7v.025a1.687,1.687,0,0,0,1.505,1.638l20.252,2.191a5.952,5.952,0,0,1,4.006,2.2l13.909,16.384a1.688,1.688,0,0,0,2.191.387l.021-.013A1.686,1.686,0,0,0-866.952,2689.628Zm-15.23-18.977a2.561,2.561,0,0,1-2.562-2.561,2.561,2.561,0,0,1,2.562-2.562,2.561,2.561,0,0,1,2.562,2.562A2.561,2.561,0,0,1-882.182,2670.651Z" transform="translate(-234.684 -166.019)" fill="#fff"/><g transform="translate(-880.225 2503.243)"><path d="M-86.2,2760.212H-98.413l-6.506-10.292,2.025-5.9h9.738Z" transform="translate(123.291 -2734.07)" fill="#fff"/><path d="M-113.36,2718.592l-13.75-2.936-2.683,13.131h6.234l3.245-5.1h6.954Z" transform="translate(139.436 -2715.656)" fill="#fff" opacity="0.4" style="isolation:isolate"/><path d="M-141.976,2758.812h-9.735l-5.563,11h22.252Z" transform="translate(157.274 -2743.668)" fill="#fff"/></g><g transform="translate(-1143.432 2582.076)"><path d="M-899.339,2940.312a8,8,0,0,0-8.007,8v8.016h16.014v-8.007a8,8,0,0,0-8-8.007Z" transform="translate(907.346 -2940.312)" fill="#fff" opacity="0.4" style="isolation:isolate"/><path d="M-891.332,2985.948v8.008a8.007,8.007,0,0,1-8.007,8.007,8.007,8.007,0,0,1-8.007-8.007v-8.008Z" transform="translate(907.346 -2969.934)" fill="#fff"/></g><g transform="translate(-1012.697 2577.144)"><path d="M-520.267,2932.079a5.825,5.825,0,0,1,5.824-5.824,5.825,5.825,0,0,1,5.824,5.824,5.824,5.824,0,0,1-5.824,5.824A5.824,5.824,0,0,1-520.267,2932.079Z" transform="translate(525.362 -2926.255)" fill="#fff" opacity="0.4" style="isolation:isolate"/><path d="M-528.235,2963.6h1.034a8,8,0,0,0,6.669,0h1.033a2.184,2.184,0,0,1,2.118,1.654l4.368,17.473a2.184,2.184,0,0,1-1.589,2.649,2.185,2.185,0,0,1-.529.065h-5.1v9.464a2.184,2.184,0,0,1-2.184,2.184h-2.912a2.184,2.184,0,0,1-2.184-2.184v-9.464h-5.1a2.184,2.184,0,0,1-2.183-2.185,2.171,2.171,0,0,1,.065-.529l4.368-17.473A2.184,2.184,0,0,1-528.235,2963.6Z" transform="translate(534.786 -2950.496)" fill="#fff"/></g><g transform="translate(-986.296 2599.285)"><path d="M-436.691,3004.351l-2.077-1.2a9.386,9.386,0,0,0,0-3.423l2.077-1.2a.59.59,0,0,0,.268-.682,12.152,12.152,0,0,0-2.667-4.613.585.585,0,0,0-.721-.112l-2.077,1.2a9.2,9.2,0,0,0-2.965-1.711v-2.394a.584.584,0,0,0-.456-.57,12.251,12.251,0,0,0-5.325,0,.584.584,0,0,0-.458.57v2.4a9.494,9.494,0,0,0-2.965,1.712l-2.075-1.2a.579.579,0,0,0-.721.112,12.074,12.074,0,0,0-2.667,4.613.585.585,0,0,0,.268.683l2.077,1.2a9.386,9.386,0,0,0,0,3.423l-2.077,1.2a.588.588,0,0,0-.268.682,12.141,12.141,0,0,0,2.667,4.613.585.585,0,0,0,.721.112l2.077-1.2a9.186,9.186,0,0,0,2.965,1.711v2.4a.585.585,0,0,0,.458.571,12.266,12.266,0,0,0,5.325,0,.585.585,0,0,0,.458-.571v-2.4a9.49,9.49,0,0,0,2.965-1.711l2.077,1.2a.58.58,0,0,0,.721-.112,12.07,12.07,0,0,0,2.667-4.613.6.6,0,0,0-.273-.687Zm-11.283,1.765a4.676,4.676,0,0,1-4.676-4.676,4.676,4.676,0,0,1,4.676-4.676,4.676,4.676,0,0,1,4.676,4.676h0a4.676,4.676,0,0,1-4.675,4.676Z" transform="translate(459.548 -2989.352)" fill="#fff" opacity="0.4" style="isolation:isolate"/><path d="M-432.33,3021.152a3.116,3.116,0,0,1-3.116-3.116,3.116,3.116,0,0,1,3.116-3.116,3.116,3.116,0,0,1,3.116,3.116h0A3.116,3.116,0,0,1-432.33,3021.152Z" transform="translate(443.904 -3005.948)" fill="#fff"/></g><g transform="translate(-881.082 2579.858)"><path d="M-141.731,2983.708H-144.8a.921.921,0,0,0-.921.921v3.069a.921.921,0,0,0,.921.921h3.069a.921.921,0,0,0,.921-.921v-3.069A.921.921,0,0,0-141.731,2983.708Zm0-7.366H-144.8a.92.92,0,0,0-.921.92v3.069a.921.921,0,0,0,.921.921h3.069a.921.921,0,0,0,.921-.921v-3.069A.92.92,0,0,0-141.731,2976.342Zm0-7.366H-144.8a.921.921,0,0,0-.921.921v3.069a.921.921,0,0,0,.921.921h3.069a.921.921,0,0,0,.921-.921V2969.9A.921.921,0,0,0-141.731,2968.976Zm9.822,14.732h-3.069a.921.921,0,0,0-.921.921v3.069a.921.921,0,0,0,.921.921h3.069a.921.921,0,0,0,.92-.921v-3.069A.921.921,0,0,0-131.91,2983.708Zm0-7.366h-3.069a.92.92,0,0,0-.921.92v3.069a.921.921,0,0,0,.921.921h3.069a.921.921,0,0,0,.92-.921v-3.069A.92.92,0,0,0-131.91,2976.342Zm0-7.366h-3.069a.921.921,0,0,0-.921.921v3.069a.921.921,0,0,0,.921.921h3.069a.92.92,0,0,0,.92-.921V2969.9A.92.92,0,0,0-131.91,2968.976Zm24.553,14.732h-3.069a.921.921,0,0,0-.921.921v3.069a.921.921,0,0,0,.921.921h3.069a.921.921,0,0,0,.921-.921v-3.069A.921.921,0,0,0-107.356,2983.708Zm0-7.366h-3.069a.92.92,0,0,0-.921.92v3.069a.921.921,0,0,0,.921.921h3.069a.921.921,0,0,0,.921-.921v-3.069A.92.92,0,0,0-107.356,2976.342Z" transform="translate(150.632 -2956.699)" fill="#fff" opacity="0.4" style="isolation:isolate"/><path d="M-112.45,2948.723h-10.435v-12.891a1.841,1.841,0,0,0-1.842-1.841h-11.049a1.841,1.841,0,0,0-1.841,1.841v5.524h-4.911v-6.138a1.227,1.227,0,0,0-1.227-1.228h-1.228a1.227,1.227,0,0,0-1.227,1.228v6.138h-4.911v-6.138a1.227,1.227,0,0,0-1.227-1.228h-1.228a1.227,1.227,0,0,0-1.227,1.228v6.138h-3.069a1.842,1.842,0,0,0-1.842,1.842v27.622a2.456,2.456,0,0,0,2.456,2.456h44.2a2.456,2.456,0,0,0,2.455-2.456v-20.256A1.842,1.842,0,0,0-112.45,2948.723Zm-37.444,16.267a.921.921,0,0,1-.921.921h-3.069a.921.921,0,0,1-.921-.921v-3.069a.921.921,0,0,1,.921-.921h3.069a.921.921,0,0,1,.921.921Zm0-7.366a.921.921,0,0,1-.921.921h-3.069a.921.921,0,0,1-.921-.921v-3.069a.92.92,0,0,1,.921-.92h3.069a.92.92,0,0,1,.921.92Zm0-7.366a.921.921,0,0,1-.921.921h-3.069a.921.921,0,0,1-.921-.921v-3.069a.921.921,0,0,1,.921-.921h3.069a.921.921,0,0,1,.921.921Zm9.821,14.732a.921.921,0,0,1-.92.921h-3.069a.921.921,0,0,1-.921-.921v-3.069a.921.921,0,0,1,.921-.921h3.069a.921.921,0,0,1,.92.921Zm0-7.366a.921.921,0,0,1-.92.921h-3.069a.921.921,0,0,1-.921-.921v-3.069a.92.92,0,0,1,.921-.92h3.069a.92.92,0,0,1,.92.92Zm0-7.366a.92.92,0,0,1-.92.921h-3.069a.921.921,0,0,1-.921-.921v-3.069a.921.921,0,0,1,.921-.921h3.069a.92.92,0,0,1,.92.921Zm12.277,7.366a.921.921,0,0,1-.921.921h-3.069a.921.921,0,0,1-.921-.921v-3.069a.92.92,0,0,1,.921-.92h3.069a.92.92,0,0,1,.921.92Zm0-7.366a.921.921,0,0,1-.921.921h-3.069a.921.921,0,0,1-.921-.921v-3.069a.921.921,0,0,1,.921-.921h3.069a.921.921,0,0,1,.921.921Zm0-7.366a.921.921,0,0,1-.921.921h-3.069a.921.921,0,0,1-.921-.921h0v-3.069a.921.921,0,0,1,.921-.921h3.069a.921.921,0,0,1,.921.921Zm12.277,22.1a.921.921,0,0,1-.921.921h-3.069a.921.921,0,0,1-.921-.921v-3.069a.921.921,0,0,1,.921-.921h3.069a.921.921,0,0,1,.921.921Zm0-7.366a.921.921,0,0,1-.921.921h-3.069a.921.921,0,0,1-.921-.921v-3.069a.92.92,0,0,1,.921-.92h3.069a.92.92,0,0,1,.921.92Z" transform="translate(159.716 -2933.991)" fill="#fff"/></g></g></svg>