<svg xmlns="http://www.w3.org/2000/svg" width="85.75" height="98" viewBox="0 0 85.75 98"><path fill="#fff" d="M0,36.75V88.813A9.187,9.187,0,0,0,9.187,98H76.563a9.187,9.187,0,0,0,9.188-9.187V36.75Zm24.5,46.7a2.3,2.3,0,0,1-2.3,2.3H14.547a2.3,2.3,0,0,1-2.3-2.3V75.8a2.3,2.3,0,0,1,2.3-2.3H22.2a2.3,2.3,0,0,1,2.3,2.3Zm0-24.5a2.3,2.3,0,0,1-2.3,2.3H14.547a2.3,2.3,0,0,1-2.3-2.3V51.3a2.3,2.3,0,0,1,2.3-2.3H22.2a2.3,2.3,0,0,1,2.3,2.3ZM49,83.453a2.3,2.3,0,0,1-2.3,2.3H39.047a2.3,2.3,0,0,1-2.3-2.3V75.8a2.3,2.3,0,0,1,2.3-2.3H46.7A2.3,2.3,0,0,1,49,75.8Zm0-24.5a2.3,2.3,0,0,1-2.3,2.3H39.047a2.3,2.3,0,0,1-2.3-2.3V51.3a2.3,2.3,0,0,1,2.3-2.3H46.7A2.3,2.3,0,0,1,49,51.3Zm24.5,24.5a2.3,2.3,0,0,1-2.3,2.3H63.547a2.3,2.3,0,0,1-2.3-2.3V75.8a2.3,2.3,0,0,1,2.3-2.3H71.2a2.3,2.3,0,0,1,2.3,2.3Zm0-24.5a2.3,2.3,0,0,1-2.3,2.3H63.547a2.3,2.3,0,0,1-2.3-2.3V51.3a2.3,2.3,0,0,1,2.3-2.3H71.2a2.3,2.3,0,0,1,2.3,2.3ZM58.188,24.5h6.125a3.063,3.063,0,0,0,3.063-3.062V3.063A3.063,3.063,0,0,0,64.313,0H58.188a3.063,3.063,0,0,0-3.062,3.063V21.438A3.063,3.063,0,0,0,58.188,24.5Zm-36.75,0h6.125a3.062,3.062,0,0,0,3.063-3.062V3.063A3.063,3.063,0,0,0,27.563,0H21.438a3.063,3.063,0,0,0-3.062,3.063V21.438A3.062,3.062,0,0,0,21.438,24.5Z" opacity=".4"/><path fill="#fff" d="M85.75,73.188V88.5H0V73.188A9.188,9.188,0,0,1,9.188,64h9.187v9.188a3.062,3.062,0,0,0,3.063,3.063h6.125a3.062,3.062,0,0,0,3.063-3.062V64h24.5v9.188a3.063,3.063,0,0,0,3.063,3.063h6.125a3.063,3.063,0,0,0,3.063-3.062V64h9.188a9.188,9.188,0,0,1,9.188,9.188Z" transform="translate(0 -51.75)"/></svg>