<svg xmlns="http://www.w3.org/2000/svg" width="101.22" height="101.227" viewBox="0 0 101.22 101.227"><g transform="translate(-3596.287 -4035.961)"><path d="M3665.932,4071.321c-.012-.19-.057-.366-.057-.563v.582A.446.446,0,0,1,3665.932,4071.321Zm-69.645,21.574a6.326,6.326,0,0,0,6.32,6.333h6.327v12.653a12.653,12.653,0,0,0,12.653,12.653h12.653v12.653h50.614v-35.03a37.921,37.921,0,0,0-25.307-66.2H3644.9a41.111,41.111,0,0,0-33.619,17.448c-4.871,6.924-10.308,27.606-14.448,36.922A6.325,6.325,0,0,0,3596.287,4092.9Z" fill="#51e7f2"/><path d="M3727.9,4120.758a9.49,9.49,0,0,1,9.49-9.49h.581a22.158,22.158,0,0,0,16.548-8.049,18.819,18.819,0,0,0,17.667,1.722,73.213,73.213,0,0,0,18.464,15.874,9.467,9.467,0,0,1-5.868,12.033c.012.189.057.366.057.563a9.49,9.49,0,0,1-9.49,9.49,9.393,9.393,0,0,1-3.163-.581v10.071h-12.654V4142.32a9.39,9.39,0,0,1-3.163.581,9.49,9.49,0,0,1-9.49-9.49,9.385,9.385,0,0,1,.581-3.164h-10.071A9.49,9.49,0,0,1,3727.9,4120.758Z" transform="translate(-106.31 -53.163)" fill="#e25456"/></g></svg>