<svg xmlns="http://www.w3.org/2000/svg" width="37" height="37" viewBox="0 0 37 37"><path d="M4529.973,1497.2a17.12,17.12,0,0,1-5.42-13.08,17.117,17.117,0,0,1-13.08-5.42,17.117,17.117,0,0,1-13.08,5.42,17.118,17.118,0,0,1-5.42,13.08,17.119,17.119,0,0,1,5.42,13.08,17.118,17.118,0,0,1,13.08,5.42,17.119,17.119,0,0,1,13.08-5.42,17.121,17.121,0,0,1,5.42-13.08Zm-10.464-3.2-9.47,9.394a.794.794,0,0,1-1.124,0l-5.472-5.516a.8.8,0,0,1,0-1.124l1.881-1.866a.8.8,0,0,1,1.124,0l3.047,3.07,7.024-6.968a.794.794,0,0,1,1.123,0l1.866,1.881a.8.8,0,0,1,0,1.124Z" transform="translate(-4492.973 -1478.701)" fill="#51e7f2"/></svg>