<svg xmlns="http://www.w3.org/2000/svg" xmlns:xlink="http://www.w3.org/1999/xlink" width="39.036" height="15.845" viewBox="0 0 39.036 15.845"><defs><linearGradient id="a" y1="0.5" x2="1" y2="0.5" gradientUnits="objectBoundingBox"><stop offset="0" stop-color="#c55557"/><stop offset="1" stop-color="#de525c"/></linearGradient></defs><g transform="translate(2411.021 -2888.195)"><path d="M-2403.1,2888.195a4.458,4.458,0,0,0-4.457,4.457,4.458,4.458,0,0,0,4.457,4.456,4.457,4.457,0,0,0,4.456-4.456A4.458,4.458,0,0,0-2403.1,2888.195Zm3.961,9.9c-2.86,0-2.2.5-3.961.5s-1.1-.5-3.961-.5a3.961,3.961,0,0,0-3.961,3.961v.99a.989.989,0,0,0,.99.99h13.864a.989.989,0,0,0,.99-.99v-.99A3.961,3.961,0,0,0-2399.137,2898.1Z" transform="translate(0 0)" fill="#1f3269"/><path d="M-2254.475,2888.195a4.458,4.458,0,0,0-4.456,4.457,4.457,4.457,0,0,0,4.456,4.456,4.457,4.457,0,0,0,4.456-4.456A4.458,4.458,0,0,0-2254.475,2888.195Zm3.961,9.9c-2.859,0-2.2.5-3.961.5s-1.1-.5-3.961-.5a3.961,3.961,0,0,0-3.961,3.961v.99a.989.989,0,0,0,.99.99h13.864a.989.989,0,0,0,.99-.99v-.99A3.961,3.961,0,0,0-2250.513,2898.1Z" transform="translate(-137.067 0)" fill="url(#a)"/><path d="M-2260.256,3021.21a3.96,3.96,0,0,0-2.145,3.521v.991a.989.989,0,0,0,.991.99h2.307a.989.989,0,0,0,.991-.99v-.991A3.962,3.962,0,0,0-2260.256,3021.21Z" transform="translate(-137.063 -122.672)" fill="#fff"/><path d="M-2260.256,3021.21a3.96,3.96,0,0,0-2.145,3.521v.991a.989.989,0,0,0,.991.99h2.307a.989.989,0,0,0,.991-.99v-.991A3.962,3.962,0,0,0-2260.256,3021.21Z" transform="translate(-137.063 -122.672)" fill="#51e7f2"/><path d="M-2104.861,2888.195a4.458,4.458,0,0,0-4.456,4.457,4.457,4.457,0,0,0,4.456,4.456,4.457,4.457,0,0,0,4.457-4.456A4.457,4.457,0,0,0-2104.861,2888.195Zm3.961,9.9c-2.86,0-2.2.5-3.961.5s-1.1-.5-3.961-.5a3.961,3.961,0,0,0-3.961,3.961v.99a.989.989,0,0,0,.99.99h13.864a.989.989,0,0,0,.99-.99v-.99A3.96,3.96,0,0,0-2100.9,2898.1Z" transform="translate(-275.047 0)" fill="#469ee1"/><path d="M-2110.642,3021.21a3.96,3.96,0,0,0-2.145,3.521v.991a.989.989,0,0,0,.991.99h2.307a.989.989,0,0,0,.99-.99v-.991A3.961,3.961,0,0,0-2110.642,3021.21Z" transform="translate(-275.043 -122.672)" fill="#fff" style="isolation:isolate"/></g></svg>