<svg xmlns="http://www.w3.org/2000/svg" xmlns:xlink="http://www.w3.org/1999/xlink" width="133.406" height="54.15" viewBox="0 0 133.406 54.15"><defs><linearGradient id="a" y1="0.5" x2="1" y2="0.5" gradientUnits="objectBoundingBox"><stop offset="0" stop-color="#c55557"/><stop offset="1" stop-color="#de525c"/></linearGradient></defs><g transform="translate(2411.021 -2888.195)"><path d="M-2383.946,2888.195a15.234,15.234,0,0,0-15.23,15.23,15.234,15.234,0,0,0,15.23,15.23,15.234,15.234,0,0,0,15.229-15.23A15.234,15.234,0,0,0-2383.946,2888.195Zm13.537,33.844c-9.772,0-7.509,1.692-13.537,1.692-6.007,0-3.776-1.692-13.538-1.692a13.537,13.537,0,0,0-13.538,13.537v3.384a3.381,3.381,0,0,0,3.385,3.385h47.381a3.381,3.381,0,0,0,3.384-3.385v-3.384A13.536,13.536,0,0,0-2370.408,2922.039Z" transform="translate(0 0)" fill="#fff"/><path d="M-2235.322,2888.195a15.233,15.233,0,0,0-15.229,15.23,15.233,15.233,0,0,0,15.229,15.23,15.234,15.234,0,0,0,15.23-15.23A15.234,15.234,0,0,0-2235.322,2888.195Zm13.537,33.844c-9.772,0-7.509,1.692-13.537,1.692-6.007,0-3.776-1.692-13.538-1.692a13.536,13.536,0,0,0-13.537,13.537v3.384a3.381,3.381,0,0,0,3.384,3.385h47.381a3.381,3.381,0,0,0,3.385-3.385v-3.384A13.536,13.536,0,0,0-2221.785,2922.039Z" transform="translate(-109.128 0)" fill="url(#a)"/><path d="M-2255.072,3021.21a13.536,13.536,0,0,0-7.329,12.033v3.385a3.382,3.382,0,0,0,3.386,3.383h7.885a3.38,3.38,0,0,0,3.385-3.383v-3.385A13.536,13.536,0,0,0-2255.072,3021.21Z" transform="translate(-109.125 -97.667)" fill="#fff"/><path d="M-2255.072,3021.21a13.536,13.536,0,0,0-7.329,12.033v3.385a3.382,3.382,0,0,0,3.386,3.383h7.885a3.38,3.38,0,0,0,3.385-3.383v-3.385A13.536,13.536,0,0,0-2255.072,3021.21Z" transform="translate(-109.125 -97.667)" fill="#51e7f2"/><path d="M-2085.708,2888.195a15.234,15.234,0,0,0-15.229,15.23,15.234,15.234,0,0,0,15.229,15.23,15.233,15.233,0,0,0,15.229-15.23A15.233,15.233,0,0,0-2085.708,2888.195Zm13.538,33.844c-9.772,0-7.509,1.692-13.538,1.692-6.007,0-3.776-1.692-13.537-1.692a13.537,13.537,0,0,0-13.538,13.537v3.384a3.381,3.381,0,0,0,3.385,3.385h47.381a3.381,3.381,0,0,0,3.384-3.385v-3.384A13.536,13.536,0,0,0-2072.17,2922.039Z" transform="translate(-218.983 0)" fill="#469ee1"/><path d="M-2105.458,3021.21a13.536,13.536,0,0,0-7.329,12.033v3.385a3.382,3.382,0,0,0,3.386,3.383h7.885a3.38,3.38,0,0,0,3.385-3.383v-3.385A13.536,13.536,0,0,0-2105.458,3021.21Z" transform="translate(-218.979 -97.667)" fill="#fff" style="isolation:isolate"/></g></svg>