<svg xmlns="http://www.w3.org/2000/svg" xmlns:xlink="http://www.w3.org/1999/xlink" width="145.799" height="19.063" viewBox="0 0 145.799 19.063"><defs><linearGradient id="a" y1="0.5" x2="1" y2="0.5" gradientUnits="objectBoundingBox"><stop offset="0" stop-color="#c55557"/><stop offset="1" stop-color="#de525c"/></linearGradient></defs><g transform="translate(-139.748 -115)"><path d="M9.824-5.811H4.2V0H1.27V-14.219h9.258v2.373H4.2v3.672H9.824ZM16.7.2a5.736,5.736,0,0,1-2.2-.4A4.876,4.876,0,0,1,12.847-1.3a4.69,4.69,0,0,1-1.035-1.626,5.546,5.546,0,0,1-.356-2V-5.3A6.691,6.691,0,0,1,11.8-7.5a5.07,5.07,0,0,1,.986-1.724,4.463,4.463,0,0,1,1.553-1.128,4.99,4.99,0,0,1,2.046-.405,5.029,5.029,0,0,1,2.012.376,4.022,4.022,0,0,1,1.46,1.055A4.485,4.485,0,0,1,20.747-7.7a7.144,7.144,0,0,1,.3,2.129v1.2H14.316a2.942,2.942,0,0,0,.278.938,2.427,2.427,0,0,0,.537.718,2.369,2.369,0,0,0,.767.464,2.774,2.774,0,0,0,.986.166,3.5,3.5,0,0,0,1.426-.288,2.875,2.875,0,0,0,1.123-.894L20.82-1.709a4.188,4.188,0,0,1-.635.7,4.305,4.305,0,0,1-.9.61,5.3,5.3,0,0,1-1.167.43A5.9,5.9,0,0,1,16.7.2Zm-.322-8.672a1.893,1.893,0,0,0-.806.161,1.758,1.758,0,0,0-.6.449,2.346,2.346,0,0,0-.405.688,3.944,3.944,0,0,0-.225.889h3.926v-.225a2.845,2.845,0,0,0-.122-.781,1.713,1.713,0,0,0-.342-.625,1.535,1.535,0,0,0-.586-.41A2.215,2.215,0,0,0,16.377-8.477ZM25.625,0H22.793V-15h2.832Zm5.3,0H28.1V-15h2.832Zm1.885-5.381a6.664,6.664,0,0,1,.332-2.139,4.9,4.9,0,0,1,.967-1.7,4.453,4.453,0,0,1,1.567-1.128,5.227,5.227,0,0,1,2.124-.41,5.288,5.288,0,0,1,2.139.41,4.491,4.491,0,0,1,1.577,1.128,4.855,4.855,0,0,1,.972,1.7,6.664,6.664,0,0,1,.332,2.139v.205a6.651,6.651,0,0,1-.332,2.144,4.862,4.862,0,0,1-.972,1.7A4.459,4.459,0,0,1,39.951-.21,5.273,5.273,0,0,1,37.822.2,5.308,5.308,0,0,1,35.688-.21a4.449,4.449,0,0,1-1.572-1.123,4.862,4.862,0,0,1-.972-1.7,6.651,6.651,0,0,1-.332-2.144Zm2.822.205a5.971,5.971,0,0,0,.117,1.211,2.981,2.981,0,0,0,.376.981,1.949,1.949,0,0,0,.674.659,1.982,1.982,0,0,0,1.021.244,1.941,1.941,0,0,0,1-.244,1.991,1.991,0,0,0,.679-.659,2.915,2.915,0,0,0,.381-.981A5.971,5.971,0,0,0,40-5.176v-.205a5.8,5.8,0,0,0-.117-1.187,3.026,3.026,0,0,0-.381-.986,1.991,1.991,0,0,0-.684-.674A1.957,1.957,0,0,0,37.8-8.477a1.911,1.911,0,0,0-1,.249,1.963,1.963,0,0,0-.674.674,3.1,3.1,0,0,0-.376.986,5.8,5.8,0,0,0-.117,1.187ZM53.75-3.838l1.387-6.729h2.725L55.166,0H52.8l-2-6.65L48.8,0H46.445l-2.7-10.566h2.725l1.377,6.719,1.934-6.719h2.041Zm11.23.918a.946.946,0,0,0-.088-.41.9.9,0,0,0-.332-.347,3.049,3.049,0,0,0-.664-.308,8.733,8.733,0,0,0-1.084-.283,10.286,10.286,0,0,1-1.5-.439,4.624,4.624,0,0,1-1.191-.654,2.925,2.925,0,0,1-.786-.908,2.463,2.463,0,0,1-.283-1.2,2.857,2.857,0,0,1,.288-1.26,3.155,3.155,0,0,1,.83-1.05A4.047,4.047,0,0,1,61.5-10.5a5.557,5.557,0,0,1,1.772-.264,6.232,6.232,0,0,1,1.846.254,4.213,4.213,0,0,1,1.392.708,3.139,3.139,0,0,1,.879,1.079A3.053,3.053,0,0,1,67.7-7.354H64.873a1.366,1.366,0,0,0-.391-1,1.653,1.653,0,0,0-1.221-.4,1.689,1.689,0,0,0-1.1.322,1.017,1.017,0,0,0-.391.82.826.826,0,0,0,.1.415,1.006,1.006,0,0,0,.332.332,2.651,2.651,0,0,0,.605.278,7.386,7.386,0,0,0,.923.234,12.589,12.589,0,0,1,1.592.41,4.64,4.64,0,0,1,1.265.63,2.831,2.831,0,0,1,.835.938,2.735,2.735,0,0,1,.3,1.333,2.724,2.724,0,0,1-.312,1.294,3.022,3.022,0,0,1-.894,1.021,4.488,4.488,0,0,1-1.4.674A6.427,6.427,0,0,1,63.281.2a5.671,5.671,0,0,1-1.963-.312,4.518,4.518,0,0,1-1.431-.82,3.418,3.418,0,0,1-.874-1.143,3.028,3.028,0,0,1-.293-1.279H61.4a1.635,1.635,0,0,0,.181.708A1.389,1.389,0,0,0,62-2.168a1.831,1.831,0,0,0,.61.273,2.95,2.95,0,0,0,.728.088,2.044,2.044,0,0,0,1.226-.308A.957.957,0,0,0,64.98-2.92Zm7.314-6.494a3.84,3.84,0,0,1,1.235-.991,3.479,3.479,0,0,1,1.587-.356,4.4,4.4,0,0,1,1.426.22,2.654,2.654,0,0,1,1.1.713,3.318,3.318,0,0,1,.708,1.274A6.29,6.29,0,0,1,78.6-6.66V0H75.781V-6.68a2.755,2.755,0,0,0-.112-.85,1.34,1.34,0,0,0-.327-.552,1.207,1.207,0,0,0-.532-.3,2.692,2.692,0,0,0-.718-.088,2.146,2.146,0,0,0-1.1.259,1.9,1.9,0,0,0-.693.7V0H69.473V-15h2.822ZM83.711,0H80.879V-10.566h2.832Zm-3-13.3a1.39,1.39,0,0,1,.425-1.045,1.6,1.6,0,0,1,1.157-.41,1.89,1.89,0,0,1,.654.107,1.421,1.421,0,0,1,.5.3,1.354,1.354,0,0,1,.317.464,1.491,1.491,0,0,1,.112.581,1.517,1.517,0,0,1-.112.591,1.354,1.354,0,0,1-.317.464,1.421,1.421,0,0,1-.5.3,1.89,1.89,0,0,1-.654.107,1.89,1.89,0,0,1-.654-.107,1.421,1.421,0,0,1-.5-.3,1.354,1.354,0,0,1-.317-.464A1.517,1.517,0,0,1,80.713-13.3ZM95.547-5.186a8.118,8.118,0,0,1-.269,2.139,5.236,5.236,0,0,1-.786,1.7A3.743,3.743,0,0,1,93.208-.215,3.679,3.679,0,0,1,91.445.2,3.519,3.519,0,0,1,89.966-.1a3.314,3.314,0,0,1-1.108-.82v4.98H86.035V-10.566h2.617l.1,1.035a3.494,3.494,0,0,1,1.138-.908,3.424,3.424,0,0,1,1.538-.322,3.923,3.923,0,0,1,1.777.386,3.537,3.537,0,0,1,1.289,1.094,5.116,5.116,0,0,1,.786,1.7,8.375,8.375,0,0,1,.269,2.192Zm-2.822-.205a6.2,6.2,0,0,0-.112-1.216,3.12,3.12,0,0,0-.356-.977,1.827,1.827,0,0,0-.63-.649,1.783,1.783,0,0,0-.942-.234,2.238,2.238,0,0,0-1.138.259,1.731,1.731,0,0,0-.688.757v4.326a1.871,1.871,0,0,0,.688.767A2.152,2.152,0,0,0,90.7-2.08a1.727,1.727,0,0,0,.942-.244,1.847,1.847,0,0,0,.625-.669,3.236,3.236,0,0,0,.347-.991,6.441,6.441,0,0,0,.107-1.2Z" transform="translate(190 130)" fill="#1f3269"/><g transform="translate(2550.769 -2772.203)"><path d="M-2403.1,2888.195a4.458,4.458,0,0,0-4.457,4.457,4.458,4.458,0,0,0,4.457,4.456,4.457,4.457,0,0,0,4.456-4.456A4.458,4.458,0,0,0-2403.1,2888.195Zm3.961,9.9c-2.86,0-2.2.5-3.961.5s-1.1-.5-3.961-.5a3.961,3.961,0,0,0-3.961,3.961v.99a.989.989,0,0,0,.99.99h13.864a.989.989,0,0,0,.99-.99v-.99A3.961,3.961,0,0,0-2399.137,2898.1Z" transform="translate(0 0)" fill="#1f3269"/><path d="M-2254.475,2888.195a4.458,4.458,0,0,0-4.456,4.457,4.457,4.457,0,0,0,4.456,4.456,4.457,4.457,0,0,0,4.456-4.456A4.458,4.458,0,0,0-2254.475,2888.195Zm3.961,9.9c-2.859,0-2.2.5-3.961.5s-1.1-.5-3.961-.5a3.961,3.961,0,0,0-3.961,3.961v.99a.989.989,0,0,0,.99.99h13.864a.989.989,0,0,0,.99-.99v-.99A3.961,3.961,0,0,0-2250.513,2898.1Z" transform="translate(-137.067 0)" fill="url(#a)"/><path d="M-2260.256,3021.21a3.96,3.96,0,0,0-2.145,3.521v.991a.989.989,0,0,0,.991.99h2.307a.989.989,0,0,0,.991-.99v-.991A3.962,3.962,0,0,0-2260.256,3021.21Z" transform="translate(-137.063 -122.672)" fill="#fff"/><path d="M-2260.256,3021.21a3.96,3.96,0,0,0-2.145,3.521v.991a.989.989,0,0,0,.991.99h2.307a.989.989,0,0,0,.991-.99v-.991A3.962,3.962,0,0,0-2260.256,3021.21Z" transform="translate(-137.063 -122.672)" fill="#51e7f2"/><path d="M-2104.861,2888.195a4.458,4.458,0,0,0-4.456,4.457,4.457,4.457,0,0,0,4.456,4.456,4.457,4.457,0,0,0,4.457-4.456A4.457,4.457,0,0,0-2104.861,2888.195Zm3.961,9.9c-2.86,0-2.2.5-3.961.5s-1.1-.5-3.961-.5a3.961,3.961,0,0,0-3.961,3.961v.99a.989.989,0,0,0,.99.99h13.864a.989.989,0,0,0,.99-.99v-.99A3.96,3.96,0,0,0-2100.9,2898.1Z" transform="translate(-275.047 0)" fill="#469ee1"/><path d="M-2110.642,3021.21a3.96,3.96,0,0,0-2.145,3.521v.991a.989.989,0,0,0,.991.99h2.307a.989.989,0,0,0,.99-.99v-.991A3.961,3.961,0,0,0-2110.642,3021.21Z" transform="translate(-275.043 -122.672)" fill="#fff" style="isolation:isolate"/></g></g></svg>