<svg xmlns="http://www.w3.org/2000/svg" viewBox="0 0 1283 1715.79"><defs><style>.cls-1{fill:#51e7f2}.cls-2{fill:#1f3269}.cls-3{fill:#e25456}.cls-4{fill:#469ee1}.cls-5{fill:#d84190}.cls-6{fill:#fff}</style></defs><g id="Layer_2" data-name="Layer 2"><g id="Layer_1-2" data-name="Layer 1"><polygon points="481 1596.79 415 1596.79 415 1684.3 385 1715.79 482 1715.79 579 1715.79 549 1684.3 549 1596.79 483 1596.79 481 1596.79" class="cls-1"/><polygon points="482 1548.79 481 1548.79 415 1548.79 415 1596.79 481 1596.79 483 1596.79 549 1596.79 549 1548.79 483 1548.79 482 1548.79" class="cls-2"/><path d="M481,523.79H322v61h92.28A67,67,0,0,1,481,523.79Z" class="cls-3"/><path d="M611,523.79H481a67,67,0,0,1,66.72,61H640v-61Z" class="cls-3"/><path d="M163,523.79v.05c-.67,0-1.33-.05-2-.05h0c-.67,0-1.33,0-2,.05v-.05H29v61H94.28c-.17,2-.28,4-.28,6v67H228v-67c0-2-.11-4-.28-6H293v-61Z" class="cls-4"/><path d="M187,433.79H135v45h.18a26,26,0,0,1,51.64,0H187Z" class="cls-4"/><path d="M161,455.79a26,26,0,0,0-25.82,23,24.66,24.66,0,0,0-.18,3,26,26,0,0,0,52,0,24.66,24.66,0,0,0-.18-3A26,26,0,0,0,161,455.79Z" class="cls-1"/><polygon points="94 657.79 94 793.3 64 824.79 161 824.79 258 824.79 228 793.3 228 657.79 161 657.79 94 657.79" class="cls-3"/><path d="M455,481.79a26,26,0,0,0,52,0c0-.33,0-.67,0-1H455C455,481.12,455,481.46,455,481.79Z" class="cls-3"/><path d="M481,523.79h0a67,67,0,0,0-66.72,61c-.17,2-.28,4-.28,6v64l-20,91H568l-20-91v-64c0-2-.11-4-.28-6A67,67,0,0,0,481,523.79Z" class="cls-2"/><polygon points="414 745.79 414 793.3 384 824.79 481 824.79 578 824.79 548 793.3 548 745.79 414 745.79" class="cls-3"/><path d="M511,426.79a30,30,0,1,0-35.25,29.53A26,26,0,0,0,455,480.79h52a26,26,0,0,0-20.73-24.47A30,30,0,0,0,511,426.79Z" class="cls-2"/><rect width="29" height="61" x="293" y="523.79" class="cls-1"/><rect width="29" height="61" y="523.79" class="cls-1"/><path d="M104.31,343.79H218.69A27.31,27.31,0,0,0,246,316.48V259.79s-37.61,53-84,53-84-53-84-53,37.61-53,84-53,84,53,84,53V202.1a27.31,27.31,0,0,0-27.31-27.31H104.31A27.31,27.31,0,0,0,77,202.1V316.48A27.31,27.31,0,0,0,104.31,343.79Z" class="cls-3"/><path d="M162,206.79c-46.39,0-84,53-84,53s37.61,53,84,53,84-53,84-53S208.39,206.79,162,206.79Zm0,91a38,38,0,1,1,38-38A38,38,0,0,1,162,297.79Z" class="cls-1"/><circle cx="162" cy="259.79" r="38" class="cls-2"/><path d="M563,174.79V5.79H394v338H563ZM478.86,56l43.38,78.76H435.47ZM435.47,292.79,478.86,214l43.38,78.76Zm0-79L478.86,135l43.38,78.76Z" class="cls-1"/><polygon points="478.86 56.03 435.47 134.79 522.24 134.79 478.86 56.03" class="cls-4"/><polygon points="478.86 135.03 435.47 213.79 522.24 213.79 478.86 135.03" class="cls-3"/><polygon points="435.47 292.79 522.24 292.79 478.86 214.03 435.47 292.79" class="cls-2"/><path d="M1120,523.79h60v-44a58,58,0,0,0-58-58h0a58,58,0,0,0-58,58v44h56Zm2-68a26,26,0,1,1-26,26A26,26,0,0,1,1122,455.79Z" class="cls-1"/><polygon points="669 523.79 640 523.79 640 584.79 669 584.79 715 584.79 715 523.79 669 523.79" class="cls-2"/><path d="M750,442.79a53,53,0,0,0,25.82,45.5,26,26,0,1,1,49.56,2.54,53,53,0,1,0-75.38-48Z" class="cls-4"/><path d="M834,523.79v20H766v-20H715v61h19.28c-.17,2-.28,4-.28,6v67H868v-67c0-2-.11-4-.28-6H887v-61Z" class="cls-5"/><path d="M801,455.79a26,26,0,1,0,26,26A26,26,0,0,0,801,455.79Z" class="cls-2"/><polygon points="734 657.79 734 793.3 704 824.79 801 824.79 898 824.79 868 793.3 868 657.79 801 657.79 734 657.79" class="cls-4"/><polygon points="933 523.79 887 523.79 887 584.79 933 584.79 961 584.79 961 523.79 933 523.79" class="cls-2"/><polygon points="962 523.79 961 523.79 961 584.79 962 584.79 990 584.79 990 523.79 962 523.79" class="cls-4"/><path d="M1180,523.79h-25v12a32,32,0,0,1-32,32h0a32,32,0,0,1-32-32v-12H990v61h65.28c-.17,2-.28,4-.28,6v67h134v-67c0-2-.11-4-.28-6H1254v-61Z" class="cls-3"/><circle cx="1122" cy="481.79" r="26" class="cls-4"/><polygon points="1121 705.79 1055 705.79 1055 793.3 1025 824.79 1122 824.79 1219 824.79 1189 793.3 1189 705.79 1123 705.79 1121 705.79" class="cls-4"/><rect width="29" height="61" x="1254" y="523.79" class="cls-4"/><polygon points="1122 657.79 1121 657.79 1055 657.79 1055 705.79 1121 705.79 1123 705.79 1189 705.79 1189 657.79 1123 657.79 1122 657.79" class="cls-2"/><path d="M1122,523.79h-31v12a32,32,0,0,0,32,32h0a32,32,0,0,0,32-32v-12h-33Z" class="cls-4"/><polygon points="766 543.79 834 543.79 834 523.79 803 523.79 801 523.79 801 523.79 799 523.79 766 523.79 766 543.79" class="cls-2"/><path d="M712,259.79a91,91,0,1,0,91-91A91,91,0,0,0,712,259.79Zm91-59a26,26,0,1,1-26,26A26,26,0,0,1,803,200.79Zm0,65a26,26,0,1,1-26,26A26,26,0,0,1,803,265.79Z" class="cls-2"/><circle cx="803" cy="291.79" r="26" class="cls-3"/><circle cx="803" cy="226.79" r="26" class="cls-1"/><path d="M885,5.79H722v163H885Zm-82,132a50,50,0,1,1,50-50A50,50,0,0,1,803,137.79Z" class="cls-4"/><path d="M803,37.79a50,50,0,1,0,50,50A50,50,0,0,0,803,37.79Zm0,81a31,31,0,1,1,31-31A31,31,0,0,1,803,118.79Z" class="cls-6"/><circle cx="803" cy="87.79" r="31" class="cls-3"/><polygon points="1153 0 1074.24 43.38 1153 86.77 1153 0" class="cls-4"/><polygon points="1074 68.81 1074 155.58 1152.76 112.19 1074 68.81" class="cls-3"/><path d="M1099.34,327.3a30.64,30.64,0,0,0,43.32,0l52.85-52.85a30.64,30.64,0,0,0,0-43.32l-52.85-52.85a30.64,30.64,0,0,0-43.32,0l-52.85,52.85a30.64,30.64,0,0,0,0,43.32ZM1072,240.79h98v24h-98Z" class="cls-1"/><rect width="98" height="24" x="1072" y="240.79" class="cls-3"/><path d="M1124,1414.79H965v61h92.28A67,67,0,0,1,1124,1414.79Z" class="cls-3"/><path d="M1254,1414.79H1124a67,67,0,0,1,66.72,61H1283v-61Z" class="cls-3"/><path d="M806,1414.79v0c-.67,0-1.33,0-2,0h0c-.67,0-1.33,0-2,0v0H672v61h65.28c-.17,2-.28,4-.28,6v67H871v-67c0-2-.11-4-.28-6H936v-61Z" class="cls-3"/><path d="M830,1324.79H778v45h.18a26,26,0,0,1,51.64,0H830Z" class="cls-4"/><path d="M804,1346.79a26,26,0,0,0-25.82,23,24.66,24.66,0,0,0-.18,3,26,26,0,0,0,52,0,24.66,24.66,0,0,0-.18-3A26,26,0,0,0,804,1346.79Z" class="cls-2"/><polygon points="737 1548.79 737 1684.3 707 1715.79 804 1715.79 901 1715.79 871 1684.3 871 1548.79 804 1548.79 737 1548.79" class="cls-2"/><path d="M1098,1372.79a26,26,0,0,0,52,0c0-.33,0-.67,0-1h-52C1098,1372.12,1098,1372.46,1098,1372.79Z" class="cls-3"/><path d="M1124,1414.79h0a67,67,0,0,0-66.72,61c-.17,2-.28,4-.28,6v64l-20,91h174l-20-91v-64c0-2-.11-4-.28-6A67,67,0,0,0,1124,1414.79Z" class="cls-2"/><polygon points="1057 1636.79 1057 1684.3 1027 1715.79 1124 1715.79 1221 1715.79 1191 1684.3 1191 1636.79 1057 1636.79" class="cls-3"/><path d="M1154,1317.79a30,30,0,1,0-35.25,29.53,26,26,0,0,0-20.73,24.47h52a26,26,0,0,0-20.73-24.47A30,30,0,0,0,1154,1317.79Z" class="cls-2"/><rect width="29" height="61" x="936" y="1414.79" class="cls-2"/><rect width="29" height="61" x="643" y="1414.79" class="cls-2"/><path d="M1037,1207.48V1093.1a27.31,27.31,0,0,1,27.31-27.31H1121s-53,37.61-53,84,53,84,53,84,53-37.61,53-84-53-84-53-84h57.69A27.31,27.31,0,0,1,1206,1093.1v114.38a27.31,27.31,0,0,1-27.31,27.31H1064.31A27.31,27.31,0,0,1,1037,1207.48Z" class="cls-1"/><path d="M1121,1065.79s-53,37.61-53,84,53,84,53,84,53-37.61,53-84S1121,1065.79,1121,1065.79Zm0,46a38,38,0,1,1-38,38A38,38,0,0,1,1121,1111.79Z" class="cls-3"/><circle cx="1121" cy="1149.79" r="38" class="cls-2"/><path d="M889,981.29a84.5,84.5,0,0,0-84.5-84.5h0a84.5,84.5,0,0,0-84.5,84.5v169a84.5,84.5,0,0,0,84.5,84.5h0a84.5,84.5,0,0,0,84.5-84.5v-169Zm-127.53,124.5h86.77l-43.38,78.76Zm86.77-158-43.38,78.76-43.39-78.76Zm0,79-43.38,78.76-43.39-78.76Z" class="cls-2"/><polygon points="804.86 1184.55 761.47 1105.79 848.24 1105.79 804.86 1184.55" class="cls-4"/><polygon points="804.86 1105.55 761.47 1026.79 848.24 1026.79 804.86 1105.55" class="cls-3"/><polygon points="761.47 947.79 848.24 947.79 804.86 1026.55 761.47 947.79" class="cls-1"/><path d="M480,1414.79h60v-44a58,58,0,0,0-58-58h0a58,58,0,0,0-58,58v44h56Zm2-68a26,26,0,1,1-26,26A26,26,0,0,1,482,1346.79Z" class="cls-2"/><polygon points="29 1414.79 0 1414.79 0 1475.79 29 1475.79 75 1475.79 75 1414.79 29 1414.79" class="cls-3"/><path d="M110,1333.79a53,53,0,0,0,25.82,45.5,26,26,0,1,1,49.56,2.54,53,53,0,1,0-75.38-48Z" class="cls-1"/><path d="M194,1414.79v20H126v-20H75v61H94.28c-.17,2-.28,4-.28,6v67H228v-67c0-2-.11-4-.28-6H247v-61Z" class="cls-1"/><path d="M161,1346.79a26,26,0,1,0,26,26A26,26,0,0,0,161,1346.79Z" class="cls-3"/><polygon points="94 1548.79 94 1684.3 64 1715.79 161 1715.79 258 1715.79 228 1684.3 228 1548.79 161 1548.79 94 1548.79" class="cls-2"/><polygon points="293 1414.79 247 1414.79 247 1475.79 293 1475.79 321 1475.79 321 1414.79 293 1414.79" class="cls-3"/><polygon points="322 1414.79 321 1414.79 321 1475.79 322 1475.79 350 1475.79 350 1414.79 322 1414.79" class="cls-1"/><path d="M540,1414.79H515v12a32,32,0,0,1-32,32h0a32,32,0,0,1-32-32v-12H350v61h65.28c-.17,2-.28,4-.28,6v67H549v-67c0-2-.11-4-.28-6H614v-61Z" class="cls-3"/><circle cx="482" cy="1372.79" r="26" class="cls-1"/><rect width="29" height="61" x="614" y="1414.79" class="cls-1"/><path d="M482,1414.79H451v12a32,32,0,0,0,32,32h0a32,32,0,0,0,32-32v-12H482Z" class="cls-1"/><polygon points="126 1434.79 194 1434.79 194 1414.79 163 1414.79 161 1414.79 161 1414.79 159 1414.79 126 1414.79 126 1434.79" class="cls-3"/><path d="M163,1059.79a91,91,0,1,0,91,91A91,91,0,0,0,163,1059.79Zm59,91a26,26,0,1,1-26-26A26,26,0,0,1,222,1150.79Zm-65,0a26,26,0,1,1-26-26A26,26,0,0,1,157,1150.79Z" class="cls-1"/><circle cx="131" cy="1150.79" r="26" class="cls-4"/><circle cx="196" cy="1150.79" r="26" class="cls-6"/><path d="M245,896.79H82v163H245Zm-82,132a50,50,0,1,1,50-50A50,50,0,0,1,163,1028.79Z" class="cls-4"/><path d="M163,928.79a50,50,0,1,0,50,50A50,50,0,0,0,163,928.79Zm0,81a31,31,0,1,1,31-31A31,31,0,0,1,163,1009.79Z" class="cls-6"/><circle cx="163" cy="978.79" r="31" class="cls-3"/><polygon points="434 891 512.76 934.38 434 977.77 434 891" class="cls-1"/><polygon points="513 959.81 513 1046.58 434.24 1003.19 513 959.81" class="cls-2"/><path d="M555.51,1165.45a30.64,30.64,0,0,0,0-43.32l-52.85-52.85a30.64,30.64,0,0,0-43.32,0l-52.85,52.85a30.64,30.64,0,0,0,0,43.32l52.85,52.85a30.64,30.64,0,0,0,43.32,0ZM469,1192.79v-98h24v98Z" class="cls-1"/><rect width="24" height="98" x="469" y="1094.79" class="cls-3"/></g></g></svg>