<svg xmlns="http://www.w3.org/2000/svg" width="52.904" height="52.903" viewBox="0 0 52.904 52.903"><g transform="translate(0.027 -8)"><path d="M33.375,34.451a6.826,6.826,0,0,1-3.086,5.7l-2.215,7.8a13.614,13.614,0,1,0-15.02-15.02l7.8-2.216a6.816,6.816,0,0,1,12.524,3.741ZM26.549,8A26.442,26.442,0,0,0,.11,34.451c0,.895.047,1.778.134,2.65a5.18,5.18,0,0,1,1.92-1.075l4.782-1.362c0-.073-.011-.142-.011-.213A19.625,19.625,0,1,1,26.561,54.075c-.073,0-.143-.01-.213-.011l-1.36,4.786a5.176,5.176,0,0,1-1.067,1.92c.87.086,1.753.133,2.647.133A26.452,26.452,0,0,0,26.549,8Z" transform="translate(-0.122 0)" fill="#1f3269" opacity="0.4"/><path d="M25.809,240.066a1.827,1.827,0,0,1,2.257,2.258l-6.491,22.844a1.825,1.825,0,0,1-3.4.291l-3.507-7.3-9.508,9.508a1.654,1.654,0,0,1-2.341,0H2.81L.464,265.318a1.655,1.655,0,0,1-.005-2.346H.464l9.508-9.508-7.291-3.5a1.826,1.826,0,0,1,.292-3.4l22.838-6.493Z" transform="translate(0 -207.253)" fill="#1f3269"/></g></svg>