<svg xmlns="http://www.w3.org/2000/svg" width="53.325" height="53.321" viewBox="0 0 53.325 53.321"><path d="M10.389,214.1a1.671,1.671,0,0,1,.63-2.332l2.924-1.622a1.669,1.669,0,0,1,2.214.6,23.319,23.319,0,0,0,3.723,4.432l-3.4,5.886a30,30,0,0,1-6.093-6.959Zm50.721,0a1.671,1.671,0,0,0-.63-2.332l-2.924-1.622a1.669,1.669,0,0,0-2.214.6,23.324,23.324,0,0,1-26.847,9.5l-3.388,5.869a29.989,29.989,0,0,0,36-12.016Z" transform="translate(-9.087 -188.077)" fill="#1f3269" opacity="0.4"/><path d="M47.619,35.925a33.186,33.186,0,0,1-8.629,5.052l5.676,9.832,5.619,2.4A1.666,1.666,0,0,0,52.6,51.876l.729-6.067ZM35.5,14.944a10.051,10.051,0,1,0-17.632-.092L0,45.809l.729,6.067a1.666,1.666,0,0,0,2.309,1.333l5.624-2.4,17.717-30.7c.111,0,.223.006.335.006h.233l5.259,9.11a19.967,19.967,0,0,0,8.608-5.088Zm-8.79-1.594A3.281,3.281,0,1,1,30,10.07,3.281,3.281,0,0,1,26.715,13.351Z" transform="translate(0 -0.022)" fill="#1f3269"/></svg>