<svg xmlns="http://www.w3.org/2000/svg" width="79.325" height="52.883" viewBox="0 0 79.325 52.883"><g transform="translate(-0.001 -64)"><path d="M78.846,88.431C71.378,73.859,56.592,64,39.663,64S7.944,73.866.48,88.432a4.455,4.455,0,0,0,0,4.02c7.468,14.572,22.254,24.431,39.183,24.431s31.719-9.866,39.183-24.432a4.455,4.455,0,0,0,0-4.02ZM39.682,110.273h-.019a19.824,19.824,0,1,1,.014,0Z" transform="translate(0)" fill="#1f3269" opacity="0.4"/><path d="M218.345,176.756a13.19,13.19,0,1,1-25.46-6.911,6.59,6.59,0,0,0,9.213-9.213,13.124,13.124,0,0,1,16.251,16.124Z" transform="translate(-165.921 -82.889)" fill="#1f3269"/></g></svg>