<svg xmlns="http://www.w3.org/2000/svg" width="66.657" height="53.326" viewBox="0 0 66.657 53.326"><path d="M31.307,26.841a16.675,16.675,0,0,0,8.687,21.768v2.234a2.493,2.493,0,0,1-2.5,2.483H2.487A2.493,2.493,0,0,1,0,50.826V2.487A2.493,2.493,0,0,1,2.5,0H26.663V11.665a1.666,1.666,0,0,0,1.666,1.666H39.995v4.721a16.7,16.7,0,0,0-8.687,8.788Z" transform="translate(0 0)" fill="#1f3269" opacity="0.4"/><path d="M269.332,12.7a2.489,2.489,0,0,0-.729-1.76L258.406.729A2.5,2.5,0,0,0,256.635,0H256V11.665a1.666,1.666,0,0,0,1.666,1.666h11.665Zm26.175,35.429-8.062-8.062a13.191,13.191,0,0,0,1.885-6.733A13.332,13.332,0,1,0,276,46.66a13.2,13.2,0,0,0,6.733-1.886l8.062,8.063a1.666,1.666,0,0,0,2.357,0l2.356-2.356A1.666,1.666,0,0,0,295.506,48.125ZM276,39.995a6.666,6.666,0,1,1,6.666-6.666A6.666,6.666,0,0,1,276,39.995Z" transform="translate(-229.337 0)" fill="#1f3269"/></svg>