<svg xmlns="http://www.w3.org/2000/svg" width="53.396" height="53.395" viewBox="0 0 53.396 53.395"><g transform="translate(0.003)"><path d="M41.713,154.449a18.127,18.127,0,0,0,5.006-.76v1.938L27.805,164.2a2.678,2.678,0,0,1-2.22,0L1.292,153.187a2.328,2.328,0,0,1,0-4.171L23.6,138.9A18.343,18.343,0,0,0,41.713,154.449Z" transform="translate(0 -124.414)" fill="#1f3269" opacity="0.4"/><path d="M52.1,37.971l-6.1-2.767-16.81,7.619a6.011,6.011,0,0,1-4.977,0L7.4,35.2l-6.11,2.767a2.328,2.328,0,0,0,0,4.171L25.585,53.154a2.678,2.678,0,0,0,2.22,0L52.1,42.143a2.329,2.329,0,0,0-.005-4.171ZM31.7,15.017h6.674v6.674a1.669,1.669,0,0,0,1.669,1.669h3.337a1.669,1.669,0,0,0,1.669-1.669V15.017h6.674a1.669,1.669,0,0,0,1.669-1.669V10.012a1.669,1.669,0,0,0-1.669-1.669H45.05V1.669A1.669,1.669,0,0,0,43.381,0H40.044a1.669,1.669,0,0,0-1.669,1.669V8.343H31.7a1.669,1.669,0,0,0-1.669,1.669v3.337A1.669,1.669,0,0,0,31.7,15.017Z" fill="#1f3269"/></g></svg>