<svg xmlns="http://www.w3.org/2000/svg" width="90.719" height="20.379" viewBox="0 0 90.719 20.379"><g transform="translate(-138 -111.002)"><path d="M1.27,0V-14.219H6.25a9.532,9.532,0,0,1,2.217.234,4.724,4.724,0,0,1,1.655.718,3.185,3.185,0,0,1,1.035,1.216,3.911,3.911,0,0,1,.356,1.729,3.56,3.56,0,0,1-.122.938,3.033,3.033,0,0,1-.371.84,3.068,3.068,0,0,1-.63.708,3.239,3.239,0,0,1-.908.522,3.124,3.124,0,0,1,1.069.474,2.971,2.971,0,0,1,.732.737,2.948,2.948,0,0,1,.42.913,3.9,3.9,0,0,1,.132,1.011A3.744,3.744,0,0,1,10.5-1.055,5.988,5.988,0,0,1,6.709,0ZM4.2-6.191v3.838h2.51A3,3,0,0,0,7.686-2.5a1.941,1.941,0,0,0,.684-.391,1.545,1.545,0,0,0,.405-.586,2.006,2.006,0,0,0,.132-.737,2.7,2.7,0,0,0-.117-.825,1.582,1.582,0,0,0-.366-.625,1.6,1.6,0,0,0-.649-.4,2.973,2.973,0,0,0-.957-.137Zm0-2.07H6.367a2.652,2.652,0,0,0,1.67-.474,1.587,1.587,0,0,0,.547-1.294,1.633,1.633,0,0,0-.562-1.392,2.953,2.953,0,0,0-1.772-.425H4.2ZM18.711.2a5.736,5.736,0,0,1-2.2-.4A4.876,4.876,0,0,1,14.858-1.3a4.69,4.69,0,0,1-1.035-1.626,5.546,5.546,0,0,1-.356-2V-5.3a6.691,6.691,0,0,1,.347-2.2A5.07,5.07,0,0,1,14.8-9.229a4.463,4.463,0,0,1,1.553-1.128,4.99,4.99,0,0,1,2.046-.405,5.029,5.029,0,0,1,2.012.376,4.022,4.022,0,0,1,1.46,1.055A4.485,4.485,0,0,1,22.759-7.7a7.144,7.144,0,0,1,.3,2.129v1.2H16.328a2.942,2.942,0,0,0,.278.938,2.427,2.427,0,0,0,.537.718,2.369,2.369,0,0,0,.767.464,2.774,2.774,0,0,0,.986.166,3.5,3.5,0,0,0,1.426-.288,2.875,2.875,0,0,0,1.123-.894l1.387,1.553a4.188,4.188,0,0,1-.635.7,4.305,4.305,0,0,1-.9.61,5.3,5.3,0,0,1-1.167.43A5.9,5.9,0,0,1,18.711.2Zm-.322-8.672a1.893,1.893,0,0,0-.806.161,1.758,1.758,0,0,0-.6.449,2.346,2.346,0,0,0-.405.688,3.944,3.944,0,0,0-.225.889h3.926v-.225a2.845,2.845,0,0,0-.122-.781,1.713,1.713,0,0,0-.342-.625,1.535,1.535,0,0,0-.586-.41A2.215,2.215,0,0,0,18.389-8.477Zm9.023-.937a3.84,3.84,0,0,1,1.235-.991,3.479,3.479,0,0,1,1.587-.356,4.4,4.4,0,0,1,1.426.22,2.653,2.653,0,0,1,1.1.713,3.318,3.318,0,0,1,.708,1.274,6.29,6.29,0,0,1,.249,1.895V0H30.9V-6.68a2.755,2.755,0,0,0-.112-.85,1.34,1.34,0,0,0-.327-.552,1.207,1.207,0,0,0-.532-.3,2.692,2.692,0,0,0-.718-.088,2.146,2.146,0,0,0-1.1.259,1.9,1.9,0,0,0-.693.7V0H24.59V-15h2.822Zm16,5.684A1.962,1.962,0,0,0,43.3-4.4a1.3,1.3,0,0,0-.415-.552,3.8,3.8,0,0,0-.85-.5,13.4,13.4,0,0,0-1.4-.518,17.181,17.181,0,0,1-1.841-.7,6.774,6.774,0,0,1-1.514-.923,4.116,4.116,0,0,1-1.025-1.226,3.349,3.349,0,0,1-.376-1.621,3.454,3.454,0,0,1,.386-1.626,3.664,3.664,0,0,1,1.084-1.255,5.327,5.327,0,0,1,1.66-.806,7.346,7.346,0,0,1,2.114-.288,6.673,6.673,0,0,1,2.148.327,4.933,4.933,0,0,1,1.65.913,4.041,4.041,0,0,1,1.055,1.392,4.162,4.162,0,0,1,.371,1.763h-2.93a2.364,2.364,0,0,0-.142-.83,1.686,1.686,0,0,0-.435-.654,2.021,2.021,0,0,0-.732-.425,3.183,3.183,0,0,0-1.035-.151,3.514,3.514,0,0,0-1,.127,2.034,2.034,0,0,0-.7.352,1.479,1.479,0,0,0-.42.527,1.5,1.5,0,0,0-.142.645,1.384,1.384,0,0,0,.718,1.177,8.107,8.107,0,0,0,2.1.884,13.839,13.839,0,0,1,2.046.8,6.082,6.082,0,0,1,1.475,1,3.8,3.8,0,0,1,.894,1.25,3.893,3.893,0,0,1,.3,1.572,3.684,3.684,0,0,1-.366,1.67,3.451,3.451,0,0,1-1.04,1.235,4.925,4.925,0,0,1-1.626.771A7.818,7.818,0,0,1,41.191.2,8.207,8.207,0,0,1,39.785.073,6.766,6.766,0,0,1,38.442-.3a5.834,5.834,0,0,1-1.187-.635,4.383,4.383,0,0,1-.952-.9,4.054,4.054,0,0,1-.635-1.177,4.417,4.417,0,0,1-.229-1.46h2.939a2.624,2.624,0,0,0,.205,1.094,1.87,1.87,0,0,0,.571.728,2.377,2.377,0,0,0,.884.405,4.842,4.842,0,0,0,1.152.127,3.552,3.552,0,0,0,.986-.122,2.026,2.026,0,0,0,.693-.337,1.334,1.334,0,0,0,.405-.513A1.562,1.562,0,0,0,43.408-3.73Zm9.131,1.65a2.155,2.155,0,0,0,.713-.112,1.668,1.668,0,0,0,.557-.317A1.448,1.448,0,0,0,54.175-3a1.653,1.653,0,0,0,.142-.649h2.646A3.612,3.612,0,0,1,56.611-2.1a3.8,3.8,0,0,1-.928,1.221,4.223,4.223,0,0,1-1.382.8A5.076,5.076,0,0,1,52.588.2,5.174,5.174,0,0,1,50.439-.22a4.249,4.249,0,0,1-1.523-1.133,4.8,4.8,0,0,1-.908-1.689,7.007,7.007,0,0,1-.3-2.095V-5.41a7.055,7.055,0,0,1,.3-2.1,4.846,4.846,0,0,1,.908-1.7,4.233,4.233,0,0,1,1.519-1.138,5.114,5.114,0,0,1,2.134-.415,5.262,5.262,0,0,1,1.782.288,3.947,3.947,0,0,1,1.382.825,3.736,3.736,0,0,1,.9,1.3,4.5,4.5,0,0,1,.332,1.714H54.316a2.263,2.263,0,0,0-.132-.718,1.759,1.759,0,0,0-.347-.586,1.616,1.616,0,0,0-.557-.4,1.87,1.87,0,0,0-.762-.146,1.815,1.815,0,0,0-1.006.254,1.756,1.756,0,0,0-.61.679,3.043,3.043,0,0,0-.3.981,8.285,8.285,0,0,0-.078,1.152v.273a8.358,8.358,0,0,0,.078,1.162A2.989,2.989,0,0,0,50.9-3a1.728,1.728,0,0,0,.61.669A1.883,1.883,0,0,0,52.539-2.08ZM61.553,0H58.721V-10.566h2.832Zm-3-13.3a1.39,1.39,0,0,1,.425-1.045,1.6,1.6,0,0,1,1.157-.41,1.89,1.89,0,0,1,.654.107,1.421,1.421,0,0,1,.5.3,1.354,1.354,0,0,1,.317.464,1.491,1.491,0,0,1,.112.581,1.516,1.516,0,0,1-.112.591,1.354,1.354,0,0,1-.317.464,1.421,1.421,0,0,1-.5.3,1.89,1.89,0,0,1-.654.107,1.89,1.89,0,0,1-.654-.107,1.421,1.421,0,0,1-.5-.3,1.354,1.354,0,0,1-.317-.464A1.516,1.516,0,0,1,58.555-13.3Z" transform="translate(167 128)" fill="#1f3269"/><g transform="translate(-158 368.002)"><g transform="translate(292 -255)"><g transform="translate(4 -2)"><path d="M882.457,289.39a8.983,8.983,0,0,0-17.43,3.056,8.859,8.859,0,0,0,2.583,6.276,4.892,4.892,0,0,1,1.671,3.368v1.357a.4.4,0,0,0,.4.4h8.827a.4.4,0,0,0,.4-.4v-1.333h2.72a.4.4,0,0,0,.4-.4v-4.778h1.369a.4.4,0,0,0,.4-.409A25.484,25.484,0,0,0,882.457,289.39Z" transform="translate(-865.027 -283.464)" fill="#51e7f2"/></g><path d="M902.621,316.869a3.543,3.543,0,1,0,3.544,3.543A3.543,3.543,0,0,0,902.621,316.869Z" transform="translate(-889.606 -313.47)" fill="#e25456"/></g></g></g></svg>