<svg xmlns="http://www.w3.org/2000/svg" viewBox="0 0 165.1 179.38"><defs><style>.cls-1{fill:#51e7f2;}.cls-2{fill:#e25456;}</style></defs><g id="Layer_2" data-name="Layer 2"><g id="Layer_1-2" data-name="Layer 1"><path class="cls-1" d="M153.43,52.16A79.08,79.08,0,0,0,0,79.06,78,78,0,0,0,22.74,134.3c9.76,9.85,14.71,19.82,14.71,29.65v11.94a3.49,3.49,0,0,0,3.49,3.49h77.7a3.49,3.49,0,0,0,3.49-3.49V164.15h23.94a3.49,3.49,0,0,0,3.49-3.49V118.6h12.05a3.48,3.48,0,0,0,3.49-3.6C165.06,113.58,163.89,79.74,153.43,52.16Zm-7.36,59.46a3.49,3.49,0,0,0-3.49,3.49v42.06H116.13a33.48,33.48,0,0,1-33.44-33.46l-.14-23.78a3.21,3.21,0,0,0-.16-.76,2.94,2.94,0,0,0-.12-.59,3.1,3.1,0,0,0-.44-.65,3.91,3.91,0,0,0-.3-.45,3.77,3.77,0,0,0-.75-.5,3.9,3.9,0,0,0-.36-.25,3.62,3.62,0,0,0-1.36-.27A17.48,17.48,0,0,1,61.6,79a17.46,17.46,0,1,1,34.92,0,12.29,12.29,0,0,0,24.57,0,3.54,3.54,0,0,0-.17-.86,41.88,41.88,0,1,0-67.08,34.32,5.7,5.7,0,0,1,.46,8,5.69,5.69,0,0,1-8,.48l0,0A53.25,53.25,0,1,1,132.31,79a3.49,3.49,0,1,0,7,0,60.23,60.23,0,1,0-97.67,47.16h0l0,0,.26.24.19.1a12.55,12.55,0,0,0,7.9,2.83q.39,0,.78,0A12.67,12.67,0,0,0,59,107.69a3.8,3.8,0,0,0-.62-.58A34.92,34.92,0,1,1,114,79c0,.15.07.28.08.43A5.29,5.29,0,0,1,103.5,79,24.44,24.44,0,1,0,61.32,95.81a24.15,24.15,0,0,0,14.27,7.36l.12,20.56a40.44,40.44,0,0,0,39.43,40.37v8.3H44.43V164c0-11.74-5.63-23.37-16.73-34.56A71.06,71.06,0,0,1,7,79.06a72.09,72.09,0,0,1,139.9-24.47c8.12,21.43,10.45,47.6,11.05,57Z"/><path class="cls-2" d="M79.35,72.6a6.11,6.11,0,1,0,6.12,6.11A6.11,6.11,0,0,0,79.35,72.6Z"/></g></g></svg>