<svg xmlns="http://www.w3.org/2000/svg" viewBox="0 0 165.1 179.38"><defs><style>.cls-1{fill:#51e7f2;}.cls-2{fill:#e25456;}</style></defs><g id="Layer_2" data-name="Layer 2"><g id="Layer_1-2" data-name="Layer 1"><path class="cls-1" d="M153.43,52.16A79.08,79.08,0,0,0,0,79.06,78,78,0,0,0,22.74,134.3c9.76,9.85,14.71,19.82,14.71,29.65v11.94a3.49,3.49,0,0,0,3.49,3.49h77.7a3.49,3.49,0,0,0,3.49-3.49V164.15h23.94a3.49,3.49,0,0,0,3.49-3.49V118.6h12.05a3.48,3.48,0,0,0,3.49-3.6C165.06,113.58,163.89,79.74,153.43,52.16Z"/><path class="cls-2" d="M79.35,33.4a45.31,45.31,0,1,0,45.31,45.31A45.31,45.31,0,0,0,79.35,33.4Z"/></g></g></svg>