<svg xmlns="http://www.w3.org/2000/svg" width="211.021" height="20.379" viewBox="0 0 211.021 20.379"><g transform="translate(-138 -111.002)"><path d="M1.27,0V-14.219H6.25a9.532,9.532,0,0,1,2.217.234,4.724,4.724,0,0,1,1.655.718,3.185,3.185,0,0,1,1.035,1.216,3.911,3.911,0,0,1,.356,1.729,3.56,3.56,0,0,1-.122.938,3.033,3.033,0,0,1-.371.84,3.068,3.068,0,0,1-.63.708,3.239,3.239,0,0,1-.908.522,3.124,3.124,0,0,1,1.069.474,2.971,2.971,0,0,1,.732.737,2.948,2.948,0,0,1,.42.913,3.9,3.9,0,0,1,.132,1.011A3.744,3.744,0,0,1,10.5-1.055,5.988,5.988,0,0,1,6.709,0ZM4.2-6.191v3.838h2.51A3,3,0,0,0,7.686-2.5a1.941,1.941,0,0,0,.684-.391,1.545,1.545,0,0,0,.405-.586,2.006,2.006,0,0,0,.132-.737,2.7,2.7,0,0,0-.117-.825,1.582,1.582,0,0,0-.366-.625,1.6,1.6,0,0,0-.649-.4,2.973,2.973,0,0,0-.957-.137Zm0-2.07H6.367a2.652,2.652,0,0,0,1.67-.474,1.587,1.587,0,0,0,.547-1.294,1.633,1.633,0,0,0-.562-1.392,2.953,2.953,0,0,0-1.772-.425H4.2ZM18.711.2a5.736,5.736,0,0,1-2.2-.4A4.876,4.876,0,0,1,14.858-1.3a4.69,4.69,0,0,1-1.035-1.626,5.546,5.546,0,0,1-.356-2V-5.3a6.691,6.691,0,0,1,.347-2.2A5.07,5.07,0,0,1,14.8-9.229a4.463,4.463,0,0,1,1.553-1.128,4.99,4.99,0,0,1,2.046-.405,5.029,5.029,0,0,1,2.012.376,4.022,4.022,0,0,1,1.46,1.055A4.485,4.485,0,0,1,22.759-7.7a7.144,7.144,0,0,1,.3,2.129v1.2H16.328a2.942,2.942,0,0,0,.278.938,2.427,2.427,0,0,0,.537.718,2.369,2.369,0,0,0,.767.464,2.774,2.774,0,0,0,.986.166,3.5,3.5,0,0,0,1.426-.288,2.875,2.875,0,0,0,1.123-.894l1.387,1.553a4.188,4.188,0,0,1-.635.7,4.305,4.305,0,0,1-.9.61,5.3,5.3,0,0,1-1.167.43A5.9,5.9,0,0,1,18.711.2Zm-.322-8.672a1.893,1.893,0,0,0-.806.161,1.758,1.758,0,0,0-.6.449,2.346,2.346,0,0,0-.405.688,3.944,3.944,0,0,0-.225.889h3.926v-.225a2.845,2.845,0,0,0-.122-.781,1.713,1.713,0,0,0-.342-.625,1.535,1.535,0,0,0-.586-.41A2.215,2.215,0,0,0,18.389-8.477Zm9.023-.937a3.84,3.84,0,0,1,1.235-.991,3.479,3.479,0,0,1,1.587-.356,4.4,4.4,0,0,1,1.426.22,2.653,2.653,0,0,1,1.1.713,3.318,3.318,0,0,1,.708,1.274,6.29,6.29,0,0,1,.249,1.895V0H30.9V-6.68a2.755,2.755,0,0,0-.112-.85,1.34,1.34,0,0,0-.327-.552,1.207,1.207,0,0,0-.532-.3,2.692,2.692,0,0,0-.718-.088,2.146,2.146,0,0,0-1.1.259,1.9,1.9,0,0,0-.693.7V0H24.59V-15h2.822ZM41.973,0a3.134,3.134,0,0,1-.283-.947,3.684,3.684,0,0,1-1.079.811A3.456,3.456,0,0,1,39.023.2,4.211,4.211,0,0,1,37.6-.039,3.519,3.519,0,0,1,36.46-.693a3.008,3.008,0,0,1-.757-1,2.955,2.955,0,0,1-.273-1.274,3.384,3.384,0,0,1,.308-1.475,2.88,2.88,0,0,1,.923-1.094,4.438,4.438,0,0,1,1.528-.684,8.6,8.6,0,0,1,2.124-.234h1.26v-.605A1.741,1.741,0,0,0,41.2-8.232a1.479,1.479,0,0,0-1.187-.439,1.682,1.682,0,0,0-1.118.342,1.161,1.161,0,0,0-.405.938H35.664a2.8,2.8,0,0,1,.317-1.3,3.255,3.255,0,0,1,.9-1.074,4.538,4.538,0,0,1,1.416-.728,6.009,6.009,0,0,1,1.855-.269,5.891,5.891,0,0,1,1.7.234,3.841,3.841,0,0,1,1.348.7,3.176,3.176,0,0,1,.884,1.162A3.9,3.9,0,0,1,44.4-7.041v4.473q0,.449.029.806t.078.645a3.346,3.346,0,0,0,.127.518,3.06,3.06,0,0,0,.186.435V0ZM39.639-1.963a2.427,2.427,0,0,0,.669-.088,2.421,2.421,0,0,0,.552-.229,1.963,1.963,0,0,0,.425-.327,1.779,1.779,0,0,0,.288-.381V-4.8H40.41a3.407,3.407,0,0,0-.967.122,1.874,1.874,0,0,0-.674.342,1.365,1.365,0,0,0-.391.518,1.639,1.639,0,0,0-.127.649,1.13,1.13,0,0,0,.371.869A1.441,1.441,0,0,0,39.639-1.963ZM50.381-3.447l1.963-7.119h2.949L51.729,0h-2.7L45.469-10.566h2.949ZM59.512,0H56.68V-10.566h2.832Zm-3-13.3a1.39,1.39,0,0,1,.425-1.045,1.6,1.6,0,0,1,1.157-.41,1.89,1.89,0,0,1,.654.107,1.421,1.421,0,0,1,.5.3,1.354,1.354,0,0,1,.317.464,1.491,1.491,0,0,1,.112.581,1.516,1.516,0,0,1-.112.591,1.354,1.354,0,0,1-.317.464,1.421,1.421,0,0,1-.5.3,1.89,1.89,0,0,1-.654.107,1.89,1.89,0,0,1-.654-.107,1.421,1.421,0,0,1-.5-.3,1.354,1.354,0,0,1-.317-.464A1.516,1.516,0,0,1,56.514-13.3ZM61.4-5.381a6.664,6.664,0,0,1,.332-2.139,4.9,4.9,0,0,1,.967-1.7,4.453,4.453,0,0,1,1.567-1.128,5.227,5.227,0,0,1,2.124-.41,5.288,5.288,0,0,1,2.139.41A4.491,4.491,0,0,1,70.1-9.224a4.855,4.855,0,0,1,.972,1.7,6.664,6.664,0,0,1,.332,2.139v.205a6.651,6.651,0,0,1-.332,2.144,4.862,4.862,0,0,1-.972,1.7A4.459,4.459,0,0,1,68.535-.21,5.273,5.273,0,0,1,66.406.2,5.308,5.308,0,0,1,64.272-.21,4.449,4.449,0,0,1,62.7-1.333a4.862,4.862,0,0,1-.972-1.7A6.651,6.651,0,0,1,61.4-5.176Zm2.822.205a5.971,5.971,0,0,0,.117,1.211,2.981,2.981,0,0,0,.376.981,1.949,1.949,0,0,0,.674.659,1.982,1.982,0,0,0,1.021.244,1.941,1.941,0,0,0,1-.244,1.991,1.991,0,0,0,.679-.659,2.915,2.915,0,0,0,.381-.981,5.971,5.971,0,0,0,.117-1.211v-.205a5.8,5.8,0,0,0-.117-1.187,3.026,3.026,0,0,0-.381-.986,1.991,1.991,0,0,0-.684-.674,1.957,1.957,0,0,0-1.016-.249,1.911,1.911,0,0,0-1,.249,1.963,1.963,0,0,0-.674.674,3.1,3.1,0,0,0-.376.986,5.8,5.8,0,0,0-.117,1.187Zm15.254,4.1a3.416,3.416,0,0,1-1.211.938A3.945,3.945,0,0,1,76.582.2a4.4,4.4,0,0,1-1.426-.22,2.786,2.786,0,0,1-1.108-.693,3.171,3.171,0,0,1-.718-1.221,5.6,5.6,0,0,1-.254-1.792v-6.836H75.9v6.855a2.231,2.231,0,0,0,.112.752,1.275,1.275,0,0,0,.313.5,1.218,1.218,0,0,0,.474.278,1.971,1.971,0,0,0,.605.088,2.558,2.558,0,0,0,1.24-.264,1.8,1.8,0,0,0,.732-.732v-7.48h2.832V0H79.551Zm10.8-6.846q-.215-.029-.5-.054T89.258-8a2.809,2.809,0,0,0-1.343.278,1.714,1.714,0,0,0-.757.806V0H84.336V-10.566H87l.078,1.26a3.167,3.167,0,0,1,.986-1.069,2.429,2.429,0,0,1,1.367-.386,3.06,3.06,0,0,1,.474.039,2.914,2.914,0,0,1,.405.088ZM97.461,0a3.134,3.134,0,0,1-.283-.947A3.684,3.684,0,0,1,96.1-.137,3.456,3.456,0,0,1,94.512.2a4.211,4.211,0,0,1-1.421-.234,3.519,3.519,0,0,1-1.143-.654,3.008,3.008,0,0,1-.757-1,2.955,2.955,0,0,1-.273-1.274,3.384,3.384,0,0,1,.308-1.475,2.88,2.88,0,0,1,.923-1.094,4.438,4.438,0,0,1,1.528-.684A8.6,8.6,0,0,1,95.8-6.455h1.26v-.605a1.741,1.741,0,0,0-.376-1.172A1.479,1.479,0,0,0,95.5-8.672a1.682,1.682,0,0,0-1.118.342,1.161,1.161,0,0,0-.405.938H91.152a2.8,2.8,0,0,1,.317-1.3,3.255,3.255,0,0,1,.9-1.074,4.538,4.538,0,0,1,1.416-.728,6.009,6.009,0,0,1,1.855-.269,5.891,5.891,0,0,1,1.7.234,3.841,3.841,0,0,1,1.348.7,3.176,3.176,0,0,1,.884,1.162,3.9,3.9,0,0,1,.317,1.626v4.473q0,.449.029.806t.078.645a3.346,3.346,0,0,0,.127.518,3.06,3.06,0,0,0,.186.435V0ZM95.127-1.963a2.427,2.427,0,0,0,.669-.088,2.421,2.421,0,0,0,.552-.229,1.963,1.963,0,0,0,.425-.327,1.779,1.779,0,0,0,.288-.381V-4.8H95.9a3.407,3.407,0,0,0-.967.122,1.874,1.874,0,0,0-.674.342,1.365,1.365,0,0,0-.391.518,1.639,1.639,0,0,0-.127.649,1.13,1.13,0,0,0,.371.869A1.441,1.441,0,0,0,95.127-1.963ZM105.039,0h-2.832V-15h2.832ZM119.9-3.73a1.962,1.962,0,0,0-.107-.669,1.3,1.3,0,0,0-.415-.552,3.8,3.8,0,0,0-.85-.5,13.4,13.4,0,0,0-1.4-.518,17.181,17.181,0,0,1-1.841-.7,6.775,6.775,0,0,1-1.514-.923,4.116,4.116,0,0,1-1.025-1.226,3.35,3.35,0,0,1-.376-1.621,3.454,3.454,0,0,1,.386-1.626,3.664,3.664,0,0,1,1.084-1.255,5.327,5.327,0,0,1,1.66-.806,7.346,7.346,0,0,1,2.114-.288,6.673,6.673,0,0,1,2.148.327,4.933,4.933,0,0,1,1.65.913,4.041,4.041,0,0,1,1.055,1.392,4.162,4.162,0,0,1,.371,1.763h-2.93a2.364,2.364,0,0,0-.142-.83,1.686,1.686,0,0,0-.435-.654,2.021,2.021,0,0,0-.732-.425,3.183,3.183,0,0,0-1.035-.151,3.514,3.514,0,0,0-1,.127,2.034,2.034,0,0,0-.7.352,1.479,1.479,0,0,0-.42.527,1.5,1.5,0,0,0-.142.645,1.384,1.384,0,0,0,.718,1.177,8.107,8.107,0,0,0,2.1.884,13.839,13.839,0,0,1,2.046.8,6.082,6.082,0,0,1,1.475,1,3.8,3.8,0,0,1,.894,1.25,3.893,3.893,0,0,1,.3,1.572,3.684,3.684,0,0,1-.366,1.67,3.451,3.451,0,0,1-1.04,1.235,4.925,4.925,0,0,1-1.626.771A7.818,7.818,0,0,1,117.686.2a8.207,8.207,0,0,1-1.406-.122A6.766,6.766,0,0,1,114.937-.3a5.834,5.834,0,0,1-1.187-.635,4.383,4.383,0,0,1-.952-.9,4.054,4.054,0,0,1-.635-1.177,4.417,4.417,0,0,1-.229-1.46h2.939a2.624,2.624,0,0,0,.205,1.094,1.87,1.87,0,0,0,.571.728,2.377,2.377,0,0,0,.884.405,4.842,4.842,0,0,0,1.152.127,3.552,3.552,0,0,0,.986-.122,2.026,2.026,0,0,0,.693-.337,1.334,1.334,0,0,0,.405-.513A1.562,1.562,0,0,0,119.9-3.73Zm9.131,1.65a2.155,2.155,0,0,0,.713-.112,1.668,1.668,0,0,0,.557-.317A1.448,1.448,0,0,0,130.669-3a1.653,1.653,0,0,0,.142-.649h2.646a3.612,3.612,0,0,1-.352,1.548,3.8,3.8,0,0,1-.928,1.221,4.223,4.223,0,0,1-1.382.8A5.076,5.076,0,0,1,129.082.2a5.174,5.174,0,0,1-2.148-.415,4.249,4.249,0,0,1-1.523-1.133,4.8,4.8,0,0,1-.908-1.689,7.007,7.007,0,0,1-.3-2.095V-5.41a7.056,7.056,0,0,1,.3-2.1,4.846,4.846,0,0,1,.908-1.7,4.233,4.233,0,0,1,1.519-1.138,5.114,5.114,0,0,1,2.134-.415,5.262,5.262,0,0,1,1.782.288,3.947,3.947,0,0,1,1.382.825,3.736,3.736,0,0,1,.9,1.3,4.5,4.5,0,0,1,.332,1.714h-2.646a2.264,2.264,0,0,0-.132-.718,1.759,1.759,0,0,0-.347-.586,1.616,1.616,0,0,0-.557-.4,1.871,1.871,0,0,0-.762-.146,1.815,1.815,0,0,0-1.006.254,1.756,1.756,0,0,0-.61.679,3.043,3.043,0,0,0-.3.981,8.285,8.285,0,0,0-.078,1.152v.273a8.358,8.358,0,0,0,.078,1.162,2.989,2.989,0,0,0,.3.977,1.728,1.728,0,0,0,.61.669A1.883,1.883,0,0,0,129.033-2.08ZM138.047,0h-2.832V-10.566h2.832Zm-3-13.3a1.39,1.39,0,0,1,.425-1.045,1.6,1.6,0,0,1,1.157-.41,1.89,1.89,0,0,1,.654.107,1.421,1.421,0,0,1,.5.3,1.354,1.354,0,0,1,.317.464,1.491,1.491,0,0,1,.112.581,1.516,1.516,0,0,1-.112.591,1.354,1.354,0,0,1-.317.464,1.421,1.421,0,0,1-.5.3,1.89,1.89,0,0,1-.654.107,1.89,1.89,0,0,1-.654-.107,1.421,1.421,0,0,1-.5-.3,1.354,1.354,0,0,1-.317-.464A1.516,1.516,0,0,1,135.049-13.3ZM145.234.2a5.736,5.736,0,0,1-2.2-.4,4.876,4.876,0,0,1-1.65-1.094,4.69,4.69,0,0,1-1.035-1.626,5.546,5.546,0,0,1-.356-2V-5.3a6.691,6.691,0,0,1,.347-2.2,5.07,5.07,0,0,1,.986-1.724,4.463,4.463,0,0,1,1.553-1.128,4.99,4.99,0,0,1,2.046-.405,5.029,5.029,0,0,1,2.012.376,4.022,4.022,0,0,1,1.46,1.055,4.485,4.485,0,0,1,.889,1.636,7.144,7.144,0,0,1,.3,2.129v1.2h-6.729a2.943,2.943,0,0,0,.278.938,2.427,2.427,0,0,0,.537.718,2.369,2.369,0,0,0,.767.464,2.774,2.774,0,0,0,.986.166,3.5,3.5,0,0,0,1.426-.288,2.875,2.875,0,0,0,1.123-.894l1.387,1.553a4.188,4.188,0,0,1-.635.7,4.305,4.305,0,0,1-.9.61,5.3,5.3,0,0,1-1.167.43A5.9,5.9,0,0,1,145.234.2Zm-.322-8.672a1.893,1.893,0,0,0-.806.161,1.758,1.758,0,0,0-.6.449,2.346,2.346,0,0,0-.405.688,3.944,3.944,0,0,0-.225.889h3.926v-.225a2.845,2.845,0,0,0-.122-.781,1.713,1.713,0,0,0-.342-.625,1.535,1.535,0,0,0-.586-.41A2.215,2.215,0,0,0,144.912-8.477Zm8.867-2.09.088,1.221a3.706,3.706,0,0,1,1.318-1.05,3.958,3.958,0,0,1,1.719-.366,4.213,4.213,0,0,1,1.367.21,2.511,2.511,0,0,1,1.055.688A3.233,3.233,0,0,1,160-8.613a6.469,6.469,0,0,1,.239,1.895V0h-2.822V-6.738a2.66,2.66,0,0,0-.112-.84,1.226,1.226,0,0,0-.327-.527,1.244,1.244,0,0,0-.527-.278,2.828,2.828,0,0,0-.723-.083,2,2,0,0,0-1.069.273,2.093,2.093,0,0,0-.718.742V0h-2.822V-10.566Zm13,8.486a2.155,2.155,0,0,0,.713-.112,1.668,1.668,0,0,0,.557-.317A1.448,1.448,0,0,0,168.413-3a1.653,1.653,0,0,0,.142-.649H171.2A3.612,3.612,0,0,1,170.85-2.1a3.8,3.8,0,0,1-.928,1.221,4.223,4.223,0,0,1-1.382.8A5.076,5.076,0,0,1,166.826.2a5.174,5.174,0,0,1-2.148-.415,4.249,4.249,0,0,1-1.523-1.133,4.8,4.8,0,0,1-.908-1.689,7.007,7.007,0,0,1-.3-2.095V-5.41a7.055,7.055,0,0,1,.3-2.1,4.847,4.847,0,0,1,.908-1.7,4.233,4.233,0,0,1,1.519-1.138,5.114,5.114,0,0,1,2.134-.415,5.262,5.262,0,0,1,1.782.288,3.947,3.947,0,0,1,1.382.825,3.736,3.736,0,0,1,.9,1.3,4.5,4.5,0,0,1,.332,1.714h-2.646a2.264,2.264,0,0,0-.132-.718,1.759,1.759,0,0,0-.347-.586,1.616,1.616,0,0,0-.557-.4,1.871,1.871,0,0,0-.762-.146,1.815,1.815,0,0,0-1.006.254,1.756,1.756,0,0,0-.61.679,3.043,3.043,0,0,0-.3.981,8.286,8.286,0,0,0-.078,1.152v.273a8.359,8.359,0,0,0,.078,1.162,2.989,2.989,0,0,0,.3.977,1.728,1.728,0,0,0,.61.669A1.883,1.883,0,0,0,166.777-2.08ZM177.676.2a5.736,5.736,0,0,1-2.2-.4,4.876,4.876,0,0,1-1.65-1.094,4.69,4.69,0,0,1-1.035-1.626,5.546,5.546,0,0,1-.356-2V-5.3a6.691,6.691,0,0,1,.347-2.2,5.07,5.07,0,0,1,.986-1.724,4.463,4.463,0,0,1,1.553-1.128,4.99,4.99,0,0,1,2.046-.405,5.029,5.029,0,0,1,2.012.376,4.022,4.022,0,0,1,1.46,1.055,4.485,4.485,0,0,1,.889,1.636,7.144,7.144,0,0,1,.3,2.129v1.2h-6.729a2.943,2.943,0,0,0,.278.938,2.427,2.427,0,0,0,.537.718,2.369,2.369,0,0,0,.767.464,2.774,2.774,0,0,0,.986.166,3.5,3.5,0,0,0,1.426-.288,2.875,2.875,0,0,0,1.123-.894L181.8-1.709a4.188,4.188,0,0,1-.635.7,4.305,4.305,0,0,1-.9.61,5.3,5.3,0,0,1-1.167.43A5.9,5.9,0,0,1,177.676.2Zm-.322-8.672a1.893,1.893,0,0,0-.806.161,1.758,1.758,0,0,0-.6.449,2.346,2.346,0,0,0-.405.688,3.944,3.944,0,0,0-.225.889h3.926v-.225a2.845,2.845,0,0,0-.122-.781,1.713,1.713,0,0,0-.342-.625,1.535,1.535,0,0,0-.586-.41A2.215,2.215,0,0,0,177.354-8.477Z" transform="translate(167 128)" fill="#1f3269"/><g transform="translate(-158 368.002)"><g transform="translate(292 -255)"><g transform="translate(4 -2)"><path d="M882.457,289.39a8.983,8.983,0,0,0-17.43,3.056,8.859,8.859,0,0,0,2.583,6.276,4.892,4.892,0,0,1,1.671,3.368v1.357a.4.4,0,0,0,.4.4h8.827a.4.4,0,0,0,.4-.4v-1.333h2.72a.4.4,0,0,0,.4-.4v-4.778h1.369a.4.4,0,0,0,.4-.409A25.484,25.484,0,0,0,882.457,289.39Z" transform="translate(-865.027 -283.464)" fill="#51e7f2"/></g><path d="M902.621,316.869a3.543,3.543,0,1,0,3.544,3.543A3.543,3.543,0,0,0,902.621,316.869Z" transform="translate(-889.606 -313.47)" fill="#e25456"/></g></g></g></svg>