<svg xmlns="http://www.w3.org/2000/svg" viewBox="0 0 359.1 210.07"><defs><style>.cls-1{fill:#e25456}.cls-2{fill:#d9e9f6}.cls-3{fill:#1f3269}.cls-4{fill:#469ee1}.cls-5{fill:#51e7f2}</style></defs><g id="Layer_2" data-name="Layer 2"><g id="Layer_1-2" data-name="Layer 1"><g id="Group_15" data-name="Group 15"><g id="Group_16" data-name="Group 16"><g id="Group_15-2" data-name="Group 15-2"><path id="Path_27" d="M146.81,32.23A48.83,48.83,0,0,0,52.07,48.84,48.17,48.17,0,0,0,66.11,83a26.54,26.54,0,0,1,9.08,18.31v7.38a2.18,2.18,0,0,0,2.18,2.17h48a2.17,2.17,0,0,0,2.17-2.17h0v-7.25h14.79a2.17,2.17,0,0,0,2.17-2.17h0v-26h7.44a2.18,2.18,0,0,0,2.18-2.17v0A138.6,138.6,0,0,0,146.81,32.23Z" class="cls-1" data-name="Path 27"/></g><path id="Path_28" d="M101.07,29.36a19.26,19.26,0,1,0,19.27,19.26,19.27,19.27,0,0,0-19.27-19.26Z" class="cls-2" data-name="Path 28"/></g></g><g id="Group_15-2-2" data-name="Group 15"><g id="Group_16-2" data-name="Group 16"><g id="Group_15-2-3" data-name="Group 15-2"><path id="Path_27-2" d="M297.81,32.23a48.83,48.83,0,0,0-94.74,16.61,48.17,48.17,0,0,0,14,34.11,26.54,26.54,0,0,1,9.08,18.31v7.38a2.18,2.18,0,0,0,2.18,2.17h48a2.17,2.17,0,0,0,2.17-2.17h0v-7.25h14.79a2.17,2.17,0,0,0,2.17-2.17h0v-26h7.44a2.18,2.18,0,0,0,2.18-2.17v0A138.6,138.6,0,0,0,297.81,32.23Z" class="cls-3" data-name="Path 27"/></g><path id="Path_28-2" d="M252.07,29.36a19.26,19.26,0,1,0,19.27,19.26,19.27,19.27,0,0,0-19.27-19.26Z" class="cls-4" data-name="Path 28"/></g></g><path d="M209.61,210.07H0a104.81,104.81,0,0,1,209.61,0Z" class="cls-1"/><path d="M359.1,210.07H149.48a104.81,104.81,0,0,1,209.62,0Z" class="cls-3"/><path d="M209.61,210.07H149.48a104.45,104.45,0,0,1,30.07-73.46A104.45,104.45,0,0,1,209.61,210.07Z" class="cls-1"/><path d="M209.61,210.07H149.48a104.45,104.45,0,0,1,30.07-73.46A104.45,104.45,0,0,1,209.61,210.07Z" class="cls-5"/></g></g></svg>