<svg width="163" height="162" viewBox="0 0 163 162" fill="none" xmlns="http://www.w3.org/2000/svg">
<rect width="163" height="162" rx="20" fill="#182851"/>
<path d="M72.3284 96.1885C72.3284 96.1885 72.3284 96.2023 72.3284 96.1885L69.4456 103.25C69.2909 103.943 68.8691 104.584 68.1976 105.104L59.9893 113.212C59.3296 113.744 59 114.715 59 115.575C59 116.518 59.7549 118.886 62.3623 118.886C63.2237 118.886 64.1019 118.574 64.7347 117.916L72.9613 109.808C74.1566 108.63 74.9441 107.244 75.6852 105.718L77.5836 101.058L72.4859 96.4135L72.3284 96.1885ZM88.2359 61.3111C91.9625 61.3111 94.8594 58.3297 94.8594 54.6562C94.8594 50.9828 91.9625 48 88.2359 48C84.5094 48 81.4888 50.9814 81.4888 54.6549C81.4888 58.3283 84.5094 61.3111 88.2359 61.3111ZM100.456 91.2934C102.298 91.2934 104 89.657 104 87.8543C104 87.0809 103.69 86.2748 102.949 85.5482L98.8391 81.5447C98.6984 81.4234 98.6105 81.2675 98.6844 81.0942L96.9828 75.7234C94.962 69.7453 89.337 65.7432 82.9555 65.7432C78.0688 65.7432 75.6289 66.956 69.4906 69.3473C66.2998 70.5064 63.9092 72.6836 62.4678 75.5541L60.4456 79.8668C60.1995 80.3799 60.0901 80.893 60.0901 81.3506C60.0901 83.2407 61.8676 84.6024 63.6325 84.6024C64.7758 84.6024 65.9148 84.0318 66.5631 82.6652L68.5316 78.4662C69.3927 76.7467 70.513 75.5721 77.8269 73.1814L75.0495 84.149C75.0172 84.7896 74.9328 85.3166 74.9328 86.0793C74.9328 88.0845 75.714 90.062 77.2686 91.7121L88.2514 101.831C89.0776 102.593 89.5311 103.563 89.9206 104.656L92.6628 116.421C93.1016 117.807 94.3953 119 96.0547 119C98.0895 119 99.4184 117.341 99.4184 115.677C99.4184 115.426 99.3897 115.171 99.3298 114.915L96.5876 103.185C96.1517 100.776 94.8861 98.6279 93.058 96.9638L85.4994 90.0857L89.1908 75.5529C91.5237 78.5939 91.2565 83.428 94.183 86.3124L98.3131 90.3325C98.8953 91.0021 99.6969 91.2934 100.456 91.2934Z" fill="#9FC363"/>
</svg>
