<svg xmlns="http://www.w3.org/2000/svg" width="163" height="162" fill="none" viewBox="0 0 163 162"><rect width="163" height="162" fill="#182851" rx="20"/><path fill="#9FC363" d="M76.25 81C76.25 83.6273 78.3727 85.75 81 85.75C83.6273 85.75 85.75 83.6273 85.75 81C85.75 78.3727 83.6273 76.25 81 76.25C78.3727 76.25 76.25 78.3727 76.25 81ZM81 119C82.9742 119 84.5625 117.404 84.5625 115.438V112.867C99.4211 111.223 111.222 99.4211 112.87 84.5625H115.438C117.412 84.5625 119 82.9742 119 81C119 79.0258 117.412 77.4375 115.438 77.4375H112.87C111.222 62.5789 99.4211 50.7781 84.5625 49.1305V46.5625C84.5625 44.5883 82.9742 43 81 43C79.0258 43 77.4375 44.5883 77.4375 46.5625V49.1305C62.5789 50.7781 50.7766 62.5789 49.1334 77.4375H46.5625C44.5957 77.4375 43 79.0258 43 81C43 82.9742 44.5957 84.5625 46.5625 84.5625H49.1334C50.7766 99.4211 62.5789 111.223 77.4375 112.867V115.438C77.4375 117.404 79.0258 119 81 119ZM77.4375 56.3148V60.8125C77.4375 62.7867 79.0258 64.375 81 64.375C82.9742 64.375 84.5625 62.7867 84.5625 60.8125V56.3148C95.4875 57.8734 104.127 66.5125 105.685 77.4375H101.188C99.2133 77.4375 97.625 79.0258 97.625 81C97.625 82.9742 99.2133 84.5625 101.188 84.5625H105.685C104.127 95.4875 95.4875 104.127 84.5625 105.685V101.188C84.5625 99.2133 82.9742 97.625 81 97.625C79.0258 97.625 77.4375 99.2133 77.4375 101.188V105.685C66.5125 104.127 57.8734 95.4875 56.3148 84.5625H60.8125C62.7867 84.5625 64.375 82.9742 64.375 81C64.375 79.0258 62.7867 77.4375 60.8125 77.4375H56.3148C57.8734 66.5125 66.5125 57.8734 77.4375 56.3148Z"/></svg>