<svg width="163" height="162" viewBox="0 0 163 162" fill="none" xmlns="http://www.w3.org/2000/svg">
<rect width="163" height="162" rx="20" fill="#182851"/>
<path d="M103.81 84.4883L63.8559 48.6391C63.2008 48.0513 62.3695 47.75 61.5265 47.75C61.0359 47.75 60.5424 47.8524 60.0739 48.0632C58.8124 48.6421 58 49.9053 58 51.3155V106.282C58 107.784 58.9225 109.129 60.3089 109.647C60.7059 109.794 61.1167 109.866 61.5251 109.866C62.5395 109.866 63.5285 109.421 64.21 108.604L76.4711 93.9369L85.0266 112.21C85.8634 113.997 87.9656 114.755 89.7237 113.905C91.4818 113.054 92.2294 110.915 91.3922 109.128L82.7882 90.7515H101.471C102.937 90.7515 104.25 89.8298 104.768 88.4343C105.162 87.0414 104.912 85.468 103.81 84.4883ZM75.8747 83.5828L65.0515 96.531V59.2688L92.1499 83.5828H75.8747Z" fill="#9FC363"/>
</svg>
