<svg xmlns="http://www.w3.org/2000/svg" width="46" height="46" viewBox="0 0 46 46"><g transform="translate(-625 -163)"><g transform="translate(625 163)" fill="none" stroke="#10172d" stroke-width="4"><circle cx="23" cy="23" r="23" stroke="none"/><circle cx="23" cy="23" r="21" fill="none"/></g><path d="M-563,163h-.006a13.9,13.9,0,0,1-5.443-1.1,13.978,13.978,0,0,1-4.45-3,13.96,13.96,0,0,1-3-4.451A13.913,13.913,0,0,1-577,149a13.909,13.909,0,0,1,1.1-5.449,13.96,13.96,0,0,1,3-4.451,13.964,13.964,0,0,1,4.45-3A13.916,13.916,0,0,1-563,135v4h-.009a9.908,9.908,0,0,0-3.884.786,9.942,9.942,0,0,0-3.178,2.143,9.955,9.955,0,0,0-2.144,3.179A9.937,9.937,0,0,0-573,149a9.935,9.935,0,0,0,.786,3.892,9.963,9.963,0,0,0,2.144,3.179,9.942,9.942,0,0,0,3.178,2.143A9.927,9.927,0,0,0-563,159l0,4Z" transform="translate(1211 37)" fill="#10172d"/><circle cx="5" cy="5" r="5" transform="translate(643 181)" fill="#e25456"/><circle cx="2" cy="2" r="2" transform="translate(651 172)" fill="#10172d"/><circle cx="2" cy="2" r="2" transform="translate(651 195)" fill="#10172d"/><circle cx="2" cy="2" r="2" transform="translate(659 184)" fill="#10172d"/><circle cx="2" cy="2" r="2" transform="translate(657 177)" fill="#10172d"/><circle cx="2" cy="2" r="2" transform="translate(657 191)" fill="#10172d"/></g></svg>