<svg xmlns="http://www.w3.org/2000/svg" width="720" height="200" viewBox="0 0 720 200"><rect width="736.911" height="218.341" x="-8.455" y="-9.171" fill="#243268"/><g><rect width="12.051" height="33.998" x="314.809" y="126.321" fill="#47c4d9"/><rect width="12.051" height="33.424" x="405.191" y="101.479" fill="#47c4d9"/><rect width="24.102" height="24.102" x="302.758" y="98.75" fill="#faae42"/><rect width="24.102" height="24.102" x="338.911" y="126.321" fill="#fff"/><rect width="24.102" height="24.102" x="326.86" y="126.321" fill="#fff"/><rect width="24.102" height="24.102" x="381.089" y="110.801" fill="#fff"/><rect width="24.102" height="24.102" x="338.911" y="86.699" fill="#fff"/><rect width="24.102" height="24.102" x="363.013" y="86.699" fill="#fff"/><rect width="24.102" height="24.102" x="314.809" y="86.699" fill="#47c4d9"/><rect width="24.102" height="24.102" x="350.962" y="86.699" fill="#47c4d9"/><rect width="24.102" height="24.102" x="387.115" y="74.648" fill="#47c4d9"/><rect width="24.102" height="24.102" x="387.115" y="50.694" fill="#faae42"/><rect width="24.102" height="24.102" x="338.911" y="110.801" fill="#fff"/><rect width="24.102" height="24.102" x="363.013" y="110.801" fill="#fff"/><rect width="24.102" height="35.634" x="326.86" y="51.213" fill="#faae42"/><rect width="24.102" height="35.634" x="350.962" y="51.213" fill="#faae42"/><rect width="12.051" height="12.051" x="375.064" y="69.263" fill="#faae42"/><rect width="48.204" height="11.532" x="326.86" y="39.681" fill="#ef4752"/><rect width="13.665" height="29.582" x="326.86" y="39.681" fill="#ef4752"/><rect width="8.034" height="14.579" x="350.962" y="60.069" fill="#243268"/></g><g><rect width="52.113" height="52.113" x="411.339" y="179.388" fill="#ef4752" stroke="#fff" stroke-miterlimit="10" stroke-width="5.623"/><rect width="52.113" height="52.113" x="463.452" y="179.388" fill="#ef4752" stroke="#fff" stroke-miterlimit="10" stroke-width="5.623"/><rect width="52.113" height="52.113" x="515.565" y="179.388" fill="#ef4752" stroke="#fff" stroke-miterlimit="10" stroke-width="5.623"/><rect width="52.113" height="52.113" x="567.678" y="179.388" fill="#ef4752" stroke="#fff" stroke-miterlimit="10" stroke-width="5.623"/><rect width="52.113" height="52.113" x="619.791" y="179.388" fill="#ef4752" stroke="#fff" stroke-miterlimit="10" stroke-width="5.623"/><rect width="52.113" height="52.113" x="671.905" y="179.388" fill="#ef4752" stroke="#fff" stroke-miterlimit="10" stroke-width="5.623"/><rect width="52.113" height="52.113" x="463.452" y="127.275" fill="#ef4752" stroke="#fff" stroke-miterlimit="10" stroke-width="5.623"/><rect width="52.113" height="52.113" x="515.565" y="127.275" fill="#ef4752" stroke="#fff" stroke-miterlimit="10" stroke-width="5.623"/><rect width="52.113" height="52.113" x="567.678" y="127.275" fill="#ef4752" stroke="#fff" stroke-miterlimit="10" stroke-width="5.623"/><rect width="52.113" height="52.113" x="619.791" y="127.275" fill="#ef4752" stroke="#fff" stroke-miterlimit="10" stroke-width="5.623"/><rect width="52.113" height="52.113" x="671.905" y="127.275" fill="#ef4752" stroke="#fff" stroke-miterlimit="10" stroke-width="5.623"/><rect width="52.113" height="52.113" x="515.565" y="75.162" fill="#ef4752" stroke="#fff" stroke-miterlimit="10" stroke-width="5.623"/><rect width="52.113" height="52.113" x="567.678" y="75.162" fill="#ef4752" stroke="#fff" stroke-miterlimit="10" stroke-width="5.623"/><rect width="52.113" height="52.113" x="619.791" y="75.162" fill="#ef4752" stroke="#fff" stroke-miterlimit="10" stroke-width="5.623"/><rect width="52.113" height="52.113" x="671.905" y="75.162" fill="#ef4752" stroke="#fff" stroke-miterlimit="10" stroke-width="5.623"/><rect width="52.113" height="52.113" x="567.678" y="23.049" fill="#ef4752" stroke="#fff" stroke-miterlimit="10" stroke-width="5.623"/><rect width="52.113" height="52.113" x="619.791" y="23.049" fill="#ef4752" stroke="#fff" stroke-miterlimit="10" stroke-width="5.623"/><rect width="52.113" height="52.113" x="671.905" y="23.049" fill="#ef4752" stroke="#fff" stroke-miterlimit="10" stroke-width="5.623"/><rect width="52.113" height="52.113" x="619.791" y="-28.881" fill="#ef4752" stroke="#fff" stroke-miterlimit="10" stroke-width="5.623"/><rect width="52.113" height="52.113" x="671.905" y="-28.881" fill="#ef4752" stroke="#fff" stroke-miterlimit="10" stroke-width="5.623"/></g></svg>