<svg xmlns="http://www.w3.org/2000/svg" width="720" height="200" viewBox="0 0 720 200">
  <rect x="-8.455" y="-9.171" width="736.911" height="218.341" fill="#243268"/>
  <g>
    <rect x="314.809" y="126.321" width="12.051" height="33.998" fill="#47c4d9"/>
    <rect x="405.191" y="101.479" width="12.051" height="33.424" fill="#47c4d9"/>
    <rect x="302.758" y="98.75" width="24.102" height="24.102" fill="#faae42"/>
    <rect x="338.911" y="126.321" width="24.102" height="24.102" fill="#fff"/>
    <rect x="326.86" y="126.321" width="24.102" height="24.102" fill="#fff"/>
    <rect x="381.089" y="110.801" width="24.102" height="24.102" fill="#fff"/>
    <rect x="338.911" y="86.699" width="24.102" height="24.102" fill="#fff"/>
    <rect x="363.013" y="86.699" width="24.102" height="24.102" fill="#fff"/>
    <rect x="314.809" y="86.699" width="24.102" height="24.102" fill="#47c4d9"/>
    <rect x="350.962" y="86.699" width="24.102" height="24.102" fill="#47c4d9"/>
    <rect x="387.115" y="74.648" width="24.102" height="24.102" fill="#47c4d9"/>
    <rect x="387.115" y="50.694" width="24.102" height="24.102" fill="#faae42"/>
    <rect x="338.911" y="110.801" width="24.102" height="24.102" fill="#fff"/>
    <rect x="363.013" y="110.801" width="24.102" height="24.102" fill="#fff"/>
    <rect x="326.86" y="51.213" width="24.102" height="35.634" fill="#faae42"/>
    <rect x="350.962" y="51.213" width="24.102" height="35.634" fill="#faae42"/>
    <rect x="375.064" y="69.263" width="12.051" height="12.051" fill="#faae42"/>
    <rect x="326.86" y="39.681" width="48.204" height="11.532" fill="#ef4752"/>
    <rect x="326.86" y="39.681" width="13.665" height="29.582" fill="#ef4752"/>
    <rect x="350.962" y="60.069" width="8.034" height="14.579" fill="#243268"/>
  </g>
  <g>
    <rect x="411.339" y="179.388" width="52.113" height="52.113" fill="#ef4752" stroke="#fff" stroke-miterlimit="10" stroke-width="5.623"/>
    <rect x="463.452" y="179.388" width="52.113" height="52.113" fill="#ef4752" stroke="#fff" stroke-miterlimit="10" stroke-width="5.623"/>
    <rect x="515.565" y="179.388" width="52.113" height="52.113" fill="#ef4752" stroke="#fff" stroke-miterlimit="10" stroke-width="5.623"/>
    <rect x="567.678" y="179.388" width="52.113" height="52.113" fill="#ef4752" stroke="#fff" stroke-miterlimit="10" stroke-width="5.623"/>
    <rect x="619.791" y="179.388" width="52.113" height="52.113" fill="#ef4752" stroke="#fff" stroke-miterlimit="10" stroke-width="5.623"/>
    <rect x="671.905" y="179.388" width="52.113" height="52.113" fill="#ef4752" stroke="#fff" stroke-miterlimit="10" stroke-width="5.623"/>
    <rect x="463.452" y="127.275" width="52.113" height="52.113" fill="#ef4752" stroke="#fff" stroke-miterlimit="10" stroke-width="5.623"/>
    <rect x="515.565" y="127.275" width="52.113" height="52.113" fill="#ef4752" stroke="#fff" stroke-miterlimit="10" stroke-width="5.623"/>
    <rect x="567.678" y="127.275" width="52.113" height="52.113" fill="#ef4752" stroke="#fff" stroke-miterlimit="10" stroke-width="5.623"/>
    <rect x="619.791" y="127.275" width="52.113" height="52.113" fill="#ef4752" stroke="#fff" stroke-miterlimit="10" stroke-width="5.623"/>
    <rect x="671.905" y="127.275" width="52.113" height="52.113" fill="#ef4752" stroke="#fff" stroke-miterlimit="10" stroke-width="5.623"/>
    <rect x="515.565" y="75.162" width="52.113" height="52.113" fill="#ef4752" stroke="#fff" stroke-miterlimit="10" stroke-width="5.623"/>
    <rect x="567.678" y="75.162" width="52.113" height="52.113" fill="#ef4752" stroke="#fff" stroke-miterlimit="10" stroke-width="5.623"/>
    <rect x="619.791" y="75.162" width="52.113" height="52.113" fill="#ef4752" stroke="#fff" stroke-miterlimit="10" stroke-width="5.623"/>
    <rect x="671.905" y="75.162" width="52.113" height="52.113" fill="#ef4752" stroke="#fff" stroke-miterlimit="10" stroke-width="5.623"/>
    <rect x="567.678" y="23.049" width="52.113" height="52.113" fill="#ef4752" stroke="#fff" stroke-miterlimit="10" stroke-width="5.623"/>
    <rect x="619.791" y="23.049" width="52.113" height="52.113" fill="#ef4752" stroke="#fff" stroke-miterlimit="10" stroke-width="5.623"/>
    <rect x="671.905" y="23.049" width="52.113" height="52.113" fill="#ef4752" stroke="#fff" stroke-miterlimit="10" stroke-width="5.623"/>
    <rect x="619.791" y="-28.881" width="52.113" height="52.113" fill="#ef4752" stroke="#fff" stroke-miterlimit="10" stroke-width="5.623"/>
    <rect x="671.905" y="-28.881" width="52.113" height="52.113" fill="#ef4752" stroke="#fff" stroke-miterlimit="10" stroke-width="5.623"/>
  </g>
</svg>
