<svg xmlns="http://www.w3.org/2000/svg" width="720" height="200" viewBox="0 0 720 200"><rect width="736.911" height="218.341" x="-8.455" y="-9.171" fill="#d84190"/><g><g><g><polyline fill="none" stroke="#fff" stroke-miterlimit="10" stroke-width="5" points="540.479 30.772 540.479 27.189 536.896 27.189"/><line x1="529.675" x2="186.715" y1="27.189" y2="27.189" fill="none" stroke="#fff" stroke-dasharray="7.22 7.22" stroke-miterlimit="10" stroke-width="5"/><polyline fill="none" stroke="#fff" stroke-miterlimit="10" stroke-width="5" points="183.105 27.189 179.521 27.189 179.521 30.772"/><line x1="179.521" x2="179.521" y1="37.634" y2="157.71" fill="none" stroke="#fff" stroke-dasharray="6.861 6.861" stroke-miterlimit="10" stroke-width="5"/><polyline fill="none" stroke="#fff" stroke-miterlimit="10" stroke-width="5" points="179.521 161.14 179.521 164.724 183.105 164.724"/><line x1="190.325" x2="533.285" y1="164.724" y2="164.724" fill="none" stroke="#fff" stroke-dasharray="7.22 7.22" stroke-miterlimit="10" stroke-width="5"/><polyline fill="none" stroke="#fff" stroke-miterlimit="10" stroke-width="5" points="536.896 164.724 540.479 164.724 540.479 161.14"/><line x1="540.479" x2="540.479" y1="154.279" y2="34.203" fill="none" stroke="#fff" stroke-dasharray="6.861 6.861" stroke-miterlimit="10" stroke-width="5"/></g><rect width="18.218" height="18.218" x="531.37" y="18.08" fill="#d84190" stroke="#fff" stroke-miterlimit="10" stroke-width="4"/><rect width="18.218" height="18.218" x="170.412" y="18.08" fill="#d84190" stroke="#fff" stroke-miterlimit="10" stroke-width="4"/><rect width="18.218" height="18.218" x="531.37" y="155.615" fill="#d84190" stroke="#fff" stroke-miterlimit="10" stroke-width="4"/><rect width="18.218" height="18.218" x="170.412" y="155.615" fill="#d84190" stroke="#fff" stroke-miterlimit="10" stroke-width="4"/></g><polygon fill="#47c4d9" points="360 53.987 311.538 137.925 408.462 137.925 360 53.987"/><rect width="46.013" height="46.013" x="450.369" y="53.987" fill="#47c4d9"/><circle cx="246.586" cy="109.921" r="28.004" fill="#47c4d9"/></g></svg>