<svg xmlns="http://www.w3.org/2000/svg" width="720" height="200" viewBox="0 0 720 200">
  <rect x="-8.455" y="-9.171" width="736.911" height="218.341" fill="#ef4752"/>
  <g>
    <g>
      <polygon points="397.626 100 360 165.17 435.251 165.17 397.626 100" fill="#4e9bd5"/>
      <polygon points="322.374 100 284.749 165.17 360 165.17 322.374 100" fill="#4e9bd5"/>
      <polygon points="360 165.17 397.626 100 322.374 100 360 165.17" fill="#4e9bd5"/>
      <polygon points="360 34.83 397.626 100 322.374 100 360 34.83" fill="#4e9bd5"/>
    </g>
    <g>
      <polygon points="397.626 100 360 165.17 435.251 165.17 397.626 100" fill="#4e9bd5"/>
      <polygon points="322.374 100 284.749 165.17 360 165.17 322.374 100" fill="#243268"/>
      <polygon points="360 165.17 397.626 100 322.374 100 360 165.17" fill="#fff"/>
      <polygon points="360 34.83 397.626 100 322.374 100 360 34.83" fill="#47c4d9"/>
    </g>
  </g>
</svg>
