<svg xmlns="http://www.w3.org/2000/svg" xmlns:xlink="http://www.w3.org/1999/xlink" viewBox="0 0 912.77 153.81"><defs><style>.cls-1{fill:none}.cls-2{fill:#fff}.cls-3{fill:url(#linear-gradient)}.cls-4{fill:#c14f69}</style><linearGradient id="linear-gradient" x1="37.98" x2="106.7" y1="65.21" y2="65.21" gradientUnits="userSpaceOnUse"><stop offset="0" stop-color="#92ccdd"/><stop offset="1" stop-color="#6b9cd3"/></linearGradient></defs><title>logo-2020-ondark</title><g id="Layer_2" data-name="Layer 2"><g id="Layer_4" data-name="Layer 4"><path d="M623.11,104.28a8.57,8.57,0,0,0-3.84,7.51,8,8,0,0,0,2.62,6.3,10.19,10.19,0,0,0,7,2.34,15.75,15.75,0,0,0,7.66-2,13.26,13.26,0,0,0,5.39-5.31V101.62h-7.4Q627,101.62,623.11,104.28Z" class="cls-1"/><path d="M38,76a23.31,23.31,0,0,0-13.13,4A23.5,23.5,0,1,0,38,76Z" class="cls-1"/><path d="M317.23,79.32q-8.42,0-12.09,6.94v27.11q3.74,7.13,12.2,7.12a11.82,11.82,0,0,0,10.25-5.28q3.71-5.28,3.7-16,0-9.15-3.64-14.52A11.85,11.85,0,0,0,317.23,79.32Z" class="cls-1"/><path d="M750,104.28a8.59,8.59,0,0,0-3.84,7.51,8,8,0,0,0,2.62,6.3,10.19,10.19,0,0,0,7,2.34,15.69,15.69,0,0,0,7.66-2,13.2,13.2,0,0,0,5.39-5.31V101.62h-7.4Q753.85,101.62,750,104.28Z" class="cls-1"/><path d="M372.18,104.28a8.59,8.59,0,0,0-3.84,7.51,8,8,0,0,0,2.63,6.3,10.17,10.17,0,0,0,7,2.34,15.68,15.68,0,0,0,7.65-2,13.2,13.2,0,0,0,5.39-5.31V101.62h-7.39Q376,101.62,372.18,104.28Z" class="cls-1"/><path d="M877.87,104.28a8.59,8.59,0,0,0-3.84,7.51,8,8,0,0,0,2.63,6.3,10.17,10.17,0,0,0,7,2.34,15.68,15.68,0,0,0,7.65-2,13.2,13.2,0,0,0,5.39-5.31V101.62h-7.4Q881.71,101.62,877.87,104.28Z" class="cls-1"/><path d="M822,79.32a11.71,11.71,0,0,0-10.27,5.28q-3.62,5.28-3.62,15.9,0,9.31,3.59,14.54a11.64,11.64,0,0,0,10.19,5.22,13,13,0,0,0,12.31-7.51V86.66Q830.43,79.31,822,79.32Z" class="cls-1"/><path d="M910.46,116.2V88.63q-.18-9.76-6.55-15.16t-17.12-5.39A32,32,0,0,0,874,70.56a22.28,22.28,0,0,0-9.06,6.86,15.21,15.21,0,0,0-3.34,9.41h13.73a7.27,7.27,0,0,1,3-6A12.12,12.12,0,0,1,886,78.53q5.43,0,8.08,2.85A10.69,10.69,0,0,1,896.73,89v4h-8.41q-13.5,0-20.76,5.23t-7.25,15a16.79,16.79,0,0,0,5.81,13q5.82,5.25,15,5.25a21.32,21.32,0,0,0,16-6.83,21,21,0,0,0,1.59,5.7h14v-1Q910.46,124.45,910.46,116.2Zm-13.73-3a13.2,13.2,0,0,1-5.39,5.31,15.68,15.68,0,0,1-7.65,2,10.17,10.17,0,0,1-7-2.34,8,8,0,0,1-2.63-6.3,8.59,8.59,0,0,1,3.84-7.51q3.84-2.66,11.46-2.66h7.4Z" class="cls-2"/><path d="M38,30.84V45.3A54.15,54.15,0,0,1,92.24,99.57H106.7A68.63,68.63,0,0,0,38,30.84Z" class="cls-3"/><path d="M38,61.5A37.69,37.69,0,0,0,16.74,68,38,38,0,1,0,38,61.5Zm0,61.59A23.58,23.58,0,0,1,24.85,80,23.31,23.31,0,0,1,38,76a23.57,23.57,0,0,1,0,47.14Z" class="cls-2"/><path d="M169,46a7.6,7.6,0,0,0-5.74,2.08,7.33,7.33,0,0,0-2,5.26,7.11,7.11,0,0,0,2,5.16A7.63,7.63,0,0,0,169,60.57a7.72,7.72,0,0,0,5.76-2.07,7.06,7.06,0,0,0,2-5.16,7.27,7.27,0,0,0-2-5.26A7.69,7.69,0,0,0,169,46Z" class="cls-2"/><rect width="13.72" height="61.11" x="162.15" y="69.21" class="cls-2"/><path d="M257.25,68.08q-12.08,0-18.75,9.37-4.51-9.37-16.77-9.37-11.19,0-17.62,7.51l-.4-6.38H190.78v61.1H204.5V86q3.45-6.72,11.69-6.72,10.74,0,11,10.78v40.21h13.72l-.05-41.9A13.25,13.25,0,0,1,245,81.83a11.37,11.37,0,0,1,7.65-2.51c3.91,0,6.72.9,8.41,2.71s2.54,4.65,2.54,8.52v39.76h13.73V90.16q-.12-10.9-5.06-16.49T257.25,68.08Z" class="cls-2"/><path d="M321.07,68.08q-10.4,0-16.43,7.34l-.57-6.21H291.42v84.6h13.72v-29q6,6.6,16.1,6.6A20.61,20.61,0,0,0,338.52,123q6.44-8.44,6.44-22.62v-.84q0-14.81-6.35-23.13T321.07,68.08Zm6.52,47.13a11.82,11.82,0,0,1-10.25,5.28q-8.46,0-12.2-7.12V86.26q3.67-6.95,12.09-6.94a11.85,11.85,0,0,1,10.42,5.36q3.64,5.37,3.64,14.52Q331.29,109.92,327.59,115.21Z" class="cls-2"/><path d="M404.77,88.63q-.16-9.76-6.55-15.16T381.1,68.08a32,32,0,0,0-12.79,2.48,22.28,22.28,0,0,0-9.06,6.86,15.26,15.26,0,0,0-3.33,9.41h13.72a7.27,7.27,0,0,1,3-6,12.12,12.12,0,0,1,7.68-2.34q5.43,0,8.08,2.85A10.69,10.69,0,0,1,391,89v4h-8.41q-13.5,0-20.76,5.23t-7.25,15a16.82,16.82,0,0,0,5.81,13q5.82,5.25,15,5.25a21.36,21.36,0,0,0,16-6.83,21,21,0,0,0,1.58,5.7h14v-1q-2.31-4.91-2.31-13.15ZM391,113.15a13.2,13.2,0,0,1-5.39,5.31,15.68,15.68,0,0,1-7.65,2,10.17,10.17,0,0,1-7-2.34,8,8,0,0,1-2.63-6.3,8.59,8.59,0,0,1,3.84-7.51q3.84-2.66,11.47-2.66H391Z" class="cls-2"/><path d="M434,83.92q3.61-4.83,10.28-4.83a11.53,11.53,0,0,1,8.55,3.39,12.57,12.57,0,0,1,3.59,8.64h12.93q-.35-10.34-7.2-16.69t-17.76-6.35q-12.89,0-20.33,8.38T416.57,98.8v1.41q0,14.63,7.51,22.93t20.33,8.3a27,27,0,0,0,12.32-2.88,23.28,23.28,0,0,0,9-7.82,20.14,20.14,0,0,0,3.56-10.64H456.39a10.21,10.21,0,0,1-3.62,7.39,12.38,12.38,0,0,1-8.52,3q-6.78,0-10.37-4.89t-3.58-14.82V98.57Q430.35,88.75,434,83.92Z" class="cls-2"/><path d="M498.26,118.54c-.92-1-1.38-2.72-1.38-5.06V79.37h10.79V69.21H496.88V54.35H483.16V69.21H473.1V79.37h10.06V114q0,17.46,15.81,17.45a33.69,33.69,0,0,0,9-1.3V119.53a21.52,21.52,0,0,1-4.8.56C500.83,120.09,499.19,119.58,498.26,118.54Z" class="cls-2"/><path d="M561.77,83.92q3.62-4.83,10.28-4.83a11.55,11.55,0,0,1,8.56,3.39,12.56,12.56,0,0,1,3.58,8.64h12.94q-.35-10.34-7.2-16.69t-17.77-6.35q-12.87,0-20.33,8.38T544.38,98.8v1.41q0,14.63,7.51,22.93t20.33,8.3a26.9,26.9,0,0,0,12.31-2.88,23.31,23.31,0,0,0,9-7.82,20.14,20.14,0,0,0,3.56-10.64H584.19a10.2,10.2,0,0,1-3.61,7.39,12.39,12.39,0,0,1-8.53,3q-6.78,0-10.36-4.89t-3.59-14.82V98.57Q558.16,88.75,561.77,83.92Z" class="cls-2"/><path d="M655.69,88.63q-.16-9.76-6.55-15.16T632,68.08a31.92,31.92,0,0,0-12.79,2.48,22.31,22.31,0,0,0-9.07,6.86,15.26,15.26,0,0,0-3.33,9.41h13.72a7.25,7.25,0,0,1,3-6,12.08,12.08,0,0,1,7.68-2.34q5.41,0,8.07,2.85A10.69,10.69,0,0,1,642,89v4h-8.42q-13.5,0-20.75,5.23t-7.26,15a16.8,16.8,0,0,0,5.82,13q5.82,5.25,15,5.25a21.34,21.34,0,0,0,16-6.83,21,21,0,0,0,1.58,5.7h14v-1q-2.32-4.91-2.32-13.15ZM642,113.15a13.26,13.26,0,0,1-5.39,5.31,15.75,15.75,0,0,1-7.66,2,10.19,10.19,0,0,1-7-2.34,8,8,0,0,1-2.62-6.3,8.57,8.57,0,0,1,3.84-7.51q3.84-2.66,11.46-2.66H642Z" class="cls-2"/><path d="M701,68.08a22,22,0,0,0-17.79,8.19l-.4-7.06H669.87v61.1h13.72V86.83q4.06-7.51,12.37-7.51,5.7,0,8.22,2.79t2.51,8.61v39.59h13.72V89.93Q720.08,68.07,701,68.08Z" class="cls-2"/><path d="M782.59,88.63q-.17-9.76-6.55-15.16t-17.11-5.39a31.92,31.92,0,0,0-12.79,2.48,22.38,22.38,0,0,0-9.07,6.86,15.26,15.26,0,0,0-3.33,9.41h13.73a7.24,7.24,0,0,1,3-6,12.08,12.08,0,0,1,7.68-2.34c3.61,0,6.31,1,8.08,2.85A10.69,10.69,0,0,1,768.87,89v4h-8.41Q747,93,739.7,98.21t-7.26,15a16.8,16.8,0,0,0,5.82,13q5.82,5.25,15,5.25a21.34,21.34,0,0,0,16-6.83,21,21,0,0,0,1.58,5.7h14v-1q-2.31-4.91-2.32-13.15Zm-13.72,24.52a13.2,13.2,0,0,1-5.39,5.31,15.69,15.69,0,0,1-7.66,2,10.19,10.19,0,0,1-7-2.34,8,8,0,0,1-2.62-6.3,8.59,8.59,0,0,1,3.84-7.51q3.84-2.66,11.46-2.66h7.4Z" class="cls-2"/><path d="M834.21,74.86q-6-6.78-15.7-6.78A21,21,0,0,0,801,76.63q-6.56,8.57-6.55,22.68,0,14.85,6.63,23.49a20.89,20.89,0,0,0,17.37,8.64q10.27,0,16.43-7.45l.68,6.32h12.43V43.57H834.21Zm0,37.89a13,13,0,0,1-12.31,7.51A11.64,11.64,0,0,1,811.71,115q-3.59-5.22-3.59-14.54,0-10.62,3.62-15.9A11.71,11.71,0,0,1,822,79.32q8.41,0,12.2,7.34Z" class="cls-2"/><path d="M38,0V14.46a84.2,84.2,0,0,1,60.15,25A84.14,84.14,0,0,1,123,99.57h14.46a98.5,98.5,0,0,0-29.09-70.35A98.57,98.57,0,0,0,38,0Z" class="cls-4"/></g></g></svg>