<svg xmlns="http://www.w3.org/2000/svg" xmlns:xlink="http://www.w3.org/1999/xlink" viewBox="0 0 137.45 137.54"><defs><style>.cls-1{fill:none;}.cls-2{fill:url(#linear-gradient);}.cls-3{fill:#fff;}.cls-4{fill:#c14f69;}</style><linearGradient id="linear-gradient" x1="37.98" y1="65.21" x2="106.7" y2="65.21" gradientUnits="userSpaceOnUse"><stop offset="0" stop-color="#92ccdd"/><stop offset="1" stop-color="#6b9cd3"/></linearGradient></defs><title>logomark-2020-ondark</title><g id="Layer_2" data-name="Layer 2"><g id="Layer_4" data-name="Layer 4"><path class="cls-1" d="M38,76a23.31,23.31,0,0,0-13.13,4A23.5,23.5,0,1,0,38,76Z"/><path class="cls-2" d="M38,30.84V45.3A54.15,54.15,0,0,1,92.24,99.57H106.7A68.63,68.63,0,0,0,38,30.84Z"/><path class="cls-3" d="M38,61.5A37.69,37.69,0,0,0,16.74,68,38,38,0,1,0,38,61.5Zm0,61.59A23.58,23.58,0,0,1,24.85,80,23.31,23.31,0,0,1,38,76a23.57,23.57,0,0,1,0,47.14Z"/><path class="cls-4" d="M108.36,29.22A98.57,98.57,0,0,0,38,0V14.46a84.2,84.2,0,0,1,60.15,25A84.14,84.14,0,0,1,123,99.57h14.46A98.5,98.5,0,0,0,108.36,29.22Z"/></g></g></svg>