<svg xmlns="http://www.w3.org/2000/svg" width="1119.866" height="723.766" viewBox="0 0 1119.866 723.766"><g><g><rect width="169.481" height="83.491" x="950.385" y="138.1" fill="#51e7f2"/><path fill="#e25456" d="M1050.29,191.2c.3-.3,12.483-10.964,12.483-10.964l-2.076-.89c-1.187-.581-.878-1.365-.594-2.065.285-.9,2.385-7.985,2.385-7.985s-5.66,1.186-6.846,1.483c-.89.285-1.187-.3-1.483-.89s-1.78-3.845-1.78-3.845-6.242,7.108-6.538,7.393c-1.187.89-2.385,0-2.089-1.187,0-1.186,3.275-15.378,3.275-15.378s-3.571,2.065-4.758,2.658c-.89.593-1.5.593-2.088-.593-.606-.89-5.067-9.469-5.067-9.469s-4.45,8.579-5.043,9.469c-.593,1.186-1.187,1.186-2.089.593-1.186-.593-4.758-2.658-4.758-2.658s3.275,14.192,3.275,15.378c.3,1.187-.89,2.077-2.088,1.187-.3-.3-6.538-7.393-6.538-7.393s-1.483,3.24-1.78,3.833-.593,1.175-1.483.89c-1.2-.3-6.847-1.483-6.847-1.483s2.088,7.084,2.385,7.985c.285.712.593,1.484-.593,2.065l-2.077.9s12.175,10.667,12.483,10.964c.605.593,1.187.89.605,2.67-.605,1.78-1.2,4.165-1.2,4.165s11.3-2.385,12.5-2.682c1.032-.107,2.171.3,2.171,1.483s-.688,13.385-.688,13.385h3.56s-.689-12.186-.689-13.385,1.128-1.59,2.184-1.483c1.186.3,12.483,2.682,12.483,2.682s-.594-2.385-1.187-4.165S1049.7,191.794,1050.29,191.2Z"/></g><rect width="67.643" height="67.643" x="3" y="653.122" fill="#e25456" stroke="#fff" stroke-miterlimit="10" stroke-width="6"/><rect width="67.643" height="67.643" x="70.643" y="653.122" fill="#e25456" stroke="#fff" stroke-miterlimit="10" stroke-width="6"/><rect width="67.643" height="67.643" x="138.287" y="653.122" fill="#e25456" stroke="#fff" stroke-miterlimit="10" stroke-width="6"/><rect width="67.643" height="67.643" x="205.93" y="653.122" fill="#e25456" stroke="#fff" stroke-miterlimit="10" stroke-width="6"/><rect width="67.643" height="67.643" x="273.573" y="653.122" fill="#e25456" stroke="#fff" stroke-miterlimit="10" stroke-width="6"/><rect width="67.643" height="67.643" x="341.216" y="653.122" fill="#e25456" stroke="#fff" stroke-miterlimit="10" stroke-width="6"/><rect width="67.643" height="67.643" x="408.86" y="653.122" fill="#e25456" stroke="#fff" stroke-miterlimit="10" stroke-width="6"/><rect width="67.643" height="67.643" x="476.503" y="653.122" fill="#e25456" stroke="#fff" stroke-miterlimit="10" stroke-width="6"/><rect width="67.643" height="67.643" x="70.643" y="585.479" fill="#e25456" stroke="#fff" stroke-miterlimit="10" stroke-width="6"/><rect width="67.643" height="67.643" x="138.287" y="585.479" fill="#e25456" stroke="#fff" stroke-miterlimit="10" stroke-width="6"/><rect width="67.643" height="67.643" x="205.93" y="585.479" fill="#e25456" stroke="#fff" stroke-miterlimit="10" stroke-width="6"/><rect width="67.643" height="67.643" x="273.573" y="585.479" fill="#e25456" stroke="#fff" stroke-miterlimit="10" stroke-width="6"/><rect width="67.643" height="67.643" x="341.216" y="585.479" fill="#e25456" stroke="#fff" stroke-miterlimit="10" stroke-width="6"/><rect width="67.643" height="67.643" x="408.86" y="585.479" fill="#e25456" stroke="#fff" stroke-miterlimit="10" stroke-width="6"/><rect width="67.643" height="67.643" x="476.503" y="585.479" fill="#e25456" stroke="#fff" stroke-miterlimit="10" stroke-width="6"/><rect width="67.643" height="67.643" x="138.287" y="517.836" fill="#e25456" stroke="#fff" stroke-miterlimit="10" stroke-width="6"/><rect width="67.643" height="67.643" x="205.93" y="517.836" fill="#e25456" stroke="#fff" stroke-miterlimit="10" stroke-width="6"/><rect width="67.643" height="67.643" x="273.573" y="517.836" fill="#e25456" stroke="#fff" stroke-miterlimit="10" stroke-width="6"/><rect width="67.643" height="67.643" x="341.216" y="517.836" fill="#e25456" stroke="#fff" stroke-miterlimit="10" stroke-width="6"/><rect width="67.643" height="67.643" x="408.86" y="517.836" fill="#e25456" stroke="#fff" stroke-miterlimit="10" stroke-width="6"/><rect width="67.643" height="67.643" x="476.503" y="517.836" fill="#e25456" stroke="#fff" stroke-miterlimit="10" stroke-width="6"/><rect width="67.643" height="67.643" x="205.93" y="450.192" fill="#e25456" stroke="#fff" stroke-miterlimit="10" stroke-width="6"/><rect width="67.643" height="67.643" x="273.573" y="450.192" fill="#e25456" stroke="#fff" stroke-miterlimit="10" stroke-width="6"/><rect width="67.643" height="67.643" x="341.216" y="450.192" fill="#e25456" stroke="#fff" stroke-miterlimit="10" stroke-width="6"/><rect width="67.643" height="67.643" x="408.86" y="450.192" fill="#e25456" stroke="#fff" stroke-miterlimit="10" stroke-width="6"/><rect width="67.643" height="67.643" x="476.503" y="450.192" fill="#e25456" stroke="#fff" stroke-miterlimit="10" stroke-width="6"/><rect width="67.643" height="67.643" x="273.573" y="382.787" fill="#e25456" stroke="#fff" stroke-miterlimit="10" stroke-width="6"/><rect width="67.643" height="67.643" x="341.216" y="382.787" fill="#e25456" stroke="#fff" stroke-miterlimit="10" stroke-width="6"/><rect width="67.643" height="67.643" x="408.86" y="382.787" fill="#e25456" stroke="#fff" stroke-miterlimit="10" stroke-width="6"/><rect width="67.643" height="67.643" x="476.503" y="382.787" fill="#e25456" stroke="#fff" stroke-miterlimit="10" stroke-width="6"/><rect width="67.643" height="67.643" x="341.216" y="315.132" fill="#e25456" stroke="#fff" stroke-miterlimit="10" stroke-width="6"/><rect width="67.643" height="67.643" x="408.86" y="315.132" fill="#e25456" stroke="#fff" stroke-miterlimit="10" stroke-width="6"/><rect width="67.643" height="67.643" x="476.503" y="315.132" fill="#e25456" stroke="#fff" stroke-miterlimit="10" stroke-width="6"/><rect width="67.643" height="67.643" x="408.86" y="247.489" fill="#e25456" stroke="#fff" stroke-miterlimit="10" stroke-width="6"/><rect width="67.643" height="67.643" x="476.503" y="247.489" fill="#e25456" stroke="#fff" stroke-miterlimit="10" stroke-width="6"/><rect width="67.643" height="67.643" x="476.503" y="179.845" fill="#e25456" stroke="#fff" stroke-miterlimit="10" stroke-width="6"/><line x1="950.385" x2="950.385" y1="666.284" y2="31.624" fill="none" stroke="#fff" stroke-miterlimit="10" stroke-width="11"/><rect width="67.643" height="67.643" x="916.564" y="653.122" fill="#e25456" stroke="#fff" stroke-miterlimit="10" stroke-width="6"/><circle cx="950.385" cy="19.357" r="13.857" fill="none" stroke="#fff" stroke-miterlimit="10" stroke-width="11"/><g><rect width="17.581" height="49.6" x="669.59" y="333.175" fill="#51e7f2"/><rect width="17.581" height="48.763" x="801.45" y="296.932" fill="#51e7f2"/><rect width="35.163" height="35.163" x="652.009" y="292.951" fill="#f9ae41"/><rect width="35.163" height="35.163" x="704.753" y="333.175" fill="#e25456"/><rect width="35.163" height="35.163" x="687.171" y="333.175" fill="#e25456"/><rect width="35.163" height="35.163" x="766.288" y="310.532" fill="#e25456"/><rect width="35.163" height="35.163" x="704.753" y="275.37" fill="#e25456"/><rect width="35.163" height="35.163" x="739.916" y="275.37" fill="#e25456"/><rect width="35.163" height="35.163" x="669.59" y="275.37" fill="#51e7f2"/><rect width="35.163" height="35.163" x="722.334" y="275.37" fill="#51e7f2"/><rect width="35.163" height="35.163" x="775.078" y="257.788" fill="#51e7f2"/><rect width="35.163" height="35.163" x="775.078" y="222.841" fill="#f9ae41"/><rect width="35.163" height="35.163" x="704.753" y="310.532" fill="#e25456"/><rect width="35.163" height="35.163" x="739.916" y="310.532" fill="#e25456"/><rect width="35.163" height="51.987" x="687.171" y="223.598" fill="#f9ae41"/><rect width="35.163" height="51.987" x="722.334" y="223.598" fill="#f9ae41"/><rect width="17.581" height="17.581" x="757.497" y="249.931" fill="#f9ae41"/><rect width="70.325" height="16.824" x="687.171" y="206.774" fill="#469ee1"/><rect width="19.936" height="43.158" x="687.171" y="206.774" fill="#469ee1"/><rect width="11.721" height="21.269" x="722.334" y="236.519" fill="#469ee1"/></g><line x1="1106.471" x2="1106.471" y1="247.154" y2="570.239" fill="none" stroke="#51e7f2" stroke-miterlimit="10" stroke-width="4"/><line x1="1072.983" x2="1072.983" y1="247.154" y2="355.914" fill="none" stroke="#51e7f2" stroke-miterlimit="10" stroke-width="4"/><line x1="1035.126" x2="1035.126" y1="247.154" y2="310.532" fill="none" stroke="#51e7f2" stroke-miterlimit="10" stroke-width="4"/></g></svg>