<svg xmlns="http://www.w3.org/2000/svg" width="835.572" height="1048.246" viewBox="0 0 835.572 1048.246">
  <g>
    <rect width="835.572" height="1048.246" fill="#e25456"/>
    <g>
      <line x1="164.135" y1="1048.246" x2="164.135" fill="none" stroke="#fff" stroke-miterlimit="10" stroke-width="11"/>
      <line x1="417.786" y1="1048.246" x2="417.786" fill="none" stroke="#fff" stroke-miterlimit="10" stroke-width="11"/>
      <line x1="671.437" y1="1048.246" x2="671.437" fill="none" stroke="#fff" stroke-miterlimit="10" stroke-width="11"/>
      <line x1="290.961" y1="1048.246" x2="290.961" fill="none" stroke="#fff" stroke-miterlimit="10" stroke-width="11"/>
      <line x1="544.612" y1="1048.246" x2="544.612" fill="none" stroke="#fff" stroke-miterlimit="10" stroke-width="11"/>
      <g>
        <rect x="164.135" y="468.828" width="507.302" height="109.578" fill="none" stroke="#fff" stroke-miterlimit="10" stroke-width="11"/>
        <path d="M233.536,549.623H222.588v-42.2l-13.069,4.054v-8.9l22.843-8.184h1.174Z" fill="#fff"/>
        <path d="M372.565,549.623H334.759v-7.5L352.6,523.105q2.007-2.2,3.39-4.016a29.606,29.606,0,0,0,2.235-3.333,12.7,12.7,0,0,0,1.212-2.822,9.483,9.483,0,0,0,.361-2.52,8.418,8.418,0,0,0-1.858-5.777,6.7,6.7,0,0,0-5.3-2.1,8,8,0,0,0-3.429.7,7.026,7.026,0,0,0-2.5,1.932,8.665,8.665,0,0,0-1.534,2.937,12.42,12.42,0,0,0-.532,3.712H333.66a18.616,18.616,0,0,1,1.325-7.009,16.824,16.824,0,0,1,3.826-5.758,18.378,18.378,0,0,1,6.043-3.9,21.033,21.033,0,0,1,7.975-1.44,25.169,25.169,0,0,1,7.709,1.08,15.59,15.59,0,0,1,5.625,3.088,12.876,12.876,0,0,1,3.447,4.924,17.4,17.4,0,0,1,1.176,6.555,16.549,16.549,0,0,1-.872,5.341,25.182,25.182,0,0,1-2.462,5.152,41.906,41.906,0,0,1-3.846,5.209q-2.255,2.632-5.019,5.474L348.851,540.8h23.714Z" fill="#fff"/>
        <path d="M469.749,517.2h5.834q4.167,0,6.176-2.084a7.638,7.638,0,0,0,2.008-5.532,8.538,8.538,0,0,0-.456-2.822,5.794,5.794,0,0,0-1.382-2.234,6.483,6.483,0,0,0-2.33-1.459,10.063,10.063,0,0,0-6.157-.095A7.387,7.387,0,0,0,471.1,504.2a5.818,5.818,0,0,0-1.592,1.952,5.63,5.63,0,0,0-.587,2.594H457.968a13.429,13.429,0,0,1,1.42-6.194,14.337,14.337,0,0,1,3.865-4.735,18.173,18.173,0,0,1,5.738-3.031,22.525,22.525,0,0,1,7.047-1.08,27.029,27.029,0,0,1,7.6,1,16.756,16.756,0,0,1,5.89,2.993,13.626,13.626,0,0,1,3.827,4.925,15.985,15.985,0,0,1,1.363,6.8,11.678,11.678,0,0,1-.549,3.522,11.873,11.873,0,0,1-1.629,3.278,15.05,15.05,0,0,1-2.633,2.842,15.3,15.3,0,0,1-3.56,2.215,13.727,13.727,0,0,1,6.951,5,13.571,13.571,0,0,1,2.291,7.879,15.365,15.365,0,0,1-1.5,6.895,14.692,14.692,0,0,1-4.11,5.1,18.527,18.527,0,0,1-6.194,3.144,26.715,26.715,0,0,1-7.747,1.08,25.374,25.374,0,0,1-6.894-.947,18.048,18.048,0,0,1-6-2.918,15.044,15.044,0,0,1-4.244-4.943,14.638,14.638,0,0,1-1.609-7.065h10.947a6.528,6.528,0,0,0,2.293,5.057,8.054,8.054,0,0,0,2.557,1.459,9.48,9.48,0,0,0,3.221.53,10.754,10.754,0,0,0,3.484-.53,7.263,7.263,0,0,0,2.633-1.535,6.658,6.658,0,0,0,1.648-2.387,8.042,8.042,0,0,0,.569-3.087,10.214,10.214,0,0,0-.625-3.769,6.32,6.32,0,0,0-1.8-2.557,7.557,7.557,0,0,0-2.861-1.458,13.875,13.875,0,0,0-3.769-.475h-5.834Z" fill="#fff"/>
        <path d="M617.944,528.864H624.2v8.826h-6.252v11.933H607V537.69H584.381l-.493-6.9,23-36.33h11.06Zm-23.146,0H607V509.391l-.721,1.25Z" fill="#fff"/>
      </g>
      <g>
        <path d="M217.746,610.66h0a4.423,4.423,0,0,1,4.423,4.423v8.094a0,0,0,0,1,0,0h-8.846a0,0,0,0,1,0,0v-8.094A4.423,4.423,0,0,1,217.746,610.66Z" fill="#51e7f2"/>
        <path d="M217.746,618.085h0a7.7,7.7,0,0,1,7.7,7.7v14.1a0,0,0,0,1,0,0h-15.4a0,0,0,0,1,0,0v-14.1a7.7,7.7,0,0,1,7.7-7.7Z" fill="#1f3269"/>
        <rect x="225.448" y="676.834" width="15.405" height="21.798" fill="#1f3269"/>
        <rect x="228.728" y="694.88" width="8.846" height="12.517" rx="4.423" fill="#51e7f2"/>
        <rect x="190.651" y="639.883" width="69.594" height="36.951" rx="17.08" fill="#fff"/>
        <circle cx="225.448" cy="658.358" r="13.756" fill="#e25456"/>
        <rect x="247.695" y="619.911" width="12.55" height="39.943" rx="6.275" fill="#fff"/>
        <rect x="190.651" y="656.862" width="12.55" height="39.943" rx="6.275" fill="#fff"/>
      </g>
      <g>
        <path d="M345.562,709.891h0a4.423,4.423,0,0,1,4.423,4.423v8.094a0,0,0,0,1,0,0h-8.846a0,0,0,0,1,0,0v-8.094A4.423,4.423,0,0,1,345.562,709.891Z" fill="#51e7f2"/>
        <path d="M345.562,717.315h0a7.7,7.7,0,0,1,7.7,7.7v14.1a0,0,0,0,1,0,0h-15.4a0,0,0,0,1,0,0v-14.1a7.7,7.7,0,0,1,7.7-7.7Z" fill="#fff"/>
        <rect x="353.265" y="776.065" width="15.405" height="21.798" fill="#fff"/>
        <rect x="356.544" y="794.111" width="8.846" height="12.517" rx="4.423" fill="#51e7f2"/>
        <rect x="318.468" y="739.113" width="69.594" height="36.951" rx="17.08" fill="#51e7f2"/>
        <circle cx="353.265" cy="757.589" r="13.756" fill="#f9ae41"/>
        <rect x="375.511" y="719.142" width="12.55" height="39.943" rx="6.275" fill="#51e7f2"/>
        <rect x="318.468" y="756.093" width="12.55" height="39.943" rx="6.275" fill="#51e7f2"/>
      </g>
      <g>
        <path d="M469.415,800.369h0a4.423,4.423,0,0,1,4.423,4.423v8.094a0,0,0,0,1,0,0h-8.846a0,0,0,0,1,0,0v-8.094A4.423,4.423,0,0,1,469.415,800.369Z" fill="#51e7f2"/>
        <path d="M469.415,807.794h0a7.7,7.7,0,0,1,7.7,7.7v14.1a0,0,0,0,1,0,0h-15.4a0,0,0,0,1,0,0V815.5a7.7,7.7,0,0,1,7.7-7.7Z" fill="#469ee1"/>
        <rect x="477.118" y="866.543" width="15.405" height="21.798" fill="#469ee1"/>
        <rect x="480.397" y="884.589" width="8.846" height="12.517" rx="4.423" fill="#51e7f2"/>
        <rect x="442.321" y="829.592" width="69.594" height="36.951" rx="17.08" fill="#1f3269"/>
        <circle cx="477.118" cy="848.068" r="13.756" fill="#d9e9f6"/>
        <rect x="499.364" y="809.62" width="12.55" height="39.943" rx="6.275" fill="#1f3269"/>
        <rect x="442.321" y="846.572" width="12.55" height="39.943" rx="6.275" fill="#1f3269"/>
      </g>
      <g>
        <path d="M596.358,903.732h0a4.423,4.423,0,0,1,4.423,4.423v8.094a0,0,0,0,1,0,0h-8.846a0,0,0,0,1,0,0v-8.094a4.423,4.423,0,0,1,4.423-4.423Z" fill="#f9ae41"/>
        <path d="M596.358,911.157h0a7.7,7.7,0,0,1,7.7,7.7v14.1a0,0,0,0,1,0,0h-15.4a0,0,0,0,1,0,0v-14.1a7.7,7.7,0,0,1,7.7-7.7Z" fill="#1f3269"/>
        <rect x="604.061" y="969.906" width="15.405" height="21.798" fill="#1f3269"/>
        <rect x="607.34" y="987.952" width="8.846" height="12.517" rx="4.423" fill="#f9ae41"/>
        <rect x="569.264" y="932.955" width="69.594" height="36.951" rx="17.08" fill="#f9ae41"/>
        <circle cx="604.061" cy="951.431" r="13.756" fill="#1f3269"/>
        <rect x="626.307" y="912.983" width="12.55" height="39.943" rx="6.275" fill="#f9ae41"/>
        <rect x="569.264" y="949.934" width="12.55" height="39.943" rx="6.275" fill="#f9ae41"/>
      </g>
      <g>
        <line x1="417.336" y1="139.596" x2="417.336" y2="46.835" fill="none" stroke="#51e7f2" stroke-miterlimit="10" stroke-width="11"/>
        <line x1="511.203" y1="180.22" x2="576.795" y2="114.628" fill="none" stroke="#51e7f2" stroke-miterlimit="10" stroke-width="11"/>
        <line x1="548.852" y1="275.319" x2="641.612" y2="275.319" fill="none" stroke="#51e7f2" stroke-miterlimit="10" stroke-width="11"/>
        <line x1="323.469" y1="180.22" x2="257.878" y2="114.628" fill="none" stroke="#51e7f2" stroke-miterlimit="10" stroke-width="11"/>
        <line x1="285.82" y1="275.319" x2="193.06" y2="275.319" fill="none" stroke="#51e7f2" stroke-miterlimit="10" stroke-width="11"/>
      </g>
      <g>
        <g>
          <path d="M379.019,390.957c-14.089,0-25.545,8.262-25.545,22.352V418.1a4.79,4.79,0,0,0,4.79,4.79H476.408a4.789,4.789,0,0,0,4.79-4.79v-4.789c0-14.09-11.455-22.352-25.545-22.352Z" fill="#51e7f2" opacity="0.4" style="isolation: isolate"/>
          <path d="M522.708,244.075H481.2V228.109a9.555,9.555,0,0,0-9.531-9.579H363.054a9.556,9.556,0,0,0-9.58,9.531h0v16.014h-41.51a9.554,9.554,0,0,0-9.579,9.531h0v22.4c0,14.249,8.98,28.9,24.706,40.193A93.513,93.513,0,0,0,371,332.843c12.533,20.795,27.182,29.376,27.182,29.376v28.738H436.5V362.219s14.648-8.581,27.181-29.376A93.19,93.19,0,0,0,507.581,316.2c15.686-11.3,24.707-25.944,24.707-40.193V253.654a9.556,9.556,0,0,0-9.532-9.579h-.048ZM342.019,295.484c-9.739-7.025-14.089-14.848-14.089-19.478v-6.387h25.624a143.3,143.3,0,0,0,5.109,34.406A64.211,64.211,0,0,1,342.019,295.484Zm164.724-19.478c0,6.426-7.065,14.409-14.09,19.478a64.548,64.548,0,0,1-16.684,8.541,143.248,143.248,0,0,0,5.109-34.406h25.665Z" fill="#51e7f2"/>
        </g>
        <polygon points="417.336 238.462 427.628 270.138 460.935 270.138 433.989 289.715 444.282 321.391 417.336 301.814 390.391 321.391 400.683 289.715 373.738 270.138 407.044 270.138 417.336 238.462" fill="#e25456"/>
      </g>
    </g>
  </g>
</svg>
