<svg xmlns="http://www.w3.org/2000/svg" width="518.302" height="1118.302" viewBox="0 0 518.302 1118.302"><g><line x1="5.5" x2="5.5" y1="1118.302" fill="none" stroke="#fff" stroke-miterlimit="10" stroke-width="11"/><line x1="259.151" x2="259.151" y1="1118.302" fill="none" stroke="#fff" stroke-miterlimit="10" stroke-width="11"/><line x1="512.802" x2="512.802" y1="1118.302" fill="none" stroke="#fff" stroke-miterlimit="10" stroke-width="11"/><line x1="132.325" x2="132.325" y1="1118.302" fill="none" stroke="#fff" stroke-miterlimit="10" stroke-width="11"/><line x1="385.976" x2="385.976" y1="1118.302" fill="none" stroke="#fff" stroke-miterlimit="10" stroke-width="11"/><g><rect width="507.302" height="109.578" x="5.5" y="448.812" fill="none" stroke="#fff" stroke-miterlimit="10" stroke-width="11"/><path fill="#fff" d="M74.9,529.607H63.952v-42.2L50.883,491.46v-8.9l22.844-8.183H74.9Z"/><path fill="#fff" d="M213.931,529.607H176.123v-7.5l17.843-19.017q2.008-2.2,3.391-4.016a29.381,29.381,0,0,0,2.235-3.333,12.75,12.75,0,0,0,1.212-2.822,9.481,9.481,0,0,0,.36-2.52,8.423,8.423,0,0,0-1.856-5.776,6.7,6.7,0,0,0-5.3-2.1,8,8,0,0,0-3.429.7,7.012,7.012,0,0,0-2.5,1.931,8.682,8.682,0,0,0-1.534,2.937,12.458,12.458,0,0,0-.53,3.712H175.025a18.577,18.577,0,0,1,1.326-7.008,16.786,16.786,0,0,1,3.826-5.758,18.332,18.332,0,0,1,6.042-3.9,21.03,21.03,0,0,1,7.975-1.44,25.143,25.143,0,0,1,7.709,1.08,15.593,15.593,0,0,1,5.626,3.087,12.9,12.9,0,0,1,3.447,4.925,17.432,17.432,0,0,1,1.175,6.554,16.549,16.549,0,0,1-.872,5.341,25.237,25.237,0,0,1-2.462,5.152,41.832,41.832,0,0,1-3.846,5.209q-2.255,2.634-5.02,5.475l-9.735,10.265h23.715Z"/><path fill="#fff" d="M311.114,497.18h5.834q4.167,0,6.175-2.083a7.638,7.638,0,0,0,2.008-5.532,8.538,8.538,0,0,0-.455-2.822,5.812,5.812,0,0,0-1.383-2.235,6.49,6.49,0,0,0-2.329-1.458,10.07,10.07,0,0,0-6.156-.1,7.42,7.42,0,0,0-2.349,1.232,5.816,5.816,0,0,0-1.592,1.951,5.648,5.648,0,0,0-.586,2.594H299.332a13.426,13.426,0,0,1,1.421-6.193,14.35,14.35,0,0,1,3.864-4.736,18.15,18.15,0,0,1,5.74-3.03,22.49,22.49,0,0,1,7.046-1.08,26.98,26.98,0,0,1,7.595,1,16.759,16.759,0,0,1,5.891,2.992,13.614,13.614,0,0,1,3.826,4.926,15.98,15.98,0,0,1,1.364,6.8,11.664,11.664,0,0,1-.549,3.524,11.923,11.923,0,0,1-1.629,3.277,15.045,15.045,0,0,1-2.633,2.841,15.281,15.281,0,0,1-3.561,2.216,13.717,13.717,0,0,1,6.951,5,13.566,13.566,0,0,1,2.292,7.88,15.375,15.375,0,0,1-1.5,6.9,14.712,14.712,0,0,1-4.11,5.1,18.508,18.508,0,0,1-6.194,3.144,26.745,26.745,0,0,1-7.747,1.079,25.387,25.387,0,0,1-6.9-.947,18.084,18.084,0,0,1-6-2.917,15.014,15.014,0,0,1-4.242-4.943,14.628,14.628,0,0,1-1.61-7.066H309.6a6.518,6.518,0,0,0,2.292,5.058,8.039,8.039,0,0,0,2.556,1.458,9.464,9.464,0,0,0,3.221.53,10.734,10.734,0,0,0,3.485-.53,7.225,7.225,0,0,0,2.633-1.534,6.688,6.688,0,0,0,1.648-2.387A8.051,8.051,0,0,0,326,514a10.193,10.193,0,0,0-.625-3.769,6.317,6.317,0,0,0-1.8-2.557,7.566,7.566,0,0,0-2.86-1.458,13.916,13.916,0,0,0-3.769-.474h-5.834Z"/><path fill="#fff" d="M459.31,508.848h6.251v8.827H459.31v11.932H448.362V517.675H425.745l-.492-6.895,23-36.33H459.31Zm-23.147,0h12.2V489.376l-.72,1.25Z"/></g><g><path fill="#51e7f2" d="M59.111,728.492h0a4.423,4.423,0,0,1,4.423,4.423v8.094a0,0,0,0,1,0,0H54.688a0,0,0,0,1,0,0v-8.094A4.423,4.423,0,0,1,59.111,728.492Z"/><path fill="#1f3269" d="M59.111,735.916h0a7.7,7.7,0,0,1,7.7,7.7v14.1a0,0,0,0,1,0,0h-15.4a0,0,0,0,1,0,0v-14.1A7.7,7.7,0,0,1,59.111,735.916Z"/><rect width="15.405" height="21.798" x="66.813" y="794.666" fill="#1f3269"/><rect width="8.846" height="12.517" x="70.092" y="812.712" fill="#51e7f2" rx="4.423"/><rect width="69.594" height="36.951" x="32.016" y="757.715" fill="#fff" rx="17.08"/><circle cx="66.813" cy="776.19" r="13.756" fill="#e25456"/><rect width="12.55" height="39.943" x="89.059" y="737.743" fill="#fff" rx="6.275"/><rect width="12.55" height="39.943" x="32.016" y="774.694" fill="#fff" rx="6.275"/></g><g><path fill="#51e7f2" d="M186.927,827.723h0a4.423,4.423,0,0,1,4.423,4.423v8.094a0,0,0,0,1,0,0H182.5a0,0,0,0,1,0,0v-8.094A4.423,4.423,0,0,1,186.927,827.723Z"/><path fill="#fff" d="M186.927,835.147h0a7.7,7.7,0,0,1,7.7,7.7v14.1a0,0,0,0,1,0,0h-15.4a0,0,0,0,1,0,0v-14.1A7.7,7.7,0,0,1,186.927,835.147Z"/><rect width="15.405" height="21.798" x="194.629" y="893.896" fill="#fff"/><rect width="8.846" height="12.517" x="197.909" y="911.943" fill="#51e7f2" rx="4.423"/><rect width="69.594" height="36.951" x="159.833" y="856.945" fill="#51e7f2" rx="17.08"/><circle cx="194.629" cy="875.421" r="13.756" fill="#f9ae41"/><rect width="12.55" height="39.943" x="216.876" y="836.974" fill="#51e7f2" rx="6.275"/><rect width="12.55" height="39.943" x="159.833" y="873.925" fill="#51e7f2" rx="6.275"/></g><g><path fill="#51e7f2" d="M310.78,918.2h0a4.423,4.423,0,0,1,4.423,4.423v8.094a0,0,0,0,1,0,0h-8.846a0,0,0,0,1,0,0v-8.094A4.423,4.423,0,0,1,310.78,918.2Z"/><path fill="#469ee1" d="M310.78,925.626h0a7.7,7.7,0,0,1,7.7,7.7v14.1a0,0,0,0,1,0,0h-15.4a0,0,0,0,1,0,0v-14.1A7.7,7.7,0,0,1,310.78,925.626Z"/><rect width="15.405" height="21.798" x="318.482" y="984.375" fill="#469ee1"/><rect width="8.846" height="12.517" x="321.762" y="1002.421" fill="#51e7f2" rx="4.423"/><rect width="69.594" height="36.951" x="283.685" y="947.424" fill="#1f3269" rx="17.08"/><circle cx="318.482" cy="965.9" r="13.756" fill="#d9e9f6"/><rect width="12.55" height="39.943" x="340.729" y="927.452" fill="#1f3269" rx="6.275"/><rect width="12.55" height="39.943" x="283.685" y="964.403" fill="#1f3269" rx="6.275"/></g><g><path fill="#f9ae41" d="M437.723,1021.564h0a4.423,4.423,0,0,1,4.423,4.423v8.094a0,0,0,0,1,0,0H433.3a0,0,0,0,1,0,0v-8.094A4.423,4.423,0,0,1,437.723,1021.564Z"/><path fill="#1f3269" d="M437.723,1028.989h0a7.7,7.7,0,0,1,7.7,7.7v14.1a0,0,0,0,1,0,0h-15.4a0,0,0,0,1,0,0v-14.1A7.7,7.7,0,0,1,437.723,1028.989Z"/><rect width="15.405" height="21.798" x="445.426" y="1087.738" fill="#1f3269"/><rect width="8.846" height="12.517" x="448.705" y="1105.784" fill="#f9ae41" rx="4.423"/><rect width="69.594" height="36.951" x="410.629" y="1050.787" fill="#f9ae41" rx="17.08"/><circle cx="445.426" cy="1069.262" r="13.756" fill="#1f3269"/><rect width="12.55" height="39.943" x="467.672" y="1030.815" fill="#f9ae41" rx="6.275"/><rect width="12.55" height="39.943" x="410.629" y="1067.766" fill="#f9ae41" rx="6.275"/></g><g><line x1="258.701" x2="258.701" y1="109.572" y2="16.811" fill="none" stroke="#51e7f2" stroke-miterlimit="10" stroke-width="11"/><line x1="352.568" x2="418.16" y1="150.196" y2="84.604" fill="none" stroke="#51e7f2" stroke-miterlimit="10" stroke-width="11"/><line x1="390.217" x2="482.977" y1="245.295" y2="245.295" fill="none" stroke="#51e7f2" stroke-miterlimit="10" stroke-width="11"/><line x1="164.834" x2="99.242" y1="150.196" y2="84.604" fill="none" stroke="#51e7f2" stroke-miterlimit="10" stroke-width="11"/><line x1="127.185" x2="34.425" y1="245.295" y2="245.295" fill="none" stroke="#51e7f2" stroke-miterlimit="10" stroke-width="11"/></g><g><g><path fill="#51e7f2" d="M220.384,360.933c-14.09,0-25.545,8.262-25.545,22.352v4.789a4.789,4.789,0,0,0,4.79,4.79H317.773a4.79,4.79,0,0,0,4.79-4.79v-4.789c0-14.09-11.455-22.352-25.545-22.352Z" opacity=".4" style="isolation:isolate"/><path fill="#51e7f2" d="M364.073,214.051h-41.51V198.085a9.555,9.555,0,0,0-9.532-9.579H204.418a9.555,9.555,0,0,0-9.579,9.531h0v16.014h-41.51a9.554,9.554,0,0,0-9.579,9.531h0v22.4c0,14.249,8.98,28.9,24.706,40.193a93.513,93.513,0,0,0,43.905,16.644c12.533,20.795,27.181,29.376,27.181,29.376v28.738H277.86V332.2s14.648-8.581,27.181-29.376a93.19,93.19,0,0,0,43.905-16.644c15.686-11.3,24.706-25.944,24.706-40.193V223.63a9.554,9.554,0,0,0-9.531-9.579h-.048ZM183.384,265.46c-9.739-7.025-14.09-14.848-14.09-19.478V239.6h25.625A143.248,143.248,0,0,0,200.028,274,64.211,64.211,0,0,1,183.384,265.46Zm164.724-19.478c0,6.426-7.065,14.409-14.09,19.478A64.564,64.564,0,0,1,317.334,274a143.248,143.248,0,0,0,5.109-34.406h25.665Z"/></g><polygon fill="#e25456" points="258.701 208.438 268.993 240.114 302.3 240.114 275.354 259.691 285.646 291.367 258.701 271.79 231.756 291.367 242.048 259.691 215.102 240.114 248.409 240.114 258.701 208.438"/></g></g></svg>