<svg xmlns="http://www.w3.org/2000/svg" width="1310.941" height="412.306" viewBox="0 0 1310.941 412.306">
  <g>
    <g>
      <rect x="81.052" y="255.061" width="61.406" height="110.8" fill="#469ee1"/>
      <rect x="186.273" y="255.061" width="61.406" height="110.8" transform="translate(433.952 620.921) rotate(-180)" fill="#469ee1"/>
      <polygon points="288.34 412.306 186.273 412.306 186.273 365.86 247.679 365.86 288.34 412.306" fill="#fff"/>
      <polygon points="40.557 412.306 142.624 412.306 142.624 365.86 81.218 365.86 40.557 412.306" fill="#fff"/>
      <rect x="80.554" y="127.067" width="167.623" height="127.503" fill="#d84190"/>
      <rect x="229.091" y="90.152" width="38.172" height="112" transform="translate(394.329 -102.024) rotate(90)" fill="#d84190"/>
      <rect x="60.473" y="90.152" width="38.172" height="112" transform="translate(225.711 66.594) rotate(90)" fill="#d84190"/>
      <path d="M234.6,108.215c0-36.035-31.443-65.247-70.23-65.247S94.136,72.18,94.136,108.215Z" fill="#fff"/>
      <circle cx="163.868" cy="91.065" r="30.644" fill="#469ee1"/>
      <path d="M276.789,114.292h54.777a23.558,23.558,0,0,1,23.558,23.558v0a0,0,0,0,1,0,0H300.347a23.558,23.558,0,0,1-23.558-23.558v0A0,0,0,0,1,276.789,114.292Z" transform="translate(189.885 442.027) rotate(-90)" fill="#469ee1"/>
      <path d="M-3.83,114.292H50.946a0,0,0,0,1,0,0v0A23.558,23.558,0,0,1,27.388,137.85H-27.388a0,0,0,0,1,0,0v0A23.558,23.558,0,0,1-3.83,114.292Z" transform="translate(-114.292 137.85) rotate(-90)" fill="#469ee1"/>
      <polygon points="277.679 335.427 51.052 335.427 81.052 248.272 247.679 248.272 277.679 335.427" fill="#d84190"/>
    </g>
    <g>
      <rect x="408.289" y="255.061" width="61.406" height="110.8" fill="#d84190"/>
      <rect x="513.51" y="255.061" width="61.406" height="110.8" transform="translate(1088.426 620.921) rotate(-180)" fill="#d84190"/>
      <polygon points="615.577 412.306 513.51 412.306 513.51 365.86 574.916 365.86 615.577 412.306" fill="#d84190"/>
      <polygon points="367.794 412.306 469.862 412.306 469.862 365.86 408.455 365.86 367.794 412.306" fill="#d84190"/>
      <rect x="408.289" y="254.57" width="166.627" height="48.74" fill="#d84190"/>
      <rect x="408.289" y="126.556" width="166.627" height="128.014" fill="#469ee1"/>
      <circle cx="491.105" cy="89.085" r="30.644" fill="#51e7f2"/>
      <rect x="556.826" y="89.642" width="38.172" height="112" transform="translate(721.554 -430.27) rotate(90)" fill="#469ee1"/>
      <rect x="388.208" y="89.642" width="38.172" height="112" transform="translate(552.935 -261.652) rotate(90)" fill="#469ee1"/>
      <path d="M604.524,113.781H659.3a23.558,23.558,0,0,1,23.558,23.558v0a0,0,0,0,1,0,0H628.082a23.558,23.558,0,0,1-23.558-23.558v0A0,0,0,0,1,604.524,113.781Z" transform="translate(518.131 769.252) rotate(-90)" fill="#51e7f2"/>
      <path d="M323.9,113.781h54.777a0,0,0,0,1,0,0v0a23.558,23.558,0,0,1-23.558,23.558H300.347a0,0,0,0,1,0,0v0A23.558,23.558,0,0,1,323.9,113.781Z" transform="translate(213.954 465.075) rotate(-90)" fill="#51e7f2"/>
    </g>
    <g>
      <rect x="736.522" y="255.061" width="61.406" height="110.8" fill="#51e7f2"/>
      <rect x="841.743" y="255.061" width="61.406" height="110.8" transform="translate(1744.892 620.921) rotate(-180)" fill="#51e7f2"/>
      <polygon points="943.81 412.306 841.743 412.306 841.743 365.86 903.149 365.86 943.81 412.306" fill="#51e7f2"/>
      <polygon points="696.027 412.306 798.095 412.306 798.095 365.86 736.688 365.86 696.027 412.306" fill="#51e7f2"/>
      <rect x="736.522" y="254.57" width="166.627" height="48.25" fill="#51e7f2"/>
      <rect x="736.522" y="126.556" width="166.627" height="128.014" fill="#fff"/>
      <circle cx="819.338" cy="89.085" r="30.644" fill="#d84190"/>
      <rect x="884.561" y="89.642" width="38.172" height="112" transform="translate(1049.289 -758.005) rotate(90)" fill="#fff"/>
      <rect x="715.943" y="89.642" width="38.172" height="112" transform="translate(880.67 -589.387) rotate(90)" fill="#fff"/>
      <path d="M932.259,113.781h54.777a23.558,23.558,0,0,1,23.558,23.558v0a0,0,0,0,1,0,0H955.817a23.558,23.558,0,0,1-23.558-23.558v0A0,0,0,0,1,932.259,113.781Z" transform="translate(845.866 1096.987) rotate(-90)" fill="#d84190"/>
      <path d="M651.64,113.781h54.777a0,0,0,0,1,0,0v0a23.558,23.558,0,0,1-23.558,23.558H628.082a0,0,0,0,1,0,0v0A23.558,23.558,0,0,1,651.64,113.781Z" transform="translate(541.689 792.81) rotate(-90)" fill="#d84190"/>
    </g>
    <g>
      <rect x="1212.296" y="90.152" width="38.172" height="112" transform="translate(1377.535 -1085.23) rotate(90)" fill="#fff"/>
      <rect x="1043.678" y="90.152" width="38.172" height="112" transform="translate(1208.916 -916.611) rotate(90)" fill="#fff"/>
      <path d="M1259.994,114.292h54.777a23.558,23.558,0,0,1,23.558,23.558v0a0,0,0,0,1,0,0h-54.777a23.558,23.558,0,0,1-23.558-23.558v0A0,0,0,0,1,1259.994,114.292Z" transform="translate(1173.091 1425.232) rotate(-90)" fill="#fff"/>
      <path d="M979.375,114.292h54.777a0,0,0,0,1,0,0v0a23.558,23.558,0,0,1-23.558,23.558H955.817a0,0,0,0,1,0,0v0A23.558,23.558,0,0,1,979.375,114.292Z" transform="translate(868.914 1121.055) rotate(-90)" fill="#fff"/>
      <rect x="1064.257" y="255.061" width="61.406" height="110.8" fill="#fff"/>
      <rect x="1169.478" y="255.061" width="61.406" height="110.8" transform="translate(2400.362 620.921) rotate(-180)" fill="#fff"/>
      <polygon points="1271.545 412.306 1169.478 412.306 1169.478 365.86 1230.884 365.86 1271.545 412.306" fill="#d84190"/>
      <polygon points="1023.763 412.306 1125.83 412.306 1125.83 365.86 1064.423 365.86 1023.763 412.306" fill="#d84190"/>
      <rect x="1063.76" y="127.067" width="167.623" height="127.503" fill="#51e7f2"/>
      <path d="M1177.721,91.066a30.645,30.645,0,0,1-61.29,0c0-.58.02-1.16.051-1.73a30.643,30.643,0,0,1,61.189,0C1177.7,89.906,1177.721,90.486,1177.721,91.066Z" fill="#fff"/>
      <polygon points="1260.884 335.427 1034.257 335.427 1064.257 255.061 1230.884 255.061 1260.884 335.427" fill="#d84190"/>
      <circle cx="1147.073" cy="28.309" r="28.309" fill="#d84190"/>
      <path d="M1177.671,89.336h-61.189a30.643,30.643,0,0,1,61.189,0Z" fill="#d84190"/>
      <path d="M1104.13,127.067h86.882a0,0,0,0,1,0,0v0a39.142,39.142,0,0,1-39.142,39.142h-8.6a39.142,39.142,0,0,1-39.142-39.142v0A0,0,0,0,1,1104.13,127.067Z" fill="#fff"/>
    </g>
  </g>
</svg>
