<svg xmlns="http://www.w3.org/2000/svg" width="518.302" height="1118.302" viewBox="0 0 518.302 1118.302">
  <g>
    <line x1="5.5" y1="1118.302" x2="5.5" fill="none" stroke="#fff" stroke-miterlimit="10" stroke-width="11"/>
    <line x1="259.151" y1="1118.302" x2="259.151" fill="none" stroke="#fff" stroke-miterlimit="10" stroke-width="11"/>
    <line x1="512.802" y1="1118.302" x2="512.802" fill="none" stroke="#fff" stroke-miterlimit="10" stroke-width="11"/>
    <line x1="132.325" y1="1118.302" x2="132.325" fill="none" stroke="#fff" stroke-miterlimit="10" stroke-width="11"/>
    <line x1="385.976" y1="1118.302" x2="385.976" fill="none" stroke="#fff" stroke-miterlimit="10" stroke-width="11"/>
    <g>
      <rect x="5.5" y="378.756" width="507.302" height="109.578" fill="none" stroke="#fff" stroke-miterlimit="10" stroke-width="11"/>
      <path d="M74.9,459.551H63.952v-42.2L50.884,421.4v-8.9l22.843-8.183H74.9Z" fill="#fff"/>
      <path d="M213.931,459.551H176.124v-7.5l17.842-19.017q2.008-2.2,3.391-4.015a29.7,29.7,0,0,0,2.235-3.334,12.756,12.756,0,0,0,1.212-2.823,9.474,9.474,0,0,0,.36-2.519,8.429,8.429,0,0,0-1.856-5.777,6.7,6.7,0,0,0-5.3-2.1,8,8,0,0,0-3.43.7,7.026,7.026,0,0,0-2.5,1.933,8.644,8.644,0,0,0-1.533,2.935,12.432,12.432,0,0,0-.531,3.713H175.024a18.586,18.586,0,0,1,1.327-7.009,16.773,16.773,0,0,1,3.826-5.757,18.318,18.318,0,0,1,6.043-3.9,21.025,21.025,0,0,1,7.974-1.439,25.143,25.143,0,0,1,7.709,1.08,15.6,15.6,0,0,1,5.625,3.087,12.9,12.9,0,0,1,3.448,4.925,17.408,17.408,0,0,1,1.174,6.553,16.555,16.555,0,0,1-.872,5.342,25.081,25.081,0,0,1-2.462,5.152,41.882,41.882,0,0,1-3.844,5.209q-2.256,2.632-5.02,5.474l-9.736,10.267h23.715Z" fill="#fff"/>
      <path d="M311.114,427.123h5.834q4.167,0,6.175-2.083a7.632,7.632,0,0,0,2.008-5.531,8.533,8.533,0,0,0-.454-2.822,5.832,5.832,0,0,0-1.383-2.236,6.508,6.508,0,0,0-2.33-1.458,10.079,10.079,0,0,0-6.156-.095,7.418,7.418,0,0,0-2.349,1.231,5.843,5.843,0,0,0-1.591,1.951,5.644,5.644,0,0,0-.588,2.6H299.333a13.434,13.434,0,0,1,1.42-6.195,14.324,14.324,0,0,1,3.864-4.735,18.15,18.15,0,0,1,5.74-3.03,22.486,22.486,0,0,1,7.046-1.08,26.98,26.98,0,0,1,7.595,1,16.765,16.765,0,0,1,5.892,2.993,13.626,13.626,0,0,1,3.826,4.925,16,16,0,0,1,1.363,6.8,11.653,11.653,0,0,1-.549,3.523,11.9,11.9,0,0,1-1.629,3.277A14.982,14.982,0,0,1,331.268,429a15.317,15.317,0,0,1-3.561,2.217,13.7,13.7,0,0,1,6.951,5,13.556,13.556,0,0,1,2.292,7.88,15.371,15.371,0,0,1-1.5,6.894,14.683,14.683,0,0,1-4.11,5.1,18.486,18.486,0,0,1-6.195,3.144,26.7,26.7,0,0,1-7.746,1.08,25.388,25.388,0,0,1-6.9-.948,18.065,18.065,0,0,1-6-2.917,15,15,0,0,1-4.242-4.943,14.624,14.624,0,0,1-1.611-7.065H309.6a6.514,6.514,0,0,0,2.292,5.057,8,8,0,0,0,2.557,1.458,9.43,9.43,0,0,0,3.22.531,10.706,10.706,0,0,0,3.485-.531,7.211,7.211,0,0,0,2.633-1.534,6.682,6.682,0,0,0,1.649-2.387,8.061,8.061,0,0,0,.567-3.087,10.2,10.2,0,0,0-.625-3.769,6.3,6.3,0,0,0-1.8-2.557,7.585,7.585,0,0,0-2.859-1.459,13.97,13.97,0,0,0-3.77-.473h-5.834Z" fill="#fff"/>
      <path d="M459.31,438.791h6.251v8.827H459.31v11.933H448.362V447.618H425.745l-.492-6.894,23-36.33H459.31Zm-23.147,0h12.2V419.319l-.72,1.25Z" fill="#fff"/>
    </g>
    <g>
      <path d="M59.111,658.436h0a4.423,4.423,0,0,1,4.423,4.423v8.094a0,0,0,0,1,0,0H54.688a0,0,0,0,1,0,0v-8.094A4.423,4.423,0,0,1,59.111,658.436Z" fill="#51e7f2"/>
      <path d="M59.111,665.86h0a7.7,7.7,0,0,1,7.7,7.7v14.1a0,0,0,0,1,0,0h-15.4a0,0,0,0,1,0,0v-14.1A7.7,7.7,0,0,1,59.111,665.86Z" fill="#1f3269"/>
      <rect x="66.813" y="724.61" width="15.405" height="21.798" fill="#1f3269"/>
      <rect x="70.092" y="742.656" width="8.846" height="12.517" rx="4.423" fill="#51e7f2"/>
      <rect x="32.016" y="687.659" width="69.594" height="36.951" rx="17.08" fill="#fff"/>
      <circle cx="66.813" cy="706.134" r="13.756" fill="#e25456"/>
      <rect x="89.059" y="667.687" width="12.55" height="39.943" rx="6.275" fill="#fff"/>
      <rect x="32.016" y="704.638" width="12.55" height="39.943" rx="6.275" fill="#fff"/>
    </g>
    <g>
      <path d="M186.927,757.667h0a4.423,4.423,0,0,1,4.423,4.423v8.094a0,0,0,0,1,0,0H182.5a0,0,0,0,1,0,0V762.09A4.423,4.423,0,0,1,186.927,757.667Z" fill="#51e7f2"/>
      <path d="M186.927,765.091h0a7.7,7.7,0,0,1,7.7,7.7v14.1a0,0,0,0,1,0,0h-15.4a0,0,0,0,1,0,0v-14.1A7.7,7.7,0,0,1,186.927,765.091Z" fill="#fff"/>
      <rect x="194.629" y="823.84" width="15.405" height="21.798" fill="#fff"/>
      <rect x="197.909" y="841.887" width="8.846" height="12.517" rx="4.423" fill="#51e7f2"/>
      <rect x="159.833" y="786.889" width="69.594" height="36.951" rx="17.08" fill="#51e7f2"/>
      <circle cx="194.629" cy="805.365" r="13.756" fill="#f9ae41"/>
      <rect x="216.876" y="766.918" width="12.55" height="39.943" rx="6.275" fill="#51e7f2"/>
      <rect x="159.833" y="803.869" width="12.55" height="39.943" rx="6.275" fill="#51e7f2"/>
    </g>
    <g>
      <path d="M310.78,848.145h0a4.423,4.423,0,0,1,4.423,4.423v8.094a0,0,0,0,1,0,0h-8.846a0,0,0,0,1,0,0v-8.094A4.423,4.423,0,0,1,310.78,848.145Z" fill="#51e7f2"/>
      <path d="M310.78,855.57h0a7.7,7.7,0,0,1,7.7,7.7v14.1a0,0,0,0,1,0,0h-15.4a0,0,0,0,1,0,0v-14.1A7.7,7.7,0,0,1,310.78,855.57Z" fill="#469ee1"/>
      <rect x="318.482" y="914.319" width="15.405" height="21.798" fill="#469ee1"/>
      <rect x="321.762" y="932.365" width="8.846" height="12.517" rx="4.423" fill="#51e7f2"/>
      <rect x="283.685" y="877.368" width="69.594" height="36.951" rx="17.08" fill="#1f3269"/>
      <circle cx="318.482" cy="895.844" r="13.756" fill="#d9e9f6"/>
      <rect x="340.729" y="857.396" width="12.55" height="39.943" rx="6.275" fill="#1f3269"/>
      <rect x="283.685" y="894.347" width="12.55" height="39.943" rx="6.275" fill="#1f3269"/>
    </g>
    <g>
      <path d="M437.723,951.508h0a4.423,4.423,0,0,1,4.423,4.423v8.094a0,0,0,0,1,0,0H433.3a0,0,0,0,1,0,0v-8.094a4.423,4.423,0,0,1,4.423-4.423Z" fill="#f9ae41"/>
      <path d="M437.723,958.933h0a7.7,7.7,0,0,1,7.7,7.7v14.1a0,0,0,0,1,0,0h-15.4a0,0,0,0,1,0,0v-14.1A7.7,7.7,0,0,1,437.723,958.933Z" fill="#1f3269"/>
      <rect x="445.426" y="1017.682" width="15.405" height="21.798" fill="#1f3269"/>
      <rect x="448.705" y="1035.728" width="8.846" height="12.517" rx="4.423" fill="#f9ae41"/>
      <rect x="410.629" y="980.731" width="69.594" height="36.951" rx="17.08" fill="#f9ae41"/>
      <circle cx="445.426" cy="999.206" r="13.756" fill="#1f3269"/>
      <rect x="467.672" y="960.759" width="12.55" height="39.943" rx="6.275" fill="#f9ae41"/>
      <rect x="410.629" y="997.71" width="12.55" height="39.943" rx="6.275" fill="#f9ae41"/>
    </g>
  </g>
</svg>
