<svg xmlns="http://www.w3.org/2000/svg" width="336.583" height="291.49" viewBox="0 0 336.583 291.49"><g><g><polygon fill="#479cdf" points="252.437 145.745 168.292 291.49 336.583 291.49 252.437 145.745"/><polygon fill="#479cdf" points="84.146 145.745 0 291.49 168.292 291.49 84.146 145.745"/><polygon fill="#479cdf" points="168.292 291.49 252.437 145.745 84.146 145.745 168.292 291.49"/><polygon fill="#479cdf" points="168.292 0 252.437 145.745 84.146 145.745 168.292 0"/></g><g><polygon fill="#479cdf" points="252.437 145.745 168.292 291.49 336.583 291.49 252.437 145.745"/><polygon fill="#e25456" points="84.146 145.745 0 291.49 168.292 291.49 84.146 145.745"/><polygon fill="#fff" points="168.292 291.49 252.437 145.745 84.146 145.745 168.292 291.49"/><polygon fill="#51e7f2" points="168.292 0 252.437 145.745 84.146 145.745 168.292 0"/></g></g></svg>