<svg xmlns="http://www.w3.org/2000/svg" xmlns:xlink="http://www.w3.org/1999/xlink" width="462.774" height="255.261" viewBox="0 0 462.774 255.261"><defs><linearGradient id="a" x1="1555.779" x2="1747.924" y1="1372.206" y2="1372.206" gradientTransform="translate(1430.761 -1525.695) rotate(90)" gradientUnits="userSpaceOnUse"><stop offset="0" stop-color="#c55557"/><stop offset="1" stop-color="#de525c"/></linearGradient></defs><g><g><path fill="#fff" d="M177.206,208.754V169.717A13.513,13.513,0,0,0,163.693,156.2H133.664a4.5,4.5,0,0,0-4.5,4.5v57.054a4.464,4.464,0,0,0,4.422,4.5h30.111a13.513,13.513,0,0,0,13.513-13.513ZM177.168,82.6V43.56a13.513,13.513,0,0,0-13.513-13.513H133.627a4.5,4.5,0,0,0-4.5,4.5V91.643a4.464,4.464,0,0,0,4.46,4.467h30.073A13.513,13.513,0,0,0,177.168,82.6Z" style="isolation:isolate"/><path fill="url(#a)" d="M112.569,222.229c-7.582-.075-15.164-.225-19.969,0-56.566,0-92.6-50.485-92.6-95.753S36.034,30.085,92.563,30.085c4.879.225,11.974.037,20.006,0a4.5,4.5,0,0,1,4.542,4.466V91.643a4.5,4.5,0,0,1-4.5,4.5H93.088c-48.008,0-48.083,60.057,0,60.057h19.519a4.5,4.5,0,0,1,4.5,4.5v57.016a4.5,4.5,0,0,1-4.5,4.5Z"/></g><polygon fill="#fff" points="438.664 63.078 392.834 77.969 392.834 126.157 364.51 87.172 318.681 102.063 347.005 63.078 318.681 24.094 364.51 38.985 392.834 0 392.834 48.188 438.664 63.078" style="isolation:isolate"/><polygon fill="#469ee1" points="297.398 156.204 273.399 164.002 273.399 189.236 258.567 168.821 234.569 176.619 249.401 156.204 234.569 135.79 258.567 143.587 273.399 123.173 273.399 148.407 297.398 156.204"/><polygon fill="#51e7f2" points="462.774 222.23 438.776 230.027 438.776 255.261 423.944 234.846 399.945 242.644 414.777 222.23 399.945 201.815 423.944 209.613 438.776 189.198 438.776 214.432 462.774 222.23"/></g></svg>