<svg xmlns="http://www.w3.org/2000/svg" width="376.944" height="376.944" viewBox="0 0 376.944 376.944"><g><rect width="376.944" height="376.944" fill="none"/><g><path fill="#e25456" d="M245.178,274.131c1.109-1.109,46.642-40.967,46.642-40.967l-7.759-3.325c-4.433-2.173-3.281-5.1-2.216-7.715,1.064-3.369,8.911-29.838,8.911-29.838s-21.148,4.434-25.582,5.542c-3.325,1.064-4.434-1.108-5.542-3.325s-6.65-14.365-6.65-14.365-23.321,26.557-24.43,27.621c-4.433,3.326-8.911,0-7.8-4.433,0-4.434,12.237-57.46,12.237-57.46s-13.345,7.714-17.779,9.931c-3.325,2.217-5.586,2.217-7.8-2.217-2.261-3.325-18.932-35.38-18.932-35.38s-16.626,32.055-18.843,35.38c-2.217,4.434-4.433,4.434-7.8,2.217-4.434-2.217-17.779-9.931-17.779-9.931s12.237,53.026,12.237,57.46c1.108,4.433-3.325,7.759-7.8,4.433-1.109-1.108-24.43-27.621-24.43-27.621s-5.542,12.1-6.65,14.32-2.217,4.39-5.542,3.326c-4.478-1.109-25.582-5.542-25.582-5.542s7.8,26.468,8.911,29.838c1.064,2.66,2.217,5.542-2.216,7.714l-7.759,3.37s45.489,39.858,46.642,40.967c2.261,2.217,4.433,3.325,2.261,9.976-2.261,6.65-4.478,15.562-4.478,15.562s42.208-8.912,46.686-10.02c3.857-.4,8.114,1.108,8.114,5.542s-2.572,50.011-2.572,50.011h13.3s-2.572-45.533-2.572-50.011,4.212-5.941,8.158-5.542c4.434,1.108,46.642,10.02,46.642,10.02s-2.217-8.912-4.433-15.562S242.962,276.348,245.178,274.131Z"/><polygon fill="#fff" points="188.516 31.742 149.899 98.63 227.134 98.63 188.516 31.742"/><polygon fill="#51e7f2" points="23.863 126.365 43.853 200.968 98.467 146.355 23.863 126.365"/><polygon fill="#479cdf" points="353.081 126.365 333.091 200.968 278.478 146.355 353.081 126.365"/></g></g></svg>