<svg xmlns="http://www.w3.org/2000/svg" xmlns:xlink="http://www.w3.org/1999/xlink" width="376.944" height="376.944" viewBox="0 0 376.944 376.944"><defs><linearGradient id="a" x1="117.703" x2="258.557" y1="188.472" y2="188.472" gradientUnits="userSpaceOnUse"><stop offset="0" stop-color="#c55557"/><stop offset="1" stop-color="#de525c"/></linearGradient></defs><g><rect width="376.944" height="376.944" fill="none"/><g><path fill="#fff" d="M85.393,118.045a39.616,39.616,0,1,0,39.615,39.615A39.626,39.626,0,0,0,85.393,118.045Zm35.214,88.034c-25.42,0-19.533,4.4-35.214,4.4-15.626,0-9.821-4.4-35.213-4.4a35.211,35.211,0,0,0-35.214,35.213v8.8a8.794,8.794,0,0,0,8.8,8.8H147.017a8.794,8.794,0,0,0,8.8-8.8v-8.8A35.21,35.21,0,0,0,120.607,206.079Z"/><path fill="url(#a)" d="M188.13,118.045a39.616,39.616,0,1,0,39.615,39.615A39.626,39.626,0,0,0,188.13,118.045Zm35.213,88.034c-25.42,0-19.532,4.4-35.213,4.4-15.626,0-9.822-4.4-35.214-4.4A35.21,35.21,0,0,0,117.7,241.292v8.8a8.794,8.794,0,0,0,8.8,8.8H249.753a8.794,8.794,0,0,0,8.8-8.8v-8.8A35.211,35.211,0,0,0,223.343,206.079Z"/><path fill="#fff" d="M136.765,209.992a35.209,35.209,0,0,0-19.065,31.3V250.1a8.8,8.8,0,0,0,8.807,8.8h20.509a8.793,8.793,0,0,0,8.807-8.8v-8.807A35.211,35.211,0,0,0,136.765,209.992Z"/><path fill="#51e7f2" d="M136.765,209.992a35.209,35.209,0,0,0-19.065,31.3V250.1a8.8,8.8,0,0,0,8.807,8.8h20.509a8.793,8.793,0,0,0,8.807-8.8v-8.807A35.211,35.211,0,0,0,136.765,209.992Z"/><path fill="#469ee1" d="M291.551,118.045a39.616,39.616,0,1,0,39.615,39.615A39.626,39.626,0,0,0,291.551,118.045Zm35.214,88.034c-25.42,0-19.533,4.4-35.214,4.4-15.626,0-9.821-4.4-35.213-4.4a35.211,35.211,0,0,0-35.214,35.213v8.8a8.794,8.794,0,0,0,8.8,8.8H353.175a8.794,8.794,0,0,0,8.8-8.8v-8.8A35.211,35.211,0,0,0,326.765,206.079Z"/><path fill="#fff" d="M240.186,209.992a35.209,35.209,0,0,0-19.065,31.3V250.1a8.8,8.8,0,0,0,8.807,8.8h20.509a8.792,8.792,0,0,0,8.807-8.8v-8.807A35.209,35.209,0,0,0,240.186,209.992Z" style="isolation:isolate"/></g></g></svg>