<svg xmlns="http://www.w3.org/2000/svg" width="432.227" height="298.686" viewBox="0 0 432.227 298.686">
  <g>
    <rect width="432.227" height="298.686" fill="none"/>
    <g>
      <path d="M365.354,216.218h-31.4A117.586,117.586,0,0,0,216.112,98.375V66.98A148.982,148.982,0,0,1,365.354,216.218Z" fill="#51e7f2"/>
      <path d="M432.123,216.218h-31.4c0-49.592-19.169-95.964-53.977-130.569A182.863,182.863,0,0,0,216.112,31.4V0A213.99,213.99,0,0,1,368.949,63.447C409.664,103.925,432.123,158.2,432.123,216.218Z" fill="#e25456"/>
      <path d="M216.112,298.686a82.573,82.573,0,1,1,82.471-82.468A82.56,82.56,0,0,1,216.112,298.686Zm0-133.75a50.668,50.668,0,0,0-28.515,8.726,51.046,51.046,0,1,0,28.515-8.726Z" fill="#fff"/>
    </g>
  </g>
</svg>
