<svg xmlns="http://www.w3.org/2000/svg" width="730.22" height="130.873" viewBox="0 0 730.22 130.873"><g><g><g><polygon fill="#479cdf" points="92.504 53.407 61.669 106.814 123.338 106.814 92.504 53.407"/><polygon fill="#479cdf" points="30.835 53.407 0 106.814 61.669 106.814 30.835 53.407"/><polygon fill="#479cdf" points="61.669 106.814 92.504 53.407 30.835 53.407 61.669 106.814"/><polygon fill="#479cdf" points="61.669 0 92.504 53.407 30.835 53.407 61.669 0"/></g><g><polygon fill="#479cdf" points="92.504 53.407 61.669 106.814 123.338 106.814 92.504 53.407"/><polygon fill="#e25456" points="30.835 53.407 0 106.814 61.669 106.814 30.835 53.407"/><polygon fill="#fff" points="61.669 106.814 92.504 53.407 30.835 53.407 61.669 106.814"/><polygon fill="#51e7f2" points="61.669 0 92.504 53.407 30.835 53.407 61.669 0"/></g></g><g><path fill="#1f3269" d="M227.3,79.423a33.639,33.639,0,0,1-2.824,11.521,26.764,26.764,0,0,1-6.551,9.008,30.018,30.018,0,0,1-10.137,5.874,40.451,40.451,0,0,1-13.583,2.117,35.285,35.285,0,0,1-14.2-2.738,29.03,29.03,0,0,1-10.673-7.879,35.749,35.749,0,0,1-6.721-12.453,53.574,53.574,0,0,1-2.344-16.406V63.045a52.13,52.13,0,0,1,2.429-16.435,36.293,36.293,0,0,1,6.861-12.481,29.787,29.787,0,0,1,10.759-7.906,34.858,34.858,0,0,1,14.119-2.768,39.2,39.2,0,0,1,13.582,2.174,29.225,29.225,0,0,1,10.026,6.043,27.49,27.49,0,0,1,6.437,9.206,38.565,38.565,0,0,1,2.938,11.606H210.469a25.672,25.672,0,0,0-1.27-6.5,12.755,12.755,0,0,0-2.853-4.744,11.809,11.809,0,0,0-4.8-2.909,22.486,22.486,0,0,0-7.116-.988q-8.586,0-12.792,6.241t-4.207,19.343v5.535a59.273,59.273,0,0,0,.932,11.182,23.58,23.58,0,0,0,2.936,8.019,12.905,12.905,0,0,0,5.2,4.829,16.949,16.949,0,0,0,7.708,1.61,23.429,23.429,0,0,0,6.918-.9A11.739,11.739,0,0,0,209,85.861a22.626,22.626,0,0,0,1.356-6.438Z"/><path fill="#1f3269" d="M253.279,52.371a22.2,22.2,0,0,1,7.143-5.732,20.126,20.126,0,0,1,9.178-2.062,25.424,25.424,0,0,1,8.245,1.271,15.351,15.351,0,0,1,6.382,4.123,19.19,19.19,0,0,1,4.1,7.37,36.379,36.379,0,0,1,1.44,10.956v38.517H273.44V68.184a15.932,15.932,0,0,0-.65-4.913A7.744,7.744,0,0,0,270.9,60.08a6.977,6.977,0,0,0-3.078-1.723,15.569,15.569,0,0,0-4.151-.508,12.419,12.419,0,0,0-6.382,1.5,10.989,10.989,0,0,0-4.009,4.038v43.43H236.956V20.066h16.323Z"/><path fill="#1f3269" d="M337.484,106.814a18.122,18.122,0,0,1-1.638-5.478,21.279,21.279,0,0,1-6.24,4.687,19.991,19.991,0,0,1-9.178,1.92,24.345,24.345,0,0,1-8.217-1.355A20.342,20.342,0,0,1,305.6,102.8a17.383,17.383,0,0,1-4.377-5.789,17.072,17.072,0,0,1-1.582-7.37,19.585,19.585,0,0,1,1.779-8.528,16.657,16.657,0,0,1,5.337-6.325,25.648,25.648,0,0,1,8.839-3.953,49.675,49.675,0,0,1,12.283-1.356h7.285v-3.5A10.07,10.07,0,0,0,333,59.205q-2.177-2.543-6.863-2.542a9.722,9.722,0,0,0-6.466,1.977,6.713,6.713,0,0,0-2.343,5.421H301a16.162,16.162,0,0,1,1.836-7.511,18.819,18.819,0,0,1,5.224-6.212,26.241,26.241,0,0,1,8.189-4.208,34.767,34.767,0,0,1,10.731-1.553,34.064,34.064,0,0,1,9.827,1.356,22.211,22.211,0,0,1,7.793,4.038,18.359,18.359,0,0,1,5.111,6.72,22.545,22.545,0,0,1,1.836,9.4V91.961q0,2.6.169,4.659t.452,3.728a19.139,19.139,0,0,0,.735,2.993,17.693,17.693,0,0,0,1.072,2.513v.96Zm-13.5-11.352a14,14,0,0,0,7.059-1.835,11.346,11.346,0,0,0,2.456-1.892,10.235,10.235,0,0,0,1.666-2.2v-10.5h-6.72a19.726,19.726,0,0,0-5.591.7,10.872,10.872,0,0,0-3.9,1.977A7.908,7.908,0,0,0,316.7,84.7a9.466,9.466,0,0,0-.734,3.755,6.531,6.531,0,0,0,2.146,5.026A8.329,8.329,0,0,0,323.987,95.462Z"/><path fill="#1f3269" d="M381.31,106.814H364.932V20.066H381.31Z"/><path fill="#1f3269" d="M411.976,106.814H395.6V20.066h16.378Z"/><path fill="#1f3269" d="M453.542,107.943a33.181,33.181,0,0,1-12.735-2.315,28.188,28.188,0,0,1-9.544-6.325,27.1,27.1,0,0,1-5.987-9.4,32.075,32.075,0,0,1-2.061-11.549v-2.2a38.686,38.686,0,0,1,2.005-12.735,29.305,29.305,0,0,1,5.7-9.968,25.794,25.794,0,0,1,8.98-6.523,31.608,31.608,0,0,1,23.466-.17,23.271,23.271,0,0,1,8.443,6.1,25.963,25.963,0,0,1,5.139,9.459,41.335,41.335,0,0,1,1.722,12.312v6.947H439.762a17.037,17.037,0,0,0,1.609,5.422,14.031,14.031,0,0,0,3.107,4.151,13.708,13.708,0,0,0,4.434,2.682,16.013,16.013,0,0,0,5.7.961,20.249,20.249,0,0,0,8.245-1.666,16.633,16.633,0,0,0,6.5-5.168l8.019,8.98A24.208,24.208,0,0,1,473.7,101a24.871,24.871,0,0,1-5.195,3.53,30.656,30.656,0,0,1-6.749,2.485A34.121,34.121,0,0,1,453.542,107.943Zm-1.863-50.151a10.933,10.933,0,0,0-4.659.933,10.164,10.164,0,0,0-3.445,2.6,13.565,13.565,0,0,0-2.344,3.982,22.757,22.757,0,0,0-1.3,5.139h22.7v-1.3a16.469,16.469,0,0,0-.706-4.518,9.92,9.92,0,0,0-1.976-3.614,8.882,8.882,0,0,0-3.389-2.372A12.81,12.81,0,0,0,451.679,57.792Z"/><path fill="#1f3269" d="M502.959,45.706l.508,7.06a21.444,21.444,0,0,1,7.625-6.071,22.883,22.883,0,0,1,9.94-2.118,24.381,24.381,0,0,1,7.906,1.214,14.544,14.544,0,0,1,6.1,3.982A18.712,18.712,0,0,1,538.962,57a37.392,37.392,0,0,1,1.384,10.956v38.856H524.025V67.845a15.391,15.391,0,0,0-.65-4.857,7.108,7.108,0,0,0-1.891-3.049,7.2,7.2,0,0,0-3.05-1.61,16.414,16.414,0,0,0-4.18-.48,11.568,11.568,0,0,0-6.183,1.582,12.089,12.089,0,0,0-4.152,4.292v43.091H487.6V45.706Z"/><path fill="#1f3269" d="M550.343,75.809A44.213,44.213,0,0,1,552.065,63.1a30,30,0,0,1,4.914-9.883,22.091,22.091,0,0,1,7.766-6.382,23.025,23.025,0,0,1,10.334-2.259,21.294,21.294,0,0,1,9.178,1.807,18.342,18.342,0,0,1,6.466,5.083l.678-5.761h14.8v59.018a27.275,27.275,0,0,1-2.147,11.126,23.072,23.072,0,0,1-6.014,8.217,26.007,26.007,0,0,1-9.262,5.083,39.131,39.131,0,0,1-11.945,1.723,34.866,34.866,0,0,1-12.227-2.316,31.082,31.082,0,0,1-5.845-2.993,18.964,18.964,0,0,1-4.687-4.292l7.228-9.94a21.382,21.382,0,0,0,6.579,5.026,18.465,18.465,0,0,0,8.218,1.807q6.493,0,10.109-3.473t3.615-9.855v-3.276a18.9,18.9,0,0,1-6.382,4.716,20.309,20.309,0,0,1-8.472,1.666,22.041,22.041,0,0,1-10.25-2.343,23.019,23.019,0,0,1-7.737-6.467,30.092,30.092,0,0,1-4.914-9.8A42.29,42.29,0,0,1,550.343,77ZM566.664,77a31.173,31.173,0,0,0,.735,6.946,17.307,17.307,0,0,0,2.287,5.619,11.668,11.668,0,0,0,3.9,3.784,10.744,10.744,0,0,0,5.564,1.384,13.207,13.207,0,0,0,6.522-1.468,10.784,10.784,0,0,0,4.152-4.123V63.44a10.993,10.993,0,0,0-4.152-4.151,12.968,12.968,0,0,0-6.41-1.44,10.737,10.737,0,0,0-5.562,1.384,11.853,11.853,0,0,0-3.925,3.812,17.708,17.708,0,0,0-2.344,5.7,31.065,31.065,0,0,0-.763,7.06Z"/><path fill="#1f3269" d="M646.861,107.943a33.186,33.186,0,0,1-12.736-2.315A28.2,28.2,0,0,1,624.58,99.3a27.112,27.112,0,0,1-5.986-9.4,32.053,32.053,0,0,1-2.061-11.549v-2.2a38.686,38.686,0,0,1,2-12.735,29.305,29.305,0,0,1,5.7-9.968,25.809,25.809,0,0,1,8.979-6.523,31.608,31.608,0,0,1,23.466-.17,23.263,23.263,0,0,1,8.443,6.1,25.95,25.95,0,0,1,5.14,9.459,41.334,41.334,0,0,1,1.723,12.312v6.947H633.08a16.962,16.962,0,0,0,1.61,5.422,14.028,14.028,0,0,0,3.106,4.151,13.708,13.708,0,0,0,4.434,2.682,16.013,16.013,0,0,0,5.7.961,20.246,20.246,0,0,0,8.245-1.666,16.626,16.626,0,0,0,6.5-5.168l8.02,8.98A24.3,24.3,0,0,1,667.023,101a24.9,24.9,0,0,1-5.2,3.53,30.675,30.675,0,0,1-6.749,2.485A34.112,34.112,0,0,1,646.861,107.943ZM645,57.792a10.936,10.936,0,0,0-4.659.933,10.174,10.174,0,0,0-3.445,2.6,13.609,13.609,0,0,0-2.344,3.982,22.863,22.863,0,0,0-1.3,5.139h22.7v-1.3a16.545,16.545,0,0,0-.707-4.518,9.92,9.92,0,0,0-1.976-3.614,8.89,8.89,0,0,0-3.389-2.372A12.812,12.812,0,0,0,645,57.792Z"/><path fill="#1f3269" d="M714.35,89.928a5.468,5.468,0,0,0-.509-2.372,5.189,5.189,0,0,0-1.92-2,17.6,17.6,0,0,0-3.84-1.78,50.878,50.878,0,0,0-6.269-1.637,59.454,59.454,0,0,1-8.669-2.542,26.729,26.729,0,0,1-6.89-3.783,16.915,16.915,0,0,1-4.547-5.253,14.247,14.247,0,0,1-1.637-6.946,16.51,16.51,0,0,1,1.666-7.286,18.245,18.245,0,0,1,4.8-6.071,23.4,23.4,0,0,1,7.68-4.151,32.117,32.117,0,0,1,10.25-1.525,36.077,36.077,0,0,1,10.675,1.468,24.392,24.392,0,0,1,8.048,4.095,18.167,18.167,0,0,1,5.082,6.241,17.659,17.659,0,0,1,1.779,7.907H713.729a7.9,7.9,0,0,0-2.26-5.79q-2.259-2.286-7.058-2.287a9.763,9.763,0,0,0-6.382,1.864,5.881,5.881,0,0,0-2.26,4.744,4.768,4.768,0,0,0,.594,2.4,5.8,5.8,0,0,0,1.92,1.921,15.247,15.247,0,0,0,3.5,1.609,42.549,42.549,0,0,0,5.337,1.355,73.249,73.249,0,0,1,9.206,2.372,26.867,26.867,0,0,1,7.313,3.643,16.4,16.4,0,0,1,4.829,5.422,17.1,17.1,0,0,1-.056,15.192,17.5,17.5,0,0,1-5.168,5.9,25.956,25.956,0,0,1-8.1,3.9,37.218,37.218,0,0,1-10.618,1.411,32.794,32.794,0,0,1-11.352-1.807,26.08,26.08,0,0,1-8.273-4.744,19.743,19.743,0,0,1-5.055-6.607,17.506,17.506,0,0,1-1.694-7.4h15.474a9.437,9.437,0,0,0,1.045,4.094,8.024,8.024,0,0,0,2.456,2.8,10.588,10.588,0,0,0,3.531,1.581,17.048,17.048,0,0,0,4.207.509q4.688,0,7.088-1.779A5.538,5.538,0,0,0,714.35,89.928Z"/></g></g></svg>