<svg xmlns="http://www.w3.org/2000/svg" width="715.58" height="130.873" viewBox="0 0 715.58 130.873"><g><g><g><polygon fill="#479cdf" points="92.504 53.407 61.669 106.814 123.338 106.814 92.504 53.407"/><polygon fill="#479cdf" points="30.835 53.407 0 106.814 61.669 106.814 30.835 53.407"/><polygon fill="#479cdf" points="61.669 106.814 92.504 53.407 30.835 53.407 61.669 106.814"/><polygon fill="#479cdf" points="61.669 0 92.504 53.407 30.835 53.407 61.669 0"/></g><g><polygon fill="#479cdf" points="92.504 53.407 61.669 106.814 123.338 106.814 92.504 53.407"/><polygon fill="#e25456" points="30.835 53.407 0 106.814 61.669 106.814 30.835 53.407"/><polygon fill="#fff" points="61.669 106.814 92.504 53.407 30.835 53.407 61.669 106.814"/><polygon fill="#51e7f2" points="61.669 0 92.504 53.407 30.835 53.407 61.669 0"/></g></g><g><path fill="#fff" d="M216.5,80.045A35.63,35.63,0,0,1,213.677,91.2a26.628,26.628,0,0,1-6.27,8.839,28.281,28.281,0,0,1-9.8,5.817,39.254,39.254,0,0,1-13.357,2.089,33.213,33.213,0,0,1-13.7-2.738,29.294,29.294,0,0,1-10.449-7.794,35.239,35.239,0,0,1-6.635-12.227,52.243,52.243,0,0,1-2.316-16.1V62.424a51.186,51.186,0,0,1,2.372-16.068,35.42,35.42,0,0,1,6.778-12.283,29.974,29.974,0,0,1,10.645-7.85,34.119,34.119,0,0,1,13.978-2.768,36.862,36.862,0,0,1,12.99,2.118,27.747,27.747,0,0,1,9.572,5.873,27,27,0,0,1,6.156,8.952A38.376,38.376,0,0,1,216.5,51.75H202.269a32.045,32.045,0,0,0-1.554-7,14.907,14.907,0,0,0-3.134-5.281,12.979,12.979,0,0,0-5.14-3.3,22.089,22.089,0,0,0-7.511-1.129,18.655,18.655,0,0,0-8.5,1.835,16.253,16.253,0,0,0-6.072,5.309,24.866,24.866,0,0,0-3.642,8.556A49.956,49.956,0,0,0,165.5,62.311v6.777a53.637,53.637,0,0,0,1.073,11.182,26.355,26.355,0,0,0,3.332,8.613,15.959,15.959,0,0,0,5.818,5.563,17.3,17.3,0,0,0,8.527,1.976,24.742,24.742,0,0,0,7.822-1.073,13.337,13.337,0,0,0,5.281-3.162,14.388,14.388,0,0,0,3.248-5.14,30.937,30.937,0,0,0,1.666-7Z"/><path fill="#fff" d="M241.463,52.371a22.743,22.743,0,0,1,7.455-5.732,21.76,21.76,0,0,1,9.544-2.062A25.264,25.264,0,0,1,266.6,45.82a15.236,15.236,0,0,1,6.268,3.981,18.345,18.345,0,0,1,4.01,7.117,34.757,34.757,0,0,1,1.412,10.588v39.308H264.562V67.394q0-6.326-2.74-8.952t-8.048-2.626a13.345,13.345,0,0,0-7.37,1.977,14.606,14.606,0,0,0-4.941,5.365v43.656H227.739V20.067h13.724Z"/><path fill="#fff" d="M328.662,106.814a11.322,11.322,0,0,1-.931-2.541q-.369-1.469-.65-3.163a24.432,24.432,0,0,1-3.021,2.654,20.754,20.754,0,0,1-3.671,2.175,21.919,21.919,0,0,1-4.349,1.468,22.4,22.4,0,0,1-5,.536,24.668,24.668,0,0,1-8.414-1.383,19.712,19.712,0,0,1-6.58-3.841,17.776,17.776,0,0,1-4.292-5.788A16.888,16.888,0,0,1,290.2,89.7a19.441,19.441,0,0,1,1.863-8.7,16.842,16.842,0,0,1,5.422-6.326,25.991,25.991,0,0,1,8.726-3.868,47.47,47.47,0,0,1,11.775-1.327h8.641v-4.01a10.7,10.7,0,0,0-2.654-7.6q-2.657-2.852-8.077-2.852a14.06,14.06,0,0,0-4.405.649,10.72,10.72,0,0,0-3.36,1.75,7.767,7.767,0,0,0-2.146,2.627,7.226,7.226,0,0,0-.762,3.275H291.5a14.732,14.732,0,0,1,1.778-6.974,19.188,19.188,0,0,1,5.055-5.987,25.812,25.812,0,0,1,7.936-4.207,34.852,34.852,0,0,1,19.907-.255,21.4,21.4,0,0,1,7.512,3.954,17.811,17.811,0,0,1,4.913,6.551,22.364,22.364,0,0,1,1.751,9.178V92.7q0,8.247,2.315,13.159v.96Zm-15.079-9.883a15.309,15.309,0,0,0,4.434-.621,16,16,0,0,0,3.727-1.638,13.837,13.837,0,0,0,2.908-2.344,13.069,13.069,0,0,0,1.977-2.683V78.124h-7.4q-7.626,0-11.465,2.654a8.6,8.6,0,0,0-3.84,7.512,9.324,9.324,0,0,0,.621,3.445,7.38,7.38,0,0,0,1.863,2.739,8.773,8.773,0,0,0,3.022,1.807A12.088,12.088,0,0,0,313.583,96.931Z"/><path fill="#fff" d="M369.325,106.814H355.6V20.067h13.723Z"/><path fill="#fff" d="M398.862,106.814H385.139V20.067h13.723Z"/><path fill="#fff" d="M440.711,107.943a31.462,31.462,0,0,1-12.2-2.258,26.842,26.842,0,0,1-9.206-6.213,27.179,27.179,0,0,1-5.817-9.375,33.034,33.034,0,0,1-2.033-11.691V76.148A37.717,37.717,0,0,1,413.6,63.073a29.833,29.833,0,0,1,5.874-9.94,25.891,25.891,0,0,1,8.782-6.325,26.62,26.62,0,0,1,10.871-2.231,27.8,27.8,0,0,1,11.578,2.231,21.836,21.836,0,0,1,8.133,6.241,26.852,26.852,0,0,1,4.8,9.544,44.143,44.143,0,0,1,1.581,12.142v5.874H425.293a21.949,21.949,0,0,0,1.5,6.551,16.085,16.085,0,0,0,3.3,5.168,15.166,15.166,0,0,0,4.941,3.417,16.05,16.05,0,0,0,6.467,1.242,18.292,18.292,0,0,0,8.839-2.033,20.7,20.7,0,0,0,6.522-5.591l7.4,7.059a25.124,25.124,0,0,1-3.643,4.265,24.776,24.776,0,0,1-5.083,3.671,29.247,29.247,0,0,1-6.579,2.6A31.778,31.778,0,0,1,440.711,107.943ZM439.072,55.59a11.556,11.556,0,0,0-9.12,3.954q-3.472,3.953-4.433,11.012h26.148V69.54a25.014,25.014,0,0,0-.876-5.224,13.328,13.328,0,0,0-2.174-4.462,10.517,10.517,0,0,0-3.812-3.106A12.869,12.869,0,0,0,439.072,55.59Z"/><path fill="#fff" d="M488.6,45.707,489,52.766a22.41,22.41,0,0,1,7.737-6.043,23.144,23.144,0,0,1,10.053-2.146,24.823,24.823,0,0,1,7.991,1.215,14.749,14.749,0,0,1,6.128,3.924,18.247,18.247,0,0,1,3.925,7.06,35.153,35.153,0,0,1,1.384,10.561v39.477H512.492V67.224a17.48,17.48,0,0,0-.706-5.337,8.7,8.7,0,0,0-2.061-3.529,7.777,7.777,0,0,0-3.361-1.949,16.272,16.272,0,0,0-4.6-.593,13.242,13.242,0,0,0-7.37,2.033,14.792,14.792,0,0,0-5,5.478v43.487H475.669V45.707Z"/><path fill="#fff" d="M537.793,75.809A44.931,44.931,0,0,1,539.487,63.1a29.614,29.614,0,0,1,4.886-9.884,23.453,23.453,0,0,1,27.419-6.749,19.766,19.766,0,0,1,6.891,5.394l.621-6.156h12.368V105.12a27.878,27.878,0,0,1-2.033,10.956,22.483,22.483,0,0,1-5.676,8.076,24.724,24.724,0,0,1-8.754,5A34.96,34.96,0,0,1,564,130.873a34.314,34.314,0,0,1-11.916-2.287,30.732,30.732,0,0,1-6.043-3.135,19.406,19.406,0,0,1-4.913-4.687l6.494-8.246a20.632,20.632,0,0,0,7.37,5.761,20.237,20.237,0,0,0,8.218,1.75q6.833,0,10.787-3.7t3.953-10.871v-4.123a19.36,19.36,0,0,1-6.777,4.913,22.486,22.486,0,0,1-9.036,1.694,21.457,21.457,0,0,1-10.081-2.343,23.2,23.2,0,0,1-7.681-6.467,29.7,29.7,0,0,1-4.886-9.8A42.994,42.994,0,0,1,537.793,77ZM551.461,77a34.3,34.3,0,0,0,.818,7.652,19.477,19.477,0,0,0,2.571,6.3,13.021,13.021,0,0,0,4.4,4.264,12.418,12.418,0,0,0,6.382,1.553,13.443,13.443,0,0,0,7.568-1.948,14.769,14.769,0,0,0,4.744-5.168V62.763a13.941,13.941,0,0,0-4.772-5.083,13.712,13.712,0,0,0-7.427-1.864,12.559,12.559,0,0,0-6.438,1.582,12.868,12.868,0,0,0-4.433,4.292,20.31,20.31,0,0,0-2.57,6.353,34.209,34.209,0,0,0-.847,7.766Z"/><path fill="#fff" d="M632.674,107.943a31.462,31.462,0,0,1-12.2-2.258,26.842,26.842,0,0,1-9.206-6.213,27.179,27.179,0,0,1-5.817-9.375,33.034,33.034,0,0,1-2.033-11.691V76.148a37.741,37.741,0,0,1,2.145-13.075,29.852,29.852,0,0,1,5.875-9.94,25.891,25.891,0,0,1,8.782-6.325,26.62,26.62,0,0,1,10.871-2.231,27.8,27.8,0,0,1,11.578,2.231,21.836,21.836,0,0,1,8.133,6.241,26.852,26.852,0,0,1,4.8,9.544,44.143,44.143,0,0,1,1.581,12.142v5.874H617.256a21.888,21.888,0,0,0,1.5,6.551,16.085,16.085,0,0,0,3.3,5.168A15.166,15.166,0,0,0,627,95.745a16.046,16.046,0,0,0,6.467,1.242,18.292,18.292,0,0,0,8.839-2.033,20.7,20.7,0,0,0,6.522-5.591l7.4,7.059a25.124,25.124,0,0,1-3.643,4.265,24.776,24.776,0,0,1-5.083,3.671,29.247,29.247,0,0,1-6.579,2.6A31.778,31.778,0,0,1,632.674,107.943ZM631.035,55.59a11.556,11.556,0,0,0-9.12,3.954q-3.472,3.953-4.434,11.012H643.63V69.54a25.014,25.014,0,0,0-.876-5.224,13.328,13.328,0,0,0-2.174-4.462,10.517,10.517,0,0,0-3.812-3.106A12.869,12.869,0,0,0,631.035,55.59Z"/><path fill="#fff" d="M702.083,90.21a7.713,7.713,0,0,0-.48-2.739,5.61,5.61,0,0,0-1.892-2.372,15.2,15.2,0,0,0-3.981-2.061,46.3,46.3,0,0,0-6.693-1.807,59.414,59.414,0,0,1-8.952-2.542,27.587,27.587,0,0,1-6.918-3.7,16.044,16.044,0,0,1-4.49-5.111,13.872,13.872,0,0,1-1.61-6.777,15.956,15.956,0,0,1,1.638-7.088,17.628,17.628,0,0,1,4.716-5.9,23.548,23.548,0,0,1,7.455-4.038,30.178,30.178,0,0,1,9.8-1.5,32.718,32.718,0,0,1,10.25,1.5,23.376,23.376,0,0,1,7.709,4.123,17.622,17.622,0,0,1,6.5,13.865H701.405a9.008,9.008,0,0,0-.677-3.417,8.555,8.555,0,0,0-2.034-2.965,9.858,9.858,0,0,0-3.36-2.062,13.082,13.082,0,0,0-4.659-.762,14.157,14.157,0,0,0-4.519.649,10.063,10.063,0,0,0-3.19,1.7,6.661,6.661,0,0,0-1.893,2.428,7.027,7.027,0,0,0-.621,2.909,6.243,6.243,0,0,0,.565,2.711,5.5,5.5,0,0,0,2,2.146,16.584,16.584,0,0,0,3.869,1.778,56.9,56.9,0,0,0,6.1,1.61,72.165,72.165,0,0,1,9.516,2.655,26.892,26.892,0,0,1,7.116,3.727,15.094,15.094,0,0,1,4.434,5.2,15.511,15.511,0,0,1,1.524,7.116,16.011,16.011,0,0,1-1.75,7.455,17.2,17.2,0,0,1-5,5.845,24.24,24.24,0,0,1-7.822,3.812,35.7,35.7,0,0,1-10.166,1.355,32,32,0,0,1-11.1-1.778,25.441,25.441,0,0,1-8.1-4.66,19.417,19.417,0,0,1-4.942-6.522,17.686,17.686,0,0,1-1.666-7.427h13.328a10.491,10.491,0,0,0,1.3,4.744,9.5,9.5,0,0,0,2.88,3.106,12.1,12.1,0,0,0,3.953,1.723,19.059,19.059,0,0,0,4.519.536q5.421,0,8.245-2.061A6.379,6.379,0,0,0,702.083,90.21Z"/></g></g></svg>