<svg xmlns="http://www.w3.org/2000/svg" width="418.697" height="107.944" viewBox="0 0 418.697 107.944"><g><g><g><polygon fill="#479cdf" points="92.504 53.407 61.669 106.814 123.338 106.814 92.504 53.407"/><polygon fill="#479cdf" points="30.835 53.407 0 106.814 61.669 106.814 30.835 53.407"/><polygon fill="#479cdf" points="61.669 106.814 92.504 53.407 30.835 53.407 61.669 106.814"/><polygon fill="#479cdf" points="61.669 0 92.504 53.407 30.835 53.407 61.669 0"/></g><g><polygon fill="#479cdf" points="92.504 53.407 61.669 106.814 123.338 106.814 92.504 53.407"/><polygon fill="#e25456" points="30.835 53.407 0 106.814 61.669 106.814 30.835 53.407"/><polygon fill="#fff" points="61.669 106.814 92.504 53.407 30.835 53.407 61.669 106.814"/><polygon fill="#51e7f2" points="61.669 0 92.504 53.407 30.835 53.407 61.669 0"/></g></g><g><path fill="#fff" d="M162.746,106.814V24.585h25.3a39.576,39.576,0,0,1,15.221,2.852,34.262,34.262,0,0,1,11.86,8.02,36.7,36.7,0,0,1,7.709,12.4,44.561,44.561,0,0,1,2.767,16.039V67.62a44.725,44.725,0,0,1-2.74,16.011A35.914,35.914,0,0,1,215.129,96a34.443,34.443,0,0,1-11.945,7.991,40.273,40.273,0,0,1-15.305,2.824Zm16.943-68.506V93.2h8.19q10.052,0,15.305-6.635t5.252-18.948V63.78q0-12.538-5.2-19.005t-15.192-6.467Z"/><path fill="#fff" d="M264.969,107.944a33.17,33.17,0,0,1-12.736-2.316,28.159,28.159,0,0,1-9.544-6.325,27.105,27.105,0,0,1-5.987-9.4,32.084,32.084,0,0,1-2.061-11.55v-2.2a38.661,38.661,0,0,1,2.006-12.736,29.3,29.3,0,0,1,5.7-9.968,25.8,25.8,0,0,1,8.98-6.523,31.6,31.6,0,0,1,23.465-.169,23.243,23.243,0,0,1,8.443,6.1,25.947,25.947,0,0,1,5.14,9.46A41.329,41.329,0,0,1,290.1,74.623V81.57H251.189a16.947,16.947,0,0,0,1.609,5.421,14.028,14.028,0,0,0,3.106,4.151,13.684,13.684,0,0,0,4.434,2.682,15.991,15.991,0,0,0,5.7.961,20.229,20.229,0,0,0,8.245-1.666,16.617,16.617,0,0,0,6.5-5.168l8.02,8.98A24.251,24.251,0,0,1,285.131,101a24.885,24.885,0,0,1-5.195,3.53,30.633,30.633,0,0,1-6.75,2.485A34.111,34.111,0,0,1,264.969,107.944Zm-1.863-50.151a10.939,10.939,0,0,0-4.661.932,10.2,10.2,0,0,0-3.445,2.6,13.631,13.631,0,0,0-2.344,3.982,22.912,22.912,0,0,0-1.3,5.14h22.705v-1.3a16.577,16.577,0,0,0-.706-4.518,9.927,9.927,0,0,0-1.977-3.615,8.882,8.882,0,0,0-3.389-2.372A12.809,12.809,0,0,0,263.106,57.793Zm1.467-37.726h17.79L266.719,37.574H253.447Z"/><path fill="#fff" d="M303.316,106.814V57.68h-9.093V45.707h9.093V43.166a28.042,28.042,0,0,1,1.807-10.42,19.927,19.927,0,0,1,5.252-7.625,22.848,22.848,0,0,1,8.416-4.659,37.216,37.216,0,0,1,11.3-1.581,45.153,45.153,0,0,1,9.262.932q4.461.932,9.261,2.4l-2.371,13.5q-1.526-.452-3.163-.9T339.6,33.96a38.176,38.176,0,0,0-3.925-.621,42.917,42.917,0,0,0-4.575-.226q-5.7,0-8.556,2.541t-2.853,7.512v2.541h12.031V57.68H319.693v49.134Zm52.918,0H339.856V45.707h16.378Z"/><path fill="#fff" d="M402.826,89.928a5.47,5.47,0,0,0-.508-2.372,5.182,5.182,0,0,0-1.92-2,17.634,17.634,0,0,0-3.839-1.779,50.652,50.652,0,0,0-6.27-1.638,59.579,59.579,0,0,1-8.669-2.541,26.72,26.72,0,0,1-6.889-3.784,16.889,16.889,0,0,1-4.547-5.253,14.237,14.237,0,0,1-1.638-6.946,16.524,16.524,0,0,1,1.666-7.286,18.265,18.265,0,0,1,4.8-6.071,23.43,23.43,0,0,1,7.681-4.151,32.15,32.15,0,0,1,10.25-1.525,36.032,36.032,0,0,1,10.674,1.469,24.367,24.367,0,0,1,8.049,4.094,18.167,18.167,0,0,1,5.082,6.241,17.662,17.662,0,0,1,1.779,7.907H402.205a7.9,7.9,0,0,0-2.259-5.789q-2.259-2.288-7.059-2.287a9.768,9.768,0,0,0-6.381,1.863,5.882,5.882,0,0,0-2.26,4.744,4.757,4.757,0,0,0,.594,2.4,5.787,5.787,0,0,0,1.92,1.921,15.267,15.267,0,0,0,3.5,1.609,42.488,42.488,0,0,0,5.337,1.356,72.846,72.846,0,0,1,9.2,2.372,26.873,26.873,0,0,1,7.314,3.642,16.381,16.381,0,0,1,4.828,5.422,17.092,17.092,0,0,1-.056,15.192,17.485,17.485,0,0,1-5.167,5.9,25.951,25.951,0,0,1-8.1,3.9A37.2,37.2,0,0,1,393,107.944a32.79,32.79,0,0,1-11.352-1.808,26.08,26.08,0,0,1-8.273-4.744,19.733,19.733,0,0,1-5.055-6.607,17.5,17.5,0,0,1-1.695-7.4H382.1a9.438,9.438,0,0,0,1.045,4.095,8.017,8.017,0,0,0,2.457,2.8,10.6,10.6,0,0,0,3.529,1.581,17.056,17.056,0,0,0,4.208.508q4.686,0,7.088-1.779A5.537,5.537,0,0,0,402.826,89.928Z"/></g></g></svg>