<svg xmlns="http://www.w3.org/2000/svg" width="715.58" height="130.873" viewBox="0 0 715.58 130.873">
  <g>
    <g>
      <g>
        <polygon points="92.504 53.407 61.669 106.814 123.338 106.814 92.504 53.407" fill="#479cdf"/>
        <polygon points="30.835 53.407 0 106.814 61.669 106.814 30.835 53.407" fill="#479cdf"/>
        <polygon points="61.669 106.814 92.504 53.407 30.835 53.407 61.669 106.814" fill="#479cdf"/>
        <polygon points="61.669 0 92.504 53.407 30.835 53.407 61.669 0" fill="#479cdf"/>
      </g>
      <g>
        <polygon points="92.504 53.407 61.669 106.814 123.338 106.814 92.504 53.407" fill="#479cdf"/>
        <polygon points="30.835 53.407 0 106.814 61.669 106.814 30.835 53.407" fill="#e25456"/>
        <polygon points="61.669 106.814 92.504 53.407 30.835 53.407 61.669 106.814" fill="#fff"/>
        <polygon points="61.669 0 92.504 53.407 30.835 53.407 61.669 0" fill="#51e7f2"/>
      </g>
    </g>
    <g>
      <path d="M216.5,80.045A35.63,35.63,0,0,1,213.677,91.2a26.64,26.64,0,0,1-6.269,8.839,28.285,28.285,0,0,1-9.8,5.817,39.254,39.254,0,0,1-13.357,2.089,33.213,33.213,0,0,1-13.7-2.738,29.282,29.282,0,0,1-10.448-7.794,35.208,35.208,0,0,1-6.636-12.227,52.244,52.244,0,0,1-2.315-16.1V62.424a51.157,51.157,0,0,1,2.372-16.068,35.418,35.418,0,0,1,6.777-12.283,29.977,29.977,0,0,1,10.646-7.85,34.107,34.107,0,0,1,13.977-2.768,36.862,36.862,0,0,1,12.99,2.118,27.761,27.761,0,0,1,9.573,5.873,26.98,26.98,0,0,1,6.155,8.952A38.376,38.376,0,0,1,216.5,51.75H202.268a31.931,31.931,0,0,0-1.553-7,14.921,14.921,0,0,0-3.134-5.281,12.986,12.986,0,0,0-5.14-3.3,22.085,22.085,0,0,0-7.511-1.129,18.661,18.661,0,0,0-8.5,1.835,16.253,16.253,0,0,0-6.072,5.309,24.885,24.885,0,0,0-3.642,8.556A50.011,50.011,0,0,0,165.5,62.311v6.777a53.634,53.634,0,0,0,1.074,11.182,26.31,26.31,0,0,0,3.332,8.613,15.941,15.941,0,0,0,5.817,5.563,17.3,17.3,0,0,0,8.527,1.976,24.749,24.749,0,0,0,7.823-1.073,13.34,13.34,0,0,0,5.28-3.162,14.372,14.372,0,0,0,3.247-5.14,30.83,30.83,0,0,0,1.666-7Z" fill="#1f3269"/>
      <path d="M241.463,52.371a22.743,22.743,0,0,1,7.455-5.732,21.763,21.763,0,0,1,9.544-2.062A25.264,25.264,0,0,1,266.6,45.82a15.246,15.246,0,0,1,6.269,3.981,18.357,18.357,0,0,1,4.009,7.117,34.755,34.755,0,0,1,1.413,10.588v39.308H264.562V67.394q0-6.326-2.739-8.952t-8.048-2.626a13.341,13.341,0,0,0-7.37,1.977,14.6,14.6,0,0,0-4.942,5.365v43.656H227.739V20.067h13.724Z" fill="#1f3269"/>
      <path d="M328.662,106.814a11.42,11.42,0,0,1-.932-2.541q-.368-1.469-.649-3.163a24.37,24.37,0,0,1-3.022,2.654,20.709,20.709,0,0,1-3.67,2.175,21.941,21.941,0,0,1-4.349,1.468,22.4,22.4,0,0,1-5,.536,24.664,24.664,0,0,1-8.414-1.383,19.722,19.722,0,0,1-6.58-3.841,17.776,17.776,0,0,1-4.292-5.788A16.888,16.888,0,0,1,290.2,89.7a19.428,19.428,0,0,1,1.864-8.7,16.831,16.831,0,0,1,5.421-6.326,25.991,25.991,0,0,1,8.726-3.868,47.47,47.47,0,0,1,11.775-1.327h8.641v-4.01a10.7,10.7,0,0,0-2.654-7.6q-2.657-2.852-8.077-2.852a14.05,14.05,0,0,0-4.4.649,10.715,10.715,0,0,0-3.361,1.75,7.779,7.779,0,0,0-2.146,2.627,7.226,7.226,0,0,0-.762,3.275H291.5a14.722,14.722,0,0,1,1.779-6.974,19.171,19.171,0,0,1,5.054-5.987,25.807,25.807,0,0,1,7.935-4.207,34.856,34.856,0,0,1,19.908-.255,21.388,21.388,0,0,1,7.511,3.954,17.813,17.813,0,0,1,4.914,6.551,22.381,22.381,0,0,1,1.751,9.178V92.7q0,8.247,2.315,13.159v.96Zm-15.079-9.883a15.309,15.309,0,0,0,4.434-.621,16,16,0,0,0,3.727-1.638,13.812,13.812,0,0,0,2.908-2.344,13.069,13.069,0,0,0,1.977-2.683V78.124h-7.4q-7.624,0-11.465,2.654a8.6,8.6,0,0,0-3.84,7.512,9.324,9.324,0,0,0,.621,3.445,7.37,7.37,0,0,0,1.864,2.739,8.759,8.759,0,0,0,3.021,1.807A12.088,12.088,0,0,0,313.583,96.931Z" fill="#1f3269"/>
      <path d="M369.325,106.814H355.6V20.067h13.724Z" fill="#1f3269"/>
      <path d="M398.862,106.814H385.139V20.067h13.723Z" fill="#1f3269"/>
      <path d="M440.711,107.943a31.466,31.466,0,0,1-12.2-2.258,26.842,26.842,0,0,1-9.206-6.213,27.179,27.179,0,0,1-5.817-9.375,33.034,33.034,0,0,1-2.033-11.691V76.148A37.717,37.717,0,0,1,413.6,63.073a29.881,29.881,0,0,1,5.873-9.94,25.9,25.9,0,0,1,8.783-6.325,26.62,26.62,0,0,1,10.871-2.231,27.8,27.8,0,0,1,11.578,2.231,21.836,21.836,0,0,1,8.133,6.241,26.836,26.836,0,0,1,4.8,9.544,44.1,44.1,0,0,1,1.581,12.142v5.874H425.293a21.888,21.888,0,0,0,1.5,6.551,16.1,16.1,0,0,0,3.3,5.168,15.17,15.17,0,0,0,4.942,3.417,16.038,16.038,0,0,0,6.466,1.242,18.292,18.292,0,0,0,8.839-2.033,20.728,20.728,0,0,0,6.523-5.591l7.4,7.059a25.117,25.117,0,0,1-3.642,4.265,24.83,24.83,0,0,1-5.083,3.671,29.275,29.275,0,0,1-6.58,2.6A31.778,31.778,0,0,1,440.711,107.943ZM439.073,55.59a11.555,11.555,0,0,0-9.121,3.954q-3.472,3.953-4.434,11.012h26.149V69.54a25.014,25.014,0,0,0-.876-5.224,13.328,13.328,0,0,0-2.174-4.462,10.517,10.517,0,0,0-3.812-3.106A12.864,12.864,0,0,0,439.073,55.59Z" fill="#1f3269"/>
      <path d="M488.6,45.707l.4,7.059a22.41,22.41,0,0,1,7.737-6.043,23.144,23.144,0,0,1,10.053-2.146,24.823,24.823,0,0,1,7.991,1.215,14.749,14.749,0,0,1,6.128,3.924,18.247,18.247,0,0,1,3.925,7.06,35.153,35.153,0,0,1,1.384,10.561v39.477H512.492V67.224a17.48,17.48,0,0,0-.706-5.337,8.69,8.69,0,0,0-2.061-3.529,7.777,7.777,0,0,0-3.361-1.949,16.267,16.267,0,0,0-4.6-.593,13.242,13.242,0,0,0-7.37,2.033,14.792,14.792,0,0,0-5,5.478v43.487H475.669V45.707Z" fill="#1f3269"/>
      <path d="M537.793,75.809a44.894,44.894,0,0,1,1.7-12.707,29.632,29.632,0,0,1,4.885-9.884,23.453,23.453,0,0,1,27.419-6.749,19.766,19.766,0,0,1,6.891,5.394l.621-6.156h12.368V105.12a27.878,27.878,0,0,1-2.033,10.956,22.483,22.483,0,0,1-5.676,8.076,24.716,24.716,0,0,1-8.754,5A34.956,34.956,0,0,1,564,130.873a34.314,34.314,0,0,1-11.916-2.287,30.732,30.732,0,0,1-6.043-3.135,19.406,19.406,0,0,1-4.913-4.687l6.5-8.246a20.615,20.615,0,0,0,7.37,5.761,20.228,20.228,0,0,0,8.217,1.75q6.833,0,10.787-3.7t3.953-10.871v-4.123a19.351,19.351,0,0,1-6.777,4.913,22.489,22.489,0,0,1-9.036,1.694,21.457,21.457,0,0,1-10.081-2.343,23.191,23.191,0,0,1-7.681-6.467,29.72,29.72,0,0,1-4.885-9.8,42.959,42.959,0,0,1-1.7-12.34ZM551.461,77a34.244,34.244,0,0,0,.819,7.652,19.453,19.453,0,0,0,2.57,6.3,13.021,13.021,0,0,0,4.4,4.264,12.421,12.421,0,0,0,6.382,1.553,13.443,13.443,0,0,0,7.568-1.948,14.75,14.75,0,0,0,4.744-5.168V62.763a13.924,13.924,0,0,0-4.772-5.083,13.712,13.712,0,0,0-7.427-1.864,12.559,12.559,0,0,0-6.438,1.582,12.877,12.877,0,0,0-4.433,4.292,20.287,20.287,0,0,0-2.57,6.353,34.209,34.209,0,0,0-.847,7.766Z" fill="#1f3269"/>
      <path d="M632.674,107.943a31.466,31.466,0,0,1-12.2-2.258,26.842,26.842,0,0,1-9.206-6.213,27.179,27.179,0,0,1-5.817-9.375,33.034,33.034,0,0,1-2.033-11.691V76.148a37.717,37.717,0,0,1,2.146-13.075,29.881,29.881,0,0,1,5.873-9.94,25.9,25.9,0,0,1,8.783-6.325,26.62,26.62,0,0,1,10.871-2.231,27.8,27.8,0,0,1,11.577,2.231,21.82,21.82,0,0,1,8.133,6.241,26.821,26.821,0,0,1,4.8,9.544,44.1,44.1,0,0,1,1.581,12.142v5.874H617.256a21.888,21.888,0,0,0,1.5,6.551,16.085,16.085,0,0,0,3.3,5.168A15.176,15.176,0,0,0,627,95.745a16.046,16.046,0,0,0,6.467,1.242,18.285,18.285,0,0,0,8.838-2.033,20.72,20.72,0,0,0,6.524-5.591l7.4,7.059a24.972,24.972,0,0,1-8.726,7.936,29.229,29.229,0,0,1-6.579,2.6A31.778,31.778,0,0,1,632.674,107.943ZM631.036,55.59a11.554,11.554,0,0,0-9.121,3.954q-3.472,3.953-4.434,11.012H643.63V69.54a25.014,25.014,0,0,0-.876-5.224,13.328,13.328,0,0,0-2.174-4.462,10.526,10.526,0,0,0-3.812-3.106A12.867,12.867,0,0,0,631.036,55.59Z" fill="#1f3269"/>
      <path d="M702.083,90.21a7.713,7.713,0,0,0-.48-2.739A5.59,5.59,0,0,0,699.71,85.1a15.179,15.179,0,0,0-3.98-2.061,46.3,46.3,0,0,0-6.693-1.807,59.448,59.448,0,0,1-8.952-2.542,27.587,27.587,0,0,1-6.918-3.7,16.044,16.044,0,0,1-4.49-5.111,13.872,13.872,0,0,1-1.609-6.777,15.969,15.969,0,0,1,1.637-7.088,17.628,17.628,0,0,1,4.716-5.9,23.548,23.548,0,0,1,7.455-4.038,30.178,30.178,0,0,1,9.8-1.5,32.718,32.718,0,0,1,10.25,1.5,23.366,23.366,0,0,1,7.709,4.123,17.626,17.626,0,0,1,6.494,13.865H701.406a9.009,9.009,0,0,0-.678-3.417A8.552,8.552,0,0,0,698.7,57.68a9.877,9.877,0,0,0-3.362-2.062,13.068,13.068,0,0,0-4.658-.762,14.15,14.15,0,0,0-4.518.649,10.058,10.058,0,0,0-3.191,1.7,6.669,6.669,0,0,0-1.892,2.428,7.027,7.027,0,0,0-.621,2.909,6.229,6.229,0,0,0,.564,2.711,5.5,5.5,0,0,0,2,2.146,16.574,16.574,0,0,0,3.868,1.778,56.99,56.99,0,0,0,6.1,1.61,72.122,72.122,0,0,1,9.516,2.655,26.892,26.892,0,0,1,7.116,3.727,15.105,15.105,0,0,1,4.434,5.2,15.511,15.511,0,0,1,1.524,7.116,16,16,0,0,1-1.751,7.455,17.167,17.167,0,0,1-5,5.845,24.22,24.22,0,0,1-7.822,3.812,35.687,35.687,0,0,1-10.165,1.355,32,32,0,0,1-11.1-1.778,25.452,25.452,0,0,1-8.1-4.66,19.387,19.387,0,0,1-4.941-6.522,17.671,17.671,0,0,1-1.666-7.427h13.328a10.478,10.478,0,0,0,1.3,4.744,9.5,9.5,0,0,0,2.88,3.106,12.085,12.085,0,0,0,3.954,1.723,19.043,19.043,0,0,0,4.517.536q5.423,0,8.246-2.061A6.379,6.379,0,0,0,702.083,90.21Z" fill="#1f3269"/>
    </g>
  </g>
</svg>
