<svg xmlns="http://www.w3.org/2000/svg" width="405.131" height="107.943" viewBox="0 0 405.131 107.943"><g><g><g><polygon fill="#479cdf" points="92.504 53.407 61.669 106.814 123.338 106.814 92.504 53.407"/><polygon fill="#479cdf" points="30.835 53.407 0 106.814 61.669 106.814 30.835 53.407"/><polygon fill="#479cdf" points="61.669 106.814 92.504 53.407 30.835 53.407 61.669 106.814"/><polygon fill="#479cdf" points="61.669 0 92.504 53.407 30.835 53.407 61.669 0"/></g><g><polygon fill="#479cdf" points="92.504 53.407 61.669 106.814 123.338 106.814 92.504 53.407"/><polygon fill="#e25456" points="30.835 53.407 0 106.814 61.669 106.814 30.835 53.407"/><polygon fill="#fff" points="61.669 106.814 92.504 53.407 30.835 53.407 61.669 106.814"/><polygon fill="#51e7f2" points="61.669 0 92.504 53.407 30.835 53.407 61.669 0"/></g></g><g><path fill="#fff" d="M153.755,106.814V24.584H178.04a39.621,39.621,0,0,1,15.051,2.768,33.318,33.318,0,0,1,11.69,7.878,35.818,35.818,0,0,1,7.6,12.34,45.724,45.724,0,0,1,2.71,16.153v4.066a45.921,45.921,0,0,1-2.683,16.124A34.781,34.781,0,0,1,204.781,96.2a33.732,33.732,0,0,1-11.916,7.851,41.7,41.7,0,0,1-15.5,2.767Zm14.289-70.708v59.3h9.318a25.714,25.714,0,0,0,10.222-1.892,18.917,18.917,0,0,0,7.314-5.45,23.948,23.948,0,0,0,4.377-8.7,42.142,42.142,0,0,0,1.468-11.578V63.61q0-13.386-5.816-20.445T178.04,36.106Z"/><path fill="#fff" d="M254.9,107.943a31.466,31.466,0,0,1-12.2-2.258,26.861,26.861,0,0,1-9.206-6.213,27.186,27.186,0,0,1-5.816-9.375,33.02,33.02,0,0,1-2.034-11.691V76.147A37.715,37.715,0,0,1,227.8,63.073a29.866,29.866,0,0,1,5.874-9.94,25.891,25.891,0,0,1,8.782-6.325,26.62,26.62,0,0,1,10.871-2.231A27.8,27.8,0,0,1,264.9,46.808a21.81,21.81,0,0,1,8.133,6.241,26.836,26.836,0,0,1,4.8,9.544,44.1,44.1,0,0,1,1.581,12.142v5.874H239.486a21.949,21.949,0,0,0,1.5,6.551,16.1,16.1,0,0,0,3.3,5.168,15.17,15.17,0,0,0,4.942,3.417,16.041,16.041,0,0,0,6.466,1.242,18.292,18.292,0,0,0,8.839-2.033,20.717,20.717,0,0,0,6.523-5.591l7.4,7.059a25.066,25.066,0,0,1-3.642,4.264,24.755,24.755,0,0,1-5.083,3.671,29.21,29.21,0,0,1-6.58,2.6A31.778,31.778,0,0,1,254.9,107.943ZM253.266,55.59a11.556,11.556,0,0,0-9.12,3.953q-3.474,3.954-4.434,11.013H265.86V69.539a25.026,25.026,0,0,0-.876-5.224,13.331,13.331,0,0,0-2.173-4.461A10.521,10.521,0,0,0,259,56.748,12.85,12.85,0,0,0,253.266,55.59Zm3.106-35.524h15.645L256.372,37.179H245.359Z"/><path fill="#fff" d="M293.7,106.814V55.872h-9.318V45.706H293.7v-3.84a26.571,26.571,0,0,1,1.694-9.855,19.509,19.509,0,0,1,4.857-7.2,20.578,20.578,0,0,1,7.766-4.433,33.449,33.449,0,0,1,10.363-1.5,38.358,38.358,0,0,1,8.669.961q4.15.96,8.613,2.428l-2.09,11.352q-2.766-.96-6.3-1.836a33.056,33.056,0,0,0-7.935-.875q-6.269,0-9.092,2.739t-2.824,8.217v3.84h12.029V55.872H307.427v50.942Zm48.456,0H328.436V45.706h13.723Z"/><path fill="#fff" d="M391.633,90.21a7.686,7.686,0,0,0-.48-2.739,5.6,5.6,0,0,0-1.892-2.372,15.212,15.212,0,0,0-3.982-2.061,46.362,46.362,0,0,0-6.692-1.808,59.436,59.436,0,0,1-8.951-2.541,27.626,27.626,0,0,1-6.919-3.7,16.054,16.054,0,0,1-4.489-5.112,13.858,13.858,0,0,1-1.61-6.777,15.955,15.955,0,0,1,1.638-7.087,17.616,17.616,0,0,1,4.716-5.9,23.512,23.512,0,0,1,7.454-4.038,30.182,30.182,0,0,1,9.8-1.5,32.729,32.729,0,0,1,10.251,1.5,23.376,23.376,0,0,1,7.709,4.123,17.626,17.626,0,0,1,6.494,13.864H390.955a8.978,8.978,0,0,0-.678-3.417,8.521,8.521,0,0,0-2.033-2.964,9.833,9.833,0,0,0-3.36-2.062,13.078,13.078,0,0,0-4.659-.762,14.146,14.146,0,0,0-4.518.649,10.018,10.018,0,0,0-3.191,1.7,6.669,6.669,0,0,0-1.892,2.428A7.011,7.011,0,0,0,370,62.537a6.221,6.221,0,0,0,.564,2.71,5.491,5.491,0,0,0,2,2.146,16.572,16.572,0,0,0,3.868,1.779,57.118,57.118,0,0,0,6.1,1.61,72.343,72.343,0,0,1,9.517,2.654,26.953,26.953,0,0,1,7.116,3.728,15.1,15.1,0,0,1,4.433,5.2,15.511,15.511,0,0,1,1.525,7.116,16.005,16.005,0,0,1-1.751,7.455,17.187,17.187,0,0,1-5,5.845,24.24,24.24,0,0,1-7.822,3.812,35.7,35.7,0,0,1-10.165,1.355,31.969,31.969,0,0,1-11.1-1.779,25.434,25.434,0,0,1-8.105-4.659,19.381,19.381,0,0,1-4.941-6.523,17.678,17.678,0,0,1-1.666-7.426h13.328a10.482,10.482,0,0,0,1.3,4.744,9.52,9.52,0,0,0,2.88,3.106,12.072,12.072,0,0,0,3.954,1.722,19,19,0,0,0,4.518.537q5.421,0,8.246-2.062A6.381,6.381,0,0,0,391.633,90.21Z"/></g></g></svg>