<svg xmlns="http://www.w3.org/2000/svg" width="418.697" height="107.944" viewBox="0 0 418.697 107.944"><g><g><g><polygon fill="#479cdf" points="92.504 53.407 61.669 106.814 123.338 106.814 92.504 53.407"/><polygon fill="#479cdf" points="30.835 53.407 0 106.814 61.669 106.814 30.835 53.407"/><polygon fill="#479cdf" points="61.669 106.814 92.504 53.407 30.835 53.407 61.669 106.814"/><polygon fill="#479cdf" points="61.669 0 92.504 53.407 30.835 53.407 61.669 0"/></g><g><polygon fill="#479cdf" points="92.504 53.407 61.669 106.814 123.338 106.814 92.504 53.407"/><polygon fill="#e25456" points="30.835 53.407 0 106.814 61.669 106.814 30.835 53.407"/><polygon fill="#fff" points="61.669 106.814 92.504 53.407 30.835 53.407 61.669 106.814"/><polygon fill="#51e7f2" points="61.669 0 92.504 53.407 30.835 53.407 61.669 0"/></g></g><g><path fill="#1f3269" d="M162.746,106.814V24.585h25.3a39.576,39.576,0,0,1,15.221,2.852,34.258,34.258,0,0,1,11.859,8.02,36.648,36.648,0,0,1,7.709,12.4,44.54,44.54,0,0,1,2.768,16.039V67.62a44.725,44.725,0,0,1-2.739,16.011A35.934,35.934,0,0,1,215.128,96a34.43,34.43,0,0,1-11.944,7.991,40.271,40.271,0,0,1-15.306,2.824ZM179.69,38.308V93.2h8.188q10.053,0,15.306-6.635t5.252-18.948V63.78q0-12.538-5.195-19.005t-15.193-6.467Z"/><path fill="#1f3269" d="M264.969,107.944a33.162,33.162,0,0,1-12.735-2.316,28.163,28.163,0,0,1-9.545-6.325,27.117,27.117,0,0,1-5.986-9.4,32.063,32.063,0,0,1-2.062-11.55v-2.2a38.688,38.688,0,0,1,2-12.736,29.322,29.322,0,0,1,5.7-9.968,25.818,25.818,0,0,1,8.979-6.523,31.6,31.6,0,0,1,23.466-.169,23.273,23.273,0,0,1,8.444,6.1,25.96,25.96,0,0,1,5.139,9.46A41.3,41.3,0,0,1,290.1,74.623V81.57H251.189a16.972,16.972,0,0,0,1.609,5.421,14.031,14.031,0,0,0,3.107,4.151,13.658,13.658,0,0,0,4.433,2.682,16,16,0,0,0,5.7.961,20.237,20.237,0,0,0,8.246-1.666,16.631,16.631,0,0,0,6.5-5.168l8.019,8.98A24.251,24.251,0,0,1,285.131,101a24.84,24.84,0,0,1-5.2,3.53,30.587,30.587,0,0,1-6.749,2.485A34.1,34.1,0,0,1,264.969,107.944Zm-1.864-50.151a10.933,10.933,0,0,0-4.659.932,10.191,10.191,0,0,0-3.446,2.6,13.585,13.585,0,0,0-2.343,3.982,22.752,22.752,0,0,0-1.3,5.14h22.7v-1.3a16.5,16.5,0,0,0-.706-4.518,9.941,9.941,0,0,0-1.977-3.615,8.878,8.878,0,0,0-3.388-2.372A12.812,12.812,0,0,0,263.105,57.793Zm1.469-37.726h17.79L266.719,37.574H253.448Z"/><path fill="#1f3269" d="M303.316,106.814V57.68h-9.093V45.707h9.093V43.166a28.042,28.042,0,0,1,1.807-10.42,19.938,19.938,0,0,1,5.252-7.625,22.844,22.844,0,0,1,8.415-4.659,37.221,37.221,0,0,1,11.295-1.581,45.149,45.149,0,0,1,9.263.932q4.461.932,9.262,2.4l-2.372,13.5q-1.526-.452-3.162-.9T339.6,33.96a38.133,38.133,0,0,0-3.925-.621,42.9,42.9,0,0,0-4.575-.226q-5.7,0-8.556,2.541t-2.852,7.512v2.541h12.03V57.68h-12.03v49.134Zm52.919,0H339.856V45.707h16.379Z"/><path fill="#1f3269" d="M402.827,89.928a5.47,5.47,0,0,0-.508-2.372,5.2,5.2,0,0,0-1.92-2,17.678,17.678,0,0,0-3.841-1.779,50.63,50.63,0,0,0-6.269-1.638,59.529,59.529,0,0,1-8.668-2.541,26.734,26.734,0,0,1-6.891-3.784,16.885,16.885,0,0,1-4.546-5.253,14.226,14.226,0,0,1-1.638-6.946,16.524,16.524,0,0,1,1.666-7.286,18.265,18.265,0,0,1,4.8-6.071,23.43,23.43,0,0,1,7.681-4.151,32.147,32.147,0,0,1,10.251-1.525,36.046,36.046,0,0,1,10.674,1.469,24.346,24.346,0,0,1,8.047,4.094,18.158,18.158,0,0,1,5.083,6.241,17.663,17.663,0,0,1,1.78,7.907H402.205a7.9,7.9,0,0,0-2.258-5.789q-2.259-2.288-7.06-2.287a9.771,9.771,0,0,0-6.382,1.863,5.884,5.884,0,0,0-2.259,4.744,4.777,4.777,0,0,0,.593,2.4,5.816,5.816,0,0,0,1.92,1.921,15.3,15.3,0,0,0,3.5,1.609,42.533,42.533,0,0,0,5.337,1.356,72.8,72.8,0,0,1,9.2,2.372,26.879,26.879,0,0,1,7.315,3.642,16.392,16.392,0,0,1,4.828,5.422,17.1,17.1,0,0,1-.057,15.192,17.485,17.485,0,0,1-5.167,5.9,25.934,25.934,0,0,1-8.1,3.9A37.227,37.227,0,0,1,393,107.944a32.78,32.78,0,0,1-11.351-1.808,26.091,26.091,0,0,1-8.275-4.744,19.756,19.756,0,0,1-5.054-6.607,17.519,17.519,0,0,1-1.695-7.4H382.1a9.452,9.452,0,0,0,1.045,4.095,8.017,8.017,0,0,0,2.457,2.8,10.6,10.6,0,0,0,3.529,1.581,17.056,17.056,0,0,0,4.208.508q4.686,0,7.088-1.779A5.535,5.535,0,0,0,402.827,89.928Z"/></g></g></svg>