<svg xmlns="http://www.w3.org/2000/svg" width="405.131" height="107.943" viewBox="0 0 405.131 107.943">
  <g>
    <g>
      <g>
        <polygon points="92.504 53.407 61.669 106.814 123.338 106.814 92.504 53.407" fill="#479cdf"/>
        <polygon points="30.835 53.407 0 106.814 61.669 106.814 30.835 53.407" fill="#479cdf"/>
        <polygon points="61.669 106.814 92.504 53.407 30.835 53.407 61.669 106.814" fill="#479cdf"/>
        <polygon points="61.669 0 92.504 53.407 30.835 53.407 61.669 0" fill="#479cdf"/>
      </g>
      <g>
        <polygon points="92.504 53.407 61.669 106.814 123.338 106.814 92.504 53.407" fill="#479cdf"/>
        <polygon points="30.835 53.407 0 106.814 61.669 106.814 30.835 53.407" fill="#e25456"/>
        <polygon points="61.669 106.814 92.504 53.407 30.835 53.407 61.669 106.814" fill="#fff"/>
        <polygon points="61.669 0 92.504 53.407 30.835 53.407 61.669 0" fill="#51e7f2"/>
      </g>
    </g>
    <g>
      <path d="M153.755,106.814V24.584H178.04a39.621,39.621,0,0,1,15.051,2.768,33.331,33.331,0,0,1,11.691,7.878,35.831,35.831,0,0,1,7.6,12.34,45.724,45.724,0,0,1,2.71,16.153v4.066a45.921,45.921,0,0,1-2.682,16.124A34.8,34.8,0,0,1,204.782,96.2a33.736,33.736,0,0,1-11.917,7.851,41.7,41.7,0,0,1-15.5,2.767Zm14.289-70.708v59.3h9.318a25.707,25.707,0,0,0,10.222-1.892,18.924,18.924,0,0,0,7.314-5.45,23.948,23.948,0,0,0,4.377-8.7,42.141,42.141,0,0,0,1.469-11.578V63.61q0-13.386-5.817-20.445T178.04,36.106Z" fill="#1f3269"/>
      <path d="M254.9,107.943a31.469,31.469,0,0,1-12.2-2.258,26.851,26.851,0,0,1-9.206-6.213,27.171,27.171,0,0,1-5.816-9.375,33.02,33.02,0,0,1-2.034-11.691V76.147A37.715,37.715,0,0,1,227.8,63.073a29.866,29.866,0,0,1,5.874-9.94,25.9,25.9,0,0,1,8.782-6.325,26.622,26.622,0,0,1,10.872-2.231A27.8,27.8,0,0,1,264.9,46.808a21.81,21.81,0,0,1,8.133,6.241,26.819,26.819,0,0,1,4.8,9.544,44.1,44.1,0,0,1,1.581,12.142v5.874H239.486a21.919,21.919,0,0,0,1.5,6.551,16.068,16.068,0,0,0,3.3,5.168,15.166,15.166,0,0,0,4.941,3.417,16.046,16.046,0,0,0,6.467,1.242,18.288,18.288,0,0,0,8.838-2.033,20.706,20.706,0,0,0,6.523-5.591l7.4,7.059a25.066,25.066,0,0,1-3.642,4.264,24.755,24.755,0,0,1-5.083,3.671,29.21,29.21,0,0,1-6.58,2.6A31.767,31.767,0,0,1,254.9,107.943ZM253.266,55.59a11.559,11.559,0,0,0-9.121,3.953q-3.472,3.954-4.433,11.013H265.86V69.539a25.09,25.09,0,0,0-.875-5.224,13.335,13.335,0,0,0-2.175-4.461A10.517,10.517,0,0,0,259,56.748,12.85,12.85,0,0,0,253.266,55.59Zm3.106-35.524h15.645L256.372,37.179H245.36Z" fill="#1f3269"/>
      <path d="M293.7,106.814V55.872h-9.318V45.706H293.7v-3.84a26.571,26.571,0,0,1,1.694-9.855,19.5,19.5,0,0,1,4.857-7.2,20.593,20.593,0,0,1,7.766-4.433,33.449,33.449,0,0,1,10.363-1.5,38.358,38.358,0,0,1,8.669.961q4.152.96,8.613,2.428l-2.089,11.352q-2.769-.96-6.3-1.836a33.056,33.056,0,0,0-7.935-.875q-6.269,0-9.092,2.739t-2.824,8.217v3.84h12.029V55.872H307.427v50.942Zm48.457,0H328.436V45.706H342.16Z" fill="#1f3269"/>
      <path d="M391.633,90.21a7.686,7.686,0,0,0-.48-2.739,5.589,5.589,0,0,0-1.892-2.372,15.187,15.187,0,0,0-3.981-2.061,46.38,46.38,0,0,0-6.693-1.808,59.4,59.4,0,0,1-8.951-2.541,27.626,27.626,0,0,1-6.919-3.7,16.07,16.07,0,0,1-4.49-5.112,13.869,13.869,0,0,1-1.609-6.777,15.955,15.955,0,0,1,1.638-7.087,17.616,17.616,0,0,1,4.716-5.9,23.512,23.512,0,0,1,7.454-4.038,30.182,30.182,0,0,1,9.8-1.5,32.718,32.718,0,0,1,10.25,1.5,23.356,23.356,0,0,1,7.709,4.123,17.622,17.622,0,0,1,6.495,13.864H390.955a9.015,9.015,0,0,0-.677-3.417,8.548,8.548,0,0,0-2.033-2.964,9.847,9.847,0,0,0-3.361-2.062,13.078,13.078,0,0,0-4.659-.762,14.15,14.15,0,0,0-4.518.649,10.018,10.018,0,0,0-3.191,1.7,6.669,6.669,0,0,0-1.892,2.428A7.011,7.011,0,0,0,370,62.537a6.235,6.235,0,0,0,.564,2.71,5.491,5.491,0,0,0,2,2.146,16.6,16.6,0,0,0,3.869,1.779,56.964,56.964,0,0,0,6.1,1.61,72.343,72.343,0,0,1,9.517,2.654,26.953,26.953,0,0,1,7.116,3.728,15.1,15.1,0,0,1,4.433,5.2,15.511,15.511,0,0,1,1.525,7.116,16.005,16.005,0,0,1-1.751,7.455,17.187,17.187,0,0,1-5,5.845,24.23,24.23,0,0,1-7.822,3.812,35.7,35.7,0,0,1-10.166,1.355,31.967,31.967,0,0,1-11.1-1.779,25.445,25.445,0,0,1-8.105-4.659,19.394,19.394,0,0,1-4.941-6.523,17.678,17.678,0,0,1-1.666-7.426h13.328a10.482,10.482,0,0,0,1.3,4.744,9.52,9.52,0,0,0,2.88,3.106,12.081,12.081,0,0,0,3.954,1.722,18.994,18.994,0,0,0,4.518.537q5.421,0,8.245-2.062A6.378,6.378,0,0,0,391.633,90.21Z" fill="#1f3269"/>
    </g>
  </g>
</svg>
