<svg xmlns="http://www.w3.org/2000/svg" width="730.22" height="130.873" viewBox="0 0 730.22 130.873">
  <g>
    <g>
      <g>
        <polygon points="92.504 53.407 61.669 106.814 123.338 106.814 92.504 53.407" fill="#479cdf"/>
        <polygon points="30.835 53.407 0 106.814 61.669 106.814 30.835 53.407" fill="#479cdf"/>
        <polygon points="61.669 106.814 92.504 53.407 30.835 53.407 61.669 106.814" fill="#479cdf"/>
        <polygon points="61.669 0 92.504 53.407 30.835 53.407 61.669 0" fill="#479cdf"/>
      </g>
      <g>
        <polygon points="92.504 53.407 61.669 106.814 123.338 106.814 92.504 53.407" fill="#479cdf"/>
        <polygon points="30.835 53.407 0 106.814 61.669 106.814 30.835 53.407" fill="#e25456"/>
        <polygon points="61.669 106.814 92.504 53.407 30.835 53.407 61.669 106.814" fill="#fff"/>
        <polygon points="61.669 0 92.504 53.407 30.835 53.407 61.669 0" fill="#51e7f2"/>
      </g>
    </g>
    <g>
      <path d="M227.3,79.423a33.639,33.639,0,0,1-2.824,11.521,26.751,26.751,0,0,1-6.551,9.008,30.018,30.018,0,0,1-10.137,5.874,40.451,40.451,0,0,1-13.583,2.117,35.282,35.282,0,0,1-14.2-2.738,29.042,29.042,0,0,1-10.674-7.879,35.78,35.78,0,0,1-6.72-12.453,53.6,53.6,0,0,1-2.344-16.406V63.045A52.13,52.13,0,0,1,162.69,46.61a36.3,36.3,0,0,1,6.863-12.481,29.783,29.783,0,0,1,10.758-7.906,34.858,34.858,0,0,1,14.119-2.768,39.2,39.2,0,0,1,13.582,2.174,29.221,29.221,0,0,1,10.025,6.043,27.478,27.478,0,0,1,6.438,9.206,38.535,38.535,0,0,1,2.937,11.606H210.469a25.714,25.714,0,0,0-1.271-6.5,12.74,12.74,0,0,0-2.852-4.744,11.809,11.809,0,0,0-4.8-2.909,22.486,22.486,0,0,0-7.116-.988q-8.585,0-12.791,6.241t-4.208,19.343v5.535a59.28,59.28,0,0,0,.931,11.182,23.6,23.6,0,0,0,2.937,8.019,12.9,12.9,0,0,0,5.2,4.829,16.954,16.954,0,0,0,7.709,1.61,23.429,23.429,0,0,0,6.918-.9A11.739,11.739,0,0,0,209,85.861a22.592,22.592,0,0,0,1.356-6.438Z" fill="#fff"/>
      <path d="M253.278,52.371a22.2,22.2,0,0,1,7.144-5.732,20.126,20.126,0,0,1,9.178-2.062,25.443,25.443,0,0,1,8.246,1.271,15.354,15.354,0,0,1,6.381,4.123,19.2,19.2,0,0,1,4.1,7.37,36.411,36.411,0,0,1,1.44,10.956v38.517H273.439V68.184a15.968,15.968,0,0,0-.648-4.913A7.757,7.757,0,0,0,270.9,60.08a6.971,6.971,0,0,0-3.078-1.723,15.556,15.556,0,0,0-4.15-.508,12.417,12.417,0,0,0-6.382,1.5,11,11,0,0,0-4.01,4.038v43.43H236.957V20.066h16.321Z" fill="#fff"/>
      <path d="M337.484,106.814a18.151,18.151,0,0,1-1.638-5.478,21.292,21.292,0,0,1-6.24,4.687,19.991,19.991,0,0,1-9.178,1.92,24.345,24.345,0,0,1-8.217-1.355A20.352,20.352,0,0,1,305.6,102.8a17.37,17.37,0,0,1-4.377-5.789,17.072,17.072,0,0,1-1.582-7.37,19.571,19.571,0,0,1,1.779-8.528,16.642,16.642,0,0,1,5.338-6.325,25.625,25.625,0,0,1,8.838-3.953,49.675,49.675,0,0,1,12.283-1.356h7.285v-3.5a10.07,10.07,0,0,0-2.174-6.776q-2.173-2.543-6.861-2.542a9.725,9.725,0,0,0-6.467,1.977,6.717,6.717,0,0,0-2.344,5.421H301a16.15,16.15,0,0,1,1.836-7.511,18.81,18.81,0,0,1,5.225-6.212,26.224,26.224,0,0,1,8.188-4.208,34.763,34.763,0,0,1,10.731-1.553,34.064,34.064,0,0,1,9.827,1.356,22.22,22.22,0,0,1,7.793,4.038,18.381,18.381,0,0,1,5.111,6.72,22.545,22.545,0,0,1,1.836,9.4V91.961q0,2.6.17,4.659t.451,3.728a19.255,19.255,0,0,0,.734,2.993,17.7,17.7,0,0,0,1.073,2.513v.96Zm-13.5-11.352a13.993,13.993,0,0,0,7.06-1.835,11.37,11.37,0,0,0,2.456-1.892,10.235,10.235,0,0,0,1.666-2.2v-10.5h-6.721a19.724,19.724,0,0,0-5.59.7,10.863,10.863,0,0,0-3.9,1.977A7.888,7.888,0,0,0,316.7,84.7a9.466,9.466,0,0,0-.734,3.755,6.531,6.531,0,0,0,2.146,5.026A8.33,8.33,0,0,0,323.986,95.462Z" fill="#fff"/>
      <path d="M381.31,106.814H364.932V20.066H381.31Z" fill="#fff"/>
      <path d="M411.977,106.814H395.6V20.066h16.379Z" fill="#fff"/>
      <path d="M453.543,107.943a33.186,33.186,0,0,1-12.736-2.315,28.2,28.2,0,0,1-9.544-6.325,27.117,27.117,0,0,1-5.988-9.4,32.074,32.074,0,0,1-2.06-11.549v-2.2a38.686,38.686,0,0,1,2.005-12.735,29.305,29.305,0,0,1,5.7-9.968,25.809,25.809,0,0,1,8.979-6.523,31.608,31.608,0,0,1,23.466-.17,23.275,23.275,0,0,1,8.444,6.1,25.947,25.947,0,0,1,5.138,9.459,41.3,41.3,0,0,1,1.723,12.312v6.947H439.762a17.012,17.012,0,0,0,1.609,5.422,14.051,14.051,0,0,0,3.108,4.151,13.682,13.682,0,0,0,4.433,2.682,16.011,16.011,0,0,0,5.7.961,20.247,20.247,0,0,0,8.246-1.666,16.626,16.626,0,0,0,6.5-5.168l8.019,8.98a24.2,24.2,0,0,1-3.67,4.066,24.9,24.9,0,0,1-5.2,3.53,30.637,30.637,0,0,1-6.749,2.485A34.112,34.112,0,0,1,453.543,107.943Zm-1.864-50.151a10.929,10.929,0,0,0-4.659.933,10.178,10.178,0,0,0-3.446,2.6,13.563,13.563,0,0,0-2.343,3.982,22.757,22.757,0,0,0-1.3,5.139h22.7v-1.3a16.507,16.507,0,0,0-.7-4.518,9.937,9.937,0,0,0-1.977-3.614,8.89,8.89,0,0,0-3.389-2.372A12.81,12.81,0,0,0,451.679,57.792Z" fill="#fff"/>
      <path d="M502.959,45.706l.508,7.06a21.444,21.444,0,0,1,7.625-6.071,22.879,22.879,0,0,1,9.939-2.118,24.383,24.383,0,0,1,7.907,1.214,14.522,14.522,0,0,1,6.1,3.982A18.715,18.715,0,0,1,538.963,57a37.429,37.429,0,0,1,1.383,10.956v38.856H524.024V67.845a15.393,15.393,0,0,0-.649-4.857,7.11,7.11,0,0,0-1.892-3.049,7.2,7.2,0,0,0-3.049-1.61,16.4,16.4,0,0,0-4.18-.48,11.574,11.574,0,0,0-6.184,1.582,12.087,12.087,0,0,0-4.151,4.292v43.091H487.6V45.706Z" fill="#fff"/>
      <path d="M550.343,75.809A44.248,44.248,0,0,1,552.064,63.1a30.043,30.043,0,0,1,4.915-9.883,22.088,22.088,0,0,1,7.765-6.382,23.03,23.03,0,0,1,10.335-2.259,21.294,21.294,0,0,1,9.178,1.807,18.351,18.351,0,0,1,6.466,5.083l.677-5.761h14.8v59.018a27.275,27.275,0,0,1-2.146,11.126,23.1,23.1,0,0,1-6.014,8.217,26.016,26.016,0,0,1-9.262,5.083,39.136,39.136,0,0,1-11.945,1.723,34.855,34.855,0,0,1-12.226-2.316,31.09,31.09,0,0,1-5.846-2.993,18.969,18.969,0,0,1-4.688-4.292l7.229-9.94a21.362,21.362,0,0,0,6.58,5.026,18.458,18.458,0,0,0,8.217,1.807q6.5,0,10.109-3.473t3.614-9.855v-3.276a18.89,18.89,0,0,1-6.381,4.716,20.307,20.307,0,0,1-8.471,1.666,22.043,22.043,0,0,1-10.251-2.343,23.019,23.019,0,0,1-7.737-6.467,30.133,30.133,0,0,1-4.915-9.8A42.324,42.324,0,0,1,550.343,77ZM566.664,77a31.174,31.174,0,0,0,.734,6.946,17.33,17.33,0,0,0,2.288,5.619,11.668,11.668,0,0,0,3.9,3.784,10.746,10.746,0,0,0,5.564,1.384,13.207,13.207,0,0,0,6.522-1.468,10.768,10.768,0,0,0,4.151-4.123V63.44a10.977,10.977,0,0,0-4.151-4.151,12.968,12.968,0,0,0-6.41-1.44,10.743,10.743,0,0,0-5.563,1.384,11.85,11.85,0,0,0-3.924,3.812,17.731,17.731,0,0,0-2.344,5.7,31.065,31.065,0,0,0-.763,7.06Z" fill="#fff"/>
      <path d="M646.86,107.943a33.181,33.181,0,0,1-12.735-2.315A28.2,28.2,0,0,1,624.58,99.3a27.112,27.112,0,0,1-5.986-9.4,32.053,32.053,0,0,1-2.061-11.549v-2.2a38.712,38.712,0,0,1,2-12.735,29.307,29.307,0,0,1,5.7-9.968,25.8,25.8,0,0,1,8.979-6.523,31.611,31.611,0,0,1,23.467-.17,23.288,23.288,0,0,1,8.443,6.1,25.963,25.963,0,0,1,5.139,9.459,41.335,41.335,0,0,1,1.722,12.312v6.947H633.08a17.012,17.012,0,0,0,1.609,5.422,14.031,14.031,0,0,0,3.107,4.151,13.7,13.7,0,0,0,4.434,2.682,16.013,16.013,0,0,0,5.7.961,20.249,20.249,0,0,0,8.245-1.666,16.633,16.633,0,0,0,6.5-5.168l8.019,8.98A24.251,24.251,0,0,1,667.022,101a24.852,24.852,0,0,1-5.2,3.53,30.647,30.647,0,0,1-6.748,2.485A34.121,34.121,0,0,1,646.86,107.943ZM645,57.792a10.931,10.931,0,0,0-4.658.933,10.155,10.155,0,0,0-3.445,2.6,13.543,13.543,0,0,0-2.344,3.982,22.7,22.7,0,0,0-1.3,5.139h22.7v-1.3a16.469,16.469,0,0,0-.706-4.518,9.935,9.935,0,0,0-1.976-3.614,8.89,8.89,0,0,0-3.389-2.372A12.812,12.812,0,0,0,645,57.792Z" fill="#fff"/>
      <path d="M714.35,89.928a5.481,5.481,0,0,0-.508-2.372,5.212,5.212,0,0,0-1.92-2,17.653,17.653,0,0,0-3.841-1.78,50.9,50.9,0,0,0-6.268-1.637,59.431,59.431,0,0,1-8.67-2.542,26.7,26.7,0,0,1-6.89-3.783,16.9,16.9,0,0,1-4.546-5.253,14.226,14.226,0,0,1-1.639-6.946,16.524,16.524,0,0,1,1.666-7.286,18.258,18.258,0,0,1,4.8-6.071,23.411,23.411,0,0,1,7.681-4.151,32.119,32.119,0,0,1,10.251-1.525,36.075,36.075,0,0,1,10.674,1.468,24.392,24.392,0,0,1,8.048,4.095,18.181,18.181,0,0,1,5.083,6.241,17.673,17.673,0,0,1,1.779,7.907H713.729a7.9,7.9,0,0,0-2.26-5.79q-2.259-2.286-7.059-2.287a9.763,9.763,0,0,0-6.382,1.864,5.882,5.882,0,0,0-2.258,4.744,4.777,4.777,0,0,0,.592,2.4,5.825,5.825,0,0,0,1.92,1.921,15.287,15.287,0,0,0,3.5,1.609,42.569,42.569,0,0,0,5.338,1.355,73.188,73.188,0,0,1,9.205,2.372,26.881,26.881,0,0,1,7.315,3.643,16.414,16.414,0,0,1,4.828,5.422,17.1,17.1,0,0,1-.057,15.192,17.487,17.487,0,0,1-5.168,5.9,25.939,25.939,0,0,1-8.1,3.9,37.218,37.218,0,0,1-10.618,1.411,32.785,32.785,0,0,1-11.351-1.807,26.091,26.091,0,0,1-8.275-4.744,19.753,19.753,0,0,1-5.054-6.607,17.507,17.507,0,0,1-1.695-7.4h15.475a9.437,9.437,0,0,0,1.045,4.094,8.007,8.007,0,0,0,2.457,2.8,10.569,10.569,0,0,0,3.529,1.581,17.054,17.054,0,0,0,4.207.509q4.688,0,7.088-1.779A5.536,5.536,0,0,0,714.35,89.928Z" fill="#fff"/>
    </g>
  </g>
</svg>
