<svg xmlns="http://www.w3.org/2000/svg" xmlns:xlink="http://www.w3.org/1999/xlink" viewBox="0 0 161.79 48.22"><defs><style>.cls-1{fill:none}.cls-2{clip-path:url(#clip-path)}.cls-3{fill:#cf3732}.cls-4{fill:#e8903d}.cls-5{fill:#f9eb50}.cls-6{fill:#3a7f47}.cls-7{fill:#445ea5}.cls-8{fill:#67307e}.cls-9{fill:#fff}</style><clipPath id="clip-path"><path d="M36.3,30.45H28.76A19.67,19.67,0,0,0,16.57,18.26V10.72A19.73,19.73,0,0,1,36.3,30.45ZM16.57,20.07a17.79,17.79,0,0,0-6.34-1.16V36.79H28.11A17.79,17.79,0,0,0,27,30.45,17.92,17.92,0,0,0,16.57,20.07Z" class="cls-1"/></clipPath></defs><title>impact-canada-pride-logo</title><g id="Layer_2" data-name="Layer 2"><g id="Layer_1-2" data-name="Layer 1"><g class="cls-2"><path d="M36.33,5.67C25.12,4.86,13.91,26.1,2.7,18.15q-.58-3.25-1.17-6.61C12.74,21.59,24,.67,35.16,0Q35.74,2.79,36.33,5.67Z" class="cls-3"/><path d="M37.51,11.5c-11.21-2.41-22.42,19-33.64,13q-.58-3.15-1.17-6.39c11.21,8,22.42-13.29,33.63-12.48C36.72,7.59,37.12,9.53,37.51,11.5Z" class="cls-4"/><path d="M38.68,17.51C27.47,13.37,16.26,34.86,5.05,30.73c-.39-2-.78-4.1-1.18-6.19,11.22,6,22.43-15.45,33.64-13Q38.1,14.46,38.68,17.51Z" class="cls-5"/><path d="M39.89,23.72c-11.21-6-22.42,15.37-33.63,13q-.58-3-1.18-6C16.3,34.82,27.51,13.33,38.72,17.52Q39.31,20.57,39.89,23.72Z" class="cls-6"/><path d="M41,30.09c-11.21-8-22.42,13.28-33.63,12.48-.39-1.92-.79-3.86-1.18-5.83,11.21,2.4,22.42-19,33.64-13Q40.45,26.85,41,30.09Z" class="cls-7"/><path d="M42.2,36.68C31,26.63,19.78,47.55,8.57,48.22L7.39,42.55C18.6,43.36,29.82,22.12,41,30.07Q41.62,33.33,42.2,36.68Z" class="cls-8"/></g><path d="M124.66,32.67a1.33,1.33,0,0,0,.45-.07,1.1,1.1,0,0,0,.35-.2.9.9,0,0,0,.23-.31,1.3,1.3,0,0,0,.09-.41h1.66a2.17,2.17,0,0,1-.22,1,2.56,2.56,0,0,1-.58.77,2.87,2.87,0,0,1-.87.5,3.22,3.22,0,0,1-1.08.18,3.37,3.37,0,0,1-1.36-.26,2.89,2.89,0,0,1-1-.72,3.18,3.18,0,0,1-.57-1.06,4.34,4.34,0,0,1-.19-1.32v-.18a4.34,4.34,0,0,1,.19-1.32,3.14,3.14,0,0,1,.57-1.07,2.89,2.89,0,0,1,1-.72,3.27,3.27,0,0,1,1.34-.26,3.35,3.35,0,0,1,1.13.18,2.39,2.39,0,0,1,1.44,1.34,2.92,2.92,0,0,1,.2,1.08h-1.66a1.63,1.63,0,0,0-.09-.45,1.23,1.23,0,0,0-.21-.37,1.36,1.36,0,0,0-.36-.25,1.21,1.21,0,0,0-.48-.09,1.11,1.11,0,0,0-.63.16,1.13,1.13,0,0,0-.38.43,1.67,1.67,0,0,0-.19.62,5.55,5.55,0,0,0,0,.72v.18a5.84,5.84,0,0,0,0,.73,1.62,1.62,0,0,0,.19.61,1.13,1.13,0,0,0,.38.43A1.23,1.23,0,0,0,124.66,32.67Z" class="cls-9"/><path d="M132.32,34a2.16,2.16,0,0,1-.18-.59,2.38,2.38,0,0,1-.68.51,2.17,2.17,0,0,1-1,.21,2.66,2.66,0,0,1-.9-.15,2.54,2.54,0,0,1-.72-.41,1.93,1.93,0,0,1-.47-.63,1.84,1.84,0,0,1-.17-.81,2.12,2.12,0,0,1,.19-.93,1.82,1.82,0,0,1,.58-.69,3,3,0,0,1,1-.43,5.41,5.41,0,0,1,1.34-.14h.8v-.39a1.07,1.07,0,0,0-.24-.73.92.92,0,0,0-.75-.28,1.06,1.06,0,0,0-.7.21.74.74,0,0,0-.26.59h-1.78a1.76,1.76,0,0,1,.2-.81,2.18,2.18,0,0,1,.57-.68,3,3,0,0,1,.89-.46,3.89,3.89,0,0,1,1.17-.17,3.59,3.59,0,0,1,1.07.15,2.29,2.29,0,0,1,.85.44,1.93,1.93,0,0,1,.56.73,2.52,2.52,0,0,1,.2,1v2.81c0,.19,0,.36,0,.51s0,.29,0,.41a2.66,2.66,0,0,0,.08.33,1.59,1.59,0,0,0,.12.27V34Zm-1.47-1.23a1.42,1.42,0,0,0,.42-.06,1.83,1.83,0,0,0,.35-.14,1.09,1.09,0,0,0,.26-.21,1.33,1.33,0,0,0,.19-.24V31h-.74a2.27,2.27,0,0,0-.61.07,1.19,1.19,0,0,0-.42.22,1,1,0,0,0-.25.32A1.15,1.15,0,0,0,130,32a.71.71,0,0,0,.24.55A.92.92,0,0,0,130.85,32.75Z" class="cls-9"/><path d="M136.85,27.32l.06.77a2.36,2.36,0,0,1,1.91-.89,2.94,2.94,0,0,1,.87.13,1.63,1.63,0,0,1,.66.44,2.05,2.05,0,0,1,.43.79,4.06,4.06,0,0,1,.15,1.19V34h-1.78V29.74a1.58,1.58,0,0,0-.07-.53.78.78,0,0,0-.21-.33.67.67,0,0,0-.33-.18,2,2,0,0,0-.45-.05,1.32,1.32,0,0,0-.68.17,1.2,1.2,0,0,0-.45.47V34h-1.78V27.32Z" class="cls-9"/><path d="M146.14,34a1.64,1.64,0,0,1-.18-.59,2.38,2.38,0,0,1-.68.51,2.2,2.2,0,0,1-1,.21,2.66,2.66,0,0,1-.9-.15,2.3,2.3,0,0,1-.72-.41,2.11,2.11,0,0,1-.48-.63,2,2,0,0,1-.17-.81,2.12,2.12,0,0,1,.2-.93,1.74,1.74,0,0,1,.58-.69,3,3,0,0,1,1-.43,5.35,5.35,0,0,1,1.34-.14h.79v-.39a1.12,1.12,0,0,0-.23-.73.92.92,0,0,0-.75-.28,1.09,1.09,0,0,0-.71.21.74.74,0,0,0-.25.59h-1.78a1.76,1.76,0,0,1,.2-.81,1.94,1.94,0,0,1,.57-.68,2.88,2.88,0,0,1,.89-.46A3.89,3.89,0,0,1,145,27.2a3.64,3.64,0,0,1,1.07.15,2.37,2.37,0,0,1,.85.44,2,2,0,0,1,.56.73,2.52,2.52,0,0,1,.2,1v2.81a4,4,0,0,0,0,.51c0,.15,0,.29.05.41a1.59,1.59,0,0,0,.08.33c0,.09.07.18.11.27V34Zm-1.48-1.23a1.44,1.44,0,0,0,.43-.06,1.51,1.51,0,0,0,.34-.14,1,1,0,0,0,.27-.21.94.94,0,0,0,.18-.24V31h-.73a2.22,2.22,0,0,0-.61.07,1.19,1.19,0,0,0-.42.22.85.85,0,0,0-.25.32,1.15,1.15,0,0,0-.08.41.73.73,0,0,0,.23.55A.94.94,0,0,0,144.66,32.75Z" class="cls-9"/><path d="M148.76,30.6a5.43,5.43,0,0,1,.17-1.38,3.38,3.38,0,0,1,.51-1.08,2.18,2.18,0,0,1,.82-.69,2.33,2.33,0,0,1,1.11-.25,2.13,2.13,0,0,1,.9.19,2.16,2.16,0,0,1,.7.54v-3.4h1.79V34h-1.61l-.08-.7a2.39,2.39,0,0,1-.74.61,2.15,2.15,0,0,1-1,.22,2.28,2.28,0,0,1-1.09-.26,2.31,2.31,0,0,1-.82-.7,3.43,3.43,0,0,1-.51-1.07,5.2,5.2,0,0,1-.17-1.35Zm1.78.13a4.51,4.51,0,0,0,.06.76,2.09,2.09,0,0,0,.22.61,1.08,1.08,0,0,0,.4.42,1.1,1.1,0,0,0,.59.15,1.33,1.33,0,0,0,.72-.19A1.16,1.16,0,0,0,153,32V29.34a1.16,1.16,0,0,0-.44-.51,1.31,1.31,0,0,0-.71-.18,1.16,1.16,0,0,0-.6.15,1.18,1.18,0,0,0-.39.41,2,2,0,0,0-.22.63,3.64,3.64,0,0,0-.07.76Z" class="cls-9"/><path d="M160,34a1.87,1.87,0,0,1-.17-.59,2.38,2.38,0,0,1-.68.51,2.2,2.2,0,0,1-1,.21,2.66,2.66,0,0,1-.9-.15,2.3,2.3,0,0,1-.72-.41,2.11,2.11,0,0,1-.48-.63,2,2,0,0,1-.17-.81,2.12,2.12,0,0,1,.2-.93,1.74,1.74,0,0,1,.58-.69,3,3,0,0,1,1-.43,5.35,5.35,0,0,1,1.34-.14h.79v-.39a1.12,1.12,0,0,0-.23-.73.92.92,0,0,0-.75-.28,1.09,1.09,0,0,0-.71.21.74.74,0,0,0-.25.59H156a1.76,1.76,0,0,1,.2-.81,1.94,1.94,0,0,1,.57-.68,2.77,2.77,0,0,1,.89-.46,3.89,3.89,0,0,1,1.17-.17,3.64,3.64,0,0,1,1.07.15,2.37,2.37,0,0,1,.85.44,2,2,0,0,1,.56.73,2.52,2.52,0,0,1,.2,1v2.81a4,4,0,0,0,0,.51c0,.15,0,.29,0,.41s0,.23.08.33l.12.27V34Zm-1.47-1.23a1.44,1.44,0,0,0,.43-.06,1.73,1.73,0,0,0,.34-.14,1,1,0,0,0,.27-.21.94.94,0,0,0,.18-.24V31H159a2.22,2.22,0,0,0-.61.07,1.19,1.19,0,0,0-.42.22.85.85,0,0,0-.25.32,1.15,1.15,0,0,0-.08.41.73.73,0,0,0,.23.55A.94.94,0,0,0,158.52,32.75Z" class="cls-9"/><path d="M46.86,20.68a1.7,1.7,0,0,1,.51-1.27,1.93,1.93,0,0,1,1.4-.49,2.18,2.18,0,0,1,.79.13,1.62,1.62,0,0,1,.61.36,1.79,1.79,0,0,1,.38.56,1.87,1.87,0,0,1,.14.71,1.8,1.8,0,0,1-.14.71,1.73,1.73,0,0,1-.38.57,1.76,1.76,0,0,1-.61.36,2.18,2.18,0,0,1-.79.13,2.22,2.22,0,0,1-.79-.13,1.63,1.63,0,0,1-.6-.36,1.61,1.61,0,0,1-.39-.57A1.8,1.8,0,0,1,46.86,20.68Zm3.63,16.11H47.06V24h3.43Z" class="cls-9"/><path d="M56.51,24l.1,1.43a4.53,4.53,0,0,1,1.56-1.22,4.76,4.76,0,0,1,2.12-.45,4.25,4.25,0,0,1,2,.47,3,3,0,0,1,1.37,1.49,4.54,4.54,0,0,1,1.58-1.44,4.71,4.71,0,0,1,2.26-.52,5.32,5.32,0,0,1,1.7.26,3.25,3.25,0,0,1,1.3.84,3.85,3.85,0,0,1,.83,1.51,7.86,7.86,0,0,1,.29,2.28v8.15H68.22V28.64a3.37,3.37,0,0,0-.14-1.05,1.48,1.48,0,0,0-.38-.65,1.45,1.45,0,0,0-.6-.32,3.35,3.35,0,0,0-.81-.09,2.16,2.16,0,0,0-1.32.4A2.37,2.37,0,0,0,64.16,28a.62.62,0,0,0,0,.13v8.66H60.76V28.66a3.85,3.85,0,0,0-.13-1.05,1.58,1.58,0,0,0-.38-.65,1.34,1.34,0,0,0-.61-.33,3.32,3.32,0,0,0-.81-.1,2.43,2.43,0,0,0-1.28.32,2.37,2.37,0,0,0-.83.89v9.05H53.3V24Z" class="cls-9"/><path d="M85.8,30.51a9.72,9.72,0,0,1-.33,2.59,6.11,6.11,0,0,1-1,2.06A4.61,4.61,0,0,1,83,36.53a4.51,4.51,0,0,1-2.14.5A4.17,4.17,0,0,1,79,36.67a3.87,3.87,0,0,1-1.34-1v6H74.28V24h3.17l.12,1.25a4.24,4.24,0,0,1,1.37-1.1,4.19,4.19,0,0,1,1.87-.39,4.76,4.76,0,0,1,2.15.47,4.24,4.24,0,0,1,1.56,1.33,6,6,0,0,1,1,2.05,10.09,10.09,0,0,1,.33,2.66Zm-3.42-.25a7.49,7.49,0,0,0-.14-1.47,3.72,3.72,0,0,0-.43-1.19,2.19,2.19,0,0,0-.76-.78,2.14,2.14,0,0,0-1.14-.29,2.71,2.71,0,0,0-1.38.32,2,2,0,0,0-.83.91V33a2.18,2.18,0,0,0,.83.92,2.57,2.57,0,0,0,1.4.34A2.14,2.14,0,0,0,81.07,34a2.23,2.23,0,0,0,.76-.82,4,4,0,0,0,.42-1.2,7.45,7.45,0,0,0,.13-1.45Z" class="cls-9"/><path d="M95.33,36.79A4,4,0,0,1,95,35.64a4.25,4.25,0,0,1-1.31,1,4.13,4.13,0,0,1-1.92.41A5.09,5.09,0,0,1,90,36.74,4.26,4.26,0,0,1,88.66,36a3.55,3.55,0,0,1-1.25-2.76,4,4,0,0,1,.37-1.78,3.55,3.55,0,0,1,1.12-1.33,5.44,5.44,0,0,1,1.85-.83A10.87,10.87,0,0,1,93.32,29h1.53v-.73a2.07,2.07,0,0,0-.46-1.42A1.76,1.76,0,0,0,93,26.29a2,2,0,0,0-1.36.41,1.4,1.4,0,0,0-.49,1.14H87.69a3.36,3.36,0,0,1,.39-1.58A4,4,0,0,1,89.17,25a5.57,5.57,0,0,1,1.72-.88,7.62,7.62,0,0,1,4.3,0,4.66,4.66,0,0,1,1.63.84,4,4,0,0,1,1.08,1.41,4.84,4.84,0,0,1,.38,2v5.42a9.75,9.75,0,0,0,0,1q0,.42.09.78a4.34,4.34,0,0,0,.15.62,4.23,4.23,0,0,0,.23.53v.2Zm-2.82-2.38a3,3,0,0,0,.81-.1A3.14,3.14,0,0,0,94,34a2.91,2.91,0,0,0,.51-.4,2.08,2.08,0,0,0,.35-.46V31H93.44a4.06,4.06,0,0,0-1.17.15,2.34,2.34,0,0,0-.82.41,1.68,1.68,0,0,0-.47.63,2,2,0,0,0-.15.79,1.38,1.38,0,0,0,.45,1A1.77,1.77,0,0,0,92.51,34.41Z" class="cls-9"/><path d="M106.23,34.27a2.39,2.39,0,0,0,.86-.14,2,2,0,0,0,.68-.38,1.76,1.76,0,0,0,.44-.6,1.94,1.94,0,0,0,.17-.78h3.21a4.35,4.35,0,0,1-.43,1.87A4.53,4.53,0,0,1,110,35.72a5,5,0,0,1-1.68,1,6.08,6.08,0,0,1-2.07.35,6.15,6.15,0,0,1-2.6-.51,5,5,0,0,1-1.85-1.37,5.74,5.74,0,0,1-1.1-2,8.66,8.66,0,0,1-.37-2.54v-.33a8.73,8.73,0,0,1,.37-2.55,5.7,5.7,0,0,1,1.1-2.05,5,5,0,0,1,1.84-1.38,6.14,6.14,0,0,1,2.59-.51,6.42,6.42,0,0,1,2.15.35,5,5,0,0,1,1.68,1,4.65,4.65,0,0,1,1.09,1.58,5.51,5.51,0,0,1,.4,2.08h-3.21a2.74,2.74,0,0,0-.16-.87,2.19,2.19,0,0,0-.42-.71,2,2,0,0,0-.67-.48,2.25,2.25,0,0,0-.92-.18,2,2,0,0,0-2,1.13,3.6,3.6,0,0,0-.36,1.19,9.14,9.14,0,0,0-.1,1.4v.33a9.18,9.18,0,0,0,.1,1.41,3.48,3.48,0,0,0,.36,1.18A2.07,2.07,0,0,0,105,34,2.28,2.28,0,0,0,106.23,34.27Z" class="cls-9"/><path d="M117.63,20.84V24h2.19V26.5h-2.19v6.39a2.06,2.06,0,0,0,.09.66A.88.88,0,0,0,118,34a.93.93,0,0,0,.41.2,3.21,3.21,0,0,0,.58.05l.56,0,.44-.06v2.59a7.08,7.08,0,0,1-.93.22,6.43,6.43,0,0,1-1.14.09,5.06,5.06,0,0,1-1.51-.21,3,3,0,0,1-1.16-.66,3,3,0,0,1-.74-1.17,5.23,5.23,0,0,1-.26-1.74V26.5h-1.86V24h1.86V20.84Z" class="cls-9"/><path d="M10.22,47A10.23,10.23,0,0,1,8.28,26.75c.32-.06.65-.11,1-.14s.65-.05,1-.05A10.25,10.25,0,0,1,20.45,36.79c0,.31,0,.64,0,1s-.08.66-.14,1A10.25,10.25,0,0,1,10.22,47Zm0-17.9a6.34,6.34,0,0,0-.74,0,5.43,5.43,0,0,0-.72.1,7.67,7.67,0,1,0,9,9c0-.24.08-.48.1-.72s0-.5,0-.74A7.69,7.69,0,0,0,10.23,29.12Z" class="cls-9"/></g></g></svg>