<?xml version="1.0" encoding="utf-8"?>
<!-- Generator: Adobe Illustrator 23.0.4, SVG Export Plug-In . SVG Version: 6.00 Build 0)  -->
<svg version="1.1" id="Layer_1" xmlns="http://www.w3.org/2000/svg" xmlns:xlink="http://www.w3.org/1999/xlink" x="0px" y="0px"
	 viewBox="0 0 319.4 71.7" style="enable-background:new 0 0 319.4 71.7;" xml:space="preserve">
<style type="text/css">
	.st0{clip-path:url(#SVGID_2_);}
	.st1{fill:url(#SVGID_3_);}
	.st2{fill:#E25456;}
	.st3{fill:#FFFFFF;}
</style>
<title>logo-header</title>
<g>
	<g id="extras">
		<g>
			<defs>
				<path id="SVGID_1_" d="M72.3,39.1H57.4c-3.9-11.3-12.8-20.3-24.1-24.1V0C44,0,53.8,4.4,60.9,11.4C68,18.5,72.3,28.3,72.3,39.1z
					 M33.2,18.5c-3.9-1.5-8.1-2.3-12.6-2.3v35.4h35.4c0-4.4-0.8-8.7-2.3-12.6C50.2,29.6,42.7,22.1,33.2,18.5z"/>
			</defs>
			<clipPath id="SVGID_2_">
				<use xlink:href="#SVGID_1_"  style="overflow:visible;"/>
			</clipPath>
			<g class="st0">
				<linearGradient id="SVGID_3_" gradientUnits="userSpaceOnUse" x1="44.4168" y1="51.9713" x2="44.4168" y2="-2.8329">
					<stop  offset="0" style="stop-color:#6F2981"/>
					<stop  offset="0.1733" style="stop-color:#3D5DA9"/>
					<stop  offset="0.3682" style="stop-color:#0C8140"/>
					<stop  offset="0.5593" style="stop-color:#FAEB0B"/>
					<stop  offset="0.7471" style="stop-color:#F58B1E"/>
					<stop  offset="1" style="stop-color:#E01F26"/>
				</linearGradient>
				<rect x="6.3" y="-2.8" class="st1" width="76.2" height="54.8"/>
			</g>
		</g>
		<path class="st2" d="M246.1,43.3c0.3,0,0.6,0,0.9-0.1c0.3-0.1,0.5-0.2,0.7-0.4c0.2-0.2,0.3-0.4,0.4-0.6c0.1-0.3,0.2-0.5,0.2-0.8
			h3.3c0,0.7-0.2,1.3-0.4,1.9c-0.3,0.6-0.7,1.1-1.2,1.5c-0.5,0.4-1.1,0.8-1.7,1c-0.7,0.2-1.4,0.4-2.1,0.4c-0.9,0-1.8-0.2-2.7-0.5
			c-0.7-0.3-1.4-0.8-1.9-1.4c-0.5-0.6-0.9-1.3-1.1-2.1c-0.3-0.8-0.4-1.7-0.4-2.6v-0.3c0-0.9,0.1-1.8,0.4-2.6
			c0.2-0.8,0.6-1.5,1.1-2.1c0.5-0.6,1.2-1.1,1.9-1.4c0.8-0.4,1.7-0.5,2.6-0.5c0.8,0,1.5,0.1,2.2,0.4c0.6,0.2,1.2,0.6,1.7,1
			c0.5,0.5,0.9,1,1.1,1.6c0.3,0.7,0.4,1.4,0.4,2.1h-3.3c0-0.3-0.1-0.6-0.2-0.9c-0.1-0.3-0.2-0.5-0.4-0.7c-0.2-0.2-0.4-0.4-0.7-0.5
			c-0.3-0.1-0.6-0.2-0.9-0.2c-0.8-0.1-1.6,0.4-2,1.2c-0.2,0.4-0.3,0.8-0.4,1.2c-0.1,0.5-0.1,1-0.1,1.4v0.3c0,0.5,0,1,0.1,1.5
			c0.1,0.4,0.2,0.8,0.4,1.2c0.2,0.3,0.4,0.6,0.8,0.8C245.2,43.2,245.7,43.4,246.1,43.3z"/>
		<path class="st2" d="M261.2,45.9c-0.2-0.4-0.3-0.8-0.4-1.2c-0.4,0.4-0.8,0.8-1.3,1c-0.6,0.3-1.3,0.4-2,0.4c-0.6,0-1.2-0.1-1.8-0.3
			c-0.5-0.2-1-0.5-1.4-0.8c-0.4-0.3-0.7-0.8-0.9-1.2c-0.2-0.5-0.3-1-0.3-1.6c0-0.6,0.1-1.3,0.4-1.8c0.3-0.6,0.7-1,1.2-1.4
			c0.6-0.4,1.2-0.7,1.9-0.9c0.9-0.2,1.8-0.3,2.6-0.3h1.6v-0.8c0-0.5-0.1-1-0.5-1.5c-0.4-0.4-0.9-0.6-1.5-0.5c-0.5,0-1,0.1-1.4,0.4
			c-0.3,0.3-0.5,0.7-0.5,1.2h-3.5c0-0.6,0.1-1.1,0.4-1.6c0.3-0.5,0.7-1,1.1-1.3c0.5-0.4,1.1-0.7,1.8-0.9c0.7-0.2,1.5-0.3,2.3-0.3
			c0.7,0,1.4,0.1,2.1,0.3c0.6,0.2,1.2,0.5,1.7,0.9c0.5,0.4,0.8,0.9,1.1,1.5c0.3,0.6,0.4,1.3,0.4,2v5.6c0,0.4,0,0.7,0,1
			s0,0.6,0.1,0.8c0,0.2,0.1,0.4,0.2,0.7c0.1,0.2,0.1,0.4,0.2,0.5v0.2L261.2,45.9z M258.3,43.5c0.3,0,0.6,0,0.8-0.1
			c0.2-0.1,0.5-0.2,0.7-0.3c0.2-0.1,0.4-0.3,0.5-0.4c0.1-0.1,0.3-0.3,0.4-0.5V40h-1.5c-0.4,0-0.8,0-1.2,0.2
			c-0.3,0.1-0.6,0.2-0.8,0.4c-0.2,0.2-0.4,0.4-0.5,0.7c-0.1,0.3-0.2,0.5-0.2,0.8c0,0.4,0.2,0.8,0.5,1.1
			C257.4,43.4,257.9,43.5,258.3,43.5L258.3,43.5z"/>
		<path class="st2" d="M270.2,32.8l0.1,1.5c0.4-0.6,1-1,1.6-1.3c0.7-0.3,1.4-0.5,2.1-0.5c0.6,0,1.2,0.1,1.7,0.3
			c0.5,0.2,1,0.5,1.3,0.8c0.4,0.4,0.7,1,0.8,1.6c0.2,0.8,0.3,1.6,0.3,2.3v8.4h-3.5v-8.4c0-0.3,0-0.7-0.1-1c-0.1-0.3-0.2-0.5-0.4-0.7
			c-0.2-0.2-0.4-0.3-0.7-0.3c-0.3-0.1-0.6-0.1-0.9-0.1c-0.5,0-0.9,0.1-1.3,0.3c-0.4,0.2-0.7,0.5-0.9,0.9V46h-3.5V32.8H270.2z"/>
		<path class="st2" d="M288.5,45.9c-0.2-0.4-0.3-0.8-0.4-1.2c-0.4,0.4-0.8,0.8-1.3,1c-0.6,0.3-1.3,0.4-2,0.4c-0.6,0-1.2-0.1-1.8-0.3
			c-0.5-0.2-1-0.5-1.4-0.8c-0.4-0.3-0.7-0.8-0.9-1.2c-0.2-0.5-0.3-1-0.3-1.6c0-0.6,0.1-1.3,0.4-1.8c0.3-0.6,0.7-1,1.2-1.4
			c0.6-0.4,1.2-0.7,1.9-0.9c0.9-0.2,1.8-0.3,2.6-0.3h1.6v-0.8c0-0.5-0.1-1-0.5-1.5c-0.4-0.4-0.9-0.6-1.5-0.5c-0.5,0-1,0.1-1.4,0.4
			c-0.3,0.3-0.5,0.7-0.5,1.2h-3.5c0-0.6,0.1-1.1,0.4-1.6c0.3-0.5,0.7-1,1.1-1.3c0.5-0.4,1.1-0.7,1.8-0.9c0.7-0.2,1.5-0.3,2.3-0.3
			c0.7,0,1.4,0.1,2.1,0.3c0.6,0.2,1.2,0.5,1.7,0.9c0.5,0.4,0.8,0.9,1.1,1.5c0.3,0.6,0.4,1.3,0.4,2v5.6c0,0.4,0,0.7,0,1
			s0.1,0.6,0.1,0.8c0,0.2,0.1,0.4,0.2,0.7c0.1,0.2,0.1,0.4,0.2,0.5v0.2L288.5,45.9z M285.6,43.5c0.3,0,0.6,0,0.8-0.1
			c0.2-0.1,0.5-0.2,0.7-0.3c0.2-0.1,0.4-0.3,0.5-0.4c0.1-0.1,0.3-0.3,0.4-0.5V40h-1.4c-0.4,0-0.8,0-1.2,0.2
			c-0.3,0.1-0.6,0.2-0.8,0.4c-0.2,0.2-0.4,0.4-0.5,0.7c-0.1,0.3-0.2,0.5-0.2,0.8c0,0.4,0.2,0.8,0.5,1.1
			C284.7,43.4,285.2,43.5,285.6,43.5L285.6,43.5z"/>
		<path class="st2" d="M293.7,39.2c0-0.9,0.1-1.8,0.3-2.7c0.2-0.8,0.5-1.5,1-2.1c0.4-0.6,1-1.1,1.6-1.4c0.7-0.3,1.4-0.5,2.2-0.5
			c0.6,0,1.2,0.1,1.8,0.4c0.5,0.3,1,0.6,1.4,1.1v-6.7h3.5v18.7h-3.2l-0.2-1.4c-0.4,0.5-0.9,0.9-1.4,1.2c-0.6,0.3-1.3,0.4-1.9,0.4
			c-0.8,0-1.5-0.2-2.2-0.5c-0.6-0.3-1.2-0.8-1.6-1.4c-0.5-0.6-0.8-1.4-1-2.1c-0.2-0.9-0.3-1.8-0.3-2.7L293.7,39.2z M297.2,39.5
			c0,0.5,0,1,0.1,1.5c0.1,0.4,0.2,0.8,0.4,1.2c0.2,0.3,0.5,0.6,0.8,0.8c0.4,0.2,0.8,0.3,1.2,0.3c0.5,0,1-0.1,1.4-0.4
			c0.4-0.2,0.7-0.6,0.9-1v-5.2c-0.2-0.4-0.5-0.8-0.9-1c-0.4-0.3-0.9-0.4-1.4-0.4c-0.8-0.1-1.6,0.4-2,1.1c-0.2,0.4-0.4,0.8-0.4,1.2
			c-0.1,0.5-0.1,1-0.1,1.5L297.2,39.5z"/>
		<path class="st2" d="M315.9,45.9c-0.2-0.4-0.3-0.8-0.4-1.2c-0.4,0.4-0.8,0.8-1.3,1c-0.6,0.3-1.3,0.4-2,0.4c-0.6,0-1.2-0.1-1.8-0.3
			c-0.5-0.2-1-0.5-1.4-0.8c-0.4-0.3-0.7-0.8-1-1.2c-0.2-0.5-0.3-1-0.3-1.6c0-0.6,0.1-1.3,0.4-1.8c0.3-0.6,0.7-1,1.2-1.4
			c0.6-0.4,1.2-0.7,1.9-0.9c0.9-0.2,1.8-0.3,2.6-0.3h1.6v-0.8c0-0.5-0.1-1-0.5-1.5c-0.4-0.4-0.9-0.6-1.5-0.5c-0.5,0-1,0.1-1.4,0.4
			c-0.3,0.3-0.5,0.7-0.5,1.2H308c0-0.6,0.1-1.1,0.4-1.6c0.3-0.5,0.7-1,1.1-1.3c0.5-0.4,1.1-0.7,1.8-0.9c0.7-0.2,1.5-0.3,2.3-0.3
			c0.7,0,1.4,0.1,2.1,0.3c0.6,0.2,1.2,0.5,1.7,0.9c0.5,0.4,0.8,0.9,1.1,1.5c0.3,0.6,0.4,1.3,0.4,2v5.6c0,0.4,0,0.7,0,1
			s0,0.6,0.1,0.8c0,0.2,0.1,0.4,0.2,0.7c0.1,0.2,0.1,0.4,0.2,0.5v0.2L315.9,45.9z M313,43.5c0.3,0,0.6,0,0.8-0.1
			c0.2-0.1,0.5-0.2,0.7-0.3c0.2-0.1,0.4-0.3,0.5-0.4c0.1-0.1,0.3-0.3,0.4-0.5V40H314c-0.4,0-0.8,0-1.2,0.2c-0.3,0.1-0.6,0.2-0.8,0.4
			c-0.2,0.2-0.4,0.4-0.5,0.7c-0.1,0.3-0.2,0.5-0.1,0.8c0,0.4,0.2,0.8,0.5,1.1C312.1,43.4,312.5,43.5,313,43.5z"/>
		<path class="st3" d="M92.5,19.7c0-0.9,0.3-1.8,1-2.5c0.8-0.7,1.7-1.1,2.8-1c0.5,0,1.1,0.1,1.6,0.2c0.4,0.2,0.9,0.4,1.2,0.7
			c0.3,0.3,0.6,0.7,0.8,1.1c0.2,0.4,0.3,0.9,0.3,1.4c0,0.5-0.1,1-0.3,1.4c-0.2,0.4-0.4,0.8-0.8,1.1c-0.3,0.3-0.8,0.6-1.2,0.7
			c-0.5,0.2-1,0.3-1.6,0.3c-0.5,0-1.1-0.1-1.6-0.3c-0.4-0.2-0.8-0.4-1.2-0.7c-0.3-0.3-0.6-0.7-0.8-1.1
			C92.6,20.6,92.5,20.1,92.5,19.7z M99.7,51.5h-6.8V26.2h6.8V51.5z"/>
		<path class="st3" d="M111.6,26.2l0.2,2.8c0.8-1,1.9-1.8,3.1-2.4c1.3-0.6,2.7-0.9,4.2-0.9c1.4,0,2.8,0.3,4,0.9
			c1.2,0.7,2.2,1.7,2.7,2.9c0.8-1.2,1.9-2.1,3.1-2.8c1.4-0.7,2.9-1.1,4.5-1c1.1,0,2.3,0.2,3.4,0.5c1,0.3,1.9,0.9,2.6,1.7
			c0.8,0.9,1.3,1.9,1.6,3c0.4,1.5,0.6,3,0.6,4.5v16.1h-6.8V35.4c0-0.7-0.1-1.4-0.3-2.1c-0.1-0.5-0.4-0.9-0.8-1.3
			c-0.3-0.3-0.7-0.5-1.2-0.6c-0.5-0.1-1.1-0.2-1.6-0.2c-0.9,0-1.9,0.2-2.6,0.8c-0.7,0.5-1.3,1.3-1.6,2.1c0,0.1,0,0.2,0,0.3
			c0,0.1,0,0.2,0,0.3v16.8H120v-16c0-0.7-0.1-1.4-0.3-2.1c-0.1-0.5-0.4-0.9-0.8-1.3c-0.3-0.3-0.7-0.5-1.2-0.7
			c-0.5-0.1-1.1-0.2-1.6-0.2c-0.9,0-1.8,0.2-2.5,0.6c-0.7,0.4-1.3,1-1.7,1.7v17.9h-6.8V26.2H111.6z"/>
		<path class="st3" d="M169.4,39.1c0,1.7-0.2,3.4-0.6,5.1c-0.4,1.5-1,2.8-1.9,4.1c-0.8,1.1-1.8,2.1-3.1,2.8c-1.3,0.7-2.8,1-4.2,1
			c-1.2,0-2.4-0.2-3.5-0.7c-1-0.5-1.9-1.2-2.6-2v11.9h-6.8v-35h6.3l0.2,2.5c1.5-1.9,3.9-3,6.4-2.9c1.5,0,2.9,0.3,4.2,0.9
			c1.2,0.6,2.3,1.5,3.1,2.6c0.9,1.2,1.5,2.6,1.9,4.1c0.4,1.7,0.7,3.5,0.6,5.2L169.4,39.1z M162.6,38.6c0-1-0.1-1.9-0.3-2.9
			c-0.1-0.8-0.4-1.6-0.9-2.3c-0.4-0.6-0.9-1.2-1.5-1.5c-0.7-0.4-1.5-0.6-2.2-0.6c-0.9,0-1.9,0.2-2.7,0.6c-0.7,0.4-1.3,1.1-1.6,1.8
			V44c0.4,0.7,0.9,1.4,1.6,1.8c0.8,0.5,1.8,0.7,2.8,0.7c0.8,0,1.6-0.2,2.2-0.6c0.6-0.4,1.1-0.9,1.5-1.6c0.4-0.7,0.7-1.5,0.8-2.4
			c0.2-1,0.3-1.9,0.2-2.9L162.6,38.6z"/>
		<path class="st3" d="M188.2,51.5c-0.3-0.7-0.6-1.5-0.7-2.3c-0.7,0.8-1.6,1.5-2.5,1.9c-1.2,0.6-2.5,0.8-3.8,0.8
			c-1.2,0-2.3-0.2-3.4-0.6c-1-0.3-2-0.9-2.8-1.6c-0.8-0.7-1.4-1.5-1.8-2.4c-0.4-0.9-0.7-2-0.6-3c0-1.2,0.2-2.4,0.7-3.5
			c0.5-1,1.3-1.9,2.2-2.6c1.1-0.8,2.3-1.3,3.7-1.6c1.7-0.4,3.4-0.6,5.1-0.6h3v-1.5c0.1-1-0.3-2-0.9-2.8c-0.7-0.8-1.8-1.1-2.8-1
			c-1-0.1-1.9,0.2-2.7,0.8c-0.7,0.6-1,1.4-1,2.2h-6.8c0-1.1,0.3-2.2,0.8-3.1c0.5-1,1.3-1.9,2.2-2.6c1-0.8,2.2-1.4,3.4-1.7
			c2.8-0.8,5.7-0.9,8.5-0.1c1.2,0.3,2.3,0.9,3.3,1.7c0.9,0.8,1.6,1.7,2.1,2.8c0.5,1.2,0.8,2.6,0.8,3.9v10.6c0,0.7,0,1.4,0.1,1.9
			s0.1,1.1,0.2,1.5c0.1,0.4,0.2,0.8,0.3,1.2c0.1,0.3,0.3,0.7,0.4,1v0.4L188.2,51.5z M182.6,46.8c0.5,0,1.1-0.1,1.6-0.2
			c0.5-0.1,0.9-0.3,1.3-0.5c0.4-0.2,0.7-0.5,1-0.8c0.3-0.3,0.5-0.6,0.7-0.9V40h-2.8c-0.8,0-1.6,0.1-2.3,0.3
			c-0.6,0.2-1.1,0.4-1.6,0.8c-0.4,0.3-0.7,0.8-0.9,1.2c-0.2,0.5-0.3,1-0.3,1.6c0,0.8,0.3,1.5,0.9,2.1
			C180.9,46.5,181.7,46.8,182.6,46.8z"/>
		<path class="st3" d="M209.7,46.5c0.6,0,1.2-0.1,1.7-0.3c0.5-0.2,0.9-0.4,1.3-0.8c0.4-0.3,0.7-0.7,0.9-1.2c0.2-0.5,0.3-1,0.3-1.5
			h6.3c0,1.3-0.3,2.5-0.8,3.7c-0.5,1.1-1.3,2.1-2.2,2.9c-1,0.8-2.1,1.5-3.3,1.9c-1.3,0.5-2.7,0.7-4.1,0.7c-1.8,0-3.5-0.3-5.1-1
			c-1.4-0.6-2.7-1.5-3.6-2.7c-1-1.2-1.7-2.5-2.2-4c-0.5-1.6-0.7-3.3-0.7-5v-0.7c0-1.7,0.2-3.4,0.7-5c0.4-1.5,1.2-2.9,2.2-4.1
			c1-1.2,2.2-2.1,3.6-2.7c1.6-0.7,3.4-1,5.1-1c1.4,0,2.9,0.2,4.3,0.7c1.2,0.4,2.3,1.1,3.3,2c0.9,0.9,1.7,1.9,2.1,3.1
			c0.5,1.3,0.8,2.7,0.8,4.1H214c0-0.6-0.1-1.2-0.3-1.7c-0.2-0.5-0.5-1-0.8-1.4c-0.4-0.4-0.8-0.8-1.3-1c-0.6-0.2-1.2-0.4-1.8-0.4
			c-1.6-0.1-3.2,0.8-3.9,2.2c-0.4,0.7-0.6,1.5-0.7,2.3c-0.1,0.9-0.2,1.8-0.2,2.8v0.7c0,0.9,0,1.9,0.2,2.8c0.1,0.8,0.3,1.6,0.7,2.3
			c0.3,0.7,0.8,1.2,1.5,1.6C208,46.3,208.9,46.5,209.7,46.5z"/>
		<path class="st3" d="M232.2,20v6.2h4.3v5h-4.3v12.6c0,0.4,0,0.9,0.2,1.3c0.1,0.3,0.3,0.6,0.5,0.8c0.2,0.2,0.5,0.3,0.8,0.4
			c0.4,0.1,0.8,0.1,1.1,0.1c0.4,0,0.8,0,1.1,0c0.3,0,0.6-0.1,0.9-0.1v5.1c-0.6,0.2-1.2,0.3-1.8,0.4c-0.7,0.1-1.5,0.2-2.3,0.2
			c-1,0-2-0.1-3-0.4c-1.8-0.5-3.2-1.9-3.7-3.6c-0.4-1.1-0.5-2.3-0.5-3.4V31.1h-3.7v-4.9h3.7V20H232.2z"/>
		<path class="st3" d="M20.2,71.7C9,71.6,0,62.5,0.1,51.4c0-9.6,6.9-17.9,16.3-19.7c0.6-0.1,1.3-0.2,1.9-0.3
			c0.7-0.1,1.3-0.1,1.9-0.1c11.1,0,20.2,9,20.2,20.2c0,0.6,0,1.3-0.1,1.9c-0.1,0.6-0.2,1.3-0.3,1.9C38.1,64.8,29.8,71.6,20.2,71.7z
			 M20.2,36.3c-0.5,0-0.9,0-1.5,0.1c-0.5,0-0.9,0.1-1.4,0.2c-8.2,1.6-13.6,9.5-12,17.8s9.5,13.6,17.8,12c6.1-1.2,10.8-5.9,12-12
			c0.1-0.5,0.2-0.9,0.2-1.4c0-0.5,0.1-1,0.1-1.5C35.3,43.1,28.5,36.3,20.2,36.3L20.2,36.3z"/>
	</g>
</g>
</svg>
